M48
;Layer_Color=9474304
;FILE_FORMAT=4:4
METRIC,LZ
;TYPE=PLATED
T1F00S00C0.2000
T2F00S00C1.0000
T3F00S00C1.0160
%
T01
X000175Y000075
X000175Y0002
X00026Y00023
X000075Y000225
X00011Y00034
X0001175Y00041118
X000075Y00045
X00009Y00054
X0001Y00062
X000075Y0007
X00021Y00079
X00016Y00089
Y00098
X000075Y00095
Y0012
X00038Y00118
X0003825Y0011175
X00038Y001315
X00047Y00133
Y00127
X00057Y00099
Y00093
X00063Y00102
X00078754Y00098755
X0008Y00092
X00087Y00081
X00088Y00067
X00087Y00058
X00078754Y00046252
X00068Y00046
X00050563Y0004175
X00051Y00035
X00086Y00036
X00085Y000075
X0011
X00135
X0006
X00035
X000935Y00114
X00138Y00095
X00148
X001565Y000825
X00145Y00055
X0016Y000075
X00185
X00195Y00017
X002145Y000185
X0021Y000075
X00235
X00237Y0002
X00233Y00044
X00225Y00056
X00216Y00053
X00206Y00061
X00248Y00069
X002625Y0007
Y0005
Y00016
X0026Y000075
X002625Y00095
Y0012
X00254Y00142
X00245Y00138
X00218Y0014
X00195Y00132
X001875Y00134417
X001875Y001215
X00174Y00121
X00207Y00112
X002425Y001065
X002625Y00145
X002625Y0016275
X00256Y00166
X00249Y00161
X00253Y00155
X002625Y001805
X002625Y0019325
X00231Y00191
X00223Y00177
X00231Y00218
Y002265
Y00241
X00212Y00256
X00206Y00273
X00198Y0027225
X00204Y0028
X00214Y00292
X00211625Y00313
X00208Y00342
X00208Y0036
Y00392
Y00402
X00205Y004125
X00218Y00406
X00225Y00415
X00232Y00429
X002275Y00435
Y00455
X00233Y00459
X00232Y0047
X002275Y00475
X00239Y00485
X00244
X00251Y004825
X002625Y00495
Y0047
Y00445
X00257Y00431
X002625Y0042
X00259Y00408
X002625Y00395
Y0037
X00261Y00363
X0026Y00353
X00261Y00325
X00263Y00275
X002625Y002365
X0026Y00229
X00215Y00218
X00195Y00216
X00182Y00222
X001745Y00211
X00173Y00194
X00168Y00184
X00166Y00177
X00159Y00179
X00149Y00177
X00143Y00179
X00148Y00211
X00148418Y00222582
X0014925Y0023725
X00157Y00249
X00156Y00256999
X00162Y00264
X00174Y00272
Y00282
X00174Y00292
Y0031125
X001585Y003105
X00151Y00311
X00145Y00308
X001435Y003465
X00157Y00356
X00164375Y00358
X0017025Y0036075
X00182Y00375
X00185Y004125
X00165
X00158Y00403
X00145Y004125
Y004975
X00165
X00185
X00205
X00225Y00495
X00217Y0052
X0019Y00535
X00256Y00528
X002625Y0052
X00164621Y00331
X00167Y00246
X00175Y00238
X00188Y00148
X0013Y00146
X00103Y00147
X00095Y00146
X00075Y00148
X00063Y00146
X00041Y00144
X000075Y00145
Y0017
Y00195
X0001325Y0020425
X000075Y0022
X00011Y00235
X000075Y00245
Y0027
X00014Y00265
X00037Y0027
Y00281
X0004225Y002885
X00042Y00296999
X00041Y00304
Y00312
X00042Y00318
X0004Y00326
Y00335
X0005Y00336
X00054875Y00342875
X00045Y00347
X0005Y00353
X00055Y0036
X0006Y00366
X0004Y00373
X00047Y00381
X00049Y00403
X000545Y0040575
X0006Y00409
X00065Y004125
X00085
X00105
X00125
X0013Y00405
X00134Y00395
X00125
X00108Y0038
X000995Y003685
X00101Y00351
X00107Y00352
X00108Y00343
X0012Y00346
X00127
X00137
X001385Y003295
X00119Y00328
X00116Y0031
X00139Y00308
X0014025Y0029975
X00089Y0032
X000785Y003205
X000695
X00072Y00328
Y00335
X00047Y00324
X000075Y0032
Y00295
Y00345
Y0037
Y00395
Y0042
X000095Y00436
X00017Y00435
X0001825Y0042825
X000335
X00026Y0042
X00022Y00413
X00045Y00415
X000425Y00435
X00040188Y00443812
X000425Y00455
Y00475
X00045Y00495
X00065Y004975
X00085
X00105
X00125
X00112Y00514
X00102Y00538
X00093
X00064Y00536
X00051Y00532
X0001
X000075Y0052
X00015Y0051
X00025Y00508
X00014875Y00489
X000075Y00495
Y0047
Y00445
X00036Y00397
X000635Y002905
X0007Y0029
X000765Y0029075
X000795Y00285
X00061835Y00269
X00066Y002585
X00061Y002535
Y002435
X00066875Y002455
X00066Y00229
X000635Y0022125
X00064Y00199
X000585Y00203
X00066Y00189
X00069Y0018
X0006Y00172
X00045Y00176
X00044Y00183
X00038Y00186
X00037Y00214
Y00222
X0003675Y00229
X00037Y00258
X00096Y00228
X000935Y0022125
X00114Y00228
X00119Y00223
X00127
X0013Y0023
X0013725Y0019775
X00133Y00181
X0012Y00191
X00109Y00198
X000995Y001975
X001Y0018
X00094Y00181
X0009Y00176
X00095Y00172
X00107Y0018
X00105Y00553
X00110042Y00559625
X00119Y00547
X00135Y00545
Y005925
X0011
X00085
X0006
X00035
X000175
X000175Y0058
X000075Y0057
X00011Y00564
Y0055
X000075Y00545
X00049Y00552
X0006925Y0057425
X0009275Y0056775
X0016Y0056725
Y005925
X00185
X0021
X00235
X0026
X002625Y0057
Y00545
X00165Y00541999
X00151Y00545
T02
X0021331Y000741
Y000995
Y001249
T03
X000859Y00128
X001113
X001367
X001621
M30
