G04*
G04 #@! TF.GenerationSoftware,Altium Limited,Altium Designer,20.2.6 (244)*
G04*
G04 Layer_Color=32896*
%FSLAX44Y44*%
%MOMM*%
G71*
G04*
G04 #@! TF.SameCoordinates,2E3406EB-8CA3-48A4-8E0D-F2ADFDB7BFFD*
G04*
G04*
G04 #@! TF.FilePolarity,Positive*
G04*
G01*
G75*
%ADD10C,0.5000*%
%ADD11C,0.2540*%
%ADD12C,0.2000*%
%ADD13C,0.1000*%
%ADD15C,0.1200*%
%ADD62C,0.6000*%
%ADD104C,0.2500*%
%ADD139C,0.2400*%
%ADD140C,0.1700*%
%ADD141C,0.1150*%
D10*
X158000Y546000D02*
G03*
X158000Y546000I-1000J0D01*
G01*
D11*
X195059Y342500D02*
G03*
X195059Y342500I-559J0D01*
G01*
X194559Y376000D02*
G03*
X194559Y376000I-559J0D01*
G01*
X184059Y409500D02*
G03*
X184059Y409500I-559J0D01*
G01*
X259059Y377500D02*
G03*
X259059Y377500I-559J0D01*
G01*
X211300Y267000D02*
G03*
X211300Y267000I-1300J0D01*
G01*
X225490Y81970D02*
G03*
X225490Y81970I-1270J0D01*
G01*
X58000Y160000D02*
G03*
X58000Y160000I-1000J0D01*
G01*
X200259Y141579D02*
G03*
X200259Y141579I-559J0D01*
G01*
X241500Y512000D02*
X250000D01*
X210000D02*
X218500D01*
X250000D02*
Y535000D01*
X221000Y554000D02*
X239000D01*
X210000Y512000D02*
Y535000D01*
X73200Y115300D02*
X175562D01*
Y140700D01*
X73200D02*
X175562D01*
X73200Y115300D02*
Y140700D01*
D12*
X150000Y353000D02*
X152000D01*
Y355000D01*
X118000Y353000D02*
X120000D01*
X118000D02*
Y355000D01*
Y385000D02*
Y387000D01*
X120000D01*
X150000D02*
X152000D01*
Y385000D02*
Y387000D01*
X109000Y22000D02*
X159000D01*
X109000Y102000D02*
X159000D01*
X109000Y22000D02*
Y102000D01*
X159000Y22000D02*
Y102000D01*
X38500Y375500D02*
X75500D01*
X38500Y324500D02*
X75500D01*
Y375500D01*
X38500Y324500D02*
Y375500D01*
X184000Y270000D02*
X204000D01*
X184000Y246000D02*
X204000D01*
X265500Y259750D02*
X278700D01*
X265500Y340250D02*
X278700D01*
Y259750D02*
Y340250D01*
X33000Y578000D02*
X70000D01*
X33000Y512000D02*
X70000D01*
Y578000D01*
X33000Y512000D02*
Y578000D01*
X110000Y540000D02*
X160000D01*
X110000Y514000D02*
Y540000D01*
Y514000D02*
X160000D01*
Y540000D01*
X22500Y71250D02*
X53500D01*
X22500Y81250D02*
X53500D01*
Y71250D02*
Y81250D01*
X22500Y71250D02*
Y81250D01*
X226760Y59110D02*
Y76890D01*
X257240Y59110D02*
Y76890D01*
X32000Y136000D02*
X52000D01*
X32000Y158000D02*
X52000D01*
X142900Y298750D02*
Y302900D01*
X138750D02*
X142900D01*
X49100D02*
X53250D01*
X49100Y298750D02*
Y302900D01*
Y209100D02*
Y213250D01*
Y209100D02*
X53250D01*
X142900D02*
Y213250D01*
X138750Y209100D02*
X142900D01*
X228750Y191000D02*
Y194000D01*
X221250Y191000D02*
Y194000D01*
X201000Y300000D02*
Y304000D01*
X190000Y314000D02*
X192000D01*
X181000Y300000D02*
Y304000D01*
X190000Y289500D02*
X192000D01*
D13*
X85000Y62500D02*
X88750D01*
X85000Y58750D02*
Y62500D01*
X88000Y59500D01*
Y21000D02*
Y59500D01*
Y21000D02*
X91500Y17500D01*
Y3250D02*
Y17500D01*
X5000Y113000D02*
Y272000D01*
X25000D01*
Y113000D02*
Y272000D01*
X5000Y113000D02*
X25000D01*
X200000Y37000D02*
Y103000D01*
X179000Y37000D02*
X200000D01*
X179000D02*
Y103000D01*
X200000D01*
X257500Y471750D02*
X262500D01*
X257375D02*
X260000Y468250D01*
X262625Y471750D01*
X257250Y468250D02*
X262750D01*
X7500Y471750D02*
X12500D01*
X7375D02*
X10000Y468250D01*
X12625Y471750D01*
X7250Y468250D02*
X12750D01*
X64000Y387000D02*
Y397000D01*
X40000Y387000D02*
Y397000D01*
X197000Y375000D02*
X217000D01*
X197000Y345000D02*
X217000D01*
X76000Y318000D02*
X79000D01*
X76000D02*
Y321000D01*
Y318000D02*
Y321000D01*
Y318000D02*
X80000Y322000D01*
X95000D01*
X197000Y407000D02*
X217000D01*
X197000Y377000D02*
X217000D01*
X161000D02*
X181000D01*
X161000Y407000D02*
X181000D01*
X182000Y341000D02*
Y351000D01*
X158000Y341000D02*
Y351000D01*
X226000Y380000D02*
Y400000D01*
X256000Y380000D02*
Y400000D01*
X69000Y188000D02*
Y198000D01*
X93000Y188000D02*
Y198000D01*
X127000Y179500D02*
X133000D01*
Y178000D02*
Y179500D01*
X107000Y148500D02*
Y150000D01*
Y148500D02*
X113000D01*
X127000D02*
X133000D01*
Y150000D01*
X107000Y178000D02*
Y179500D01*
X113000D01*
X256250Y207500D02*
X263750D01*
X256250Y212500D02*
X263750D01*
X260000Y207500D02*
X263750Y212500D01*
X256250D02*
X260000Y207500D01*
X184760Y178490D02*
X215240D01*
X184760Y211510D02*
X215240D01*
X202200Y144079D02*
X222200D01*
X202200Y174079D02*
X222200D01*
X156000Y150000D02*
X166000D01*
X156000Y174000D02*
X166000D01*
X10000Y8000D02*
G03*
X18000Y0I8000J0D01*
G01*
Y600000D02*
G03*
X10000Y592000I0J-8000D01*
G01*
Y8000D02*
Y15000D01*
X18000Y-0D02*
X270000Y0D01*
X10000Y585000D02*
Y592000D01*
X18000Y600000D02*
X270000D01*
X-0Y585000D02*
X-0Y15000D01*
X0Y585000D02*
X10000D01*
X0Y15000D02*
X10000D01*
X270000Y0D02*
Y330000D01*
Y600000D01*
D15*
X21250Y300747D02*
Y295082D01*
X18418Y292250D01*
X15585Y295082D01*
Y300747D01*
Y313081D02*
X17001Y314497D01*
X19834D01*
X21250Y313081D01*
Y307416D01*
X19834Y306000D01*
X17001D01*
X15585Y307416D01*
Y310249D01*
X18418D01*
X73500Y100247D02*
Y91750D01*
X67835D01*
X65003D02*
X62170D01*
X63587D01*
Y100247D01*
X65003Y98831D01*
X57922Y91750D02*
X55089D01*
X56505D01*
Y100247D01*
X57922Y98831D01*
X48000Y21497D02*
Y13000D01*
X42335D01*
X39503D02*
X36670D01*
X38087D01*
Y21497D01*
X39503Y20081D01*
X32422D02*
X31005Y21497D01*
X28173D01*
X26757Y20081D01*
Y14416D01*
X28173Y13000D01*
X31005D01*
X32422Y14416D01*
Y20081D01*
X68835Y109581D02*
X70251Y110997D01*
X73084D01*
X74500Y109581D01*
Y103916D01*
X73084Y102500D01*
X70251D01*
X68835Y103916D01*
X60338Y110997D02*
X66003D01*
Y106749D01*
X63170Y108165D01*
X61754D01*
X60338Y106749D01*
Y103916D01*
X61754Y102500D01*
X64587D01*
X66003Y103916D01*
X57505Y102500D02*
X54673D01*
X56089D01*
Y110997D01*
X57505Y109581D01*
X21081Y18665D02*
X22497Y17249D01*
Y14416D01*
X21081Y13000D01*
X15416D01*
X14000Y14416D01*
Y17249D01*
X15416Y18665D01*
X14000Y25746D02*
X22497D01*
X18249Y21497D01*
Y27162D01*
X15416Y29994D02*
X14000Y31411D01*
Y34243D01*
X15416Y35659D01*
X21081D01*
X22497Y34243D01*
Y31411D01*
X21081Y29994D01*
X19665D01*
X18249Y31411D01*
Y35659D01*
X241000Y497497D02*
Y489000D01*
X235335D01*
X232503Y490416D02*
X231087Y489000D01*
X228254D01*
X226838Y490416D01*
Y496081D01*
X228254Y497497D01*
X231087D01*
X232503Y496081D01*
Y494665D01*
X231087Y493249D01*
X226838D01*
X135000Y48497D02*
Y40000D01*
X129335D01*
X126503Y47081D02*
X125086Y48497D01*
X122254D01*
X120838Y47081D01*
Y45665D01*
X122254Y44249D01*
X120838Y42832D01*
Y41416D01*
X122254Y40000D01*
X125086D01*
X126503Y41416D01*
Y42832D01*
X125086Y44249D01*
X126503Y45665D01*
Y47081D01*
X125086Y44249D02*
X122254D01*
X194000Y20497D02*
Y12000D01*
X188335D01*
X185503Y20497D02*
X179838D01*
Y19081D01*
X185503Y13416D01*
Y12000D01*
X135000Y60497D02*
Y52000D01*
X129335D01*
X120838Y60497D02*
X123670Y59081D01*
X126503Y56249D01*
Y53416D01*
X125086Y52000D01*
X122254D01*
X120838Y53416D01*
Y54832D01*
X122254Y56249D01*
X126503D01*
X135000Y98497D02*
Y90000D01*
X129335D01*
X120838Y98497D02*
X126503D01*
Y94249D01*
X123670Y95665D01*
X122254D01*
X120838Y94249D01*
Y91416D01*
X122254Y90000D01*
X125086D01*
X126503Y91416D01*
X264081Y526665D02*
X265497Y525249D01*
Y522416D01*
X264081Y521000D01*
X258416D01*
X257000Y522416D01*
Y525249D01*
X258416Y526665D01*
X257000Y533746D02*
X265497D01*
X261249Y529497D01*
Y535162D01*
X264081Y537994D02*
X265497Y539411D01*
Y542243D01*
X264081Y543659D01*
X262665D01*
X261249Y542243D01*
X259832Y543659D01*
X258416D01*
X257000Y542243D01*
Y539411D01*
X258416Y537994D01*
X259832D01*
X261249Y539411D01*
X262665Y537994D01*
X264081D01*
X261249Y539411D02*
Y542243D01*
X264081Y554665D02*
X265497Y553249D01*
Y550416D01*
X264081Y549000D01*
X258416D01*
X257000Y550416D01*
Y553249D01*
X258416Y554665D01*
X257000Y561746D02*
X265497D01*
X261249Y557497D01*
Y563162D01*
X265497Y565994D02*
Y571659D01*
X264081D01*
X258416Y565994D01*
X257000D01*
X217081Y46665D02*
X218497Y45249D01*
Y42416D01*
X217081Y41000D01*
X211416D01*
X210000Y42416D01*
Y45249D01*
X211416Y46665D01*
X210000Y53746D02*
X218497D01*
X214249Y49497D01*
Y55162D01*
X218497Y63659D02*
X217081Y60827D01*
X214249Y57994D01*
X211416D01*
X210000Y59411D01*
Y62243D01*
X211416Y63659D01*
X212832D01*
X214249Y62243D01*
Y57994D01*
X132335Y35081D02*
X133751Y36497D01*
X136584D01*
X138000Y35081D01*
Y29416D01*
X136584Y28000D01*
X133751D01*
X132335Y29416D01*
X125254Y28000D02*
Y36497D01*
X129503Y32249D01*
X123838D01*
X115341Y36497D02*
X121005D01*
Y32249D01*
X118173Y33665D01*
X116757D01*
X115341Y32249D01*
Y29416D01*
X116757Y28000D01*
X119589D01*
X121005Y29416D01*
X216335Y9081D02*
X217751Y10497D01*
X220584D01*
X222000Y9081D01*
Y3416D01*
X220584Y2000D01*
X217751D01*
X216335Y3416D01*
X209254Y2000D02*
Y10497D01*
X213503Y6249D01*
X207838D01*
X200757Y2000D02*
Y10497D01*
X205005Y6249D01*
X199341D01*
X216335Y20081D02*
X217751Y21497D01*
X220584D01*
X222000Y20081D01*
Y14416D01*
X220584Y13000D01*
X217751D01*
X216335Y14416D01*
X209254Y13000D02*
Y21497D01*
X213503Y17249D01*
X207838D01*
X205005Y20081D02*
X203589Y21497D01*
X200757D01*
X199341Y20081D01*
Y18665D01*
X200757Y17249D01*
X202173D01*
X200757D01*
X199341Y15832D01*
Y14416D01*
X200757Y13000D01*
X203589D01*
X205005Y14416D01*
X137081Y69665D02*
X138497Y68249D01*
Y65416D01*
X137081Y64000D01*
X131416D01*
X130000Y65416D01*
Y68249D01*
X131416Y69665D01*
X130000Y76746D02*
X138497D01*
X134249Y72497D01*
Y78162D01*
X130000Y86659D02*
Y80995D01*
X135665Y86659D01*
X137081D01*
X138497Y85243D01*
Y82411D01*
X137081Y80995D01*
X126081Y69665D02*
X127497Y68249D01*
Y65416D01*
X126081Y64000D01*
X120416D01*
X119000Y65416D01*
Y68249D01*
X120416Y69665D01*
X119000Y76746D02*
X127497D01*
X123249Y72497D01*
Y78162D01*
X119000Y80995D02*
Y83827D01*
Y82411D01*
X127497D01*
X126081Y80995D01*
X188081Y110665D02*
X189497Y109249D01*
Y106416D01*
X188081Y105000D01*
X182416D01*
X181000Y106416D01*
Y109249D01*
X182416Y110665D01*
X181000Y117746D02*
X189497D01*
X185249Y113497D01*
Y119162D01*
X188081Y121994D02*
X189497Y123411D01*
Y126243D01*
X188081Y127659D01*
X182416D01*
X181000Y126243D01*
Y123411D01*
X182416Y121994D01*
X188081D01*
X150335Y111081D02*
X151751Y112497D01*
X154584D01*
X156000Y111081D01*
Y105416D01*
X154584Y104000D01*
X151751D01*
X150335Y105416D01*
X147503Y111081D02*
X146087Y112497D01*
X143254D01*
X141838Y111081D01*
Y109665D01*
X143254Y108249D01*
X144670D01*
X143254D01*
X141838Y106832D01*
Y105416D01*
X143254Y104000D01*
X146087D01*
X147503Y105416D01*
X139005D02*
X137589Y104000D01*
X134757D01*
X133341Y105416D01*
Y111081D01*
X134757Y112497D01*
X137589D01*
X139005Y111081D01*
Y109665D01*
X137589Y108249D01*
X133341D01*
X248000Y442000D02*
Y450497D01*
X243751D01*
X242335Y449081D01*
Y446249D01*
X243751Y444832D01*
X248000D01*
X245168D02*
X242335Y442000D01*
X239503Y449081D02*
X238086Y450497D01*
X235254D01*
X233838Y449081D01*
Y447665D01*
X235254Y446249D01*
X236670D01*
X235254D01*
X233838Y444832D01*
Y443416D01*
X235254Y442000D01*
X238086D01*
X239503Y443416D01*
X226757Y442000D02*
Y450497D01*
X231005Y446249D01*
X225341D01*
X44000Y443000D02*
Y451497D01*
X39751D01*
X38335Y450081D01*
Y447249D01*
X39751Y445832D01*
X44000D01*
X41168D02*
X38335Y443000D01*
X35503Y450081D02*
X34086Y451497D01*
X31254D01*
X29838Y450081D01*
Y448665D01*
X31254Y447249D01*
X32670D01*
X31254D01*
X29838Y445832D01*
Y444416D01*
X31254Y443000D01*
X34086D01*
X35503Y444416D01*
X27006Y450081D02*
X25589Y451497D01*
X22757D01*
X21341Y450081D01*
Y448665D01*
X22757Y447249D01*
X24173D01*
X22757D01*
X21341Y445832D01*
Y444416D01*
X22757Y443000D01*
X25589D01*
X27006Y444416D01*
X252000Y474497D02*
Y466000D01*
X247751D01*
X246335Y467416D01*
Y473081D01*
X247751Y474497D01*
X252000D01*
X239254Y466000D02*
Y474497D01*
X243503Y470249D01*
X237838D01*
X31000Y473497D02*
Y465000D01*
X26751D01*
X25335Y466416D01*
Y472081D01*
X26751Y473497D01*
X31000D01*
X22503Y472081D02*
X21086Y473497D01*
X18254D01*
X16838Y472081D01*
Y470665D01*
X18254Y469249D01*
X19670D01*
X18254D01*
X16838Y467832D01*
Y466416D01*
X18254Y465000D01*
X21086D01*
X22503Y466416D01*
X175000Y327000D02*
Y335497D01*
X170751D01*
X169335Y334081D01*
Y331249D01*
X170751Y329832D01*
X175000D01*
X172168D02*
X169335Y327000D01*
X166503D02*
Y335497D01*
X162254D01*
X160838Y334081D01*
Y331249D01*
X162254Y329832D01*
X166503D01*
X152341Y335497D02*
X155173Y334081D01*
X158006Y331249D01*
Y328416D01*
X156589Y327000D01*
X153757D01*
X152341Y328416D01*
Y329832D01*
X153757Y331249D01*
X158006D01*
X151000Y391000D02*
Y399497D01*
X146751D01*
X145335Y398081D01*
Y395249D01*
X146751Y393832D01*
X151000D01*
X148168D02*
X145335Y391000D01*
X136838D02*
X142503D01*
X136838Y396665D01*
Y398081D01*
X138254Y399497D01*
X141087D01*
X142503Y398081D01*
X134005Y399497D02*
X128341D01*
Y398081D01*
X134005Y392416D01*
Y391000D01*
X182000Y357000D02*
Y365497D01*
X177751D01*
X176335Y364081D01*
Y361249D01*
X177751Y359832D01*
X182000D01*
X179168D02*
X176335Y357000D01*
X167838D02*
X173503D01*
X167838Y362665D01*
Y364081D01*
X169254Y365497D01*
X172087D01*
X173503Y364081D01*
X159341Y365497D02*
X162173Y364081D01*
X165005Y361249D01*
Y358416D01*
X163589Y357000D01*
X160757D01*
X159341Y358416D01*
Y359832D01*
X160757Y361249D01*
X165005D01*
X267497Y382000D02*
X260416D01*
X259000Y383416D01*
Y386249D01*
X260416Y387665D01*
X267497D01*
X259000Y390497D02*
Y393330D01*
Y391913D01*
X267497D01*
X266081Y390497D01*
X267497Y403243D02*
X266081Y400411D01*
X263249Y397578D01*
X260416D01*
X259000Y398994D01*
Y401827D01*
X260416Y403243D01*
X261832D01*
X263249Y401827D01*
Y397578D01*
X173085Y410416D02*
Y416081D01*
X174501Y417497D01*
X177334D01*
X178750Y416081D01*
Y410416D01*
X177334Y409000D01*
X174501D01*
X175918Y411832D02*
X173085Y409000D01*
X174501D02*
X173085Y410416D01*
X170253Y416081D02*
X168836Y417497D01*
X166004D01*
X164588Y416081D01*
Y414665D01*
X166004Y413249D01*
X167420D01*
X166004D01*
X164588Y411832D01*
Y410416D01*
X166004Y409000D01*
X168836D01*
X170253Y410416D01*
X228335Y346416D02*
Y352081D01*
X229751Y353497D01*
X232584D01*
X234000Y352081D01*
Y346416D01*
X232584Y345000D01*
X229751D01*
X231168Y347832D02*
X228335Y345000D01*
X229751D02*
X228335Y346416D01*
X219838Y345000D02*
X225503D01*
X219838Y350665D01*
Y352081D01*
X221254Y353497D01*
X224086D01*
X225503Y352081D01*
X207585Y410416D02*
Y416081D01*
X209001Y417497D01*
X211834D01*
X213250Y416081D01*
Y410416D01*
X211834Y409000D01*
X209001D01*
X210418Y411832D02*
X207585Y409000D01*
X209001D02*
X207585Y410416D01*
X204753Y409000D02*
X201920D01*
X203337D01*
Y417497D01*
X204753Y416081D01*
X252335Y358081D02*
X253751Y359497D01*
X256584D01*
X258000Y358081D01*
Y352416D01*
X256584Y351000D01*
X253751D01*
X252335Y352416D01*
X249503Y358081D02*
X248086Y359497D01*
X245254D01*
X243838Y358081D01*
Y356665D01*
X245254Y355249D01*
X246670D01*
X245254D01*
X243838Y353832D01*
Y352416D01*
X245254Y351000D01*
X248086D01*
X249503Y352416D01*
X241005Y359497D02*
X235341D01*
Y358081D01*
X241005Y352416D01*
Y351000D01*
X250335Y427081D02*
X251751Y428497D01*
X254584D01*
X256000Y427081D01*
Y421416D01*
X254584Y420000D01*
X251751D01*
X250335Y421416D01*
X247503Y427081D02*
X246087Y428497D01*
X243254D01*
X241838Y427081D01*
Y425665D01*
X243254Y424249D01*
X244670D01*
X243254D01*
X241838Y422832D01*
Y421416D01*
X243254Y420000D01*
X246087D01*
X247503Y421416D01*
X233341Y428497D02*
X236173Y427081D01*
X239006Y424249D01*
Y421416D01*
X237589Y420000D01*
X234757D01*
X233341Y421416D01*
Y422832D01*
X234757Y424249D01*
X239006D01*
X86000Y388497D02*
Y381416D01*
X84584Y380000D01*
X81751D01*
X80335Y381416D01*
Y388497D01*
X73254Y380000D02*
Y388497D01*
X77503Y384249D01*
X71838D01*
X179497Y248000D02*
X172416D01*
X171000Y249416D01*
Y252249D01*
X172416Y253665D01*
X179497D01*
X171000Y256497D02*
Y259330D01*
Y257913D01*
X179497D01*
X178081Y256497D01*
Y263578D02*
X179497Y264995D01*
Y267827D01*
X178081Y269243D01*
X172416D01*
X171000Y267827D01*
Y264995D01*
X172416Y263578D01*
X178081D01*
X230335Y568497D02*
X233168D01*
X231751D01*
Y561416D01*
X233168Y560000D01*
X234584D01*
X236000Y561416D01*
X223254Y560000D02*
Y568497D01*
X227503Y564249D01*
X221838D01*
X68497Y119000D02*
X60000D01*
Y123249D01*
X61416Y124665D01*
X67081D01*
X68497Y123249D01*
Y119000D01*
X67081Y133162D02*
X68497Y131746D01*
Y128913D01*
X67081Y127497D01*
X65665D01*
X64249Y128913D01*
Y131746D01*
X62832Y133162D01*
X61416D01*
X60000Y131746D01*
Y128913D01*
X61416Y127497D01*
X60000Y135995D02*
Y138827D01*
Y137411D01*
X68497D01*
X67081Y135995D01*
X214497Y303000D02*
X206000Y308665D01*
X214497D02*
X206000Y303000D01*
Y311497D02*
Y314330D01*
Y312913D01*
X214497D01*
X213081Y311497D01*
X36000Y383000D02*
Y391497D01*
X31751D01*
X30335Y390081D01*
Y387249D01*
X31751Y385832D01*
X36000D01*
X33168D02*
X30335Y383000D01*
X27503D02*
Y391497D01*
X23254D01*
X21838Y390081D01*
Y387249D01*
X23254Y385832D01*
X27503D01*
X19006Y390081D02*
X17589Y391497D01*
X14757D01*
X13341Y390081D01*
Y388665D01*
X14757Y387249D01*
X16173D01*
X14757D01*
X13341Y385832D01*
Y384416D01*
X14757Y383000D01*
X17589D01*
X19006Y384416D01*
X31000Y265000D02*
X39497D01*
Y269249D01*
X38081Y270665D01*
X35249D01*
X33832Y269249D01*
Y265000D01*
Y267832D02*
X31000Y270665D01*
Y279162D02*
Y273497D01*
X36665Y279162D01*
X38081D01*
X39497Y277746D01*
Y274914D01*
X38081Y273497D01*
X39497Y287659D02*
Y281994D01*
X35249D01*
X36665Y284827D01*
Y286243D01*
X35249Y287659D01*
X32416D01*
X31000Y286243D01*
Y283411D01*
X32416Y281994D01*
X176000Y176000D02*
Y184497D01*
X171751D01*
X170335Y183081D01*
Y180249D01*
X171751Y178832D01*
X176000D01*
X173168D02*
X170335Y176000D01*
X167503D02*
Y184497D01*
X163254D01*
X161838Y183081D01*
Y180249D01*
X163254Y178832D01*
X167503D01*
X153341Y176000D02*
X159005D01*
X153341Y181665D01*
Y183081D01*
X154757Y184497D01*
X157589D01*
X159005Y183081D01*
X66000Y182000D02*
Y190497D01*
X61751D01*
X60335Y189081D01*
Y186249D01*
X61751Y184832D01*
X66000D01*
X63168D02*
X60335Y182000D01*
X57503D02*
Y190497D01*
X53254D01*
X51838Y189081D01*
Y186249D01*
X53254Y184832D01*
X57503D01*
X49005Y182000D02*
X46173D01*
X47589D01*
Y190497D01*
X49005Y189081D01*
X149497Y153000D02*
X142416D01*
X141000Y154416D01*
Y157249D01*
X142416Y158665D01*
X149497D01*
X141000Y161497D02*
Y164330D01*
Y162913D01*
X149497D01*
X148081Y161497D01*
X149497Y174243D02*
Y168578D01*
X145249D01*
X146665Y171411D01*
Y172827D01*
X145249Y174243D01*
X142416D01*
X141000Y172827D01*
Y169995D01*
X142416Y168578D01*
X51000Y170497D02*
Y163416D01*
X49584Y162000D01*
X46751D01*
X45335Y163416D01*
Y170497D01*
X42503Y162000D02*
X39670D01*
X41087D01*
Y170497D01*
X42503Y169081D01*
X35422Y162000D02*
X32589D01*
X34005D01*
Y170497D01*
X35422Y169081D01*
X111000Y203497D02*
Y196416D01*
X109584Y195000D01*
X106751D01*
X105335Y196416D01*
Y203497D01*
X102503Y196416D02*
X101087Y195000D01*
X98254D01*
X96838Y196416D01*
Y202081D01*
X98254Y203497D01*
X101087D01*
X102503Y202081D01*
Y200665D01*
X101087Y199249D01*
X96838D01*
X12997Y80000D02*
X5916D01*
X4500Y81416D01*
Y84249D01*
X5916Y85665D01*
X12997D01*
X4500Y88497D02*
Y91330D01*
Y89914D01*
X12997D01*
X11581Y88497D01*
Y95578D02*
X12997Y96994D01*
Y99827D01*
X11581Y101243D01*
X10165D01*
X8749Y99827D01*
Y98411D01*
Y99827D01*
X7332Y101243D01*
X5916D01*
X4500Y99827D01*
Y96994D01*
X5916Y95578D01*
X267497Y57000D02*
X260416D01*
X259000Y58416D01*
Y61249D01*
X260416Y62665D01*
X267497D01*
X259000Y65497D02*
Y68330D01*
Y66913D01*
X267497D01*
X266081Y65497D01*
X259000Y78243D02*
Y72578D01*
X264665Y78243D01*
X266081D01*
X267497Y76827D01*
Y73994D01*
X266081Y72578D01*
X204000Y138497D02*
Y131416D01*
X202584Y130000D01*
X199751D01*
X198335Y131416D01*
Y138497D01*
X195503Y130000D02*
X192670D01*
X194086D01*
Y138497D01*
X195503Y137081D01*
X184173Y130000D02*
Y138497D01*
X188422Y134249D01*
X182757D01*
X142000Y554497D02*
Y547416D01*
X140584Y546000D01*
X137751D01*
X136335Y547416D01*
Y554497D01*
X127838D02*
X130670Y553081D01*
X133503Y550249D01*
Y547416D01*
X132086Y546000D01*
X129254D01*
X127838Y547416D01*
Y548832D01*
X129254Y550249D01*
X133503D01*
X59000Y507497D02*
Y500416D01*
X57584Y499000D01*
X54751D01*
X53335Y500416D01*
Y507497D01*
X44838D02*
X50503D01*
Y503249D01*
X47670Y504665D01*
X46254D01*
X44838Y503249D01*
Y500416D01*
X46254Y499000D01*
X49086D01*
X50503Y500416D01*
X123000Y112497D02*
Y105416D01*
X121584Y104000D01*
X118751D01*
X117335Y105416D01*
Y112497D01*
X108838Y104000D02*
X114503D01*
X108838Y109665D01*
Y111081D01*
X110254Y112497D01*
X113087D01*
X114503Y111081D01*
X122000Y403497D02*
Y396416D01*
X120584Y395000D01*
X117751D01*
X116335Y396416D01*
Y403497D01*
X113503Y395000D02*
X110670D01*
X112086D01*
Y403497D01*
X113503Y402081D01*
X36000Y211000D02*
X44497D01*
Y215249D01*
X43081Y216665D01*
X40249D01*
X38832Y215249D01*
Y211000D01*
Y213832D02*
X36000Y216665D01*
Y225162D02*
Y219497D01*
X41665Y225162D01*
X43081D01*
X44497Y223746D01*
Y220914D01*
X43081Y219497D01*
X36000Y232243D02*
X44497D01*
X40249Y227994D01*
Y233659D01*
X72000Y151000D02*
X80497D01*
Y155249D01*
X79081Y156665D01*
X76249D01*
X74832Y155249D01*
Y151000D01*
Y153832D02*
X72000Y156665D01*
Y165162D02*
Y159497D01*
X77665Y165162D01*
X79081D01*
X80497Y163746D01*
Y160914D01*
X79081Y159497D01*
X72000Y167994D02*
Y170827D01*
Y169411D01*
X80497D01*
X79081Y167994D01*
X166000Y187000D02*
Y195497D01*
X161751D01*
X160335Y194081D01*
Y191249D01*
X161751Y189832D01*
X166000D01*
X163168D02*
X160335Y187000D01*
X151838D02*
X157503D01*
X151838Y192665D01*
Y194081D01*
X153254Y195497D01*
X156087D01*
X157503Y194081D01*
X149005D02*
X147589Y195497D01*
X144757D01*
X143341Y194081D01*
Y188416D01*
X144757Y187000D01*
X147589D01*
X149005Y188416D01*
Y194081D01*
X177000Y203000D02*
Y211497D01*
X172751D01*
X171335Y210081D01*
Y207249D01*
X172751Y205832D01*
X177000D01*
X174168D02*
X171335Y203000D01*
X168503Y211497D02*
X162838D01*
Y210081D01*
X168503Y204416D01*
Y203000D01*
X168000Y246000D02*
Y254497D01*
X163751D01*
X162335Y253081D01*
Y250249D01*
X163751Y248832D01*
X168000D01*
X165168D02*
X162335Y246000D01*
X159503Y253081D02*
X158087Y254497D01*
X155254D01*
X153838Y253081D01*
Y251665D01*
X155254Y250249D01*
X153838Y248832D01*
Y247416D01*
X155254Y246000D01*
X158087D01*
X159503Y247416D01*
Y248832D01*
X158087Y250249D01*
X159503Y251665D01*
Y253081D01*
X158087Y250249D02*
X155254D01*
X84000Y43250D02*
Y51747D01*
X79751D01*
X78335Y50331D01*
Y47499D01*
X79751Y46082D01*
X84000D01*
X81168D02*
X78335Y43250D01*
X75503D02*
X72670D01*
X74086D01*
Y51747D01*
X75503Y50331D01*
X68422D02*
X67006Y51747D01*
X64173D01*
X62757Y50331D01*
Y48915D01*
X64173Y47499D01*
X65589D01*
X64173D01*
X62757Y46082D01*
Y44666D01*
X64173Y43250D01*
X67006D01*
X68422Y44666D01*
X23000Y39000D02*
Y47497D01*
X18751D01*
X17335Y46081D01*
Y43249D01*
X18751Y41832D01*
X23000D01*
X20168D02*
X17335Y39000D01*
X14503D02*
X11670D01*
X13087D01*
Y47497D01*
X14503Y46081D01*
X1757Y39000D02*
X7422D01*
X1757Y44665D01*
Y46081D01*
X3173Y47497D01*
X6005D01*
X7422Y46081D01*
X31000Y110000D02*
X39497D01*
Y114249D01*
X38081Y115665D01*
X35249D01*
X33832Y114249D01*
Y110000D01*
Y112832D02*
X31000Y115665D01*
Y118497D02*
Y121330D01*
Y119914D01*
X39497D01*
X38081Y118497D01*
X31000Y125578D02*
Y128411D01*
Y126994D01*
X39497D01*
X38081Y125578D01*
X44000Y110000D02*
X52497D01*
Y114249D01*
X51081Y115665D01*
X48249D01*
X46832Y114249D01*
Y110000D01*
Y112832D02*
X44000Y115665D01*
Y118497D02*
Y121330D01*
Y119914D01*
X52497D01*
X51081Y118497D01*
Y125578D02*
X52497Y126994D01*
Y129827D01*
X51081Y131243D01*
X45416D01*
X44000Y129827D01*
Y126994D01*
X45416Y125578D01*
X51081D01*
X233000Y235000D02*
Y243497D01*
X228751D01*
X227335Y242081D01*
Y239249D01*
X228751Y237832D01*
X233000D01*
X230168D02*
X227335Y235000D01*
X224503Y236416D02*
X223086Y235000D01*
X220254D01*
X218838Y236416D01*
Y242081D01*
X220254Y243497D01*
X223086D01*
X224503Y242081D01*
Y240665D01*
X223086Y239249D01*
X218838D01*
X232000Y213000D02*
Y221497D01*
X227751D01*
X226335Y220081D01*
Y217249D01*
X227751Y215832D01*
X232000D01*
X229168D02*
X226335Y213000D01*
X223503D02*
X220670D01*
X222087D01*
Y221497D01*
X223503Y220081D01*
X216422Y214416D02*
X215005Y213000D01*
X212173D01*
X210757Y214416D01*
Y220081D01*
X212173Y221497D01*
X215005D01*
X216422Y220081D01*
Y218665D01*
X215005Y217249D01*
X210757D01*
X258000Y30000D02*
X266497D01*
Y34249D01*
X265081Y35665D01*
X262249D01*
X260832Y34249D01*
Y30000D01*
Y32832D02*
X258000Y35665D01*
Y38497D02*
Y41330D01*
Y39913D01*
X266497D01*
X265081Y38497D01*
X266497Y45578D02*
Y51243D01*
X265081D01*
X259416Y45578D01*
X258000D01*
Y83000D02*
X266497D01*
Y87249D01*
X265081Y88665D01*
X262249D01*
X260832Y87249D01*
Y83000D01*
Y85832D02*
X258000Y88665D01*
Y91497D02*
Y94330D01*
Y92914D01*
X266497D01*
X265081Y91497D01*
X266497Y104243D02*
X265081Y101411D01*
X262249Y98578D01*
X259416D01*
X258000Y99994D01*
Y102827D01*
X259416Y104243D01*
X260832D01*
X262249Y102827D01*
Y98578D01*
X265000Y13000D02*
Y21497D01*
X260751D01*
X259335Y20081D01*
Y17249D01*
X260751Y15832D01*
X265000D01*
X262168D02*
X259335Y13000D01*
X256503D02*
X253670D01*
X255086D01*
Y21497D01*
X256503Y20081D01*
X249422D02*
X248006Y21497D01*
X245173D01*
X243757Y20081D01*
Y18665D01*
X245173Y17249D01*
X243757Y15832D01*
Y14416D01*
X245173Y13000D01*
X248006D01*
X249422Y14416D01*
Y15832D01*
X248006Y17249D01*
X249422Y18665D01*
Y20081D01*
X248006Y17249D02*
X245173D01*
X128000Y309000D02*
Y317497D01*
X123751D01*
X122335Y316081D01*
Y313249D01*
X123751Y311832D01*
X128000D01*
X125168D02*
X122335Y309000D01*
X113838Y317497D02*
X116670Y316081D01*
X119503Y313249D01*
Y310416D01*
X118087Y309000D01*
X115254D01*
X113838Y310416D01*
Y311832D01*
X115254Y313249D01*
X119503D01*
X264000Y136000D02*
Y144497D01*
X259751D01*
X258335Y143081D01*
Y140249D01*
X259751Y138832D01*
X264000D01*
X261168D02*
X258335Y136000D01*
X249838D02*
X255503D01*
X249838Y141665D01*
Y143081D01*
X251254Y144497D01*
X254086D01*
X255503Y143081D01*
X247006D02*
X245589Y144497D01*
X242757D01*
X241341Y143081D01*
Y141665D01*
X242757Y140249D01*
X244173D01*
X242757D01*
X241341Y138832D01*
Y137416D01*
X242757Y136000D01*
X245589D01*
X247006Y137416D01*
X243000Y158000D02*
X251497D01*
Y162249D01*
X250081Y163665D01*
X247249D01*
X245832Y162249D01*
Y158000D01*
Y160832D02*
X243000Y163665D01*
Y172162D02*
Y166497D01*
X248665Y172162D01*
X250081D01*
X251497Y170746D01*
Y167913D01*
X250081Y166497D01*
X243000Y180659D02*
Y174995D01*
X248665Y180659D01*
X250081D01*
X251497Y179243D01*
Y176411D01*
X250081Y174995D01*
X188000Y243497D02*
Y235000D01*
X182335D01*
X179503Y242081D02*
X178086Y243497D01*
X175254D01*
X173838Y242081D01*
Y240665D01*
X175254Y239249D01*
X176670D01*
X175254D01*
X173838Y237832D01*
Y236416D01*
X175254Y235000D01*
X178086D01*
X179503Y236416D01*
X168000Y265497D02*
Y257000D01*
X162335D01*
X153838D02*
X159503D01*
X153838Y262665D01*
Y264081D01*
X155254Y265497D01*
X158087D01*
X159503Y264081D01*
X205000Y221497D02*
Y213000D01*
X199335D01*
X192254D02*
Y221497D01*
X196503Y217249D01*
X190838D01*
X225335Y254497D02*
X228168D01*
X226751D01*
Y247416D01*
X228168Y246000D01*
X229584D01*
X231000Y247416D01*
X222503Y246000D02*
X219670D01*
X221087D01*
Y254497D01*
X222503Y253081D01*
X264497Y227000D02*
X256000D01*
Y231249D01*
X257416Y232665D01*
X263081D01*
X264497Y231249D01*
Y227000D01*
X256000Y241162D02*
Y235497D01*
X261665Y241162D01*
X263081D01*
X264497Y239746D01*
Y236914D01*
X263081Y235497D01*
X93335Y181081D02*
X94751Y182497D01*
X97584D01*
X99000Y181081D01*
Y175416D01*
X97584Y174000D01*
X94751D01*
X93335Y175416D01*
X90503Y181081D02*
X89087Y182497D01*
X86254D01*
X84838Y181081D01*
Y179665D01*
X86254Y178249D01*
X87670D01*
X86254D01*
X84838Y176832D01*
Y175416D01*
X86254Y174000D01*
X89087D01*
X90503Y175416D01*
X76341Y182497D02*
X82006D01*
Y178249D01*
X79173Y179665D01*
X77757D01*
X76341Y178249D01*
Y175416D01*
X77757Y174000D01*
X80589D01*
X82006Y175416D01*
X227081Y28665D02*
X228497Y27249D01*
Y24416D01*
X227081Y23000D01*
X221416D01*
X220000Y24416D01*
Y27249D01*
X221416Y28665D01*
X227081Y31497D02*
X228497Y32913D01*
Y35746D01*
X227081Y37162D01*
X225665D01*
X224249Y35746D01*
Y34330D01*
Y35746D01*
X222832Y37162D01*
X221416D01*
X220000Y35746D01*
Y32913D01*
X221416Y31497D01*
X220000Y44243D02*
X228497D01*
X224249Y39994D01*
Y45659D01*
X114335Y326081D02*
X115751Y327497D01*
X118584D01*
X120000Y326081D01*
Y320416D01*
X118584Y319000D01*
X115751D01*
X114335Y320416D01*
X111503Y326081D02*
X110086Y327497D01*
X107254D01*
X105838Y326081D01*
Y324665D01*
X107254Y323249D01*
X108670D01*
X107254D01*
X105838Y321832D01*
Y320416D01*
X107254Y319000D01*
X110086D01*
X111503Y320416D01*
X103006Y326081D02*
X101589Y327497D01*
X98757D01*
X97341Y326081D01*
Y324665D01*
X98757Y323249D01*
X100173D01*
X98757D01*
X97341Y321832D01*
Y320416D01*
X98757Y319000D01*
X101589D01*
X103006Y320416D01*
X153335Y205081D02*
X154751Y206497D01*
X157584D01*
X159000Y205081D01*
Y199416D01*
X157584Y198000D01*
X154751D01*
X153335Y199416D01*
X150503Y205081D02*
X149087Y206497D01*
X146254D01*
X144838Y205081D01*
Y203665D01*
X146254Y202249D01*
X147670D01*
X146254D01*
X144838Y200832D01*
Y199416D01*
X146254Y198000D01*
X149087D01*
X150503Y199416D01*
X136341Y198000D02*
X142006D01*
X136341Y203665D01*
Y205081D01*
X137757Y206497D01*
X140589D01*
X142006Y205081D01*
X167335Y305081D02*
X168751Y306497D01*
X171584D01*
X173000Y305081D01*
Y299416D01*
X171584Y298000D01*
X168751D01*
X167335Y299416D01*
X164503Y305081D02*
X163086Y306497D01*
X160254D01*
X158838Y305081D01*
Y303665D01*
X160254Y302249D01*
X161670D01*
X160254D01*
X158838Y300832D01*
Y299416D01*
X160254Y298000D01*
X163086D01*
X164503Y299416D01*
X156005Y298000D02*
X153173D01*
X154589D01*
Y306497D01*
X156005Y305081D01*
X42081Y303665D02*
X43497Y302249D01*
Y299416D01*
X42081Y298000D01*
X36416D01*
X35000Y299416D01*
Y302249D01*
X36416Y303665D01*
X42081Y306497D02*
X43497Y307913D01*
Y310746D01*
X42081Y312162D01*
X40665D01*
X39249Y310746D01*
Y309330D01*
Y310746D01*
X37832Y312162D01*
X36416D01*
X35000Y310746D01*
Y307913D01*
X36416Y306497D01*
X42081Y314995D02*
X43497Y316411D01*
Y319243D01*
X42081Y320659D01*
X36416D01*
X35000Y319243D01*
Y316411D01*
X36416Y314995D01*
X42081D01*
X227335Y231081D02*
X228751Y232497D01*
X231584D01*
X233000Y231081D01*
Y225416D01*
X231584Y224000D01*
X228751D01*
X227335Y225416D01*
X218838Y224000D02*
X224503D01*
X218838Y229665D01*
Y231081D01*
X220254Y232497D01*
X223086D01*
X224503Y231081D01*
X216005Y225416D02*
X214589Y224000D01*
X211757D01*
X210341Y225416D01*
Y231081D01*
X211757Y232497D01*
X214589D01*
X216005Y231081D01*
Y229665D01*
X214589Y228249D01*
X210341D01*
X190335Y231081D02*
X191751Y232497D01*
X194584D01*
X196000Y231081D01*
Y225416D01*
X194584Y224000D01*
X191751D01*
X190335Y225416D01*
X181838Y224000D02*
X187503D01*
X181838Y229665D01*
Y231081D01*
X183254Y232497D01*
X186087D01*
X187503Y231081D01*
X179006D02*
X177589Y232497D01*
X174757D01*
X173341Y231081D01*
Y229665D01*
X174757Y228249D01*
X173341Y226832D01*
Y225416D01*
X174757Y224000D01*
X177589D01*
X179006Y225416D01*
Y226832D01*
X177589Y228249D01*
X179006Y229665D01*
Y231081D01*
X177589Y228249D02*
X174757D01*
X213081Y278665D02*
X214497Y277249D01*
Y274416D01*
X213081Y273000D01*
X207416D01*
X206000Y274416D01*
Y277249D01*
X207416Y278665D01*
X206000Y287162D02*
Y281497D01*
X211665Y287162D01*
X213081D01*
X214497Y285746D01*
Y282913D01*
X213081Y281497D01*
X214497Y289995D02*
Y295659D01*
X213081D01*
X207416Y289995D01*
X206000D01*
X196335Y329081D02*
X197751Y330497D01*
X200584D01*
X202000Y329081D01*
Y323416D01*
X200584Y322000D01*
X197751D01*
X196335Y323416D01*
X187838Y322000D02*
X193503D01*
X187838Y327665D01*
Y329081D01*
X189254Y330497D01*
X192087D01*
X193503Y329081D01*
X179341Y330497D02*
X182173Y329081D01*
X185005Y326249D01*
Y323416D01*
X183589Y322000D01*
X180757D01*
X179341Y323416D01*
Y324832D01*
X180757Y326249D01*
X185005D01*
X12081Y56665D02*
X13497Y55249D01*
Y52416D01*
X12081Y51000D01*
X6416D01*
X5000Y52416D01*
Y55249D01*
X6416Y56665D01*
X5000Y65162D02*
Y59497D01*
X10665Y65162D01*
X12081D01*
X13497Y63746D01*
Y60914D01*
X12081Y59497D01*
X13497Y73659D02*
Y67994D01*
X9249D01*
X10665Y70827D01*
Y72243D01*
X9249Y73659D01*
X6416D01*
X5000Y72243D01*
Y69411D01*
X6416Y67994D01*
X180281Y154244D02*
X181697Y152828D01*
Y149995D01*
X180281Y148579D01*
X174616D01*
X173200Y149995D01*
Y152828D01*
X174616Y154244D01*
X173200Y162741D02*
Y157076D01*
X178865Y162741D01*
X180281D01*
X181697Y161325D01*
Y158492D01*
X180281Y157076D01*
X173200Y169822D02*
X181697D01*
X177449Y165574D01*
Y171238D01*
X232081Y115665D02*
X233497Y114249D01*
Y111416D01*
X232081Y110000D01*
X226416D01*
X225000Y111416D01*
Y114249D01*
X226416Y115665D01*
X225000Y124162D02*
Y118497D01*
X230665Y124162D01*
X232081D01*
X233497Y122746D01*
Y119914D01*
X232081Y118497D01*
Y126994D02*
X233497Y128411D01*
Y131243D01*
X232081Y132659D01*
X230665D01*
X229249Y131243D01*
Y129827D01*
Y131243D01*
X227832Y132659D01*
X226416D01*
X225000Y131243D01*
Y128411D01*
X226416Y126994D01*
X241081Y191665D02*
X242497Y190249D01*
Y187416D01*
X241081Y186000D01*
X235416D01*
X234000Y187416D01*
Y190249D01*
X235416Y191665D01*
X234000Y200162D02*
Y194497D01*
X239665Y200162D01*
X241081D01*
X242497Y198746D01*
Y195914D01*
X241081Y194497D01*
X234000Y208659D02*
Y202994D01*
X239665Y208659D01*
X241081D01*
X242497Y207243D01*
Y204411D01*
X241081Y202994D01*
X100081Y543665D02*
X101497Y542249D01*
Y539416D01*
X100081Y538000D01*
X94416D01*
X93000Y539416D01*
Y542249D01*
X94416Y543665D01*
X93000Y552162D02*
Y546497D01*
X98665Y552162D01*
X100081D01*
X101497Y550746D01*
Y547914D01*
X100081Y546497D01*
X93000Y554995D02*
Y557827D01*
Y556411D01*
X101497D01*
X100081Y554995D01*
X171081Y541665D02*
X172497Y540249D01*
Y537416D01*
X171081Y536000D01*
X165416D01*
X164000Y537416D01*
Y540249D01*
X165416Y541665D01*
X164000Y544497D02*
Y547330D01*
Y545914D01*
X172497D01*
X171081Y544497D01*
Y551578D02*
X172497Y552994D01*
Y555827D01*
X171081Y557243D01*
X169665D01*
X168249Y555827D01*
Y554411D01*
Y555827D01*
X166832Y557243D01*
X165416D01*
X164000Y555827D01*
Y552994D01*
X165416Y551578D01*
X192081Y519665D02*
X193497Y518249D01*
Y515416D01*
X192081Y514000D01*
X186416D01*
X185000Y515416D01*
Y518249D01*
X186416Y519665D01*
X185000Y522497D02*
Y525330D01*
Y523913D01*
X193497D01*
X192081Y522497D01*
X185000Y535243D02*
Y529578D01*
X190665Y535243D01*
X192081D01*
X193497Y533827D01*
Y530994D01*
X192081Y529578D01*
X114081Y335665D02*
X115497Y334249D01*
Y331416D01*
X114081Y330000D01*
X108416D01*
X107000Y331416D01*
Y334249D01*
X108416Y335665D01*
X107000Y338497D02*
Y341330D01*
Y339913D01*
X115497D01*
X114081Y338497D01*
Y345578D02*
X115497Y346995D01*
Y349827D01*
X114081Y351243D01*
X108416D01*
X107000Y349827D01*
Y346995D01*
X108416Y345578D01*
X114081D01*
X110081Y380665D02*
X111497Y379249D01*
Y376416D01*
X110081Y375000D01*
X104416D01*
X103000Y376416D01*
Y379249D01*
X104416Y380665D01*
Y383497D02*
X103000Y384913D01*
Y387746D01*
X104416Y389162D01*
X110081D01*
X111497Y387746D01*
Y384913D01*
X110081Y383497D01*
X108665D01*
X107249Y384913D01*
Y389162D01*
X125081Y335665D02*
X126497Y334249D01*
Y331416D01*
X125081Y330000D01*
X119416D01*
X118000Y331416D01*
Y334249D01*
X119416Y335665D01*
X125081Y338497D02*
X126497Y339913D01*
Y342746D01*
X125081Y344162D01*
X123665D01*
X122249Y342746D01*
X120832Y344162D01*
X119416D01*
X118000Y342746D01*
Y339913D01*
X119416Y338497D01*
X120832D01*
X122249Y339913D01*
X123665Y338497D01*
X125081D01*
X122249Y339913D02*
Y342746D01*
X146335Y323081D02*
X147751Y324497D01*
X150584D01*
X152000Y323081D01*
Y317416D01*
X150584Y316000D01*
X147751D01*
X146335Y317416D01*
X143503Y324497D02*
X137838D01*
Y323081D01*
X143503Y317416D01*
Y316000D01*
X70081Y13665D02*
X71497Y12249D01*
Y9416D01*
X70081Y8000D01*
X64416D01*
X63000Y9416D01*
Y12249D01*
X64416Y13665D01*
X71497Y22162D02*
X70081Y19330D01*
X67249Y16497D01*
X64416D01*
X63000Y17914D01*
Y20746D01*
X64416Y22162D01*
X65832D01*
X67249Y20746D01*
Y16497D01*
X81081Y13665D02*
X82497Y12249D01*
Y9416D01*
X81081Y8000D01*
X75416D01*
X74000Y9416D01*
Y12249D01*
X75416Y13665D01*
X82497Y22162D02*
Y16497D01*
X78249D01*
X79665Y19330D01*
Y20746D01*
X78249Y22162D01*
X75416D01*
X74000Y20746D01*
Y17914D01*
X75416Y16497D01*
X100831Y9415D02*
X102247Y7999D01*
Y5166D01*
X100831Y3750D01*
X95166D01*
X93750Y5166D01*
Y7999D01*
X95166Y9415D01*
X93750Y16496D02*
X102247D01*
X97999Y12247D01*
Y17912D01*
X112581Y9165D02*
X113997Y7749D01*
Y4916D01*
X112581Y3500D01*
X106916D01*
X105500Y4916D01*
Y7749D01*
X106916Y9165D01*
X112581Y11997D02*
X113997Y13413D01*
Y16246D01*
X112581Y17662D01*
X111165D01*
X109749Y16246D01*
Y14830D01*
Y16246D01*
X108332Y17662D01*
X106916D01*
X105500Y16246D01*
Y13413D01*
X106916Y11997D01*
D62*
X152000Y92000D02*
G03*
X152000Y92000I-3000J0D01*
G01*
X51500Y334500D02*
G03*
X51500Y334500I-3000J0D01*
G01*
X46000Y522000D02*
G03*
X46000Y522000I-3000J0D01*
G01*
D104*
X158250Y383000D02*
G03*
X158250Y383000I-1250J0D01*
G01*
X178250Y104000D02*
G03*
X178250Y104000I-1250J0D01*
G01*
X28750Y319500D02*
G03*
X28750Y319500I-1250J0D01*
G01*
X23250Y508000D02*
G03*
X23250Y508000I-1250J0D01*
G01*
X21250Y90500D02*
G03*
X21250Y90500I-1250J0D01*
G01*
X150650Y301400D02*
G03*
X150650Y301400I-1250J0D01*
G01*
D139*
X129200Y182000D02*
G03*
X129200Y182000I-1200J0D01*
G01*
D140*
X9000Y120000D02*
X20996D01*
Y125998D01*
X18997Y127997D01*
X14998D01*
X12999Y125998D01*
Y120000D01*
X14998Y131996D02*
Y139993D01*
X20996Y143992D02*
X9000D01*
Y149990D01*
X10999Y151990D01*
X12999D01*
X14998Y149990D01*
Y143992D01*
Y149990D01*
X16997Y151990D01*
X18997D01*
X20996Y149990D01*
Y143992D01*
X14998Y155988D02*
Y163986D01*
X9000Y167984D02*
X20996D01*
Y173983D01*
X18997Y175982D01*
X14998D01*
X12999Y173983D01*
Y167984D01*
Y171983D02*
X9000Y175982D01*
X20996Y185979D02*
Y181980D01*
X18997Y179981D01*
X10999D01*
X9000Y181980D01*
Y185979D01*
X10999Y187978D01*
X18997D01*
X20996Y185979D01*
Y191977D02*
X9000D01*
Y197975D01*
X10999Y199974D01*
X12999D01*
X14998Y197975D01*
Y191977D01*
Y197975D01*
X16997Y199974D01*
X18997D01*
X20996Y197975D01*
Y191977D01*
Y209971D02*
Y205972D01*
X18997Y203973D01*
X10999D01*
X9000Y205972D01*
Y209971D01*
X10999Y211970D01*
X18997D01*
X20996Y209971D01*
Y215969D02*
Y223966D01*
Y219968D01*
X9000D01*
X14998Y227965D02*
Y235962D01*
X9000Y239961D02*
Y243960D01*
Y241961D01*
X20996D01*
X18997Y239961D01*
X14998Y249958D02*
Y257955D01*
X9000Y261954D02*
Y265953D01*
Y263953D01*
X20996D01*
X18997Y261954D01*
D141*
X83748Y96498D02*
X84998Y95249D01*
Y92750D01*
X83748Y91500D01*
X78750D01*
X77500Y92750D01*
Y95249D01*
X78750Y96498D01*
X84998Y103996D02*
Y98998D01*
X81249D01*
X82498Y101497D01*
Y102746D01*
X81249Y103996D01*
X78750D01*
X77500Y102746D01*
Y100247D01*
X78750Y98998D01*
X77500Y111494D02*
Y106495D01*
X82498Y111494D01*
X83748D01*
X84998Y110244D01*
Y107745D01*
X83748Y106495D01*
X58248Y6998D02*
X59498Y5749D01*
Y3250D01*
X58248Y2000D01*
X53250D01*
X52000Y3250D01*
Y5749D01*
X53250Y6998D01*
X59498Y14496D02*
Y9498D01*
X55749D01*
X56998Y11997D01*
Y13246D01*
X55749Y14496D01*
X53250D01*
X52000Y13246D01*
Y10747D01*
X53250Y9498D01*
X58248Y16995D02*
X59498Y18245D01*
Y20744D01*
X58248Y21994D01*
X53250D01*
X52000Y20744D01*
Y18245D01*
X53250Y16995D01*
X58248D01*
M02*
