G04*
G04 #@! TF.GenerationSoftware,Altium Limited,Altium Designer,20.2.6 (244)*
G04*
G04 Layer_Color=16711935*
%FSLAX44Y44*%
%MOMM*%
G71*
G04*
G04 #@! TF.SameCoordinates,2E3406EB-8CA3-48A4-8E0D-F2ADFDB7BFFD*
G04*
G04*
G04 #@! TF.FilePolarity,Positive*
G04*
G01*
G75*
%ADD12C,0.2000*%
%ADD13C,0.1000*%
%ADD142C,0.0500*%
D12*
X25000Y490000D02*
X245000D01*
Y160000D02*
Y490000D01*
X25000Y160000D02*
X245000D01*
X25000D02*
Y490000D01*
D13*
X146500Y376500D02*
G03*
X146500Y376500I-5000J0D01*
G01*
X159000Y93000D02*
G03*
X159000Y93000I-5000J0D01*
G01*
X48500Y333500D02*
G03*
X48500Y333500I-5000J0D01*
G01*
X43000Y521000D02*
G03*
X43000Y521000I-5000J0D01*
G01*
X137400Y292400D02*
G03*
X137400Y292400I-5000J0D01*
G01*
X71250Y83250D02*
Y88750D01*
X60750Y83250D02*
Y88750D01*
X71250D01*
X60750Y83250D02*
X71250D01*
X59750Y79750D02*
X70250D01*
X59750Y74250D02*
X70250D01*
Y79750D01*
X59750Y74250D02*
Y79750D01*
X77250Y86250D02*
X82750D01*
X77250Y75750D02*
X82750D01*
X77250D02*
Y86250D01*
X82750Y75750D02*
Y86250D01*
X25250Y38250D02*
X30750D01*
X25250Y27750D02*
X30750D01*
X25250D02*
Y38250D01*
X30750Y27750D02*
Y38250D01*
X37750Y30750D02*
X48250D01*
X37750Y25250D02*
X48250D01*
Y30750D01*
X37750Y25250D02*
Y30750D01*
X55250Y38250D02*
X60750D01*
X55250Y27750D02*
X60750D01*
X55250D02*
Y38250D01*
X60750Y27750D02*
Y38250D01*
X119500Y354500D02*
X150500D01*
X119500Y385500D02*
X150500D01*
X119500Y354500D02*
Y385500D01*
X150500Y354500D02*
Y385500D01*
X192250Y125250D02*
X197750D01*
X192250Y114750D02*
X197750D01*
X192250D02*
Y125250D01*
X197750Y114750D02*
Y125250D01*
X160750Y105250D02*
Y110750D01*
X171250Y105250D02*
Y110750D01*
X160750Y105250D02*
X171250D01*
X160750Y110750D02*
X171250D01*
X184750Y100750D02*
X195250D01*
X184750Y95250D02*
X195250D01*
Y100750D01*
X184750Y95250D02*
Y100750D01*
X182250Y85250D02*
X187750D01*
X182250Y74750D02*
X187750D01*
X182250D02*
Y85250D01*
X187750Y74750D02*
Y85250D01*
X192250D02*
X197750D01*
X192250Y74750D02*
X197750D01*
X192250D02*
Y85250D01*
X197750Y74750D02*
Y85250D01*
X184750Y68750D02*
X195250D01*
X184750Y63250D02*
X195250D01*
Y68750D01*
X184750Y63250D02*
Y68750D01*
Y54750D02*
X195250D01*
X184750Y49250D02*
X195250D01*
Y54750D01*
X184750Y49250D02*
Y54750D01*
X195250Y40250D02*
Y45750D01*
X184750Y40250D02*
Y45750D01*
X195250D01*
X184750Y40250D02*
X195250D01*
X202250Y42750D02*
X207750D01*
X202250Y53250D02*
X207750D01*
Y42750D02*
Y53250D01*
X202250Y42750D02*
Y53250D01*
X184750Y28750D02*
X195250D01*
X184750Y23250D02*
X195250D01*
Y28750D01*
X184750Y23250D02*
Y28750D01*
X215250Y32250D02*
Y37750D01*
X204750Y32250D02*
Y37750D01*
X215250D01*
X204750Y32250D02*
X215250D01*
Y23250D02*
Y28750D01*
X204750Y23250D02*
Y28750D01*
X215250D01*
X204750Y23250D02*
X215250D01*
X253250Y486750D02*
X258750D01*
X253250Y497250D02*
X258750D01*
Y486750D02*
Y497250D01*
X253250Y486750D02*
Y497250D01*
X253250Y515250D02*
X258750D01*
X253250Y504750D02*
X258750D01*
X253250D02*
Y515250D01*
X258750Y504750D02*
Y515250D01*
X249750Y494750D02*
Y505250D01*
X244250Y494750D02*
Y505250D01*
Y494750D02*
X249750D01*
X244250Y505250D02*
X249750D01*
X222250Y23750D02*
X227750D01*
X222250Y34250D02*
X227750D01*
X222250Y23750D02*
Y34250D01*
X227750Y23750D02*
Y34250D01*
X255998Y26002D02*
X263997D01*
X255998D02*
Y42003D01*
X263997D01*
Y26002D02*
Y42003D01*
X264000Y462000D02*
Y478000D01*
X256000D02*
X264000D01*
X256000Y462000D02*
Y478000D01*
Y462000D02*
X264000D01*
X14000D02*
Y478000D01*
X6000D02*
X14000D01*
X6000Y462000D02*
Y478000D01*
Y462000D02*
X14000D01*
X92250Y512750D02*
X102750D01*
X92250Y507250D02*
X102750D01*
X92250D02*
Y512750D01*
X102750Y507250D02*
Y512750D01*
X93750Y571250D02*
X104250D01*
X93750Y576750D02*
X104250D01*
Y571250D02*
Y576750D01*
X93750Y571250D02*
Y576750D01*
X257250Y335750D02*
Y346250D01*
X262750Y335750D02*
Y346250D01*
X257250Y335750D02*
X262750D01*
X257250Y346250D02*
X262750D01*
X18750Y441750D02*
Y452250D01*
X13250Y441750D02*
Y452250D01*
Y441750D02*
X18750D01*
X13250Y452250D02*
X18750D01*
X256750Y441750D02*
Y452250D01*
X251250Y441750D02*
Y452250D01*
Y441750D02*
X256750D01*
X251250Y452250D02*
X256750D01*
X20000Y110000D02*
X30500D01*
X20000Y104500D02*
X30500D01*
X20000D02*
Y110000D01*
X30500Y104500D02*
Y110000D01*
X182500Y135750D02*
Y141250D01*
X172000Y135750D02*
Y141250D01*
Y135750D02*
X182500D01*
X172000Y141250D02*
X182500D01*
X188250Y125250D02*
Y130750D01*
X177750Y125250D02*
Y130750D01*
Y125250D02*
X188250D01*
X177750Y130750D02*
X188250D01*
X44750Y194750D02*
Y205250D01*
X39250Y194750D02*
Y205250D01*
Y194750D02*
X44750D01*
X39250Y205250D02*
X44750D01*
X14250Y145250D02*
Y155750D01*
X19750Y145250D02*
Y155750D01*
X14250Y145250D02*
X19750D01*
X14250Y155750D02*
X19750D01*
X65250Y38250D02*
X70750D01*
X65250Y27750D02*
X70750D01*
X65250D02*
Y38250D01*
X70750Y27750D02*
Y38250D01*
X75250D02*
X80750D01*
X75250Y27750D02*
X80750D01*
X75250D02*
Y38250D01*
X80750Y27750D02*
Y38250D01*
X77250Y57250D02*
X82750D01*
X77250Y67750D02*
X82750D01*
Y57250D02*
Y67750D01*
X77250Y57250D02*
Y67750D01*
X67250Y57250D02*
X72750D01*
X67250Y67750D02*
X72750D01*
Y57250D02*
Y67750D01*
X67250Y57250D02*
Y67750D01*
X15250Y57750D02*
X20750D01*
X15250Y68250D02*
X20750D01*
X15250Y57750D02*
Y68250D01*
X20750Y57750D02*
Y68250D01*
X29500Y80500D02*
Y97500D01*
X38500Y80500D02*
Y97500D01*
X29500Y80500D02*
X38500D01*
X29500Y97500D02*
X38500D01*
X230250Y27750D02*
X235750D01*
X230250Y38250D02*
X235750D01*
Y27750D02*
Y38250D01*
X230250Y27750D02*
Y38250D01*
X151750Y107750D02*
Y118250D01*
X146250Y107750D02*
Y118250D01*
X151750D01*
X146250Y107750D02*
X151750D01*
X105000Y22000D02*
X163000D01*
X105000Y102000D02*
X163000D01*
X105000Y22000D02*
Y102000D01*
X163000Y22000D02*
Y102000D01*
X191000Y345000D02*
X223000D01*
Y375000D01*
X191000D02*
X223000D01*
X191000Y345000D02*
Y375000D01*
Y377000D02*
X223000D01*
Y407000D01*
X191000D02*
X223000D01*
X191000Y377000D02*
Y407000D01*
X155000D02*
X187000D01*
X155000Y377000D02*
Y407000D01*
Y377000D02*
X187000D01*
Y407000D01*
X104250Y369250D02*
X109750D01*
X104250Y358750D02*
X109750D01*
X104250D02*
Y369250D01*
X109750Y358750D02*
Y369250D01*
X34500Y375500D02*
X79500D01*
X34500Y324500D02*
X79500D01*
Y375500D01*
X34500Y324500D02*
Y375500D01*
X139750Y407750D02*
X150250D01*
X139750Y402250D02*
X150250D01*
Y407750D01*
X139750Y402250D02*
Y407750D01*
X165750Y373750D02*
X176250D01*
X165750Y368250D02*
X176250D01*
Y373750D01*
X165750Y368250D02*
Y373750D01*
X246250Y362250D02*
Y367750D01*
X235750Y362250D02*
Y367750D01*
X246250D01*
X235750Y362250D02*
X246250D01*
X250250Y411250D02*
Y416750D01*
X239750Y411250D02*
Y416750D01*
X250250D01*
X239750Y411250D02*
X250250D01*
X256000Y374000D02*
Y406000D01*
X226000D02*
X256000D01*
X226000Y374000D02*
Y406000D01*
Y374000D02*
X256000D01*
X12250Y527250D02*
X17750D01*
X12250Y516750D02*
X17750D01*
Y527250D01*
X12250Y516750D02*
Y527250D01*
X129250Y329750D02*
Y340250D01*
X134750Y329750D02*
Y340250D01*
X129250D02*
X134750D01*
X129250Y329750D02*
X134750D01*
X142250D02*
Y340250D01*
X147750Y329750D02*
Y340250D01*
X142250D02*
X147750D01*
X142250Y329750D02*
X147750D01*
X48750Y309250D02*
Y314750D01*
X59250Y309250D02*
Y314750D01*
X48750Y309250D02*
X59250D01*
X48750Y314750D02*
X59250D01*
X26250Y313250D02*
X31750D01*
X26250Y302750D02*
X31750D01*
X26250D02*
Y313250D01*
X31750Y302750D02*
Y313250D01*
X68750Y314750D02*
X79250D01*
X68750Y309250D02*
X79250D01*
Y314750D01*
X68750Y309250D02*
Y314750D01*
X103750Y331750D02*
Y342250D01*
X98250Y331750D02*
Y342250D01*
Y331750D02*
X103750D01*
X98250Y342250D02*
X103750D01*
X16310Y52410D02*
X21810D01*
X16310Y62910D02*
X21810D01*
Y52410D02*
Y62910D01*
X16310Y52410D02*
Y62910D01*
X127750Y186250D02*
Y191750D01*
X138250Y186250D02*
Y191750D01*
X127750Y186250D02*
X138250D01*
X127750Y191750D02*
X138250D01*
X83250Y158750D02*
X88750D01*
X83250Y169250D02*
X88750D01*
Y158750D02*
Y169250D01*
X83250Y158750D02*
Y169250D01*
X107499Y179000D02*
X132499D01*
X107499Y149000D02*
Y179000D01*
Y149000D02*
X132499D01*
Y179000D01*
X98750Y190750D02*
X109250D01*
X98750Y185250D02*
X109250D01*
Y190750D01*
X98750Y185250D02*
Y190750D01*
X210250Y140250D02*
Y145750D01*
X199750Y140250D02*
Y145750D01*
Y140250D02*
X210250D01*
X199750Y145750D02*
X210250D01*
X262750Y212250D02*
Y222750D01*
X257250Y212250D02*
Y222750D01*
X262750D01*
X257250Y212250D02*
X262750D01*
X257250Y252250D02*
X262750D01*
X257250Y241750D02*
X262750D01*
Y252250D01*
X257250Y241750D02*
Y252250D01*
Y294250D02*
X262750D01*
X257250Y283750D02*
X262750D01*
Y294250D01*
X257250Y283750D02*
Y294250D01*
X11250Y411750D02*
Y422250D01*
X16750Y411750D02*
Y422250D01*
X11250Y411750D02*
X16750D01*
X11250Y422250D02*
X16750D01*
X117750Y195250D02*
X128250D01*
X117750Y200750D02*
X128250D01*
X117750Y195250D02*
Y200750D01*
X128250Y195250D02*
Y200750D01*
X238750Y228250D02*
Y233750D01*
X249250Y228250D02*
Y233750D01*
X238750Y228250D02*
X249250D01*
X238750Y233750D02*
X249250D01*
X238750Y238250D02*
X249250D01*
X238750Y243750D02*
X249250D01*
X238750Y238250D02*
Y243750D01*
X249250Y238250D02*
Y243750D01*
X278700Y259750D02*
Y340250D01*
X221000Y259750D02*
X278700D01*
X221000Y340250D02*
X278700D01*
X221000Y259750D02*
Y340250D01*
X210959Y49500D02*
Y149501D01*
X284459D01*
Y49500D02*
Y149501D01*
X210959Y49500D02*
X284459D01*
X29000Y578000D02*
X74000D01*
X29000Y512000D02*
X74000D01*
Y578000D01*
X29000Y512000D02*
Y578000D01*
X110498Y539502D02*
X159499D01*
X110498Y514502D02*
Y539502D01*
Y514502D02*
X159499D01*
Y539502D01*
X94250Y530250D02*
X99750D01*
X94250Y519750D02*
X99750D01*
X94250D02*
Y530250D01*
X99750Y519750D02*
Y530250D01*
X23750Y551750D02*
Y562250D01*
X18250Y551750D02*
Y562250D01*
X23750D01*
X18250Y551750D02*
X23750D01*
X77750D02*
Y562250D01*
X72250Y551750D02*
Y562250D01*
X77750D01*
X72250Y551750D02*
X77750D01*
X37000Y567000D02*
X60999D01*
X37000Y537000D02*
Y567000D01*
Y537000D02*
X60999D01*
Y567000D01*
X90250Y518750D02*
Y529250D01*
X95750Y518750D02*
Y529250D01*
X90250Y518750D02*
X95750D01*
X90250Y529250D02*
X95750D01*
X99250Y518750D02*
Y529250D01*
X104750Y518750D02*
Y529250D01*
X99250Y518750D02*
X104750D01*
X99250Y529250D02*
X104750D01*
X165250D02*
X170750D01*
X165250Y518750D02*
X170750D01*
X165250D02*
Y529250D01*
X170750Y518750D02*
Y529250D01*
X174250D02*
X179750D01*
X174250Y518750D02*
X179750D01*
X174250D02*
Y529250D01*
X179750Y518750D02*
Y529250D01*
X238750Y220750D02*
X249250D01*
X238750Y215250D02*
X249250D01*
Y220750D01*
X238750Y215250D02*
Y220750D01*
X165250Y142250D02*
Y147750D01*
X154750Y142250D02*
Y147750D01*
Y142250D02*
X165250D01*
X154750Y147750D02*
X165250D01*
X146250Y142250D02*
Y147750D01*
X135750Y142250D02*
Y147750D01*
Y142250D02*
X146250D01*
X135750Y147750D02*
X146250D01*
X27750Y45250D02*
Y50750D01*
X38250Y45250D02*
Y50750D01*
X27750Y45250D02*
X38250D01*
X27750Y50750D02*
X38250D01*
X53500Y67250D02*
Y85250D01*
X22500Y67250D02*
Y85250D01*
Y67250D02*
X53500D01*
X22500Y85250D02*
X53500D01*
X57250Y45250D02*
Y50750D01*
X46750Y45250D02*
Y50750D01*
X57250D01*
X46750Y45250D02*
X57250D01*
X20810Y100910D02*
Y106410D01*
X31310Y100910D02*
Y106410D01*
X20810Y100910D02*
X31310D01*
X20810Y106410D02*
X31310D01*
X39810Y100910D02*
Y106410D01*
X50310Y100910D02*
Y106410D01*
X39810Y100910D02*
X50310D01*
X39810Y106410D02*
X50310D01*
X256002Y202001D02*
X264001D01*
Y218002D01*
X256002D02*
X264001D01*
X256002Y202001D02*
Y218002D01*
X252250Y25250D02*
Y30750D01*
X241750Y25250D02*
Y30750D01*
X252250D01*
X241750Y25250D02*
X252250D01*
X241750Y36250D02*
Y41750D01*
X252250Y36250D02*
Y41750D01*
X241750Y36250D02*
X252250D01*
X241750Y41750D02*
X252250D01*
Y94250D02*
Y99750D01*
X241750Y94250D02*
Y99750D01*
X252250D01*
X241750Y94250D02*
X252250D01*
X97750Y311250D02*
Y316750D01*
X108250Y311250D02*
Y316750D01*
X97750Y311250D02*
X108250D01*
X97750Y316750D02*
X108250D01*
X155750Y269250D02*
Y274750D01*
X166250Y269250D02*
Y274750D01*
X155750Y269250D02*
X166250D01*
X155750Y274750D02*
X166250D01*
X168250Y215250D02*
Y220750D01*
X157750Y215250D02*
Y220750D01*
X168250D01*
X157750Y215250D02*
X168250D01*
X141400Y210600D02*
Y301400D01*
X50600Y210600D02*
Y301400D01*
X141400D01*
X50600Y210600D02*
X141400D01*
X155750Y284750D02*
X166250D01*
X155750Y279250D02*
X166250D01*
Y284750D01*
X155750Y279250D02*
Y284750D01*
Y289250D02*
X166250D01*
X155750Y294750D02*
X166250D01*
X155750Y289250D02*
Y294750D01*
X166250Y289250D02*
Y294750D01*
X157750Y240750D02*
X168250D01*
X157750Y235250D02*
X168250D01*
Y240750D01*
X157750Y235250D02*
Y240750D01*
Y225250D02*
X168250D01*
X157750Y230750D02*
X168250D01*
X157750Y225250D02*
Y230750D01*
X168250Y225250D02*
Y230750D01*
X185250Y158750D02*
X190750D01*
X185250Y169250D02*
X190750D01*
Y158750D02*
Y169250D01*
X185250Y158750D02*
Y169250D01*
X235750Y146250D02*
Y151750D01*
X246250Y146250D02*
Y151750D01*
X235750Y146250D02*
X246250D01*
X235750Y151750D02*
X246250D01*
X224750Y140750D02*
X235250D01*
X224750Y135250D02*
X235250D01*
Y140750D01*
X224750Y135250D02*
Y140750D01*
X229500Y184000D02*
Y201000D01*
X220500Y184000D02*
Y201000D01*
Y184000D02*
X229500D01*
X220500Y201000D02*
X229500D01*
X234250Y169250D02*
X239750D01*
X234250Y158750D02*
X239750D01*
X234250D02*
Y169250D01*
X239750Y158750D02*
Y169250D01*
X215500Y179500D02*
Y210750D01*
X215250Y210500D02*
X215500Y210750D01*
X184500Y210500D02*
X215250D01*
X184500Y179500D02*
Y210500D01*
Y179500D02*
X215500D01*
X196200Y144079D02*
Y174079D01*
X228200D01*
Y144079D02*
Y174079D01*
X196200Y144079D02*
X228200D01*
X185750Y277250D02*
X196250D01*
X185750Y282750D02*
X196250D01*
X185750Y277250D02*
Y282750D01*
X196250Y277250D02*
Y282750D01*
X210750Y323750D02*
Y334250D01*
X205250Y323750D02*
Y334250D01*
Y323750D02*
X210750D01*
X205250Y334250D02*
X210750D01*
X34750Y33250D02*
X45250D01*
X34750Y38750D02*
X45250D01*
Y33250D02*
Y38750D01*
X34750Y33250D02*
Y38750D01*
X15250Y38750D02*
X20750D01*
X15250Y49250D02*
X20750D01*
X15250Y38750D02*
Y49250D01*
X20750Y38750D02*
Y49250D01*
X75750Y51750D02*
Y62250D01*
X70250Y51750D02*
Y62250D01*
X75750D01*
X70250Y51750D02*
X75750D01*
X63000Y43000D02*
Y73000D01*
X31000D02*
X63000D01*
X31000Y43000D02*
Y73000D01*
Y43000D02*
X63000D01*
X44500Y79500D02*
Y110750D01*
X44750Y110500D01*
X75500D01*
Y79500D02*
Y110500D01*
X44500Y79500D02*
X75500D01*
X110501Y514502D02*
Y539502D01*
Y514502D02*
X159502D01*
Y539502D01*
X110501D02*
X159502D01*
X10000Y8000D02*
G03*
X18000Y0I8000J0D01*
G01*
Y600000D02*
G03*
X10000Y592000I0J-8000D01*
G01*
Y8000D02*
Y15000D01*
X18000Y-0D02*
X270000Y0D01*
X10000Y585000D02*
Y592000D01*
X18000Y600000D02*
X270000D01*
X-0Y585000D02*
X-0Y15000D01*
X0Y585000D02*
X10000D01*
X0Y15000D02*
X10000D01*
X270000Y0D02*
Y330000D01*
Y600000D01*
D142*
X42000Y387000D02*
X62000D01*
Y397000D01*
X42000D02*
X62000D01*
X42000Y387000D02*
Y397000D01*
X51000Y127000D02*
X71000D01*
X51000D02*
Y137000D01*
X71000D01*
Y127000D02*
Y137000D01*
X160000Y341000D02*
X180000D01*
Y351000D01*
X160000D02*
X180000D01*
X160000Y341000D02*
Y351000D01*
X71000Y198000D02*
X91000D01*
X71000Y188000D02*
Y198000D01*
Y188000D02*
X91000D01*
Y198000D01*
X156000Y152000D02*
X166000D01*
X156000D02*
Y172000D01*
X166000D01*
Y152000D02*
Y172000D01*
M02*
