G04*
G04 #@! TF.GenerationSoftware,Altium Limited,Altium Designer,20.2.6 (244)*
G04*
G04 Layer_Physical_Order=4*
G04 Layer_Color=16440176*
%FSLAX44Y44*%
%MOMM*%
G71*
G04*
G04 #@! TF.SameCoordinates,2E3406EB-8CA3-48A4-8E0D-F2ADFDB7BFFD*
G04*
G04*
G04 #@! TF.FilePolarity,Positive*
G04*
G01*
G75*
%ADD13C,0.1000*%
%ADD60C,0.1250*%
%ADD62C,0.6000*%
%ADD68C,0.4500*%
D13*
X10000Y8000D02*
G03*
X18000Y0I8000J0D01*
G01*
Y600000D02*
G03*
X10000Y592000I0J-8000D01*
G01*
Y8000D02*
Y15000D01*
X18000Y-0D02*
X270000Y0D01*
X10000Y585000D02*
Y592000D01*
X18000Y600000D02*
X270000D01*
X-0Y585000D02*
X-0Y15000D01*
X0Y585000D02*
X10000D01*
X0Y15000D02*
X10000D01*
X270000Y0D02*
Y330000D01*
Y600000D01*
D60*
X38000Y124000D02*
X47000Y133000D01*
X98750Y59750D02*
Y134714D01*
X101250Y58714D02*
Y139750D01*
X78411Y35875D02*
X101250Y58714D01*
X77375Y38375D02*
X98750Y59750D01*
X81625Y151839D02*
X98750Y134714D01*
X95000Y146000D02*
X101250Y139750D01*
X58500Y55500D02*
X68000Y46000D01*
X56000Y52166D02*
X66291Y41875D01*
X54781Y48250D02*
X64656Y38375D01*
X77375D01*
X66291Y41875D02*
X74377D01*
X78754Y46252D01*
X58500Y55500D02*
Y71500D01*
X20375Y109625D02*
X58500Y71500D01*
X36250Y48250D02*
X54781D01*
X29118Y41118D02*
X36250Y48250D01*
X56000Y52166D02*
Y70000D01*
X257125Y150959D02*
Y164875D01*
X245000Y138834D02*
X257125Y150959D01*
X256000Y166000D02*
X257125Y164875D01*
X245000Y138000D02*
Y138834D01*
X254000Y75000D02*
Y142000D01*
X248000Y69000D02*
X254000Y75000D01*
X22875Y110661D02*
Y233339D01*
Y110661D02*
X44661Y88875D01*
X58709D01*
X63000Y93166D01*
Y102000D01*
X44071Y93000D02*
X57000D01*
X25375Y111696D02*
X44071Y93000D01*
X41607Y99000D02*
X57000D01*
X27875Y112732D02*
X41607Y99000D01*
X37142Y107000D02*
X78000D01*
X30375Y113767D02*
X37142Y107000D01*
X78000D02*
X87000Y98000D01*
X30375Y113767D02*
Y230233D01*
X38000Y118000D02*
Y124000D01*
X32875Y117125D02*
Y225125D01*
X27875Y112732D02*
Y231268D01*
X25375Y111696D02*
Y232304D01*
X20375Y109625D02*
Y234375D01*
X17875Y108125D02*
Y226125D01*
X91125Y70125D02*
Y97410D01*
X76786Y111750D02*
X91125Y97410D01*
X38250Y111750D02*
X76786D01*
X88000Y67000D02*
X91125Y70125D01*
X87000Y81000D02*
Y98000D01*
X11750Y41118D02*
X29118D01*
X56438Y35875D02*
X78411D01*
X17875Y108125D02*
X56000Y70000D01*
X50563Y41750D02*
X56438Y35875D01*
X218000Y140000D02*
X220000Y138000D01*
X84125Y156875D02*
X95000Y146000D01*
X87000Y163000D02*
X103000Y147000D01*
X87000Y163000D02*
Y173166D01*
X85875Y174291D02*
X87000Y173166D01*
X81625Y151839D02*
Y171470D01*
X32875Y117125D02*
X38250Y111750D01*
X170125Y397875D02*
X223875D01*
X160875Y407125D02*
X170125Y397875D01*
X223875D02*
X232000Y406000D01*
Y429000D01*
X220000Y138000D02*
X245000D01*
X249166Y155000D02*
X253000D01*
X237125Y167041D02*
X249166Y155000D01*
X237125Y167041D02*
Y220375D01*
X239875Y251875D02*
X263000Y275000D01*
X14000Y368000D02*
X43000Y397000D01*
X14000Y265000D02*
Y368000D01*
X37625Y402375D02*
X43000Y397000D01*
X37625Y402375D02*
Y429958D01*
X36063Y431521D02*
X37625Y429958D01*
X36063Y431521D02*
Y467813D01*
X14875Y489000D02*
X36063Y467813D01*
X43000Y397000D02*
X53000D01*
X56000Y400000D01*
X139000D01*
X146125Y407125D01*
X160875D01*
X43750Y284166D02*
X46875Y287291D01*
X43750Y254214D02*
Y284166D01*
X22875Y233339D02*
X43750Y254214D01*
X25375Y232304D02*
X46459Y253388D01*
X20375Y234375D02*
X41250Y255250D01*
X27875Y231268D02*
X48959Y252352D01*
X30375Y230233D02*
X51459Y251317D01*
X32875Y225125D02*
X36750Y229000D01*
X11622Y232378D02*
X17875Y226125D01*
X11622Y232378D02*
Y234378D01*
X11000Y235000D02*
X11622Y234378D01*
X84125Y156875D02*
Y172506D01*
X79125Y146291D02*
Y170435D01*
X58875Y144291D02*
Y170875D01*
Y144291D02*
X61291Y141875D01*
X74709D01*
X79125Y146291D01*
X58875Y170875D02*
X60000Y172000D01*
X98625Y282019D02*
X112232Y295625D01*
X98625Y274090D02*
Y282019D01*
X86768Y262232D02*
X98625Y274090D01*
X96125Y283054D02*
X116446Y303375D01*
X96125Y275125D02*
Y283054D01*
X84268Y263268D02*
X96125Y275125D01*
X93625Y284090D02*
X115410Y305875D01*
X93625Y276161D02*
Y284090D01*
X81768Y264303D02*
X93625Y276161D01*
X71768Y222768D02*
Y268445D01*
X52000Y203000D02*
X71768Y222768D01*
X52000Y183000D02*
Y203000D01*
X71768Y268445D02*
X83625Y280303D01*
X74268Y212339D02*
Y267410D01*
X73375Y211446D02*
X74268Y212339D01*
Y267410D02*
X86125Y279267D01*
X73375Y156375D02*
Y211446D01*
X231000Y226500D02*
X237125Y220375D01*
X86768Y207161D02*
Y262232D01*
X85875Y206268D02*
X86768Y207161D01*
X84268Y208197D02*
Y263268D01*
X83375Y207304D02*
X84268Y208197D01*
X81768Y209232D02*
Y264303D01*
X80875Y208339D02*
X81768Y209232D01*
X79268Y265339D02*
X91125Y277196D01*
X79268Y210268D02*
Y265339D01*
X78375Y209375D02*
X79268Y210268D01*
X78375Y171185D02*
Y209375D01*
Y171185D02*
X79125Y170435D01*
X80875Y172220D02*
Y208339D01*
Y172220D02*
X81625Y171470D01*
X83375Y173256D02*
Y207304D01*
Y173256D02*
X84125Y172506D01*
X85875Y174291D02*
Y206268D01*
X75875Y155339D02*
Y210410D01*
X76768Y211303D01*
Y266374D01*
X63000Y146000D02*
X73375Y156375D01*
X75000Y154464D02*
X75875Y155339D01*
X76768Y266374D02*
X88625Y278232D01*
X136875Y305875D02*
X139000Y308000D01*
X115410Y305875D02*
X136875D01*
X140875Y303875D02*
X145000Y308000D01*
X138541Y303875D02*
X140875D01*
X138041Y303375D02*
X138541Y303875D01*
X116446Y303375D02*
X138041D01*
X112232Y295625D02*
X146625D01*
X151000Y300000D01*
Y311000D01*
X88625Y278232D02*
Y292446D01*
X45000Y176000D02*
X52000Y183000D01*
X83625Y280303D02*
Y290375D01*
X86125Y279267D02*
Y291411D01*
X91125Y277196D02*
Y285125D01*
X75000Y148000D02*
Y154464D01*
X91125Y285125D02*
X116000Y310000D01*
X83000Y298071D02*
X88625Y292446D01*
X61875Y312125D02*
X83625Y290375D01*
X64375Y313161D02*
X86125Y291411D01*
X158500Y274500D02*
Y310500D01*
Y274500D02*
X181125Y251875D01*
X239875D01*
X59375Y281768D02*
Y338006D01*
X56875Y282804D02*
Y339041D01*
X54375Y283839D02*
Y342375D01*
X51875Y284875D02*
Y334125D01*
X48959Y281959D02*
X51875Y284875D01*
X49375Y286256D02*
Y321625D01*
X46459Y283339D02*
X49375Y286256D01*
X46875Y287291D02*
Y313125D01*
X83000Y298071D02*
Y324000D01*
X79000Y328000D02*
X83000Y324000D01*
X72000Y328000D02*
X79000D01*
X64375Y313161D02*
Y332000D01*
X67375Y335000D01*
X72000D01*
X61875Y336970D02*
X81030Y356125D01*
X152902Y349375D02*
X168375D01*
X174375Y355375D01*
X146152Y356125D02*
X152902Y349375D01*
X78959Y361125D02*
X151875D01*
X174375Y355375D02*
Y370625D01*
X164375Y357541D02*
Y358000D01*
X151875Y361125D02*
X157000Y356000D01*
X81030Y356125D02*
X146152D01*
X158709Y351875D02*
X164375Y357541D01*
X153938Y351875D02*
X158709D01*
X147188Y358625D02*
X153938Y351875D01*
X56875Y339041D02*
X78959Y361125D01*
X59375Y338006D02*
X79994Y358625D01*
X147188D01*
X54375Y342375D02*
X54875Y342875D01*
X61875Y312125D02*
Y336970D01*
X158000Y387000D02*
X174375Y370625D01*
X158000Y387000D02*
Y403000D01*
X56459Y249245D02*
Y278852D01*
X49500Y242287D02*
X56459Y249245D01*
X53959Y250281D02*
Y279888D01*
X47000Y243322D02*
X53959Y250281D01*
X51459Y251317D02*
Y280923D01*
X48959Y252352D02*
Y281959D01*
X46459Y253388D02*
Y283339D01*
X41250Y255250D02*
Y282750D01*
X37875Y286125D02*
X41250Y282750D01*
X47000Y324000D02*
X49375Y321625D01*
X50000Y336000D02*
X51875Y334125D01*
X56459Y278852D02*
X59375Y281768D01*
X37875Y286125D02*
Y300875D01*
X41000Y304000D01*
X51459Y280923D02*
X54375Y283839D01*
X42000Y318000D02*
X46875Y313125D01*
X53959Y279888D02*
X56875Y282804D01*
X49500Y209965D02*
Y242287D01*
X44000Y204464D02*
X49500Y209965D01*
X44000Y183000D02*
Y204464D01*
X47000Y211000D02*
Y243322D01*
X38000Y202000D02*
X47000Y211000D01*
X38000Y186000D02*
Y202000D01*
D62*
X212500Y44000D02*
X233000D01*
X195000Y61500D02*
X212500Y44000D01*
X195000Y61500D02*
Y132000D01*
D68*
X47000Y133000D02*
D03*
X68000Y46000D02*
D03*
X254000Y142000D02*
D03*
X57000Y93000D02*
D03*
Y99000D02*
D03*
X63000Y102000D02*
D03*
X38000Y118000D02*
D03*
X87000Y81000D02*
D03*
X11750Y41118D02*
D03*
X78754Y46252D02*
D03*
X50563Y41750D02*
D03*
X218000Y140000D02*
D03*
X103000Y147000D02*
D03*
X88000Y67000D02*
D03*
X38250Y111750D02*
D03*
X233000Y44000D02*
D03*
X248000Y69000D02*
D03*
X232000Y429000D02*
D03*
X256000Y166000D02*
D03*
X245000Y138000D02*
D03*
X253000Y155000D02*
D03*
X263000Y275000D02*
D03*
X14000Y265000D02*
D03*
X14875Y489000D02*
D03*
X36750Y229000D02*
D03*
X95000Y146000D02*
D03*
X60000Y172000D02*
D03*
X195000Y132000D02*
D03*
X231000Y226500D02*
D03*
X158500Y310500D02*
D03*
X75000Y148000D02*
D03*
X63000Y146000D02*
D03*
X164375Y358000D02*
D03*
X157000Y356000D02*
D03*
X54875Y342875D02*
D03*
X72000Y335000D02*
D03*
Y328000D02*
D03*
X47000Y324000D02*
D03*
X38000Y186000D02*
D03*
X44000Y183000D02*
D03*
X45000Y176000D02*
D03*
X50000Y336000D02*
D03*
X11000Y235000D02*
D03*
X42000Y318000D02*
D03*
X41000Y304000D02*
D03*
X116000Y310000D02*
D03*
X151000Y311000D02*
D03*
X139000Y308000D02*
D03*
X145000D02*
D03*
X158000Y403000D02*
D03*
M02*
