G04*
G04 #@! TF.GenerationSoftware,Altium Limited,Altium Designer,21.0.8 (223)*
G04*
G04 Layer_Physical_Order=3*
G04 Layer_Color=36540*
%FSLAX44Y44*%
%MOMM*%
G71*
G04*
G04 #@! TF.SameCoordinates,BC6D3639-D4A0-4107-B96B-A8576DDDF865*
G04*
G04*
G04 #@! TF.FilePolarity,Positive*
G04*
G01*
G75*
%ADD13C,0.1000*%
%ADD59C,0.1250*%
%ADD62C,0.6000*%
%ADD63C,0.4000*%
%ADD65C,1.7500*%
%ADD68C,0.4500*%
%ADD74C,1.2500*%
D13*
X10000Y8000D02*
G03*
X18000Y0I8000J0D01*
G01*
Y600000D02*
G03*
X10000Y592000I0J-8000D01*
G01*
Y8000D02*
Y15000D01*
X18000Y-0D02*
X270000Y0D01*
X10000Y585000D02*
Y592000D01*
X18000Y600000D02*
X270000D01*
X-0Y585000D02*
X-0Y15000D01*
X0Y585000D02*
X10000D01*
X0Y15000D02*
X10000D01*
X270000Y0D02*
Y330000D01*
Y600000D01*
D59*
X253000Y143000D02*
Y155000D01*
Y143000D02*
X254000Y142000D01*
D62*
X195000Y132000D02*
Y216000D01*
X183000Y211000D02*
X188000Y216000D01*
X174500Y211000D02*
X183000D01*
X188000Y216000D02*
X195000D01*
X223000Y177000D02*
Y301625D01*
X211625Y313000D02*
X223000Y301625D01*
D63*
X38000Y132000D02*
X53000Y147000D01*
Y210750D01*
X38000Y131500D02*
Y132000D01*
X175000Y238000D02*
Y254734D01*
X179834Y259568D01*
X53000Y210750D02*
X63500Y221250D01*
X77750Y207000D01*
X174500Y211000D02*
Y211135D01*
X175000Y211635D01*
Y238000D01*
X163182Y211000D02*
X174500D01*
X156182Y204000D02*
X163182Y211000D01*
X77750Y207000D02*
X100000D01*
X109000Y198000D01*
X115000Y204000D02*
X156182D01*
X109000Y198000D02*
X115000Y204000D01*
X179834Y259568D02*
Y276166D01*
X174000Y282000D02*
X179834Y276166D01*
X117000Y282000D02*
X174000D01*
X78500Y320500D02*
X117000Y282000D01*
X61930Y275930D02*
X63500Y277500D01*
X61930Y269096D02*
Y275930D01*
X61835Y269000D02*
X61930Y269096D01*
X63500Y277500D02*
Y290500D01*
Y305500D02*
X78500Y320500D01*
X63500Y290500D02*
Y305500D01*
D65*
X213310Y74100D02*
D03*
Y99500D02*
D03*
D68*
X254000Y142000D02*
D03*
X38000Y131500D02*
D03*
X26000Y23000D02*
D03*
X244000Y485000D02*
D03*
X239000D02*
D03*
X253000Y155000D02*
D03*
X21000Y79000D02*
D03*
X63500Y221250D02*
D03*
X195000Y132000D02*
D03*
Y216000D02*
D03*
X223000Y177000D02*
D03*
X174500Y211000D02*
D03*
X175000Y238000D02*
D03*
X63500Y290500D02*
D03*
X61835Y269000D02*
D03*
X78500Y320500D02*
D03*
X109000Y198000D02*
D03*
X174000Y282000D02*
D03*
X211625Y313000D02*
D03*
D74*
X96711Y95000D02*
X117000D01*
X79711Y112000D02*
X96711Y95000D01*
X54000Y112000D02*
X79711D01*
X117000Y95000D02*
X139250Y72750D01*
X21000Y79000D02*
X54000Y112000D01*
X89500Y23000D02*
X139250Y72750D01*
X181679D01*
X183029Y74100D01*
X213310D01*
X27000Y23000D02*
X89500D01*
X241000Y475000D02*
Y484000D01*
Y475000D02*
X245000Y471000D01*
Y176000D02*
Y471000D01*
X234000Y165000D02*
X245000Y176000D01*
X213310Y99500D02*
X234000Y120190D01*
Y165000D01*
M02*
