G04*
G04 #@! TF.GenerationSoftware,Altium Limited,Altium Designer,21.0.8 (223)*
G04*
G04 Layer_Color=255*
%FSLAX44Y44*%
%MOMM*%
G71*
G04*
G04 #@! TF.SameCoordinates,BC6D3639-D4A0-4107-B96B-A8576DDDF865*
G04*
G04*
G04 #@! TF.FilePolarity,Positive*
G04*
G01*
G75*
%ADD13C,0.1000*%
G04:AMPARAMS|DCode=18|XSize=1.6mm|YSize=0.8mm|CornerRadius=0.4mm|HoleSize=0mm|Usage=FLASHONLY|Rotation=0.000|XOffset=0mm|YOffset=0mm|HoleType=Round|Shape=RoundedRectangle|*
%AMROUNDEDRECTD18*
21,1,1.6000,0.0000,0,0,0.0*
21,1,0.8000,0.8000,0,0,0.0*
1,1,0.8000,0.4000,0.0000*
1,1,0.8000,-0.4000,0.0000*
1,1,0.8000,-0.4000,0.0000*
1,1,0.8000,0.4000,0.0000*
%
%ADD18ROUNDEDRECTD18*%
G04:AMPARAMS|DCode=19|XSize=0.8mm|YSize=1.6mm|CornerRadius=0.4mm|HoleSize=0mm|Usage=FLASHONLY|Rotation=0.000|XOffset=0mm|YOffset=0mm|HoleType=Round|Shape=RoundedRectangle|*
%AMROUNDEDRECTD19*
21,1,0.8000,0.8000,0,0,0.0*
21,1,0.0000,1.6000,0,0,0.0*
1,1,0.8000,0.0000,-0.4000*
1,1,0.8000,0.0000,-0.4000*
1,1,0.8000,0.0000,0.4000*
1,1,0.8000,0.0000,0.4000*
%
%ADD19ROUNDEDRECTD19*%
%ADD21R,0.5500X0.5500*%
%ADD23R,0.5500X0.5500*%
%ADD24R,0.3500X0.4500*%
%ADD25R,0.2500X0.4500*%
%ADD26R,0.9500X0.5500*%
%ADD27R,1.2000X1.8000*%
%ADD28R,0.6000X1.5500*%
%ADD29R,0.8000X0.5500*%
%ADD30R,1.0600X0.6500*%
%ADD31R,1.0600X0.6000*%
%ADD32R,0.8000X2.7000*%
%ADD33R,0.5000X0.5000*%
%ADD55R,5.0000X5.0000*%
%ADD56C,1.0000*%
%ADD57R,0.8000X0.8000*%
%ADD58C,1.2700*%
%ADD65C,1.7500*%
%ADD66R,1.5240X1.5240*%
%ADD67C,1.5240*%
D13*
X10000Y8000D02*
G03*
X18000Y0I8000J0D01*
G01*
Y600000D02*
G03*
X10000Y592000I0J-8000D01*
G01*
Y8000D02*
Y15000D01*
X18000Y-0D02*
X270000Y0D01*
X10000Y585000D02*
Y592000D01*
X18000Y600000D02*
X270000D01*
X-0Y585000D02*
X-0Y15000D01*
X0Y585000D02*
X10000D01*
X0Y15000D02*
X10000D01*
X270000Y0D02*
Y330000D01*
Y600000D01*
D18*
X25000Y474000D02*
D03*
Y462000D02*
D03*
Y450000D02*
D03*
X245000Y174000D02*
D03*
Y186000D02*
D03*
Y210000D02*
D03*
Y234000D02*
D03*
Y270000D02*
D03*
Y294000D02*
D03*
Y330000D02*
D03*
Y354000D02*
D03*
Y378000D02*
D03*
Y390000D02*
D03*
Y414000D02*
D03*
Y438000D02*
D03*
Y450000D02*
D03*
Y474000D02*
D03*
Y198000D02*
D03*
Y222000D02*
D03*
Y282000D02*
D03*
Y258000D02*
D03*
Y246000D02*
D03*
Y306000D02*
D03*
Y366000D02*
D03*
Y318000D02*
D03*
Y342000D02*
D03*
Y402000D02*
D03*
Y426000D02*
D03*
Y462000D02*
D03*
X25000Y174000D02*
D03*
Y186000D02*
D03*
Y210000D02*
D03*
Y234000D02*
D03*
Y270000D02*
D03*
Y294000D02*
D03*
Y330000D02*
D03*
Y354000D02*
D03*
Y378000D02*
D03*
Y390000D02*
D03*
Y222000D02*
D03*
Y198000D02*
D03*
Y306000D02*
D03*
Y246000D02*
D03*
Y258000D02*
D03*
Y282000D02*
D03*
Y342000D02*
D03*
Y318000D02*
D03*
Y366000D02*
D03*
Y402000D02*
D03*
D19*
X39000Y160000D02*
D03*
X51000D02*
D03*
X75000D02*
D03*
X99000D02*
D03*
X135000D02*
D03*
X159000D02*
D03*
X195000D02*
D03*
X219000D02*
D03*
X87000D02*
D03*
X63000D02*
D03*
X123000D02*
D03*
X111000D02*
D03*
X147000D02*
D03*
X171000D02*
D03*
X231000D02*
D03*
X207000D02*
D03*
X183000D02*
D03*
D21*
X225000Y24500D02*
D03*
Y33500D02*
D03*
X260000Y336500D02*
D03*
Y345500D02*
D03*
X17000Y155000D02*
D03*
Y146000D02*
D03*
X17000Y137000D02*
D03*
X18000Y58500D02*
D03*
Y67500D02*
D03*
X149000Y117500D02*
D03*
Y108500D02*
D03*
X15000Y526500D02*
D03*
Y517500D02*
D03*
X260000Y222000D02*
D03*
Y213000D02*
D03*
Y251500D02*
D03*
Y242500D02*
D03*
Y293500D02*
D03*
Y284500D02*
D03*
X14000Y412500D02*
D03*
Y421500D02*
D03*
X21000Y561500D02*
D03*
Y552500D02*
D03*
X75000Y561500D02*
D03*
Y552500D02*
D03*
X93000Y519500D02*
D03*
Y528500D02*
D03*
X102000Y519500D02*
D03*
Y528500D02*
D03*
X18000Y39500D02*
D03*
Y48500D02*
D03*
X73000Y61500D02*
D03*
Y52500D02*
D03*
D23*
X93000Y510000D02*
D03*
X102000D02*
D03*
X103500Y574000D02*
D03*
X94500D02*
D03*
X20750Y107250D02*
D03*
X29750D02*
D03*
X181750Y138500D02*
D03*
X172750D02*
D03*
X187500Y128000D02*
D03*
X178500D02*
D03*
X209500Y143000D02*
D03*
X200500D02*
D03*
X164500Y145000D02*
D03*
X155500D02*
D03*
X145500D02*
D03*
X136500D02*
D03*
X44500Y36000D02*
D03*
X35500D02*
D03*
D24*
X69000Y136750D02*
D03*
Y127250D02*
D03*
X53000Y136750D02*
D03*
Y127250D02*
D03*
D25*
X63500D02*
D03*
Y136750D02*
D03*
X58500D02*
D03*
Y127250D02*
D03*
D26*
X34000Y81000D02*
D03*
Y97000D02*
D03*
D27*
X135000Y70000D02*
D03*
X99000D02*
D03*
X157000D02*
D03*
X193000D02*
D03*
D28*
X122000Y108750D02*
D03*
X112000D02*
D03*
X170000D02*
D03*
X180000D02*
D03*
D29*
X61000Y561500D02*
D03*
X37000Y552000D02*
D03*
X61000Y542500D02*
D03*
X37000Y561500D02*
D03*
Y542500D02*
D03*
D30*
X36000Y67500D02*
D03*
Y48500D02*
D03*
X58000D02*
D03*
Y58000D02*
D03*
X36000D02*
D03*
D31*
X58000Y67500D02*
D03*
D32*
X49000Y95000D02*
D03*
X71000D02*
D03*
D33*
X151000Y527000D02*
D03*
X119000D02*
D03*
Y519000D02*
D03*
X127000D02*
D03*
X151000D02*
D03*
X143000D02*
D03*
X135000D02*
D03*
Y535000D02*
D03*
X143000D02*
D03*
X151000D02*
D03*
X127000D02*
D03*
X119000D02*
D03*
D55*
X127000Y267000D02*
D03*
D56*
X170000Y20000D02*
D03*
X50000Y580000D02*
D03*
D57*
X260000Y42250D02*
D03*
Y25750D02*
D03*
D58*
X180000Y530000D02*
D03*
Y550000D02*
D03*
Y570000D02*
D03*
D65*
X213310Y74100D02*
D03*
Y124900D02*
D03*
Y99500D02*
D03*
D66*
X85900Y128000D02*
D03*
D67*
X111300D02*
D03*
X136700D02*
D03*
X162100D02*
D03*
M02*
