G04*
G04 #@! TF.GenerationSoftware,Altium Limited,Altium Designer,21.0.8 (223)*
G04*
G04 Layer_Physical_Order=1*
G04 Layer_Color=255*
%FSLAX44Y44*%
%MOMM*%
G71*
G04*
G04 #@! TF.SameCoordinates,BC6D3639-D4A0-4107-B96B-A8576DDDF865*
G04*
G04*
G04 #@! TF.FilePolarity,Positive*
G04*
G01*
G75*
%ADD10C,0.5000*%
%ADD12C,0.2000*%
%ADD13C,0.1000*%
G04:AMPARAMS|DCode=18|XSize=1.6mm|YSize=0.8mm|CornerRadius=0.4mm|HoleSize=0mm|Usage=FLASHONLY|Rotation=0.000|XOffset=0mm|YOffset=0mm|HoleType=Round|Shape=RoundedRectangle|*
%AMROUNDEDRECTD18*
21,1,1.6000,0.0000,0,0,0.0*
21,1,0.8000,0.8000,0,0,0.0*
1,1,0.8000,0.4000,0.0000*
1,1,0.8000,-0.4000,0.0000*
1,1,0.8000,-0.4000,0.0000*
1,1,0.8000,0.4000,0.0000*
%
%ADD18ROUNDEDRECTD18*%
G04:AMPARAMS|DCode=19|XSize=0.8mm|YSize=1.6mm|CornerRadius=0.4mm|HoleSize=0mm|Usage=FLASHONLY|Rotation=0.000|XOffset=0mm|YOffset=0mm|HoleType=Round|Shape=RoundedRectangle|*
%AMROUNDEDRECTD19*
21,1,0.8000,0.8000,0,0,0.0*
21,1,0.0000,1.6000,0,0,0.0*
1,1,0.8000,0.0000,-0.4000*
1,1,0.8000,0.0000,-0.4000*
1,1,0.8000,0.0000,0.4000*
1,1,0.8000,0.0000,0.4000*
%
%ADD19ROUNDEDRECTD19*%
%ADD21R,0.5500X0.5500*%
%ADD23R,0.5500X0.5500*%
%ADD24R,0.3500X0.4500*%
%ADD25R,0.2500X0.4500*%
%ADD26R,0.9500X0.5500*%
%ADD27R,1.2000X1.8000*%
%ADD28R,0.6000X1.5500*%
%ADD29R,0.8000X0.5500*%
%ADD30R,1.0600X0.6500*%
%ADD31R,1.0600X0.6000*%
%ADD32R,0.8000X2.7000*%
%ADD33R,0.5000X0.5000*%
%ADD55R,5.0000X5.0000*%
%ADD56C,1.0000*%
%ADD57R,0.8000X0.8000*%
%ADD58C,1.2700*%
%ADD59C,0.1250*%
%ADD60C,0.8000*%
%ADD61C,0.8500*%
%ADD62C,0.6000*%
%ADD63C,0.4000*%
%ADD64C,0.3000*%
%ADD65C,1.7500*%
%ADD66R,1.5240X1.5240*%
%ADD67C,1.5240*%
%ADD68C,0.4500*%
G36*
X265000Y350567D02*
X263884Y349781D01*
X263523Y349896D01*
X263044Y351255D01*
X263297Y351634D01*
X263569Y353000D01*
X263297Y354366D01*
X262523Y355523D01*
X261366Y356297D01*
X260000Y356569D01*
X258634Y356297D01*
X257477Y355523D01*
X256703Y354366D01*
X256431Y353000D01*
X256703Y351634D01*
X257281Y350770D01*
X256919Y349758D01*
X256718Y349500D01*
X256000D01*
Y341770D01*
X256000Y341500D01*
Y340500D01*
X256000Y340230D01*
Y332971D01*
X254920Y332040D01*
X253945Y332048D01*
X252785Y333785D01*
X251048Y334945D01*
X249000Y335353D01*
X241000D01*
X238952Y334945D01*
X237215Y333785D01*
X236055Y332048D01*
X236027Y331912D01*
X234459D01*
X233727Y331766D01*
X233107Y331352D01*
X216119Y314364D01*
X214683Y314724D01*
X214148Y315523D01*
X212991Y316297D01*
X212412Y316412D01*
X211994Y317790D01*
X234292Y340088D01*
X236027D01*
X236055Y339952D01*
X237215Y338215D01*
X238952Y337055D01*
X241000Y336647D01*
X249000D01*
X251048Y337055D01*
X252785Y338215D01*
X253945Y339952D01*
X254353Y342000D01*
X253945Y344048D01*
X252785Y345785D01*
X251048Y346945D01*
X249000Y347353D01*
X241000D01*
X238952Y346945D01*
X237215Y345785D01*
X236055Y344048D01*
X236027Y343912D01*
X233500D01*
X232912Y344394D01*
Y349208D01*
X234991Y351287D01*
X236614Y351114D01*
X237215Y350215D01*
X238952Y349055D01*
X241000Y348647D01*
X249000D01*
X251048Y349055D01*
X252785Y350215D01*
X253945Y351952D01*
X254353Y354000D01*
X253945Y356048D01*
X252785Y357785D01*
X251048Y358945D01*
X249000Y359353D01*
X241000D01*
X238952Y358945D01*
X237215Y357785D01*
X236055Y356048D01*
X236027Y355912D01*
X235000D01*
X234268Y355766D01*
X233648Y355352D01*
X231585Y353289D01*
X230412Y353775D01*
Y358583D01*
X235029Y363200D01*
X236664Y363040D01*
X237215Y362215D01*
X238952Y361055D01*
X241000Y360647D01*
X249000D01*
X251048Y361055D01*
X252785Y362215D01*
X253945Y363952D01*
X254353Y366000D01*
X253945Y368049D01*
X252785Y369785D01*
X251048Y370945D01*
X249000Y371353D01*
X241000D01*
X238952Y370945D01*
X237215Y369785D01*
X236055Y368049D01*
X236027Y367912D01*
X235125D01*
X234393Y367766D01*
X233773Y367352D01*
X229085Y362664D01*
X227912Y363150D01*
Y368208D01*
X234991Y375287D01*
X236614Y375114D01*
X237215Y374215D01*
X238952Y373055D01*
X241000Y372647D01*
X249000D01*
X251048Y373055D01*
X252785Y374215D01*
X253945Y375952D01*
X254353Y378000D01*
X253945Y380048D01*
X252785Y381785D01*
X251048Y382945D01*
X249000Y383353D01*
X241000D01*
X238952Y382945D01*
X237215Y381785D01*
X236055Y380048D01*
X236027Y379912D01*
X235000D01*
X234268Y379766D01*
X233648Y379352D01*
X226585Y372289D01*
X225412Y372775D01*
Y377708D01*
X234991Y387287D01*
X236614Y387114D01*
X237215Y386215D01*
X238952Y385055D01*
X241000Y384647D01*
X249000D01*
X251048Y385055D01*
X252785Y386215D01*
X253945Y387952D01*
X254353Y390000D01*
X253945Y392048D01*
X252785Y393785D01*
X251048Y394945D01*
X249000Y395353D01*
X241000D01*
X238952Y394945D01*
X237215Y393785D01*
X236055Y392048D01*
X236027Y391912D01*
X235000D01*
X234268Y391766D01*
X233648Y391352D01*
X224085Y381788D01*
X222912Y382275D01*
Y387208D01*
X234991Y399287D01*
X236614Y399114D01*
X237215Y398215D01*
X238952Y397055D01*
X241000Y396647D01*
X249000D01*
X251048Y397055D01*
X252785Y398215D01*
X253945Y399952D01*
X254353Y402000D01*
X253945Y404048D01*
X252785Y405785D01*
X251048Y406945D01*
X249000Y407353D01*
X241000D01*
X238952Y406945D01*
X237215Y405785D01*
X236055Y404048D01*
X236027Y403912D01*
X235000D01*
X234268Y403766D01*
X233648Y403352D01*
X221085Y390789D01*
X219912Y391275D01*
Y395839D01*
X235127Y411054D01*
X236762Y410893D01*
X237215Y410215D01*
X238952Y409055D01*
X241000Y408647D01*
X249000D01*
X251048Y409055D01*
X252785Y410215D01*
X253945Y411952D01*
X254353Y414000D01*
X253945Y416048D01*
X252785Y417785D01*
X251048Y418945D01*
X249000Y419353D01*
X241000D01*
X238952Y418945D01*
X237215Y417785D01*
X236055Y416048D01*
X235979Y415667D01*
X235125D01*
X234393Y415522D01*
X233773Y415108D01*
X232210Y413545D01*
X231037Y414030D01*
Y418333D01*
X235587Y422884D01*
X236851Y422759D01*
X237215Y422215D01*
X238952Y421055D01*
X241000Y420647D01*
X249000D01*
X251048Y421055D01*
X252785Y422215D01*
X253945Y423952D01*
X254353Y426000D01*
X253945Y428048D01*
X252785Y429785D01*
X251048Y430945D01*
X249000Y431353D01*
X241000D01*
X238952Y430945D01*
X237215Y429785D01*
X236796Y429159D01*
X235476Y429468D01*
X235297Y430366D01*
X234523Y431523D01*
X233366Y432297D01*
X232000Y432569D01*
X230634Y432297D01*
X229477Y431523D01*
X228703Y430366D01*
X228431Y429000D01*
X228703Y427634D01*
X229477Y426477D01*
X230634Y425703D01*
X231109Y425609D01*
X231527Y424231D01*
X227773Y420477D01*
X227359Y419857D01*
X227213Y419125D01*
Y412083D01*
X222494Y407364D01*
X221058Y407724D01*
X220523Y408523D01*
X219366Y409297D01*
X218000Y409569D01*
X216634Y409297D01*
X215477Y408523D01*
X214703Y407366D01*
X214431Y406000D01*
X214703Y404634D01*
X215477Y403477D01*
X216276Y402942D01*
X216636Y401506D01*
X214148Y399018D01*
X213734Y398398D01*
X213588Y397666D01*
Y361319D01*
X212641Y360512D01*
X211391Y360891D01*
X211297Y361366D01*
X210523Y362523D01*
X209366Y363297D01*
X208000Y363569D01*
X206634Y363297D01*
X205477Y362523D01*
X204703Y361366D01*
X204431Y360000D01*
X203949Y359412D01*
X183775D01*
X183289Y360585D01*
X209352Y386648D01*
X209766Y387268D01*
X209912Y388000D01*
Y389068D01*
X210523Y389477D01*
X211297Y390634D01*
X211569Y392000D01*
X211297Y393366D01*
X210523Y394523D01*
X209366Y395297D01*
X209308Y395308D01*
X208890Y396686D01*
X209352Y397148D01*
X209766Y397768D01*
X209912Y398500D01*
Y399068D01*
X210523Y399477D01*
X211297Y400634D01*
X211569Y402000D01*
X211297Y403366D01*
X210523Y404523D01*
X209366Y405297D01*
X208000Y405569D01*
X206634Y405297D01*
X205477Y404523D01*
X204703Y403366D01*
X204431Y402000D01*
X204703Y400634D01*
X205477Y399477D01*
X205548Y398752D01*
X202523Y395727D01*
X202109Y395107D01*
X201963Y394375D01*
Y388667D01*
X186385Y373088D01*
X185838Y373363D01*
X185337Y373837D01*
X185569Y375000D01*
X185297Y376366D01*
X184523Y377523D01*
X183366Y378297D01*
X182000Y378569D01*
X180634Y378297D01*
X179477Y377523D01*
X178703Y376366D01*
X178431Y375000D01*
X178575Y374279D01*
X171208Y366912D01*
X160000D01*
X159268Y366766D01*
X158648Y366352D01*
X147648Y355352D01*
X147234Y354732D01*
X147088Y354000D01*
Y349715D01*
X146591Y349392D01*
X145818Y349160D01*
X144866Y349797D01*
X144084Y349952D01*
X140875Y353161D01*
Y390929D01*
X140661Y392002D01*
X140054Y392912D01*
X137470Y395495D01*
X137297Y396366D01*
X136523Y397523D01*
X135366Y398297D01*
X134000Y398569D01*
X132634Y398297D01*
X131477Y397523D01*
X130703Y396366D01*
X130431Y395000D01*
X130703Y393634D01*
X131477Y392477D01*
X132634Y391703D01*
X133505Y391530D01*
X135267Y389767D01*
Y354804D01*
X109103D01*
X108366Y355297D01*
X107000Y355569D01*
X105634Y355297D01*
X104477Y354523D01*
X103703Y353366D01*
X103431Y352000D01*
X103703Y350634D01*
X104477Y349477D01*
X105634Y348703D01*
X107000Y348431D01*
X108366Y348703D01*
X109103Y349196D01*
X116399D01*
X117078Y347926D01*
X116703Y347366D01*
X116431Y346000D01*
X116703Y344634D01*
X117477Y343477D01*
X118634Y342703D01*
X119370Y342557D01*
X119245Y341287D01*
X117125D01*
X116393Y341141D01*
X115773Y340727D01*
X93570Y318523D01*
X92399Y319149D01*
X92569Y320000D01*
X92297Y321366D01*
X91523Y322523D01*
X90366Y323297D01*
X89000Y323569D01*
X87634Y323297D01*
X86477Y322523D01*
X85703Y321366D01*
X85431Y320000D01*
X85575Y319279D01*
X81708Y315412D01*
X58500D01*
X57769Y315266D01*
X57149Y314852D01*
X45756Y303459D01*
X44797Y303896D01*
X44557Y304056D01*
X44297Y305366D01*
X43523Y306523D01*
X42366Y307297D01*
X41000Y307569D01*
X40251Y307419D01*
X39732Y307766D01*
X39000Y307912D01*
X33973D01*
X33945Y308048D01*
X32785Y309785D01*
X31048Y310945D01*
X29000Y311353D01*
X21000D01*
X18952Y310945D01*
X17215Y309785D01*
X16055Y308048D01*
X15647Y306000D01*
X16055Y303952D01*
X17215Y302215D01*
X18952Y301055D01*
X21000Y300647D01*
X29000D01*
X31048Y301055D01*
X32785Y302215D01*
X33945Y303952D01*
X33973Y304088D01*
X37359D01*
X37431Y304000D01*
X37703Y302634D01*
X38477Y301477D01*
X39296Y300929D01*
X39486Y299593D01*
X39476Y299523D01*
X38703Y298365D01*
X38431Y296999D01*
X38703Y295634D01*
X39477Y294476D01*
X40634Y293703D01*
X42000Y293431D01*
X43366Y293703D01*
X44523Y294476D01*
X45297Y295634D01*
X45568Y296999D01*
X45425Y297721D01*
X59292Y311588D01*
X82500D01*
X83232Y311734D01*
X83852Y312148D01*
X88279Y316575D01*
X89000Y316431D01*
X89851Y316601D01*
X90477Y315430D01*
X75148Y300102D01*
X74734Y299482D01*
X74588Y298750D01*
Y293682D01*
X73977Y293273D01*
X73763Y292954D01*
X72539Y292529D01*
X72206Y292735D01*
X71366Y293297D01*
X70000Y293569D01*
X68634Y293297D01*
X67477Y292523D01*
X66153Y292829D01*
X66023Y293023D01*
X64866Y293797D01*
X63500Y294069D01*
X62134Y293797D01*
X60977Y293023D01*
X60203Y291866D01*
X59931Y290500D01*
X60203Y289134D01*
X60977Y287977D01*
X62134Y287203D01*
X63500Y286931D01*
X64866Y287203D01*
X66023Y287977D01*
X67347Y287671D01*
X67477Y287477D01*
X68634Y286703D01*
X70000Y286431D01*
X70722Y286575D01*
X72295Y285002D01*
Y284460D01*
X72440Y283728D01*
X72855Y283108D01*
X76439Y279523D01*
X77060Y279109D01*
X77791Y278963D01*
X81209D01*
X81940Y279109D01*
X82560Y279523D01*
X83790Y280753D01*
X84963Y280267D01*
Y274202D01*
X76673Y265912D01*
X65508D01*
X64829Y267182D01*
X65132Y267634D01*
X65403Y269000D01*
X65132Y270366D01*
X64358Y271523D01*
X63200Y272297D01*
X61835Y272569D01*
X60469Y272297D01*
X59311Y271523D01*
X58538Y270366D01*
X58266Y269000D01*
X58538Y267634D01*
X59311Y266477D01*
X60469Y265703D01*
X61082Y265581D01*
X61500Y264203D01*
X59648Y262352D01*
X59234Y261731D01*
X59088Y261000D01*
Y256432D01*
X58477Y256023D01*
X57703Y254866D01*
X57431Y253500D01*
X57703Y252134D01*
X58477Y250977D01*
X59634Y250203D01*
X59692Y250192D01*
X60110Y248814D01*
X59648Y248352D01*
X59234Y247732D01*
X59088Y247000D01*
Y246432D01*
X58477Y246023D01*
X57703Y244866D01*
X57431Y243500D01*
X57703Y242134D01*
X58477Y240977D01*
X59634Y240203D01*
X61000Y239931D01*
X62366Y240203D01*
X63523Y240977D01*
X63997Y241686D01*
X65507Y242204D01*
X65509Y242203D01*
X66875Y241931D01*
X68240Y242203D01*
X69398Y242977D01*
X69807Y243588D01*
X70500D01*
X71232Y243734D01*
X71852Y244148D01*
X95727Y268023D01*
X96141Y268643D01*
X96287Y269375D01*
Y294583D01*
X111231Y309527D01*
X112609Y309109D01*
X112703Y308634D01*
X113477Y307477D01*
X114634Y306703D01*
X116000Y306431D01*
X116721Y306575D01*
X120773Y302523D01*
X121393Y302109D01*
X122125Y301963D01*
X205600D01*
X206086Y300790D01*
X160384Y255088D01*
X159839Y255362D01*
X159337Y255837D01*
X159568Y256999D01*
X159425Y257721D01*
X160268Y258564D01*
X160683Y259185D01*
X160749Y259517D01*
X161823Y260370D01*
X161969Y260437D01*
X162000Y260431D01*
X163365Y260703D01*
X164523Y261476D01*
X165297Y262634D01*
X165568Y264000D01*
X165297Y265365D01*
X164523Y266523D01*
X163365Y267296D01*
X162000Y267568D01*
X160634Y267296D01*
X159476Y266523D01*
X158703Y265365D01*
X158431Y264000D01*
X158575Y263278D01*
X157565Y262268D01*
X157150Y261648D01*
X157133Y261561D01*
X156000Y260568D01*
X155810Y260530D01*
X154540Y261573D01*
Y265730D01*
X128270D01*
Y239460D01*
X154540D01*
Y245118D01*
X154997Y245362D01*
X155810Y245668D01*
X157000Y245431D01*
X158366Y245703D01*
X159523Y246477D01*
X160297Y247634D01*
X160569Y249000D01*
X160425Y249722D01*
X214792Y304088D01*
X236027D01*
X236055Y303952D01*
X237215Y302215D01*
X238952Y301055D01*
X241000Y300647D01*
X249000D01*
X251048Y301055D01*
X252785Y302215D01*
X253945Y303952D01*
X254353Y306000D01*
X253945Y308048D01*
X252785Y309785D01*
X251048Y310945D01*
X249000Y311353D01*
X241000D01*
X238952Y310945D01*
X237215Y309785D01*
X236055Y308048D01*
X236027Y307912D01*
X216733D01*
X216247Y309085D01*
X234832Y327670D01*
X235053Y327721D01*
X236307Y327574D01*
X237215Y326215D01*
X238952Y325055D01*
X241000Y324647D01*
X249000D01*
X251048Y325055D01*
X252785Y326215D01*
X253945Y327952D01*
X253973Y328088D01*
X258000D01*
X258732Y328234D01*
X259352Y328648D01*
X261352Y330648D01*
X261766Y331268D01*
X261912Y332000D01*
Y332500D01*
X263730D01*
X264000Y332500D01*
X265000Y331848D01*
Y298152D01*
X264000Y297500D01*
X256000D01*
Y296687D01*
X254744Y295878D01*
X254077Y296020D01*
X254003Y296048D01*
X253798Y296269D01*
X252785Y297785D01*
X251048Y298945D01*
X249000Y299353D01*
X241000D01*
X238952Y298945D01*
X237215Y297785D01*
X236055Y296049D01*
X236027Y295912D01*
X222792D01*
X221227Y297477D01*
X220607Y297891D01*
X219875Y298037D01*
X212291D01*
X211560Y297891D01*
X210940Y297477D01*
X165648Y252185D01*
X165234Y251565D01*
X165088Y250834D01*
Y248932D01*
X164477Y248523D01*
X163703Y247366D01*
X163431Y246000D01*
X163703Y244634D01*
X164477Y243477D01*
X165634Y242703D01*
X167000Y242431D01*
X168366Y242703D01*
X169523Y243477D01*
X170297Y244634D01*
X170569Y246000D01*
X170297Y247366D01*
X169523Y248523D01*
X169060Y248833D01*
X168984Y250114D01*
X209506Y290636D01*
X210942Y290276D01*
X211477Y289477D01*
X212088Y289068D01*
Y281792D01*
X206721Y276425D01*
X206000Y276569D01*
X204634Y276297D01*
X203477Y275523D01*
X202703Y274366D01*
X202431Y273000D01*
X202703Y271634D01*
X203477Y270477D01*
X204634Y269703D01*
X206000Y269431D01*
X207366Y269703D01*
X208523Y270477D01*
X209297Y271634D01*
X209569Y273000D01*
X209425Y273721D01*
X215352Y279648D01*
X215766Y280268D01*
X215912Y281000D01*
Y289068D01*
X216523Y289477D01*
X217297Y290634D01*
X217569Y292000D01*
X217403Y292831D01*
X218149Y293906D01*
X219296Y294000D01*
X220648Y292648D01*
X221268Y292234D01*
X222000Y292088D01*
X236027D01*
X236055Y291952D01*
X237215Y290215D01*
X238952Y289055D01*
X241000Y288647D01*
X249000D01*
X251048Y289055D01*
X251818Y289569D01*
X253088Y288890D01*
Y287110D01*
X251818Y286431D01*
X251048Y286945D01*
X249000Y287353D01*
X241000D01*
X238952Y286945D01*
X237215Y285785D01*
X236055Y284049D01*
X236027Y283912D01*
X225095D01*
X224364Y283766D01*
X223743Y283352D01*
X179537Y239145D01*
X178162Y239567D01*
X177523Y240523D01*
X176366Y241297D01*
X175000Y241569D01*
X173634Y241297D01*
X172477Y240523D01*
X171703Y239366D01*
X171431Y238000D01*
X171703Y236634D01*
X172340Y235682D01*
X172108Y234909D01*
X171784Y234412D01*
X135292D01*
X134227Y235477D01*
X133607Y235891D01*
X132875Y236037D01*
X127732D01*
X127001Y235891D01*
X126381Y235477D01*
X124523Y233619D01*
X124109Y232999D01*
X123963Y232268D01*
Y228291D01*
X124109Y227560D01*
X124478Y227007D01*
X124522Y226892D01*
X124477Y225523D01*
X123703Y224366D01*
X123647Y224086D01*
X122353D01*
X122297Y224366D01*
X121523Y225523D01*
X120366Y226297D01*
X119000Y226569D01*
X117634Y226297D01*
X116477Y225523D01*
X115703Y224366D01*
X115431Y223000D01*
X115703Y221634D01*
X116477Y220477D01*
X117634Y219703D01*
X119000Y219431D01*
X119721Y219575D01*
X122648Y216648D01*
X123268Y216234D01*
X124000Y216088D01*
X130000D01*
X130732Y216234D01*
X131352Y216648D01*
X140292Y225588D01*
X174927D01*
X175413Y224415D01*
X163910Y212912D01*
X150932D01*
X150523Y213523D01*
X149366Y214297D01*
X148000Y214569D01*
X146634Y214297D01*
X145477Y213523D01*
X144703Y212366D01*
X144431Y211000D01*
X144703Y209634D01*
X145477Y208477D01*
X145918Y208182D01*
X145533Y206912D01*
X65792D01*
X57352Y215352D01*
X56732Y215766D01*
X56000Y215912D01*
X39932D01*
X39523Y216523D01*
X38366Y217297D01*
X38086Y217353D01*
Y218647D01*
X38366Y218703D01*
X39523Y219477D01*
X40297Y220634D01*
X40569Y222000D01*
X40297Y223366D01*
X39523Y224523D01*
X39080Y224820D01*
Y226347D01*
X39273Y226477D01*
X40047Y227634D01*
X40319Y229000D01*
X40047Y230366D01*
X39273Y231523D01*
X38662Y231932D01*
Y232125D01*
X38516Y232857D01*
X38102Y233477D01*
X36227Y235352D01*
X35607Y235766D01*
X34875Y235912D01*
X33973D01*
X33945Y236048D01*
X32785Y237785D01*
X31048Y238945D01*
X29000Y239353D01*
X21000D01*
X18952Y238945D01*
X17215Y237785D01*
X16055Y236048D01*
X15892Y235230D01*
X15805Y234796D01*
X14569Y235000D01*
X14484Y235426D01*
X14297Y236366D01*
X13523Y237523D01*
X12912Y237932D01*
Y240208D01*
X15587Y242884D01*
X16851Y242759D01*
X17215Y242215D01*
X18952Y241055D01*
X21000Y240647D01*
X29000D01*
X31048Y241055D01*
X32785Y242215D01*
X33945Y243952D01*
X34353Y246000D01*
X33945Y248048D01*
X32785Y249785D01*
X31048Y250945D01*
X29000Y251353D01*
X21000D01*
X18952Y250945D01*
X17215Y249785D01*
X16055Y248048D01*
X16027Y247912D01*
X16000D01*
X15268Y247766D01*
X14648Y247352D01*
X9648Y242352D01*
X9234Y241732D01*
X9088Y241000D01*
Y237932D01*
X8477Y237523D01*
X7703Y236366D01*
X7431Y235000D01*
X7703Y233634D01*
X8477Y232477D01*
X9634Y231703D01*
X11000Y231431D01*
X12366Y231703D01*
X13523Y232477D01*
X14297Y233634D01*
X14410Y234204D01*
X15647Y234000D01*
X15732Y233574D01*
X16055Y231952D01*
X17215Y230215D01*
X18952Y229055D01*
X21000Y228647D01*
X29000D01*
X31048Y229055D01*
X32027Y229709D01*
X33181Y229000D01*
X33453Y227634D01*
X33960Y226875D01*
X33889Y225522D01*
X33790Y225241D01*
X33400Y224984D01*
X33289Y225031D01*
X32785Y225785D01*
X31048Y226945D01*
X29000Y227353D01*
X21000D01*
X18952Y226945D01*
X17215Y225785D01*
X16055Y224048D01*
X15647Y222000D01*
X16055Y219952D01*
X17215Y218215D01*
X18952Y217055D01*
X21000Y216647D01*
X29000D01*
X31048Y217055D01*
X32785Y218215D01*
X33289Y218969D01*
X34477Y219477D01*
X35634Y218703D01*
X35914Y218647D01*
Y217353D01*
X35634Y217297D01*
X34477Y216523D01*
X33703Y215366D01*
X33574Y214716D01*
X32200Y214176D01*
X31048Y214945D01*
X29000Y215353D01*
X21000D01*
X18952Y214945D01*
X17215Y213785D01*
X16055Y212048D01*
X16027Y211912D01*
X11750D01*
X11018Y211766D01*
X10398Y211352D01*
X7773Y208727D01*
X7359Y208107D01*
X7213Y207375D01*
Y202375D01*
X7359Y201643D01*
X7773Y201023D01*
X10088Y198708D01*
Y138000D01*
X10234Y137268D01*
X10648Y136648D01*
X11648Y135648D01*
X12268Y135234D01*
X13000Y135088D01*
Y133000D01*
X21000D01*
Y141000D01*
X21000D01*
X21000Y142000D01*
X21000D01*
Y144089D01*
X21000D01*
X21732Y144234D01*
X22352Y144649D01*
X30352Y152648D01*
X30766Y153268D01*
X30912Y154000D01*
Y162458D01*
X32377Y163923D01*
X33647Y163398D01*
Y156000D01*
X34055Y153952D01*
X35215Y152215D01*
X36952Y151055D01*
X39000Y150647D01*
X41048Y151055D01*
X42785Y152215D01*
X43945Y153952D01*
X44353Y156000D01*
Y164000D01*
X43945Y166048D01*
X42785Y167785D01*
X41048Y168945D01*
X39502Y169253D01*
X39004Y170550D01*
X41979Y173526D01*
X42477Y173477D01*
X43634Y172703D01*
X45000Y172431D01*
X46366Y172703D01*
X47523Y173477D01*
X48297Y174634D01*
X48569Y176000D01*
X48297Y177366D01*
X47523Y178523D01*
X46705Y179070D01*
X46514Y180409D01*
X46523Y180477D01*
X47297Y181634D01*
X47569Y183000D01*
X47297Y184366D01*
X46523Y185523D01*
X45366Y186297D01*
X44000Y186569D01*
X42634Y186297D01*
X41373Y186982D01*
X41297Y187366D01*
X40523Y188523D01*
X39366Y189297D01*
X38000Y189569D01*
X36634Y189297D01*
X35477Y188523D01*
X35212Y188127D01*
X34369Y188075D01*
X33909Y188102D01*
X32785Y189785D01*
X31048Y190945D01*
X29000Y191353D01*
X21000D01*
X18952Y190945D01*
X18057Y190348D01*
X16787Y191026D01*
Y192973D01*
X18057Y193652D01*
X18952Y193055D01*
X21000Y192647D01*
X29000D01*
X31048Y193055D01*
X32785Y194215D01*
X33945Y195952D01*
X34353Y198000D01*
X33945Y200048D01*
X32785Y201785D01*
X31048Y202945D01*
X29000Y203353D01*
X21000D01*
X18952Y202945D01*
X18057Y202348D01*
X17575Y202453D01*
X16716Y202979D01*
X16641Y203356D01*
X16641Y203357D01*
X16819Y204250D01*
X16657Y205060D01*
X17800Y205824D01*
X18952Y205055D01*
X21000Y204647D01*
X29000D01*
X31048Y205055D01*
X32785Y206215D01*
X33945Y207952D01*
X34353Y210000D01*
X34346Y210037D01*
X35489Y210800D01*
X35634Y210703D01*
X37000Y210431D01*
X38366Y210703D01*
X39523Y211477D01*
X39932Y212088D01*
X55208D01*
X59664Y207632D01*
X59039Y206462D01*
X58500Y206569D01*
X57134Y206297D01*
X55977Y205524D01*
X55203Y204366D01*
X54931Y203000D01*
X55075Y202279D01*
X53523Y200727D01*
X53109Y200107D01*
X52963Y199375D01*
Y183589D01*
X53109Y182858D01*
X53523Y182238D01*
X59080Y176681D01*
X58662Y175303D01*
X58634Y175297D01*
X57477Y174523D01*
X56703Y173366D01*
X56431Y172000D01*
X56703Y170634D01*
X57477Y169477D01*
X58484Y168803D01*
X58622Y168612D01*
X58682Y168480D01*
X58925Y167351D01*
X58055Y166048D01*
X57647Y164000D01*
Y156000D01*
X58055Y153952D01*
X59215Y152215D01*
X60952Y151055D01*
X61088Y151027D01*
Y148932D01*
X60477Y148523D01*
X59703Y147366D01*
X59431Y146000D01*
X59703Y144634D01*
X60477Y143477D01*
X61338Y142901D01*
Y140250D01*
X57270D01*
X56000Y140250D01*
Y140250D01*
X56000D01*
Y140250D01*
X50000D01*
Y136732D01*
X48730Y136053D01*
X48366Y136297D01*
X47000Y136569D01*
X45634Y136297D01*
X44477Y135523D01*
X43703Y134366D01*
X43431Y133000D01*
X43703Y131634D01*
X44477Y130477D01*
Y129523D01*
X43703Y128366D01*
X43431Y127000D01*
X43703Y125634D01*
X44477Y124477D01*
X45088Y124068D01*
Y123000D01*
X45234Y122268D01*
X45648Y121648D01*
X46211Y121085D01*
X45725Y119912D01*
X40932D01*
X40523Y120523D01*
X39366Y121297D01*
X38000Y121569D01*
X36634Y121297D01*
X35477Y120523D01*
X34703Y119366D01*
X34431Y118000D01*
X34703Y116634D01*
X35404Y115585D01*
X35478Y115380D01*
X35500Y113934D01*
X34953Y113116D01*
X34724Y111964D01*
X34100Y111507D01*
X33486Y111250D01*
X26040D01*
Y112540D01*
X22020D01*
Y107250D01*
Y101960D01*
X25440D01*
X26040Y101960D01*
X26710Y100968D01*
Y98270D01*
X41290D01*
Y102290D01*
X34498D01*
X33750Y103250D01*
X33750Y103560D01*
Y105338D01*
X34000D01*
X34732Y105484D01*
X35352Y105898D01*
X37737Y108284D01*
X38250Y108181D01*
X39616Y108453D01*
X40773Y109227D01*
X41547Y110384D01*
X41819Y111750D01*
X41547Y113116D01*
X40846Y114165D01*
X40772Y114370D01*
X40764Y114888D01*
X41911Y116088D01*
X68972D01*
X69031Y116027D01*
X69591Y114911D01*
X67215Y112535D01*
X66055Y110799D01*
X65846Y109750D01*
X65750D01*
Y109267D01*
X65647Y108750D01*
Y105968D01*
X64377Y105289D01*
X64366Y105297D01*
X63000Y105569D01*
X61634Y105297D01*
X60477Y104523D01*
X59703Y103366D01*
X59627Y102982D01*
X58366Y102297D01*
X57000Y102568D01*
X55634Y102297D01*
X55520Y102220D01*
X54250Y102899D01*
Y109750D01*
X43750D01*
Y95517D01*
X43647Y95000D01*
Y76500D01*
X44055Y74452D01*
X45215Y72715D01*
X51450Y66480D01*
Y63790D01*
X50160D01*
Y63790D01*
X48912Y63843D01*
Y66000D01*
X48766Y66732D01*
X48352Y67352D01*
X47352Y68352D01*
X46732Y68766D01*
X46000Y68912D01*
X42550D01*
Y70710D01*
X42608Y71000D01*
Y74000D01*
X42608Y74000D01*
X42181Y76146D01*
X40965Y77965D01*
X40000Y78931D01*
Y85000D01*
X28000D01*
Y84608D01*
X21000D01*
X18854Y84181D01*
X17035Y82965D01*
X15819Y81146D01*
X15392Y79000D01*
X15819Y76854D01*
X17035Y75035D01*
X18493Y74060D01*
X18108Y72790D01*
X12710D01*
Y68770D01*
X18000D01*
Y66230D01*
X12710D01*
Y62210D01*
X14000D01*
Y54500D01*
X16088D01*
Y52500D01*
X14000D01*
Y45352D01*
X13753Y45090D01*
X12734Y44491D01*
X11750Y44687D01*
X10384Y44415D01*
X9227Y43642D01*
X8453Y42484D01*
X8181Y41118D01*
X8453Y39753D01*
X9227Y38595D01*
X9346Y38515D01*
X9410Y38242D01*
X9259Y37046D01*
X8477Y36523D01*
X7703Y35366D01*
X7431Y34000D01*
X7703Y32634D01*
X8477Y31477D01*
X9634Y30703D01*
X11000Y30431D01*
X12366Y30703D01*
X13523Y31477D01*
X13932Y32088D01*
X16594D01*
X17325Y32234D01*
X17945Y32648D01*
X18000Y32703D01*
X22054Y28648D01*
X22675Y28234D01*
X23406Y28088D01*
X38500D01*
X39232Y28234D01*
X39852Y28648D01*
X43204Y32000D01*
X48500D01*
Y37508D01*
X49770Y38339D01*
X50563Y38181D01*
X51928Y38453D01*
X53086Y39227D01*
X53859Y40384D01*
X54131Y41750D01*
X53936Y42730D01*
X54680Y44000D01*
X64550D01*
X65576Y43410D01*
X66634Y42703D01*
X68000Y42431D01*
X69366Y42703D01*
X70523Y43477D01*
X71297Y44634D01*
X71569Y46000D01*
X71523Y46228D01*
X71730Y46480D01*
Y51230D01*
X67710D01*
Y49511D01*
X66634Y49297D01*
X65820Y48753D01*
X64694Y49192D01*
X64550Y49315D01*
Y52210D01*
X65840D01*
Y56730D01*
X58000D01*
Y59270D01*
X65840D01*
Y63790D01*
X64550D01*
Y71750D01*
X60977D01*
X60285Y72785D01*
X54353Y78717D01*
Y89032D01*
X55623Y89711D01*
X55634Y89703D01*
X57000Y89431D01*
X58366Y89703D01*
X59523Y90477D01*
X60297Y91634D01*
X60568Y93000D01*
X60297Y94365D01*
X59523Y95523D01*
Y96476D01*
X60297Y97634D01*
X60373Y98018D01*
X61634Y98703D01*
X63000Y98431D01*
X64366Y98703D01*
X64377Y98711D01*
X65647Y98032D01*
Y95000D01*
Y74000D01*
X66055Y71952D01*
X67215Y70215D01*
X67302Y70157D01*
Y67875D01*
X67593Y66412D01*
X68421Y65171D01*
X69000Y64593D01*
Y57790D01*
X67710D01*
Y53770D01*
X73000D01*
X78290D01*
Y57790D01*
X77000D01*
Y65500D01*
X76823D01*
Y66000D01*
X76532Y67463D01*
X75704Y68704D01*
X74948Y69459D01*
Y70459D01*
X75945Y71952D01*
X76353Y74000D01*
Y94622D01*
X77114Y95237D01*
X77144Y95256D01*
X77623Y95411D01*
X78754Y95186D01*
X80119Y95458D01*
X81277Y96231D01*
X82051Y97389D01*
X82322Y98755D01*
X82051Y100120D01*
X81277Y101278D01*
X80119Y102052D01*
X78754Y102323D01*
X77623Y102098D01*
X76353Y102771D01*
Y106533D01*
X78467Y108647D01*
X93500D01*
X95548Y109055D01*
X97285Y110215D01*
X98445Y111952D01*
X98853Y114000D01*
X98445Y116048D01*
X97285Y117785D01*
X96060Y118603D01*
Y126730D01*
X85900D01*
Y129270D01*
X96060D01*
Y137088D01*
X99000D01*
X99732Y137234D01*
X100352Y137648D01*
X104352Y141648D01*
X104766Y142268D01*
X104912Y143000D01*
Y144068D01*
X105523Y144477D01*
X106297Y145634D01*
X106569Y147000D01*
X106297Y148366D01*
X105523Y149523D01*
X104366Y150297D01*
X103000Y150569D01*
X102440Y150457D01*
X101945Y151654D01*
X102785Y152215D01*
X103945Y153952D01*
X104353Y156000D01*
Y164000D01*
X103945Y166048D01*
X102785Y167785D01*
X101239Y168818D01*
X101290Y169633D01*
X101450Y170088D01*
X108550D01*
X108710Y169633D01*
X108761Y168818D01*
X107215Y167785D01*
X106055Y166048D01*
X105647Y164000D01*
Y156000D01*
X106055Y153952D01*
X107215Y152215D01*
X108952Y151055D01*
X109088Y151027D01*
Y143000D01*
X109234Y142268D01*
X109648Y141648D01*
X113337Y137959D01*
X112744Y136756D01*
X111300Y136946D01*
X108984Y136642D01*
X106827Y135748D01*
X104974Y134326D01*
X103552Y132473D01*
X102658Y130316D01*
X102353Y128000D01*
X102658Y125684D01*
X103552Y123527D01*
X104974Y121674D01*
X106827Y120252D01*
X108984Y119358D01*
X111300Y119053D01*
X113616Y119358D01*
X115773Y120252D01*
X117626Y121674D01*
X119048Y123527D01*
X119942Y125684D01*
X120246Y128000D01*
X120056Y129444D01*
X121259Y130037D01*
X124648Y126648D01*
X125268Y126234D01*
X126000Y126088D01*
X128005D01*
X128058Y125684D01*
X128952Y123527D01*
X130374Y121674D01*
X132227Y120252D01*
X134384Y119358D01*
X136700Y119053D01*
X139016Y119358D01*
X141173Y120252D01*
X142628Y121368D01*
X145000Y118996D01*
Y113770D01*
X145000Y113500D01*
Y112500D01*
X145000Y112230D01*
Y110412D01*
X142500D01*
X141768Y110266D01*
X141148Y109852D01*
X136648Y105352D01*
X136234Y104732D01*
X136088Y104000D01*
Y97932D01*
X135477Y97523D01*
X134703Y96366D01*
X134431Y95000D01*
X134703Y93634D01*
X135477Y92477D01*
X136634Y91703D01*
X138000Y91431D01*
X139366Y91703D01*
X140523Y92477D01*
X141297Y93634D01*
X141569Y95000D01*
X141297Y96366D01*
X140523Y97523D01*
X139912Y97932D01*
Y103208D01*
X143292Y106588D01*
X145000D01*
Y104500D01*
X153000D01*
Y112230D01*
X153000Y112500D01*
Y113500D01*
X153000Y113770D01*
Y121500D01*
X147904D01*
X144867Y124537D01*
X145342Y125684D01*
X145646Y128000D01*
X145365Y130135D01*
X145739Y130473D01*
X146515Y130781D01*
X150648Y126648D01*
X151268Y126234D01*
X152000Y126088D01*
X153405D01*
X153458Y125684D01*
X154352Y123527D01*
X155774Y121674D01*
X157627Y120252D01*
X159784Y119358D01*
X162100Y119053D01*
X164415Y119358D01*
X164614Y119440D01*
X165718Y118579D01*
X165750Y117750D01*
D01*
X165667Y117000D01*
Y108750D01*
X165750Y108331D01*
Y99750D01*
X174250D01*
Y108331D01*
X174333Y108750D01*
Y114175D01*
X174480Y114273D01*
X175750Y113594D01*
Y109169D01*
X175667Y108750D01*
Y61990D01*
X175997Y60331D01*
X176936Y58925D01*
X181758Y54103D01*
X181232Y52833D01*
X132295D01*
X126333Y58795D01*
Y108750D01*
X126250Y109169D01*
Y117750D01*
X117750D01*
Y109169D01*
X117667Y108750D01*
Y57000D01*
X117997Y55342D01*
X118936Y53936D01*
X127436Y45436D01*
X128682Y44603D01*
X128679Y43986D01*
X128471Y43333D01*
X126795D01*
X116333Y53795D01*
Y108750D01*
X116250Y109169D01*
Y117750D01*
X107750D01*
Y109169D01*
X107667Y108750D01*
Y52000D01*
X107997Y50342D01*
X108936Y48936D01*
X121936Y35936D01*
X123342Y34997D01*
X125000Y34667D01*
X185205D01*
X190667Y29205D01*
Y17000D01*
X190997Y15342D01*
X191936Y13936D01*
X193342Y12997D01*
X195000Y12667D01*
X196658Y12997D01*
X198064Y13936D01*
X199003Y15342D01*
X199333Y17000D01*
Y31000D01*
X199003Y32658D01*
X198064Y34064D01*
X190064Y42064D01*
X188818Y42897D01*
X188821Y43514D01*
X189029Y44167D01*
X211500D01*
X213158Y44497D01*
X214564Y45436D01*
X219064Y49936D01*
X220003Y51342D01*
X220333Y53000D01*
X220003Y54658D01*
X219064Y56064D01*
X217658Y57003D01*
X216000Y57333D01*
X214342Y57003D01*
X212936Y56064D01*
X209705Y52833D01*
X205757D01*
X205231Y54103D01*
X209064Y57936D01*
X210003Y59342D01*
X210333Y61000D01*
X210003Y62658D01*
X209437Y63506D01*
X210279Y64531D01*
X210700Y64357D01*
X213310Y64014D01*
X215921Y64357D01*
X218353Y65365D01*
X220442Y66968D01*
X222045Y69057D01*
X223053Y71490D01*
X223145Y72188D01*
X227358D01*
X254750Y44796D01*
Y37000D01*
X265000D01*
Y31000D01*
X254750D01*
Y27912D01*
X231436D01*
X230290Y28210D01*
Y32230D01*
X225000D01*
X219710D01*
Y28210D01*
X221000D01*
Y20500D01*
X229000D01*
Y24088D01*
X254750D01*
Y20500D01*
X265000D01*
Y5000D01*
X16339D01*
X15537Y5537D01*
X15000Y6339D01*
Y20000D01*
X5000D01*
Y580000D01*
X15000D01*
Y593661D01*
X15537Y594464D01*
X16339Y595000D01*
X265000D01*
Y350567D01*
D02*
G37*
G36*
X153876Y354376D02*
X154477Y353477D01*
X155634Y352703D01*
X157000Y352431D01*
X157722Y352575D01*
X158148Y352148D01*
X158768Y351734D01*
X159500Y351588D01*
X174296D01*
X174782Y350415D01*
X166404Y342037D01*
X150400D01*
X149914Y343210D01*
X150352Y343648D01*
X150766Y344268D01*
X150912Y345000D01*
Y353208D01*
X152479Y354775D01*
X153876Y354376D01*
D02*
G37*
G36*
X219088Y356190D02*
Y347970D01*
X201905Y330787D01*
X177917D01*
X172227Y336477D01*
X172077Y336577D01*
X171796Y337892D01*
X171843Y338139D01*
X183792Y350088D01*
X210536D01*
X211267Y350234D01*
X211887Y350648D01*
X217915Y356676D01*
X219088Y356190D01*
D02*
G37*
G36*
X161240Y331943D02*
X161053Y331000D01*
X161324Y329634D01*
X162044Y328557D01*
X161951Y328131D01*
X161593Y327287D01*
X123154D01*
X122569Y328000D01*
X122297Y329366D01*
X121523Y330523D01*
X121292Y332205D01*
X121507Y332463D01*
X148982D01*
X149713Y332609D01*
X150333Y333023D01*
X150524Y333213D01*
X160480D01*
X161240Y331943D01*
D02*
G37*
G36*
X207876Y313071D02*
X208152Y312521D01*
X208328Y311634D01*
X209102Y310477D01*
X209901Y309942D01*
X210261Y308506D01*
X207542Y305787D01*
X159255D01*
X159130Y307057D01*
X159866Y307203D01*
X161023Y307977D01*
X161797Y309134D01*
X162069Y310500D01*
X161797Y311866D01*
X161578Y312193D01*
X162257Y313463D01*
X206875D01*
X207876Y313071D01*
D02*
G37*
G36*
X236055Y267952D02*
X237215Y266215D01*
X238952Y265055D01*
X241000Y264647D01*
X249000D01*
X251048Y265055D01*
X251818Y265569D01*
X253088Y264890D01*
Y263110D01*
X251818Y262431D01*
X251048Y262945D01*
X249000Y263353D01*
X241000D01*
X238952Y262945D01*
X237215Y261785D01*
X236055Y260049D01*
X236027Y259912D01*
X226587D01*
X225022Y261477D01*
X224401Y261891D01*
X223670Y262037D01*
X213030D01*
X212544Y263210D01*
X217423Y268088D01*
X236027D01*
X236055Y267952D01*
D02*
G37*
G36*
X258088Y258405D02*
Y255500D01*
X256000D01*
Y247790D01*
X254710D01*
X253699Y248416D01*
X252785Y249785D01*
X251048Y250945D01*
X249000Y251353D01*
X241000D01*
X238952Y250945D01*
X237215Y249785D01*
X236055Y248048D01*
X236027Y247912D01*
X202441D01*
X201955Y249085D01*
X211083Y258213D01*
X222878D01*
X224443Y256648D01*
X225063Y256234D01*
X225795Y256088D01*
X236027D01*
X236055Y255952D01*
X237215Y254215D01*
X238952Y253055D01*
X241000Y252647D01*
X249000D01*
X251048Y253055D01*
X252785Y254215D01*
X253945Y255952D01*
X253972Y256088D01*
X254000D01*
X254732Y256234D01*
X255352Y256648D01*
X256352Y257648D01*
X256766Y258268D01*
X256818Y258530D01*
X258088Y258405D01*
D02*
G37*
G36*
X236055Y243952D02*
X237215Y242215D01*
X238952Y241055D01*
X241000Y240647D01*
X249000D01*
X251048Y241055D01*
X252785Y242215D01*
X253440Y243195D01*
X254710Y242810D01*
Y237210D01*
X258730D01*
Y242500D01*
X261270D01*
Y237210D01*
X265000D01*
Y227829D01*
X263935Y226989D01*
X263297Y227634D01*
X263569Y229000D01*
X263297Y230366D01*
X262523Y231523D01*
X261912Y231932D01*
Y232000D01*
X261766Y232732D01*
X261352Y233352D01*
X259352Y235352D01*
X258732Y235766D01*
X258000Y235912D01*
X253973D01*
X253945Y236048D01*
X252785Y237785D01*
X251048Y238945D01*
X249000Y239353D01*
X241000D01*
X238952Y238945D01*
X237215Y237785D01*
X236055Y236048D01*
X235647Y234000D01*
X236055Y231952D01*
X237215Y230215D01*
X238952Y229055D01*
X241000Y228647D01*
X249000D01*
X251048Y229055D01*
X252785Y230215D01*
X253945Y231952D01*
X253973Y232088D01*
X256327D01*
X257006Y230818D01*
X256703Y230366D01*
X256431Y229000D01*
X256703Y227634D01*
X256947Y227270D01*
X256268Y226000D01*
X256000D01*
Y223912D01*
X253973D01*
X253945Y224048D01*
X252785Y225785D01*
X251048Y226945D01*
X249000Y227353D01*
X241000D01*
X238952Y226945D01*
X237215Y225785D01*
X236055Y224048D01*
X235647Y222000D01*
X236055Y219952D01*
X237215Y218215D01*
X238443Y217394D01*
X238345Y215979D01*
X237702Y215713D01*
X236336Y214664D01*
X235287Y213298D01*
X234628Y211707D01*
X234571Y211270D01*
X245000D01*
Y208730D01*
X234571D01*
X234628Y208293D01*
X235287Y206702D01*
X236336Y205336D01*
X237083Y204762D01*
Y203238D01*
X236336Y202664D01*
X235287Y201298D01*
X234628Y199707D01*
X234571Y199270D01*
X255429D01*
X255372Y199707D01*
X254713Y201298D01*
X253664Y202664D01*
X252917Y203238D01*
Y204762D01*
X253664Y205336D01*
X254713Y206702D01*
X255130Y207710D01*
X258730D01*
Y213000D01*
X261270D01*
Y207710D01*
X265000D01*
Y47500D01*
X257454D01*
X229502Y75452D01*
X228882Y75866D01*
X228150Y76012D01*
X223145D01*
X223053Y76711D01*
X222045Y79143D01*
X220442Y81232D01*
X218353Y82835D01*
X215921Y83843D01*
X213310Y84186D01*
X210700Y83843D01*
X208267Y82835D01*
X207708Y82406D01*
X203179Y86935D01*
Y94509D01*
X204449Y94761D01*
X204575Y94457D01*
X206178Y92368D01*
X208267Y90765D01*
X210700Y89757D01*
X213310Y89414D01*
X215921Y89757D01*
X218353Y90765D01*
X220442Y92368D01*
X222045Y94457D01*
X223053Y96889D01*
X223396Y99500D01*
X223053Y102111D01*
X222045Y104543D01*
X220442Y106632D01*
X218353Y108235D01*
X215921Y109243D01*
X213310Y109586D01*
X210700Y109243D01*
X208267Y108235D01*
X206178Y106632D01*
X204575Y104543D01*
X204449Y104239D01*
X203179Y104491D01*
Y119909D01*
X204449Y120161D01*
X204575Y119857D01*
X206178Y117768D01*
X208267Y116165D01*
X210700Y115157D01*
X213310Y114814D01*
X215921Y115157D01*
X218353Y116165D01*
X220442Y117768D01*
X222045Y119857D01*
X223053Y122289D01*
X223396Y124900D01*
X223053Y127510D01*
X222045Y129943D01*
X220442Y132032D01*
X218353Y133635D01*
X215921Y134643D01*
X213310Y134986D01*
X210700Y134643D01*
X208267Y133635D01*
X206178Y132032D01*
X204575Y129943D01*
X204449Y129639D01*
X203179Y129891D01*
Y131566D01*
X203033Y132298D01*
X202619Y132918D01*
X199000Y136537D01*
X199230Y137091D01*
Y141730D01*
X194591D01*
X194037Y141501D01*
X193685Y141852D01*
X193065Y142266D01*
X192334Y142412D01*
X189792D01*
X185852Y146352D01*
X185232Y146766D01*
X184500Y146912D01*
X184411D01*
X183885Y148182D01*
X184352Y148648D01*
X184766Y149268D01*
X184912Y150000D01*
Y151027D01*
X185048Y151055D01*
X186785Y152215D01*
X187945Y153952D01*
X188353Y156000D01*
Y164000D01*
X187945Y166048D01*
X186785Y167785D01*
X185048Y168945D01*
X183000Y169353D01*
X180952Y168945D01*
X179215Y167785D01*
X178055Y166048D01*
X177647Y164000D01*
Y156000D01*
X178055Y153952D01*
X179215Y152215D01*
X179265Y152182D01*
X178879Y150912D01*
X175121D01*
X174735Y152182D01*
X174785Y152215D01*
X175945Y153952D01*
X176353Y156000D01*
Y164000D01*
X175945Y166048D01*
X174785Y167785D01*
X173048Y168945D01*
X171000Y169353D01*
X168952Y168945D01*
X167215Y167785D01*
X166055Y166048D01*
X165647Y164000D01*
Y156000D01*
X166055Y153952D01*
X167215Y152215D01*
X168829Y151137D01*
X168897Y150338D01*
X168854Y149785D01*
X168002Y149000D01*
X160500D01*
Y149000D01*
X159500D01*
Y149000D01*
X151500D01*
Y146912D01*
X149500D01*
Y149000D01*
X144204D01*
X139668Y153536D01*
X139945Y153952D01*
X140353Y156000D01*
Y164000D01*
X139945Y166048D01*
X138785Y167785D01*
X137239Y168818D01*
X137290Y169633D01*
X137450Y170088D01*
X144550D01*
X144710Y169633D01*
X144761Y168818D01*
X143215Y167785D01*
X142055Y166048D01*
X141647Y164000D01*
Y156000D01*
X142055Y153952D01*
X143215Y152215D01*
X144952Y151055D01*
X147000Y150647D01*
X149048Y151055D01*
X150785Y152215D01*
X151945Y153952D01*
X152353Y156000D01*
Y164000D01*
X151945Y166048D01*
X150785Y167785D01*
X149239Y168818D01*
X149290Y169633D01*
X149451Y170088D01*
X152000D01*
X152731Y170233D01*
X153351Y170648D01*
X158279Y175575D01*
X159000Y175431D01*
X160366Y175703D01*
X161274Y176310D01*
X162238Y176101D01*
X162654Y175882D01*
X162703Y175634D01*
X163477Y174477D01*
X164634Y173703D01*
X166000Y173431D01*
X167366Y173703D01*
X168523Y174477D01*
X168932Y175088D01*
X169500D01*
X170232Y175234D01*
X170852Y175648D01*
X173477Y178273D01*
X173891Y178893D01*
X174037Y179625D01*
Y187875D01*
X173891Y188607D01*
X173477Y189227D01*
X173473Y189230D01*
X173891Y190608D01*
X174365Y190703D01*
X175523Y191476D01*
X176297Y192634D01*
X176568Y194000D01*
X176297Y195365D01*
X175523Y196523D01*
X174365Y197297D01*
X173000Y197568D01*
X171634Y197297D01*
X170476Y196523D01*
X169817Y195537D01*
X124001D01*
X123060Y196477D01*
X122440Y196891D01*
X121709Y197037D01*
X118291D01*
X117560Y196891D01*
X116940Y196477D01*
X114748Y194285D01*
X112026D01*
X111667Y195136D01*
X111576Y195555D01*
X112297Y196634D01*
X112569Y198000D01*
X112297Y199366D01*
X111523Y200523D01*
X110366Y201297D01*
X109000Y201569D01*
X107634Y201297D01*
X106477Y200523D01*
X105703Y199366D01*
X105431Y198000D01*
X105703Y196634D01*
X106424Y195555D01*
X106333Y195136D01*
X105974Y194285D01*
X69373D01*
X68642Y194140D01*
X68022Y193725D01*
X66722Y192425D01*
X66000Y192569D01*
X64634Y192297D01*
X64182Y191994D01*
X62912Y192673D01*
Y194409D01*
X64000Y195431D01*
X65366Y195703D01*
X66523Y196477D01*
X67297Y197634D01*
X67569Y199000D01*
X67297Y200366D01*
X66523Y201523D01*
X66082Y201818D01*
X66467Y203088D01*
X171749D01*
X204669Y170168D01*
X204720Y169947D01*
X204573Y168692D01*
X203215Y167785D01*
X202055Y166048D01*
X201647Y164000D01*
Y156000D01*
X202055Y153952D01*
X203215Y152215D01*
X203265Y152182D01*
X202880Y150912D01*
X199121D01*
X198735Y152182D01*
X198785Y152215D01*
X199945Y153952D01*
X200353Y156000D01*
Y164000D01*
X199945Y166048D01*
X198785Y167785D01*
X197048Y168945D01*
X195000Y169353D01*
X192952Y168945D01*
X191215Y167785D01*
X190055Y166048D01*
X189647Y164000D01*
Y156000D01*
X190055Y153952D01*
X191215Y152215D01*
X192952Y151055D01*
X193088Y151027D01*
Y150125D01*
X193234Y149393D01*
X193648Y148773D01*
X194773Y147648D01*
X195210Y147356D01*
Y144270D01*
X200500D01*
Y143000D01*
X201770D01*
Y137710D01*
X205790D01*
Y139000D01*
X213335D01*
X213500Y139000D01*
X214676Y138772D01*
X214703Y138634D01*
X215477Y137477D01*
X216634Y136703D01*
X218000Y136431D01*
X219366Y136703D01*
X220523Y137477D01*
X221297Y138634D01*
X221569Y140000D01*
X221297Y141366D01*
X220523Y142523D01*
X219366Y143297D01*
X218000Y143569D01*
X216634Y143297D01*
X215477Y142523D01*
X215428Y142450D01*
X213703Y142115D01*
X213500Y142252D01*
Y147000D01*
X210912D01*
Y148268D01*
X210766Y148999D01*
X210352Y149620D01*
X209885Y150086D01*
X209818Y151133D01*
X209951Y151658D01*
X210785Y152215D01*
X211945Y153952D01*
X212353Y156000D01*
Y164000D01*
X211945Y166048D01*
X210785Y167785D01*
X209048Y168945D01*
X208912Y168973D01*
Y170541D01*
X208766Y171272D01*
X208352Y171893D01*
X174010Y206234D01*
X174084Y206684D01*
X174548Y207441D01*
X175866Y207703D01*
X177023Y208477D01*
X177797Y209634D01*
X178069Y211000D01*
X177797Y212366D01*
X177023Y213523D01*
X175866Y214297D01*
X174500Y214569D01*
X173134Y214297D01*
X171977Y213523D01*
X171203Y212366D01*
X170931Y211000D01*
X171203Y209634D01*
X171977Y208477D01*
X172418Y208182D01*
X172033Y206912D01*
X150467D01*
X150082Y208182D01*
X150523Y208477D01*
X150932Y209088D01*
X164702D01*
X165434Y209234D01*
X166054Y209648D01*
X200494Y244088D01*
X236027D01*
X236055Y243952D01*
D02*
G37*
G36*
X167505Y188765D02*
X166904Y187351D01*
X166634Y187297D01*
X165477Y186523D01*
X165068Y185912D01*
X156000D01*
X155268Y185766D01*
X154648Y185352D01*
X149721Y180425D01*
X149000Y180569D01*
X147634Y180297D01*
X147609Y180280D01*
X146297Y180365D01*
X146089Y180676D01*
X145523Y181523D01*
X144365Y182297D01*
X143000Y182568D01*
X141634Y182297D01*
X140476Y181523D01*
X139703Y180365D01*
X139431Y179000D01*
X139575Y178278D01*
X138208Y176912D01*
X135467D01*
X135082Y178182D01*
X135523Y178477D01*
X136297Y179634D01*
X136569Y181000D01*
X136297Y182366D01*
X135523Y183523D01*
X134366Y184297D01*
X133000Y184569D01*
X132278Y184425D01*
X129352Y187352D01*
X128732Y187766D01*
X128470Y187818D01*
X128595Y189088D01*
X167296D01*
X167505Y188765D01*
D02*
G37*
G36*
X117815Y184648D02*
X118435Y184234D01*
X119166Y184088D01*
X127208D01*
X129575Y181721D01*
X129431Y181000D01*
X129703Y179634D01*
X130477Y178477D01*
X130918Y178182D01*
X130533Y176912D01*
X112792D01*
X110425Y179279D01*
X110569Y180000D01*
X110297Y181366D01*
X109523Y182523D01*
X108366Y183297D01*
X107000Y183569D01*
X105634Y183297D01*
X104477Y182523D01*
X104264Y182205D01*
X102736D01*
X102523Y182523D01*
X101366Y183297D01*
X100000Y183569D01*
X99973Y183563D01*
X98997Y184540D01*
X99483Y185713D01*
X116750D01*
X117815Y184648D01*
D02*
G37*
G36*
X91167Y178940D02*
X91476Y178476D01*
X92634Y177703D01*
X93715Y177488D01*
X94347Y176595D01*
X93898Y175349D01*
X93634Y175297D01*
X92476Y174523D01*
X91703Y173365D01*
X91431Y172000D01*
X91703Y170634D01*
X92476Y169476D01*
X93634Y168703D01*
X94283Y168574D01*
X94824Y167200D01*
X94055Y166048D01*
X93647Y164000D01*
Y156000D01*
X94055Y153952D01*
X95215Y152215D01*
X96952Y151055D01*
X99000Y150647D01*
X100242Y150894D01*
X100738Y149698D01*
X100477Y149523D01*
X99703Y148366D01*
X99548Y147586D01*
X98637Y147425D01*
X98229Y147467D01*
X97523Y148523D01*
X96366Y149297D01*
X95000Y149569D01*
X93634Y149297D01*
X92477Y148523D01*
X91703Y147366D01*
X91431Y146000D01*
X91703Y144634D01*
X92477Y143477D01*
X93634Y142703D01*
X95000Y142431D01*
X96366Y142703D01*
X97523Y143477D01*
X98297Y144634D01*
X98452Y145414D01*
X99363Y145575D01*
X99771Y145533D01*
X100477Y144477D01*
X100338Y143042D01*
X98208Y140912D01*
X78000D01*
X77268Y140766D01*
X76648Y140352D01*
X73270Y136974D01*
X72000Y137500D01*
Y140250D01*
X71665D01*
X71224Y141520D01*
X74279Y144575D01*
X75000Y144431D01*
X76366Y144703D01*
X77523Y145477D01*
X78297Y146634D01*
X78569Y148000D01*
X78297Y149366D01*
X77523Y150523D01*
X78031Y151711D01*
X78785Y152215D01*
X79945Y153952D01*
X80353Y156000D01*
Y164000D01*
X79945Y166048D01*
X78785Y167785D01*
X77048Y168945D01*
X75000Y169353D01*
X72952Y168945D01*
X71215Y167785D01*
X70055Y166048D01*
X69647Y164000D01*
Y156000D01*
X70055Y153952D01*
X71215Y152215D01*
X71969Y151711D01*
X72477Y150523D01*
X71703Y149366D01*
X71431Y148000D01*
X71575Y147278D01*
X67648Y143352D01*
X67234Y142732D01*
X67088Y142000D01*
Y140691D01*
X66000Y140250D01*
X65162Y141173D01*
Y143235D01*
X65523Y143477D01*
X66297Y144634D01*
X66569Y146000D01*
X66297Y147366D01*
X65523Y148523D01*
X64912Y148932D01*
Y151027D01*
X65048Y151055D01*
X66785Y152215D01*
X67945Y153952D01*
X68353Y156000D01*
Y164000D01*
X67945Y166048D01*
X66785Y167785D01*
X65048Y168945D01*
X64818Y168991D01*
X64113Y170376D01*
X64733Y171234D01*
X65464Y171088D01*
X81166D01*
X81898Y171234D01*
X82518Y171648D01*
X89886Y179016D01*
X91167Y178940D01*
D02*
G37*
G36*
X120710Y169633D02*
X120761Y168818D01*
X119215Y167785D01*
X118055Y166048D01*
X117647Y164000D01*
Y156000D01*
X118055Y153952D01*
X119215Y152215D01*
X120952Y151055D01*
X121088Y151027D01*
Y140750D01*
X121234Y140018D01*
X121648Y139398D01*
X123398Y137648D01*
X124018Y137234D01*
X124750Y137088D01*
X132144D01*
X132396Y135818D01*
X132227Y135748D01*
X130374Y134326D01*
X128952Y132473D01*
X128058Y130316D01*
X128019Y130016D01*
X126790Y129914D01*
X112912Y143792D01*
Y151027D01*
X113048Y151055D01*
X114785Y152215D01*
X115945Y153952D01*
X116353Y156000D01*
Y164000D01*
X115945Y166048D01*
X114785Y167785D01*
X113239Y168818D01*
X113290Y169633D01*
X113450Y170088D01*
X120550D01*
X120710Y169633D01*
D02*
G37*
G36*
X199355Y129942D02*
Y86143D01*
X199501Y85411D01*
X199915Y84791D01*
X205004Y79702D01*
X204575Y79143D01*
X203567Y76711D01*
X203224Y74100D01*
X203567Y71490D01*
X204575Y69057D01*
X206178Y66968D01*
X206838Y66462D01*
X206300Y65274D01*
X206000Y65333D01*
X204342Y65003D01*
X202936Y64064D01*
X201423Y62551D01*
X200250Y63038D01*
Y80250D01*
X185750D01*
Y65396D01*
X184480Y64717D01*
X184333Y64815D01*
Y108750D01*
X184250Y109169D01*
Y117750D01*
X178467D01*
X177789Y119020D01*
X178003Y119342D01*
X178333Y121000D01*
X178003Y122658D01*
X177855Y122880D01*
X178454Y124000D01*
X182500D01*
Y124000D01*
X183500D01*
X184119Y122986D01*
X184176Y122730D01*
X183931Y121500D01*
X184203Y120134D01*
X184977Y118977D01*
X186134Y118203D01*
X187500Y117931D01*
X188866Y118203D01*
X190023Y118977D01*
X190797Y120134D01*
X191069Y121500D01*
X190824Y122730D01*
X190908Y123106D01*
X191386Y124000D01*
X191500D01*
Y128718D01*
X191758Y128919D01*
X192770Y129281D01*
X193634Y128703D01*
X195000Y128431D01*
X196366Y128703D01*
X197523Y129477D01*
X198058Y130276D01*
X198131Y130304D01*
X199355Y129942D01*
D02*
G37*
%LPC*%
G36*
X181270Y578800D02*
Y571270D01*
X188799D01*
X188661Y572321D01*
X187765Y574483D01*
X186340Y576340D01*
X184483Y577765D01*
X182321Y578661D01*
X181270Y578800D01*
D02*
G37*
G36*
X178730D02*
X177679Y578661D01*
X175517Y577765D01*
X173660Y576340D01*
X172235Y574483D01*
X171339Y572321D01*
X171201Y571270D01*
X178730D01*
Y578800D01*
D02*
G37*
G36*
X50000Y590086D02*
X47389Y589743D01*
X44957Y588735D01*
X42868Y587132D01*
X41265Y585043D01*
X40257Y582611D01*
X39914Y580000D01*
X40257Y577389D01*
X41265Y574957D01*
X42868Y572868D01*
X44957Y571265D01*
X47389Y570257D01*
X50000Y569914D01*
X52611Y570257D01*
X55043Y571265D01*
X57132Y572868D01*
X58735Y574957D01*
X59743Y577389D01*
X60086Y580000D01*
X59743Y582611D01*
X58735Y585043D01*
X57132Y587132D01*
X55043Y588735D01*
X52611Y589743D01*
X50000Y590086D01*
D02*
G37*
G36*
X98500Y578000D02*
Y578000D01*
X98267Y578000D01*
X90500D01*
Y575912D01*
X80000D01*
X79268Y575766D01*
X78648Y575352D01*
X73648Y570352D01*
X73234Y569732D01*
X73088Y569000D01*
Y565500D01*
X71000D01*
Y563412D01*
X66250D01*
Y565500D01*
X55750D01*
Y558650D01*
X55750Y558644D01*
X55750Y558644D01*
X55750Y558107D01*
X54482Y557723D01*
X54477Y557727D01*
X54448Y557756D01*
X49352Y562852D01*
X48732Y563266D01*
X48000Y563412D01*
X42250D01*
Y565500D01*
X31750D01*
Y563412D01*
X25000D01*
Y565500D01*
X17000D01*
Y557790D01*
X15710D01*
Y553770D01*
X21000D01*
X26290D01*
Y557790D01*
X25000D01*
Y559588D01*
X30852D01*
X31735Y558705D01*
X31615Y557476D01*
X30567Y557290D01*
X30460D01*
Y553270D01*
X37000D01*
Y550730D01*
X30460D01*
Y546710D01*
X30567D01*
X31750Y546500D01*
X31750Y545440D01*
Y538500D01*
X42250D01*
Y540588D01*
X46564D01*
X49088Y538064D01*
Y534932D01*
X48477Y534523D01*
X47703Y533366D01*
X47431Y532000D01*
X47703Y530634D01*
X48477Y529477D01*
X49634Y528703D01*
X51000Y528431D01*
X52366Y528703D01*
X53523Y529477D01*
X54297Y530634D01*
X54569Y532000D01*
X54297Y533366D01*
X53523Y534523D01*
X52912Y534932D01*
Y538856D01*
X52766Y539587D01*
X52352Y540207D01*
X50059Y542500D01*
X54477Y546917D01*
X54891Y547538D01*
X55037Y548269D01*
Y555387D01*
X55037Y556375D01*
X55028Y556561D01*
X56040Y557500D01*
X56768Y557500D01*
X66250D01*
Y559588D01*
X71000D01*
Y557790D01*
X69710D01*
Y553770D01*
X75000D01*
X80290D01*
Y557790D01*
X79000D01*
Y559588D01*
X89874D01*
X101939Y547523D01*
X102560Y547109D01*
X103291Y546963D01*
X115439D01*
X115703Y545634D01*
X116477Y544477D01*
X117088Y544068D01*
Y538750D01*
X115250D01*
Y536912D01*
X114000D01*
X113268Y536766D01*
X112648Y536352D01*
X109398Y533102D01*
X108984Y532482D01*
X108838Y531750D01*
Y521542D01*
X108208Y520912D01*
X106000D01*
Y523210D01*
X107290D01*
Y527230D01*
X102000D01*
Y528500D01*
X100730D01*
Y533790D01*
X94270D01*
Y528500D01*
X93000D01*
Y527230D01*
X87710D01*
Y523210D01*
X89000D01*
Y515500D01*
X97000D01*
Y515500D01*
X98000D01*
Y515500D01*
X100088D01*
Y514000D01*
X98000D01*
Y514000D01*
X97000D01*
Y514000D01*
X89000D01*
Y511912D01*
X77792D01*
X65912Y523792D01*
Y533068D01*
X66523Y533477D01*
X67297Y534634D01*
X67569Y536000D01*
X67297Y537366D01*
X66523Y538523D01*
X66250Y538706D01*
Y546500D01*
X55750D01*
Y538500D01*
X60114D01*
X60592Y537606D01*
X60676Y537230D01*
X60431Y536000D01*
X60703Y534634D01*
X61477Y533477D01*
X62088Y533068D01*
Y523000D01*
X62234Y522268D01*
X62648Y521648D01*
X75648Y508648D01*
X76268Y508234D01*
X77000Y508088D01*
X89000D01*
Y506000D01*
X91088D01*
X91234Y505268D01*
X91648Y504648D01*
X93148Y503148D01*
X93768Y502734D01*
X94500Y502588D01*
X110500D01*
X111232Y502734D01*
X111852Y503148D01*
X113352Y504648D01*
X113766Y505268D01*
X113912Y506000D01*
Y511068D01*
X114523Y511477D01*
X115297Y512634D01*
X115569Y514000D01*
X115515Y514268D01*
X116321Y515250D01*
X122750D01*
Y515250D01*
X123250D01*
Y515250D01*
X125088D01*
Y514000D01*
X125234Y513268D01*
X125648Y512648D01*
X127523Y510773D01*
X128144Y510359D01*
X128875Y510213D01*
X157080D01*
X157811Y510359D01*
X158432Y510773D01*
X166352Y518693D01*
X166766Y519313D01*
X166911Y520045D01*
Y539067D01*
X167523Y539476D01*
X168297Y540633D01*
X168568Y541999D01*
X168297Y543364D01*
X167523Y544522D01*
X166365Y545296D01*
X165000Y545568D01*
X163634Y545296D01*
X163307Y545077D01*
X162037Y545756D01*
Y550482D01*
X161891Y551213D01*
X161477Y551833D01*
X153958Y559352D01*
X153338Y559766D01*
X152607Y559912D01*
X115792D01*
X114727Y560977D01*
X114107Y561391D01*
X113375Y561537D01*
X112974D01*
X112566Y562148D01*
X111408Y562922D01*
X110042Y563194D01*
X108677Y562922D01*
X107519Y562148D01*
X106985Y561349D01*
X105549Y560989D01*
X101537Y565000D01*
X104852Y568315D01*
X105266Y568935D01*
X105412Y569666D01*
Y570000D01*
X107500D01*
Y578000D01*
X99733D01*
X99500Y578000D01*
Y578000D01*
X98500D01*
D02*
G37*
G36*
X188799Y568730D02*
X181270D01*
Y561200D01*
X182321Y561339D01*
X184483Y562235D01*
X186340Y563660D01*
X187765Y565517D01*
X188661Y567679D01*
X188799Y568730D01*
D02*
G37*
G36*
X178730D02*
X171201D01*
X171339Y567679D01*
X172235Y565517D01*
X173660Y563660D01*
X175517Y562235D01*
X177679Y561339D01*
X178730Y561200D01*
Y568730D01*
D02*
G37*
G36*
X11000Y567569D02*
X9634Y567297D01*
X8477Y566523D01*
X7703Y565366D01*
X7431Y564000D01*
X7703Y562634D01*
X8477Y561477D01*
X9634Y560703D01*
X11000Y560431D01*
X12366Y560703D01*
X13523Y561477D01*
X14297Y562634D01*
X14569Y564000D01*
X14297Y565366D01*
X13523Y566523D01*
X12366Y567297D01*
X11000Y567569D01*
D02*
G37*
G36*
X80290Y551230D02*
X76270D01*
Y547210D01*
X80290D01*
Y551230D01*
D02*
G37*
G36*
X73730D02*
X69710D01*
Y547210D01*
X73730D01*
Y551230D01*
D02*
G37*
G36*
X26290D02*
X22270D01*
Y547210D01*
X26290D01*
Y551230D01*
D02*
G37*
G36*
X180000Y557666D02*
X178016Y557404D01*
X176167Y556639D01*
X174580Y555420D01*
X173361Y553833D01*
X172596Y551984D01*
X172334Y550000D01*
X172596Y548016D01*
X173361Y546167D01*
X174580Y544580D01*
X176167Y543361D01*
X178016Y542596D01*
X180000Y542334D01*
X181984Y542596D01*
X183833Y543361D01*
X185420Y544580D01*
X186639Y546167D01*
X187404Y548016D01*
X187414Y548088D01*
X214744D01*
X229747Y533085D01*
X229261Y531912D01*
X187414D01*
X187404Y531984D01*
X186639Y533833D01*
X185420Y535420D01*
X183833Y536639D01*
X181984Y537404D01*
X180000Y537666D01*
X178016Y537404D01*
X176167Y536639D01*
X174580Y535420D01*
X173361Y533833D01*
X172596Y531984D01*
X172334Y530000D01*
X172596Y528016D01*
X173361Y526167D01*
X174580Y524580D01*
X176167Y523361D01*
X178016Y522596D01*
X180000Y522334D01*
X181984Y522596D01*
X183833Y523361D01*
X185420Y524580D01*
X186639Y526167D01*
X187404Y528016D01*
X187414Y528088D01*
X231208D01*
X253963Y505333D01*
Y480036D01*
X252693Y479410D01*
X252298Y479713D01*
X250707Y480372D01*
X249000Y480596D01*
X245821D01*
X245813Y480616D01*
X245610Y481866D01*
X246523Y482477D01*
X247297Y483634D01*
X247569Y485000D01*
X247297Y486366D01*
X246523Y487523D01*
X245366Y488297D01*
X244000Y488569D01*
X242634Y488297D01*
X241500Y487539D01*
X240366Y488297D01*
X239000Y488569D01*
X237634Y488297D01*
X236477Y487523D01*
X235703Y486366D01*
X235431Y485000D01*
X235703Y483634D01*
X236477Y482477D01*
X237634Y481703D01*
X238684Y481494D01*
X238929Y480221D01*
X237702Y479713D01*
X236336Y478664D01*
X235287Y477298D01*
X234628Y475707D01*
X234571Y475270D01*
X245000D01*
Y472730D01*
X234571D01*
X234628Y472293D01*
X235287Y470702D01*
X236336Y469336D01*
X237083Y468762D01*
Y467238D01*
X236336Y466664D01*
X235287Y465298D01*
X234628Y463707D01*
X234571Y463270D01*
X245000D01*
Y460730D01*
X234571D01*
X234628Y460293D01*
X235287Y458702D01*
X236336Y457336D01*
X237702Y456287D01*
X238345Y456021D01*
X238443Y454606D01*
X237215Y453785D01*
X236055Y452048D01*
X235647Y450000D01*
X236055Y447952D01*
X237215Y446215D01*
X238952Y445055D01*
X241000Y444647D01*
X249000D01*
X251048Y445055D01*
X252785Y446215D01*
X253945Y447952D01*
X253973Y448088D01*
X254000D01*
X254732Y448234D01*
X255193Y448542D01*
X256381Y448222D01*
X256463Y448188D01*
Y442292D01*
X254971Y440800D01*
X253336Y440961D01*
X252785Y441785D01*
X251048Y442945D01*
X249000Y443353D01*
X241000D01*
X238952Y442945D01*
X237215Y441785D01*
X236055Y440048D01*
X235647Y438000D01*
X236055Y435952D01*
X237215Y434215D01*
X238952Y433055D01*
X241000Y432647D01*
X249000D01*
X251048Y433055D01*
X252785Y434215D01*
X253945Y435952D01*
X253973Y436088D01*
X254875D01*
X255607Y436234D01*
X256227Y436648D01*
X259727Y440148D01*
X260141Y440768D01*
X260287Y441500D01*
Y507161D01*
X260141Y507892D01*
X259727Y508512D01*
X216887Y551352D01*
X216267Y551766D01*
X215536Y551912D01*
X187414D01*
X187404Y551984D01*
X186639Y553833D01*
X185420Y555420D01*
X183833Y556639D01*
X181984Y557404D01*
X180000Y557666D01*
D02*
G37*
G36*
X107290Y533790D02*
X103270D01*
Y529770D01*
X107290D01*
Y533790D01*
D02*
G37*
G36*
X91730D02*
X87710D01*
Y529770D01*
X91730D01*
Y533790D01*
D02*
G37*
G36*
X20290Y531790D02*
X16270D01*
Y527770D01*
X20290D01*
Y531790D01*
D02*
G37*
G36*
X13730D02*
X9710D01*
Y527770D01*
X13730D01*
Y531790D01*
D02*
G37*
G36*
X20290Y525230D02*
X9710D01*
Y521210D01*
X11000D01*
Y513500D01*
X11718D01*
X11919Y513242D01*
X12281Y512230D01*
X11703Y511366D01*
X11431Y510000D01*
X11703Y508634D01*
X12477Y507477D01*
X13634Y506703D01*
X15000Y506431D01*
X16366Y506703D01*
X17523Y507477D01*
X18297Y508634D01*
X18569Y510000D01*
X18297Y511366D01*
X17719Y512230D01*
X18081Y513242D01*
X18282Y513500D01*
X19000D01*
Y521210D01*
X20290D01*
Y525230D01*
D02*
G37*
G36*
X11000Y553569D02*
X9634Y553297D01*
X8477Y552523D01*
X7703Y551366D01*
X7431Y550000D01*
X7703Y548634D01*
X8477Y547477D01*
X9634Y546703D01*
X11000Y546431D01*
X11722Y546575D01*
X15959Y542337D01*
X16579Y541923D01*
X17311Y541777D01*
X18519D01*
X23088Y537208D01*
Y510932D01*
X22477Y510523D01*
X21703Y509366D01*
X21431Y508000D01*
X21703Y506634D01*
X22477Y505477D01*
X23634Y504703D01*
X25000Y504431D01*
X26366Y504703D01*
X27523Y505477D01*
X28297Y506634D01*
X28569Y508000D01*
X28297Y509366D01*
X27523Y510523D01*
X26912Y510932D01*
Y538000D01*
X26766Y538732D01*
X26352Y539352D01*
X20663Y545041D01*
X20043Y545455D01*
X19311Y545601D01*
X18861D01*
X18621Y545940D01*
X19278Y547210D01*
X19730D01*
Y551230D01*
X15710D01*
Y550771D01*
X14440Y550646D01*
X14297Y551366D01*
X13523Y552523D01*
X12366Y553297D01*
X11000Y553569D01*
D02*
G37*
G36*
X14875Y492569D02*
X13509Y492297D01*
X12352Y491523D01*
X11578Y490366D01*
X11306Y489000D01*
X11578Y487634D01*
X12352Y486477D01*
X13509Y485703D01*
X14875Y485431D01*
X16241Y485703D01*
X17398Y486477D01*
X18172Y487634D01*
X18444Y489000D01*
X18172Y490366D01*
X17398Y491523D01*
X16241Y492297D01*
X14875Y492569D01*
D02*
G37*
G36*
X29000Y480596D02*
X26270D01*
Y475270D01*
X35429D01*
X35372Y475707D01*
X34713Y477298D01*
X33664Y478664D01*
X32298Y479713D01*
X30707Y480372D01*
X29000Y480596D01*
D02*
G37*
G36*
X23730D02*
X21000D01*
X19293Y480372D01*
X17702Y479713D01*
X16336Y478664D01*
X15287Y477298D01*
X14628Y475707D01*
X14571Y475270D01*
X23730D01*
Y480596D01*
D02*
G37*
G36*
X35429Y472730D02*
X14571D01*
X14628Y472293D01*
X15287Y470702D01*
X16336Y469336D01*
X17083Y468762D01*
Y467238D01*
X16336Y466664D01*
X15287Y465298D01*
X14628Y463707D01*
X14571Y463270D01*
X35429D01*
X35372Y463707D01*
X34713Y465298D01*
X33664Y466664D01*
X32917Y467238D01*
Y468762D01*
X33664Y469336D01*
X34713Y470702D01*
X35372Y472293D01*
X35429Y472730D01*
D02*
G37*
G36*
Y460730D02*
X14571D01*
X14628Y460293D01*
X15287Y458702D01*
X16336Y457336D01*
X17083Y456762D01*
Y455238D01*
X16336Y454664D01*
X15287Y453298D01*
X14628Y451707D01*
X14571Y451270D01*
X35429D01*
X35372Y451707D01*
X34713Y453298D01*
X33664Y454664D01*
X32917Y455238D01*
Y456762D01*
X33664Y457336D01*
X34713Y458702D01*
X35372Y460293D01*
X35429Y460730D01*
D02*
G37*
G36*
Y448730D02*
X26270D01*
Y443404D01*
X29000D01*
X30707Y443628D01*
X32298Y444287D01*
X33664Y445336D01*
X34713Y446702D01*
X35372Y448293D01*
X35429Y448730D01*
D02*
G37*
G36*
X23730D02*
X14571D01*
X14628Y448293D01*
X15287Y446702D01*
X16336Y445336D01*
X17702Y444287D01*
X19293Y443628D01*
X21000Y443404D01*
X23730D01*
Y448730D01*
D02*
G37*
G36*
X40188Y447381D02*
X38822Y447109D01*
X37664Y446336D01*
X36891Y445178D01*
X36619Y443812D01*
X36762Y443091D01*
X30583Y436912D01*
X19932D01*
X19523Y437523D01*
X18366Y438297D01*
X17000Y438569D01*
X15634Y438297D01*
X14477Y437523D01*
X13703Y436366D01*
X13431Y435000D01*
X13703Y433634D01*
X14477Y432477D01*
X15233Y431971D01*
X15575Y431141D01*
X15500Y430435D01*
X14953Y429615D01*
X14681Y428250D01*
X14719Y428060D01*
X13677Y426790D01*
X8710D01*
Y422770D01*
X19290D01*
Y424888D01*
X19615Y424953D01*
X20773Y425726D01*
X21182Y426338D01*
X30568D01*
X30977Y425726D01*
X32134Y424953D01*
X33500Y424681D01*
X34866Y424953D01*
X36023Y425726D01*
X36797Y426884D01*
X37069Y428250D01*
X36797Y429615D01*
X36023Y430773D01*
X34866Y431547D01*
X33500Y431818D01*
X32134Y431547D01*
X30977Y430773D01*
X30568Y430161D01*
X21182D01*
X20773Y430773D01*
X20558Y430917D01*
X20269Y432425D01*
X20770Y433088D01*
X31375D01*
X32107Y433234D01*
X32727Y433648D01*
X39466Y440387D01*
X40188Y440244D01*
X41553Y440516D01*
X42711Y441289D01*
X43484Y442447D01*
X43756Y443812D01*
X43484Y445178D01*
X42711Y446336D01*
X41553Y447109D01*
X40188Y447381D01*
D02*
G37*
G36*
X222000Y493353D02*
X48000D01*
X47043Y492957D01*
X46647Y492000D01*
Y418000D01*
X47043Y417043D01*
X48000Y416647D01*
X222000D01*
X222957Y417043D01*
X223353Y418000D01*
Y492000D01*
X222957Y492957D01*
X222000Y493353D01*
D02*
G37*
G36*
X29000Y408596D02*
X26270D01*
Y403270D01*
X35429D01*
X35372Y403707D01*
X34713Y405298D01*
X33664Y406664D01*
X32298Y407713D01*
X30707Y408372D01*
X29000Y408596D01*
D02*
G37*
G36*
X130000Y408569D02*
X128634Y408297D01*
X127477Y407523D01*
X126703Y406366D01*
X126431Y405000D01*
X126703Y403634D01*
X127477Y402477D01*
X128634Y401703D01*
X130000Y401431D01*
X131366Y401703D01*
X132523Y402477D01*
X133297Y403634D01*
X133569Y405000D01*
X133297Y406366D01*
X132523Y407523D01*
X131366Y408297D01*
X130000Y408569D01*
D02*
G37*
G36*
X158000Y406569D02*
X156634Y406297D01*
X155477Y405523D01*
X154703Y404366D01*
X154431Y403000D01*
X154703Y401634D01*
X155477Y400477D01*
X156634Y399703D01*
X158000Y399431D01*
X159366Y399703D01*
X160523Y400477D01*
X161297Y401634D01*
X161569Y403000D01*
X161297Y404366D01*
X160523Y405523D01*
X159366Y406297D01*
X158000Y406569D01*
D02*
G37*
G36*
X19290Y420230D02*
X8710D01*
Y416210D01*
X10000D01*
Y408500D01*
X11000D01*
X11451Y407701D01*
X11567Y407230D01*
X11234Y406732D01*
X11088Y406000D01*
Y391000D01*
X11234Y390268D01*
X11413Y390000D01*
X11234Y389732D01*
X11088Y389000D01*
Y379750D01*
X11234Y379018D01*
X11648Y378398D01*
X13398Y376648D01*
X14018Y376234D01*
X14750Y376088D01*
X16027D01*
X16055Y375952D01*
X17215Y374215D01*
X18443Y373394D01*
X18345Y371979D01*
X17702Y371713D01*
X16336Y370664D01*
X15287Y369298D01*
X14628Y367707D01*
X14571Y367270D01*
X35429D01*
X35372Y367707D01*
X34713Y369298D01*
X33664Y370664D01*
X32298Y371713D01*
X31655Y371979D01*
X31557Y373394D01*
X32785Y374215D01*
X33945Y375952D01*
X34353Y378000D01*
X33945Y380048D01*
X32785Y381785D01*
X31048Y382945D01*
X29000Y383353D01*
X21000D01*
X18952Y382945D01*
X17215Y381785D01*
X17054Y381545D01*
X15417Y381333D01*
X14912Y381780D01*
Y387550D01*
X15371Y387711D01*
X16182Y387761D01*
X17215Y386215D01*
X18952Y385055D01*
X21000Y384647D01*
X29000D01*
X31048Y385055D01*
X32785Y386215D01*
X32818Y386265D01*
X34088Y385880D01*
Y385250D01*
X34234Y384518D01*
X34648Y383898D01*
X43088Y375458D01*
Y350411D01*
X41950Y349897D01*
X41453Y350251D01*
X36352Y355352D01*
X35732Y355766D01*
X35000Y355912D01*
X33973D01*
X33945Y356048D01*
X32785Y357785D01*
X31557Y358606D01*
X31655Y360021D01*
X32298Y360287D01*
X33664Y361336D01*
X34713Y362702D01*
X35372Y364293D01*
X35429Y364730D01*
X14571D01*
X14628Y364293D01*
X15287Y362702D01*
X16336Y361336D01*
X17702Y360287D01*
X18345Y360021D01*
X18443Y358606D01*
X17215Y357785D01*
X16055Y356048D01*
X15647Y354000D01*
X16055Y351952D01*
X17215Y350215D01*
X18952Y349055D01*
X21000Y348647D01*
X29000D01*
X31048Y349055D01*
X32785Y350215D01*
X33386Y351114D01*
X35010Y351287D01*
X38963Y347333D01*
Y345291D01*
X38985Y345182D01*
X38192Y344003D01*
X38041Y343912D01*
X33973D01*
X33945Y344048D01*
X32785Y345785D01*
X31048Y346945D01*
X29000Y347353D01*
X21000D01*
X18952Y346945D01*
X17215Y345785D01*
X16055Y344048D01*
X15647Y342000D01*
X16055Y339952D01*
X17215Y338215D01*
X18952Y337055D01*
X21000Y336647D01*
X29000D01*
X31048Y337055D01*
X32785Y338215D01*
X33945Y339952D01*
X33973Y340088D01*
X39839D01*
X40904Y339023D01*
X41524Y338609D01*
X42256Y338463D01*
X44833D01*
X46575Y336721D01*
X46431Y336000D01*
X46703Y334634D01*
X47477Y333477D01*
X48634Y332703D01*
X50000Y332431D01*
X51366Y332703D01*
X52523Y333477D01*
X53297Y334634D01*
X53569Y336000D01*
X53297Y337366D01*
X52523Y338523D01*
X51366Y339297D01*
X50182Y339532D01*
X50017Y339693D01*
X50187Y340401D01*
X50641Y340963D01*
X51943D01*
X52352Y340352D01*
X53509Y339578D01*
X54875Y339306D01*
X56241Y339578D01*
X57398Y340352D01*
X58172Y341509D01*
X58443Y342875D01*
X58172Y344241D01*
X57398Y345398D01*
X56241Y346172D01*
X54875Y346443D01*
X53509Y346172D01*
X52352Y345398D01*
X51943Y344787D01*
X49142D01*
X48381Y346057D01*
X48569Y347000D01*
X48297Y348366D01*
X48136Y348606D01*
X48194Y348732D01*
X48976Y349635D01*
X50000Y349431D01*
X51366Y349703D01*
X52523Y350477D01*
X53297Y351634D01*
X53569Y353000D01*
X53297Y354366D01*
X52676Y355295D01*
X52691Y355806D01*
X53105Y356200D01*
X53796Y356671D01*
X55000Y356431D01*
X56366Y356703D01*
X57523Y357477D01*
X58297Y358634D01*
X58569Y360000D01*
X58297Y361366D01*
X58136Y361606D01*
X58194Y361732D01*
X58976Y362635D01*
X60000Y362431D01*
X61366Y362703D01*
X62523Y363477D01*
X63297Y364634D01*
X63569Y366000D01*
X63297Y367366D01*
X62523Y368523D01*
X61912Y368932D01*
Y406068D01*
X62523Y406477D01*
X63297Y407634D01*
X63569Y409000D01*
X63297Y410366D01*
X62523Y411523D01*
X61366Y412297D01*
X60000Y412569D01*
X58634Y412297D01*
X57477Y411523D01*
X56703Y410366D01*
X56642Y410056D01*
X55889Y409077D01*
X55268Y409166D01*
X54500Y409319D01*
X53134Y409047D01*
X51977Y408273D01*
X51203Y407116D01*
X49769Y406416D01*
X49000Y406569D01*
X47634Y406297D01*
X46477Y405523D01*
X45703Y404366D01*
X45431Y403000D01*
X45703Y401634D01*
X46477Y400477D01*
X47088Y400068D01*
Y388000D01*
X47234Y387268D01*
X47648Y386648D01*
X48438Y385859D01*
X48083Y384458D01*
X47943Y384381D01*
X47000Y384569D01*
X45634Y384297D01*
X44477Y383523D01*
X43703Y382366D01*
X43650Y382099D01*
X42272Y381682D01*
X37912Y386042D01*
Y394068D01*
X38523Y394477D01*
X39297Y395634D01*
X39569Y397000D01*
X39297Y398366D01*
X38523Y399523D01*
X37366Y400297D01*
X36000Y400569D01*
X35828Y400730D01*
X25000D01*
Y402000D01*
X23730D01*
Y409129D01*
X23610Y409866D01*
X24523Y410477D01*
X25297Y411634D01*
X25569Y413000D01*
X25297Y414366D01*
X24523Y415523D01*
X23366Y416297D01*
X22000Y416569D01*
X20634Y416297D01*
X20560Y416247D01*
X19290Y416926D01*
Y420230D01*
D02*
G37*
G36*
X108000Y346569D02*
X106634Y346297D01*
X105477Y345523D01*
X104703Y344366D01*
X104431Y343000D01*
X104703Y341634D01*
X105477Y340477D01*
X106634Y339703D01*
X108000Y339431D01*
X109366Y339703D01*
X110523Y340477D01*
X111297Y341634D01*
X111569Y343000D01*
X111297Y344366D01*
X110523Y345523D01*
X109366Y346297D01*
X108000Y346569D01*
D02*
G37*
G36*
X72000Y338569D02*
X70634Y338297D01*
X69477Y337523D01*
X68703Y336366D01*
X68431Y335000D01*
X68703Y333634D01*
X69477Y332477D01*
X69795Y332264D01*
Y330736D01*
X69477Y330523D01*
X68703Y329366D01*
X68431Y328000D01*
X68703Y326634D01*
X69477Y325477D01*
X70634Y324703D01*
X72000Y324431D01*
X73366Y324703D01*
X74523Y325477D01*
X75297Y326634D01*
X75569Y328000D01*
X75297Y329366D01*
X74523Y330523D01*
X74205Y330736D01*
Y332264D01*
X74523Y332477D01*
X75297Y333634D01*
X75569Y335000D01*
X75297Y336366D01*
X74523Y337523D01*
X73366Y338297D01*
X72000Y338569D01*
D02*
G37*
G36*
X29000Y335353D02*
X21000D01*
X18952Y334945D01*
X17215Y333785D01*
X16055Y332048D01*
X15647Y330000D01*
X16055Y327952D01*
X17215Y326215D01*
X18952Y325055D01*
X21000Y324647D01*
X29000D01*
X31048Y325055D01*
X32785Y326215D01*
X33945Y327952D01*
X33997Y328213D01*
X40917D01*
X43728Y325402D01*
X43703Y325366D01*
X43431Y324000D01*
X43703Y322634D01*
X43864Y322394D01*
X43806Y322268D01*
X43024Y321365D01*
X42000Y321569D01*
X40634Y321297D01*
X39477Y320523D01*
X39068Y319912D01*
X33973D01*
X33945Y320048D01*
X32785Y321785D01*
X31048Y322945D01*
X29000Y323353D01*
X21000D01*
X18952Y322945D01*
X17215Y321785D01*
X16055Y320048D01*
X15647Y318000D01*
X16055Y315952D01*
X17215Y314215D01*
X18952Y313055D01*
X21000Y312647D01*
X29000D01*
X31048Y313055D01*
X32785Y314215D01*
X33945Y315952D01*
X33973Y316088D01*
X39068D01*
X39477Y315477D01*
X40634Y314703D01*
X42000Y314431D01*
X43366Y314703D01*
X44523Y315477D01*
X45297Y316634D01*
X45569Y318000D01*
X45297Y319366D01*
X45136Y319606D01*
X45194Y319732D01*
X45976Y320635D01*
X47000Y320431D01*
X48366Y320703D01*
X49523Y321477D01*
X50297Y322634D01*
X50569Y324000D01*
X50297Y325366D01*
X49523Y326523D01*
X48366Y327297D01*
X47000Y327569D01*
X46974Y327563D01*
X43060Y331477D01*
X42440Y331891D01*
X41709Y332037D01*
X33948D01*
X33945Y332048D01*
X32785Y333785D01*
X31048Y334945D01*
X29000Y335353D01*
D02*
G37*
G36*
X78500Y324069D02*
X77134Y323797D01*
X75977Y323023D01*
X75203Y321866D01*
X74931Y320500D01*
X75203Y319134D01*
X75977Y317977D01*
X77134Y317203D01*
X78500Y316931D01*
X79866Y317203D01*
X81023Y317977D01*
X81797Y319134D01*
X82069Y320500D01*
X81797Y321866D01*
X81023Y323023D01*
X79866Y323797D01*
X78500Y324069D01*
D02*
G37*
G36*
X249000Y323353D02*
X241000D01*
X238952Y322945D01*
X237215Y321785D01*
X236055Y320048D01*
X235647Y318000D01*
X236055Y315952D01*
X237215Y314215D01*
X238952Y313055D01*
X241000Y312647D01*
X249000D01*
X251048Y313055D01*
X252785Y314215D01*
X253945Y315952D01*
X254353Y318000D01*
X253945Y320048D01*
X252785Y321785D01*
X251048Y322945D01*
X249000Y323353D01*
D02*
G37*
G36*
X29000Y299353D02*
X21000D01*
X18952Y298945D01*
X17215Y297785D01*
X16055Y296049D01*
X16027Y295912D01*
X16000D01*
X15268Y295766D01*
X14648Y295352D01*
X12648Y293352D01*
X12234Y292732D01*
X12088Y292000D01*
Y267932D01*
X11477Y267523D01*
X10703Y266366D01*
X10431Y265000D01*
X10703Y263634D01*
X11477Y262477D01*
X12634Y261703D01*
X14000Y261431D01*
X15366Y261703D01*
X15848Y262026D01*
X16764Y261110D01*
X16055Y260049D01*
X15647Y258000D01*
X16055Y255952D01*
X17215Y254215D01*
X18952Y253055D01*
X21000Y252647D01*
X29000D01*
X31048Y253055D01*
X32785Y254215D01*
X33289Y254969D01*
X34477Y255477D01*
X35634Y254703D01*
X37000Y254431D01*
X38366Y254703D01*
X39523Y255477D01*
X40297Y256634D01*
X40569Y258000D01*
X40297Y259366D01*
X39523Y260523D01*
X38366Y261297D01*
X37000Y261569D01*
X35634Y261297D01*
X34477Y260523D01*
X33289Y261031D01*
X32785Y261785D01*
X31048Y262945D01*
X29000Y263353D01*
X21000D01*
X18952Y262945D01*
X17890Y262236D01*
X16974Y263152D01*
X17297Y263634D01*
X17472Y264516D01*
X18724Y265207D01*
X18952Y265055D01*
X21000Y264647D01*
X29000D01*
X31048Y265055D01*
X32785Y266215D01*
X33289Y266969D01*
X34477Y267477D01*
X35634Y266703D01*
X37000Y266431D01*
X38366Y266703D01*
X39523Y267477D01*
X40297Y268634D01*
X40569Y270000D01*
X40297Y271366D01*
X39523Y272523D01*
X38366Y273297D01*
X37000Y273569D01*
X35634Y273297D01*
X34477Y272523D01*
X33289Y273031D01*
X32785Y273785D01*
X31048Y274945D01*
X29000Y275353D01*
X21000D01*
X18952Y274945D01*
X17215Y273785D01*
X17182Y273735D01*
X15912Y274121D01*
Y277880D01*
X17182Y278265D01*
X17215Y278215D01*
X18952Y277055D01*
X21000Y276647D01*
X29000D01*
X31048Y277055D01*
X32785Y278215D01*
X33083Y278661D01*
X34353D01*
X34477Y278477D01*
X35634Y277703D01*
X37000Y277431D01*
X38366Y277703D01*
X39523Y278477D01*
X40297Y279634D01*
X40569Y281000D01*
X40297Y282366D01*
X39523Y283523D01*
X38366Y284297D01*
X37000Y284569D01*
X35634Y284297D01*
X35243Y284035D01*
X34020Y284048D01*
X33700Y284416D01*
X32785Y285785D01*
X31048Y286945D01*
X29000Y287353D01*
X21000D01*
X18952Y286945D01*
X17215Y285785D01*
X17182Y285735D01*
X15912Y286121D01*
Y289879D01*
X17182Y290265D01*
X17215Y290215D01*
X18952Y289055D01*
X21000Y288647D01*
X29000D01*
X31048Y289055D01*
X32785Y290215D01*
X33945Y291952D01*
X34353Y294000D01*
X33945Y296049D01*
X32785Y297785D01*
X31048Y298945D01*
X29000Y299353D01*
D02*
G37*
G36*
X174000Y285569D02*
X172634Y285297D01*
X171477Y284523D01*
X170703Y283366D01*
X170431Y282000D01*
X170703Y280634D01*
X171477Y279477D01*
X172634Y278703D01*
X174000Y278431D01*
X175366Y278703D01*
X176523Y279477D01*
X177297Y280634D01*
X177569Y282000D01*
X177297Y283366D01*
X176523Y284523D01*
X175366Y285297D01*
X174000Y285569D01*
D02*
G37*
G36*
X154540Y294540D02*
X128270D01*
Y268270D01*
X154540D01*
Y294540D01*
D02*
G37*
G36*
X125730D02*
X99460D01*
Y268270D01*
X125730D01*
Y294540D01*
D02*
G37*
G36*
Y265730D02*
X99460D01*
Y239460D01*
X125730D01*
Y265730D01*
D02*
G37*
G36*
X63500Y224818D02*
X62134Y224547D01*
X60977Y223773D01*
X60203Y222616D01*
X59931Y221250D01*
X60203Y219884D01*
X60977Y218727D01*
X62134Y217953D01*
X63500Y217681D01*
X64866Y217953D01*
X66023Y218727D01*
X66797Y219884D01*
X67069Y221250D01*
X66797Y222616D01*
X66023Y223773D01*
X64866Y224547D01*
X63500Y224818D01*
D02*
G37*
G36*
X51000Y169353D02*
X48952Y168945D01*
X47215Y167785D01*
X46055Y166048D01*
X45647Y164000D01*
Y156000D01*
X46055Y153952D01*
X47215Y152215D01*
X48952Y151055D01*
X51000Y150647D01*
X53048Y151055D01*
X54785Y152215D01*
X55945Y153952D01*
X56353Y156000D01*
Y164000D01*
X55945Y166048D01*
X54785Y167785D01*
X53048Y168945D01*
X51000Y169353D01*
D02*
G37*
G36*
X38000Y135069D02*
X36634Y134797D01*
X35477Y134023D01*
X34703Y132866D01*
X34431Y131500D01*
X34703Y130134D01*
X35477Y128977D01*
X36634Y128203D01*
X38000Y127931D01*
X39366Y128203D01*
X40523Y128977D01*
X41297Y130134D01*
X41569Y131500D01*
X41297Y132866D01*
X40523Y134023D01*
X39366Y134797D01*
X38000Y135069D01*
D02*
G37*
G36*
X19480Y112540D02*
X15460D01*
Y108520D01*
X19480D01*
Y112540D01*
D02*
G37*
G36*
Y105980D02*
X15460D01*
Y101960D01*
X19480D01*
Y105980D01*
D02*
G37*
G36*
X41290Y95730D02*
X35270D01*
Y91710D01*
X41290D01*
Y95730D01*
D02*
G37*
G36*
X32730D02*
X26710D01*
Y91710D01*
X32730D01*
Y95730D01*
D02*
G37*
G36*
X87000Y84569D02*
X85634Y84297D01*
X84477Y83523D01*
X83703Y82366D01*
X83431Y81000D01*
X83703Y79634D01*
X84477Y78477D01*
X85634Y77703D01*
X87000Y77431D01*
X88366Y77703D01*
X89523Y78477D01*
X90297Y79634D01*
X90569Y81000D01*
X90297Y82366D01*
X89523Y83523D01*
X88366Y84297D01*
X87000Y84569D01*
D02*
G37*
G36*
X106250Y80250D02*
X91750D01*
Y69974D01*
X90740Y69603D01*
X90480Y69552D01*
X89366Y70297D01*
X88000Y70569D01*
X86634Y70297D01*
X85477Y69523D01*
X84703Y68366D01*
X84431Y67000D01*
X84703Y65634D01*
X85477Y64477D01*
X86634Y63703D01*
X88000Y63431D01*
X89366Y63703D01*
X90480Y64448D01*
X90740Y64397D01*
X91750Y64026D01*
Y59750D01*
X106250D01*
Y80250D01*
D02*
G37*
G36*
X164250D02*
X149750D01*
Y59750D01*
X164250D01*
Y80250D01*
D02*
G37*
G36*
X142250D02*
X127750D01*
Y59750D01*
X142250D01*
Y80250D01*
D02*
G37*
G36*
X78290Y51230D02*
X74270D01*
Y47210D01*
X74399D01*
X75185Y46252D01*
X75457Y44887D01*
X76231Y43729D01*
X77388Y42955D01*
X78754Y42684D01*
X80119Y42955D01*
X81277Y43729D01*
X82051Y44887D01*
X82322Y46252D01*
X82051Y47618D01*
X81277Y48776D01*
X80119Y49549D01*
X78754Y49821D01*
X78290Y50202D01*
Y51230D01*
D02*
G37*
G36*
X233000Y47569D02*
X231634Y47297D01*
X230477Y46523D01*
X229703Y45366D01*
X229431Y44000D01*
X229703Y42634D01*
X230477Y41477D01*
X231634Y40703D01*
X233000Y40431D01*
X234366Y40703D01*
X235523Y41477D01*
X236297Y42634D01*
X236569Y44000D01*
X236297Y45366D01*
X235523Y46523D01*
X234366Y47297D01*
X233000Y47569D01*
D02*
G37*
G36*
X230290Y38790D02*
X226270D01*
Y34770D01*
X230290D01*
Y38790D01*
D02*
G37*
G36*
X223730D02*
X219710D01*
Y34770D01*
X223730D01*
Y38790D01*
D02*
G37*
G36*
X26000Y26569D02*
X24634Y26297D01*
X23477Y25523D01*
X22703Y24366D01*
X22431Y23000D01*
X22703Y21634D01*
X23477Y20477D01*
X24634Y19703D01*
X26000Y19431D01*
X27366Y19703D01*
X28523Y20477D01*
X29297Y21634D01*
X29569Y23000D01*
X29297Y24366D01*
X28523Y25523D01*
X27366Y26297D01*
X26000Y26569D01*
D02*
G37*
G36*
X170000Y30086D02*
X167390Y29743D01*
X164957Y28735D01*
X162868Y27132D01*
X161265Y25043D01*
X160257Y22610D01*
X159914Y20000D01*
X160257Y17390D01*
X161265Y14957D01*
X162868Y12868D01*
X164957Y11265D01*
X167390Y10257D01*
X170000Y9914D01*
X172610Y10257D01*
X175043Y11265D01*
X177132Y12868D01*
X178735Y14957D01*
X179743Y17390D01*
X180086Y20000D01*
X179743Y22610D01*
X178735Y25043D01*
X177132Y27132D01*
X175043Y28735D01*
X172610Y29743D01*
X170000Y30086D01*
D02*
G37*
%LPD*%
G36*
X148006Y546818D02*
X147703Y546366D01*
X147431Y545000D01*
X147703Y543634D01*
X148477Y542477D01*
X149634Y541703D01*
X151000Y541431D01*
X151943Y541619D01*
X153213Y540858D01*
Y538750D01*
X148040D01*
Y540040D01*
X144270D01*
Y535000D01*
X141730D01*
Y540040D01*
X136270D01*
Y535000D01*
X133730D01*
Y540040D01*
X128270D01*
Y535000D01*
X125730D01*
Y540040D01*
X121960D01*
X120912Y540575D01*
Y544068D01*
X121523Y544477D01*
X122297Y545634D01*
X122569Y547000D01*
X123591Y548088D01*
X147327D01*
X148006Y546818D01*
D02*
G37*
%LPC*%
G36*
X231000Y230069D02*
X229634Y229797D01*
X228477Y229023D01*
X227703Y227866D01*
X227431Y226500D01*
X227703Y225134D01*
X228477Y223977D01*
X229634Y223203D01*
X231000Y222931D01*
X232366Y223203D01*
X233523Y223977D01*
X234297Y225134D01*
X234569Y226500D01*
X234297Y227866D01*
X233523Y229023D01*
X232366Y229797D01*
X231000Y230069D01*
D02*
G37*
G36*
X195000Y219569D02*
X193634Y219297D01*
X192477Y218523D01*
X191703Y217366D01*
X191431Y216000D01*
X191703Y214634D01*
X192477Y213477D01*
X193634Y212703D01*
X195000Y212431D01*
X196366Y212703D01*
X197523Y213477D01*
X198297Y214634D01*
X198569Y216000D01*
X198297Y217366D01*
X197523Y218523D01*
X196366Y219297D01*
X195000Y219569D01*
D02*
G37*
G36*
X255429Y196730D02*
X234571D01*
X234628Y196293D01*
X235287Y194702D01*
X236336Y193336D01*
X237702Y192287D01*
X238345Y192021D01*
X238443Y190606D01*
X237215Y189785D01*
X236851Y189240D01*
X235587Y189116D01*
X234425Y190278D01*
X234568Y191000D01*
X234296Y192365D01*
X233523Y193523D01*
X232365Y194296D01*
X231000Y194568D01*
X229634Y194296D01*
X228476Y193523D01*
X227703Y192365D01*
X227431Y191000D01*
X227703Y189634D01*
X228476Y188476D01*
X229634Y187703D01*
X231000Y187431D01*
X231721Y187575D01*
X234647Y184648D01*
X235268Y184234D01*
X235999Y184088D01*
X236027D01*
X236055Y183952D01*
X237215Y182215D01*
X238443Y181394D01*
X238345Y179979D01*
X237702Y179713D01*
X236336Y178664D01*
X235287Y177298D01*
X234628Y175707D01*
X234571Y175270D01*
X255429D01*
X255372Y175707D01*
X254713Y177298D01*
X253664Y178664D01*
X252298Y179713D01*
X251655Y179979D01*
X251557Y181394D01*
X252785Y182215D01*
X253945Y183952D01*
X254353Y186000D01*
X253945Y188048D01*
X252785Y189785D01*
X251557Y190606D01*
X251655Y192021D01*
X252298Y192287D01*
X253664Y193336D01*
X254713Y194702D01*
X255372Y196293D01*
X255429Y196730D01*
D02*
G37*
G36*
X223000Y180569D02*
X221634Y180297D01*
X220477Y179523D01*
X219703Y178366D01*
X219431Y177000D01*
X219703Y175634D01*
X220477Y174477D01*
X221634Y173703D01*
X223000Y173431D01*
X224366Y173703D01*
X225523Y174477D01*
X226297Y175634D01*
X226569Y177000D01*
X226297Y178366D01*
X225523Y179523D01*
X224366Y180297D01*
X223000Y180569D01*
D02*
G37*
G36*
X243730Y172730D02*
X234571D01*
X234628Y172293D01*
X235287Y170702D01*
X235562Y170344D01*
X234656Y169438D01*
X234298Y169713D01*
X232707Y170372D01*
X232270Y170429D01*
Y161270D01*
X237596D01*
Y164000D01*
X237372Y165707D01*
X236713Y167298D01*
X236438Y167656D01*
X237344Y168562D01*
X237702Y168287D01*
X239293Y167628D01*
X241000Y167404D01*
X243730D01*
Y172730D01*
D02*
G37*
G36*
X229730Y170429D02*
X229293Y170372D01*
X227702Y169713D01*
X226336Y168664D01*
X225287Y167298D01*
X225021Y166655D01*
X223606Y166557D01*
X222785Y167785D01*
X221048Y168945D01*
X219000Y169353D01*
X216952Y168945D01*
X215215Y167785D01*
X214055Y166048D01*
X213647Y164000D01*
Y156000D01*
X214055Y153952D01*
X215215Y152215D01*
X216952Y151055D01*
X219000Y150647D01*
X221048Y151055D01*
X222785Y152215D01*
X223606Y153443D01*
X225021Y153345D01*
X225287Y152702D01*
X226336Y151336D01*
X227702Y150287D01*
X229293Y149628D01*
X229730Y149571D01*
Y160000D01*
Y170429D01*
D02*
G37*
G36*
X255429Y172730D02*
X246270D01*
Y167404D01*
X249000D01*
X250707Y167628D01*
X251635Y168013D01*
X251992Y167797D01*
X252641Y167055D01*
X252431Y166000D01*
X252703Y164634D01*
X253477Y163477D01*
X254634Y162703D01*
X256000Y162431D01*
X257366Y162703D01*
X258523Y163477D01*
X259297Y164634D01*
X259569Y166000D01*
X259297Y167366D01*
X258523Y168523D01*
X257366Y169297D01*
X256000Y169569D01*
X255344Y169438D01*
X254627Y170590D01*
X254713Y170702D01*
X255372Y172293D01*
X255429Y172730D01*
D02*
G37*
G36*
X253000Y158569D02*
X251634Y158297D01*
X250477Y157523D01*
X249703Y156366D01*
X249431Y155000D01*
X249703Y153634D01*
X250477Y152477D01*
X251634Y151703D01*
X253000Y151431D01*
X254366Y151703D01*
X255523Y152477D01*
X256297Y153634D01*
X256569Y155000D01*
X256297Y156366D01*
X255523Y157523D01*
X254366Y158297D01*
X253000Y158569D01*
D02*
G37*
G36*
X159000Y169353D02*
X156952Y168945D01*
X155215Y167785D01*
X154055Y166048D01*
X153647Y164000D01*
Y156000D01*
X154055Y153952D01*
X155215Y152215D01*
X156952Y151055D01*
X159000Y150647D01*
X161048Y151055D01*
X162785Y152215D01*
X163945Y153952D01*
X164353Y156000D01*
Y164000D01*
X163945Y166048D01*
X162785Y167785D01*
X161048Y168945D01*
X159000Y169353D01*
D02*
G37*
G36*
X237596Y158730D02*
X232270D01*
Y149571D01*
X232707Y149628D01*
X234298Y150287D01*
X235664Y151336D01*
X236713Y152702D01*
X237372Y154293D01*
X237596Y156000D01*
Y158730D01*
D02*
G37*
G36*
X254000Y145569D02*
X252634Y145297D01*
X251477Y144523D01*
X250703Y143366D01*
X250431Y142000D01*
X250703Y140634D01*
X251477Y139477D01*
X252634Y138703D01*
X254000Y138431D01*
X255366Y138703D01*
X256523Y139477D01*
X257297Y140634D01*
X257569Y142000D01*
X257297Y143366D01*
X256523Y144523D01*
X255366Y145297D01*
X254000Y145569D01*
D02*
G37*
G36*
X245000Y141569D02*
X243634Y141297D01*
X242477Y140523D01*
X241703Y139366D01*
X241431Y138000D01*
X241703Y136634D01*
X242477Y135477D01*
X243634Y134703D01*
X245000Y134431D01*
X246366Y134703D01*
X247523Y135477D01*
X248297Y136634D01*
X248569Y138000D01*
X248297Y139366D01*
X247523Y140523D01*
X246366Y141297D01*
X245000Y141569D01*
D02*
G37*
G36*
X248000Y72569D02*
X246634Y72297D01*
X245477Y71523D01*
X244703Y70366D01*
X244431Y69000D01*
X244703Y67634D01*
X245477Y66477D01*
X246634Y65703D01*
X248000Y65431D01*
X249366Y65703D01*
X250523Y66477D01*
X251297Y67634D01*
X251569Y69000D01*
X251297Y70366D01*
X250523Y71523D01*
X249366Y72297D01*
X248000Y72569D01*
D02*
G37*
G36*
X87000Y169353D02*
X84952Y168945D01*
X83215Y167785D01*
X82055Y166048D01*
X81647Y164000D01*
Y156000D01*
X82055Y153952D01*
X83215Y152215D01*
X84952Y151055D01*
X87000Y150647D01*
X89048Y151055D01*
X90785Y152215D01*
X91945Y153952D01*
X92353Y156000D01*
Y164000D01*
X91945Y166048D01*
X90785Y167785D01*
X89048Y168945D01*
X87000Y169353D01*
D02*
G37*
%LPD*%
D10*
X73250Y52750D02*
X81750D01*
X87000Y58000D01*
X73000Y52500D02*
X73250Y52750D01*
X69250D02*
X72750D01*
X64750Y57250D02*
X69250Y52750D01*
X58750Y57250D02*
X64750D01*
X72750Y52750D02*
X73000Y52500D01*
X58000Y58000D02*
X58750Y57250D01*
X73000Y61500D02*
Y66000D01*
X71125Y67875D02*
X73000Y66000D01*
X71125Y67875D02*
Y73875D01*
D12*
X12500Y67500D02*
X18000D01*
X10000Y65000D02*
X12500Y67500D01*
X10000Y62000D02*
Y65000D01*
X127000Y267000D02*
X140250Y280250D01*
Y299750D01*
X127000Y267000D02*
X149250Y244750D01*
Y237250D02*
Y244750D01*
X114000Y254000D02*
X127000Y267000D01*
X96000Y236000D02*
X114000Y254000D01*
X96000Y228000D02*
Y236000D01*
X114000Y228000D02*
Y254000D01*
D13*
X10000Y8000D02*
G03*
X18000Y0I8000J0D01*
G01*
Y600000D02*
G03*
X10000Y592000I0J-8000D01*
G01*
Y8000D02*
Y15000D01*
X18000Y-0D02*
X270000Y0D01*
X10000Y585000D02*
Y592000D01*
X18000Y600000D02*
X270000D01*
X-0Y585000D02*
X-0Y15000D01*
X0Y585000D02*
X10000D01*
X0Y15000D02*
X10000D01*
X270000Y0D02*
Y330000D01*
Y600000D01*
D18*
X25000Y474000D02*
D03*
Y462000D02*
D03*
Y450000D02*
D03*
X245000Y174000D02*
D03*
Y186000D02*
D03*
Y210000D02*
D03*
Y234000D02*
D03*
Y270000D02*
D03*
Y294000D02*
D03*
Y330000D02*
D03*
Y354000D02*
D03*
Y378000D02*
D03*
Y390000D02*
D03*
Y414000D02*
D03*
Y438000D02*
D03*
Y450000D02*
D03*
Y474000D02*
D03*
Y198000D02*
D03*
Y222000D02*
D03*
Y282000D02*
D03*
Y258000D02*
D03*
Y246000D02*
D03*
Y306000D02*
D03*
Y366000D02*
D03*
Y318000D02*
D03*
Y342000D02*
D03*
Y402000D02*
D03*
Y426000D02*
D03*
Y462000D02*
D03*
X25000Y174000D02*
D03*
Y186000D02*
D03*
Y210000D02*
D03*
Y234000D02*
D03*
Y270000D02*
D03*
Y294000D02*
D03*
Y330000D02*
D03*
Y354000D02*
D03*
Y378000D02*
D03*
Y390000D02*
D03*
Y222000D02*
D03*
Y198000D02*
D03*
Y306000D02*
D03*
Y246000D02*
D03*
Y258000D02*
D03*
Y282000D02*
D03*
Y342000D02*
D03*
Y318000D02*
D03*
Y366000D02*
D03*
Y402000D02*
D03*
D19*
X39000Y160000D02*
D03*
X51000D02*
D03*
X75000D02*
D03*
X99000D02*
D03*
X135000D02*
D03*
X159000D02*
D03*
X195000D02*
D03*
X219000D02*
D03*
X87000D02*
D03*
X63000D02*
D03*
X123000D02*
D03*
X111000D02*
D03*
X147000D02*
D03*
X171000D02*
D03*
X231000D02*
D03*
X207000D02*
D03*
X183000D02*
D03*
D21*
X225000Y24500D02*
D03*
Y33500D02*
D03*
X260000Y336500D02*
D03*
Y345500D02*
D03*
X17000Y155000D02*
D03*
Y146000D02*
D03*
X17000Y137000D02*
D03*
X18000Y58500D02*
D03*
Y67500D02*
D03*
X149000Y117500D02*
D03*
Y108500D02*
D03*
X15000Y526500D02*
D03*
Y517500D02*
D03*
X260000Y222000D02*
D03*
Y213000D02*
D03*
Y251500D02*
D03*
Y242500D02*
D03*
Y293500D02*
D03*
Y284500D02*
D03*
X14000Y412500D02*
D03*
Y421500D02*
D03*
X21000Y561500D02*
D03*
Y552500D02*
D03*
X75000Y561500D02*
D03*
Y552500D02*
D03*
X93000Y519500D02*
D03*
Y528500D02*
D03*
X102000Y519500D02*
D03*
Y528500D02*
D03*
X18000Y39500D02*
D03*
Y48500D02*
D03*
X73000Y61500D02*
D03*
Y52500D02*
D03*
D23*
X93000Y510000D02*
D03*
X102000D02*
D03*
X103500Y574000D02*
D03*
X94500D02*
D03*
X20750Y107250D02*
D03*
X29750D02*
D03*
X181750Y138500D02*
D03*
X172750D02*
D03*
X187500Y128000D02*
D03*
X178500D02*
D03*
X209500Y143000D02*
D03*
X200500D02*
D03*
X164500Y145000D02*
D03*
X155500D02*
D03*
X145500D02*
D03*
X136500D02*
D03*
X44500Y36000D02*
D03*
X35500D02*
D03*
D24*
X69000Y136750D02*
D03*
Y127250D02*
D03*
X53000Y136750D02*
D03*
Y127250D02*
D03*
D25*
X63500D02*
D03*
Y136750D02*
D03*
X58500D02*
D03*
Y127250D02*
D03*
D26*
X34000Y81000D02*
D03*
Y97000D02*
D03*
D27*
X135000Y70000D02*
D03*
X99000D02*
D03*
X157000D02*
D03*
X193000D02*
D03*
D28*
X122000Y108750D02*
D03*
X112000D02*
D03*
X170000D02*
D03*
X180000D02*
D03*
D29*
X61000Y561500D02*
D03*
X37000Y552000D02*
D03*
X61000Y542500D02*
D03*
X37000Y561500D02*
D03*
Y542500D02*
D03*
D30*
X36000Y67500D02*
D03*
Y48500D02*
D03*
X58000D02*
D03*
Y58000D02*
D03*
X36000D02*
D03*
D31*
X58000Y67500D02*
D03*
D32*
X49000Y95000D02*
D03*
X71000D02*
D03*
D33*
X151000Y527000D02*
D03*
X119000D02*
D03*
Y519000D02*
D03*
X127000D02*
D03*
X151000D02*
D03*
X143000D02*
D03*
X135000D02*
D03*
Y535000D02*
D03*
X143000D02*
D03*
X151000D02*
D03*
X127000D02*
D03*
X119000D02*
D03*
D55*
X127000Y267000D02*
D03*
D56*
X170000Y20000D02*
D03*
X50000Y580000D02*
D03*
D57*
X260000Y42250D02*
D03*
Y25750D02*
D03*
D58*
X180000Y530000D02*
D03*
Y550000D02*
D03*
Y570000D02*
D03*
D59*
X17311Y543689D02*
X19311D01*
X11000Y550000D02*
X17311Y543689D01*
X19311D02*
X25000Y538000D01*
X69000Y118000D02*
X74000Y123000D01*
X38000Y118000D02*
X69000D01*
X74000Y123000D02*
Y135000D01*
X78000Y139000D01*
X99000D01*
X37000Y71000D02*
X41000Y67000D01*
X110042Y559625D02*
X113375D01*
X115000Y558000D01*
X152607D01*
X160125Y550482D01*
X108334Y555500D02*
X151571D01*
X98834Y565000D02*
X108334Y555500D01*
X151571D02*
X157625Y549446D01*
X103500Y569666D02*
Y574000D01*
X98834Y565000D02*
X103500Y569666D01*
X95500Y565000D02*
X98834D01*
X92750Y567750D02*
X95500Y565000D01*
X160125Y518706D02*
Y550482D01*
X105000Y553000D02*
X150535D01*
X155125Y548410D01*
X157625Y519741D02*
Y549446D01*
X155125Y535000D02*
Y548410D01*
X90666Y561500D02*
X103291Y548875D01*
X75000Y561500D02*
X90666D01*
X103291Y548875D02*
X117125D01*
X119000Y547000D01*
X122000Y550000D01*
X150000D01*
X151000Y549000D01*
X127000Y514000D02*
X128875Y512125D01*
X157080D01*
X165000Y520045D01*
Y541999D01*
X151000Y535000D02*
X155125D01*
X156893Y519009D02*
X157625Y519741D01*
X156044Y514625D02*
X160125Y518706D01*
X151000Y545000D02*
Y549000D01*
X151009Y519009D02*
X156893D01*
X135000Y514625D02*
X156044D01*
X49000Y121000D02*
X61375D01*
X47000Y123000D02*
X49000Y121000D01*
X47000Y123000D02*
Y127000D01*
X61375Y121000D02*
X63500Y123125D01*
X30000Y107500D02*
X30250Y107250D01*
X36000Y36500D02*
Y48500D01*
X35500Y36000D02*
X36000Y36500D01*
X11000Y34000D02*
X16594D01*
X18000Y35406D01*
X103000Y143000D02*
Y147000D01*
X99000Y139000D02*
X103000Y143000D01*
X64866Y250866D02*
X71866D01*
X61000Y247000D02*
X64866Y250866D01*
X61000Y243500D02*
Y247000D01*
X23406Y30000D02*
X38500D01*
X44500Y36000D01*
X138000Y95000D02*
Y104000D01*
X142500Y108500D01*
X149000D01*
X41000Y67000D02*
X46000D01*
X47000Y66000D01*
Y52325D02*
Y66000D01*
Y52325D02*
X50825Y48500D01*
X58000D01*
X187500Y134417D02*
Y137375D01*
X225000Y33500D02*
Y56000D01*
Y26000D02*
X259750D01*
X71000Y74000D02*
X71125Y73875D01*
X16000Y102500D02*
X20750Y107250D01*
X16000Y98000D02*
Y102500D01*
X38250Y111500D02*
Y111750D01*
X259750Y26000D02*
X260000Y25750D01*
X228150Y74100D02*
X260000Y42250D01*
X213310Y74100D02*
X228150D01*
X208000Y398500D02*
Y402000D01*
X203875Y394375D02*
X208000Y398500D01*
X203875Y387875D02*
Y394375D01*
X208000Y388000D02*
Y392000D01*
X164375Y358000D02*
X165254D01*
X164375D02*
X166375Y356000D01*
X176000D02*
X208000Y388000D01*
X236000Y426000D02*
X245000D01*
X229125Y419125D02*
X236000Y426000D01*
X229125Y411291D02*
Y419125D01*
X232000Y470000D02*
X236000Y474000D01*
X227500Y455000D02*
X228000D01*
X227500Y475000D02*
X228000Y474500D01*
X236000Y474000D02*
X245000D01*
X244500Y474500D02*
X245000Y474000D01*
X233000Y459000D02*
X236000Y462000D01*
X245000D01*
X25000Y508000D02*
Y538000D01*
X18000Y35406D02*
Y39500D01*
Y35406D02*
X23406Y30000D01*
X189000Y140500D02*
X192334D01*
X201267Y131566D01*
Y86143D02*
Y131566D01*
Y86143D02*
X213310Y74100D01*
X193000Y143000D02*
X200500D01*
X188000Y148000D02*
X193000Y143000D01*
X249000Y161000D02*
Y164750D01*
X232000Y161000D02*
X249000D01*
X94500Y504500D02*
X110500D01*
X93000Y506000D02*
X94500Y504500D01*
X93000Y506000D02*
Y510000D01*
X93000Y510000D01*
X110500Y504500D02*
X112000Y506000D01*
Y514000D01*
X102000Y510000D02*
X102000Y510000D01*
X102000Y510000D02*
Y519500D01*
X64000Y523000D02*
X77000Y510000D01*
X93000D01*
X103500Y574000D02*
X104000Y573500D01*
X151000Y519000D02*
X151009Y519009D01*
X75000Y561500D02*
Y569000D01*
X80000Y574000D01*
X94500D01*
X135000Y514625D02*
Y519000D01*
X260000Y251500D02*
Y272000D01*
X263000Y275000D01*
X260000Y278000D02*
X263000Y275000D01*
X260000Y278000D02*
Y284500D01*
X255000Y259000D02*
Y293000D01*
X256000Y294000D01*
X259500D01*
X260000Y293500D01*
Y294000D01*
Y345500D02*
Y353000D01*
X245000Y330000D02*
X258000D01*
X260000Y332000D01*
Y336500D01*
X14000Y265000D02*
Y292000D01*
X16000Y294000D01*
X25000D01*
X25000Y294000D01*
X31375Y435000D02*
X40188Y443812D01*
X17000Y435000D02*
X31375D01*
X255875Y451875D02*
Y506125D01*
X254000Y450000D02*
X255875Y451875D01*
X245000Y450000D02*
X254000D01*
X180000Y550000D02*
X215536D01*
X258375Y507161D01*
Y441500D02*
Y507161D01*
X254875Y438000D02*
X258375Y441500D01*
X232000Y530000D02*
X255875Y506125D01*
X245000Y438000D02*
X254875D01*
X180000Y530000D02*
X232000D01*
X180000Y587500D02*
X185000Y592500D01*
X180000Y570000D02*
Y587500D01*
X34000Y107250D02*
X38250Y111500D01*
X30250Y107250D02*
X34000D01*
X29750D02*
X30000Y107500D01*
X36750Y229000D02*
Y232125D01*
X34875Y234000D02*
X36750Y232125D01*
X25000Y234000D02*
X34875D01*
X186375Y138500D02*
X187500Y137375D01*
X181750Y138500D02*
X186375D01*
X184500Y145000D02*
X189000Y140500D01*
X196125Y149000D02*
X208268D01*
X195000Y150125D02*
X196125Y149000D01*
X183000Y150000D02*
Y160000D01*
X182000Y149000D02*
X183000Y150000D01*
X172000Y149000D02*
X182000D01*
X195000Y150125D02*
Y160000D01*
X170750Y138250D02*
X172250Y139750D01*
X158750Y138250D02*
X170750D01*
X155500Y141500D02*
X158750Y138250D01*
X155500Y141500D02*
Y145000D01*
X164500D02*
X184500D01*
X124750Y139000D02*
X141000D01*
X123000Y140750D02*
X124750Y139000D01*
X141000D02*
X152000Y128000D01*
X123000Y140750D02*
Y160000D01*
X136593Y127748D02*
X140700Y126000D01*
X136593Y127748D02*
X136593D01*
X136000Y128000D02*
X136593Y127748D01*
X111000Y143000D02*
Y160000D01*
Y143000D02*
X126000Y128000D01*
X136000D01*
X42999Y296999D02*
Y297999D01*
X169000Y191000D02*
X172125Y187875D01*
Y179625D02*
Y187875D01*
X169500Y177000D02*
X172125Y179625D01*
X166000Y177000D02*
X169500D01*
X120000Y191000D02*
X169000D01*
X14875Y162125D02*
Y202625D01*
X13250Y204250D02*
X14875Y202625D01*
X11750Y210000D02*
X25000D01*
X9125Y207375D02*
X11750Y210000D01*
X9125Y202375D02*
Y207375D01*
Y202375D02*
X12000Y199500D01*
Y138000D02*
Y199500D01*
X14875Y162125D02*
X17000Y160000D01*
X12000Y138000D02*
X13000Y137000D01*
X53125Y548269D02*
Y556375D01*
X48000Y561500D02*
X53125Y556375D01*
X21000Y561500D02*
X48000D01*
X239000Y210000D02*
X245000D01*
X231000Y218000D02*
X239000Y210000D01*
X235999Y186000D02*
X245000D01*
X231000Y191000D02*
X235999Y186000D01*
X245000Y168750D02*
X249000Y164750D01*
X245000Y168750D02*
Y174000D01*
X256500Y213000D02*
X260000D01*
X253500Y210000D02*
X256500Y213000D01*
X245000Y210000D02*
X253500D01*
X214000Y281000D02*
Y292000D01*
X206000Y273000D02*
X214000Y281000D01*
X166375Y356000D02*
X176000D01*
X122125Y303875D02*
X208334D01*
X116000Y310000D02*
X122125Y303875D01*
X120000Y345884D02*
Y346000D01*
Y345884D02*
X124009Y341875D01*
X145875D01*
X76500Y298750D02*
X117125Y339375D01*
X118197Y336875D02*
X147946D01*
X81875Y300553D02*
X118197Y336875D01*
X119233Y334375D02*
X148982D01*
X84375Y299517D02*
X119233Y334375D01*
X148982D02*
X149732Y335125D01*
X170875D01*
X147946Y336875D02*
X148696Y337625D01*
X168625D01*
X146910Y339375D02*
X147661Y340125D01*
X117125Y339375D02*
X146910D01*
X147661Y340125D02*
X167196D01*
X143000Y529000D02*
X145000Y527000D01*
X143000Y529000D02*
Y535000D01*
X145000Y527000D02*
X151000D01*
X171000Y150000D02*
X172000Y149000D01*
X171000Y150000D02*
Y160000D01*
X69000Y123000D02*
Y127250D01*
X67000Y121000D02*
X69000Y123000D01*
X65625Y121000D02*
X67000D01*
X63500Y123125D02*
X65625Y121000D01*
X63500Y123125D02*
Y127250D01*
X17000Y155000D02*
Y160000D01*
X13000Y137000D02*
X17000D01*
X16000Y138000D02*
X17000Y137000D01*
X54875Y183589D02*
X65464Y173000D01*
X54875Y183589D02*
Y199375D01*
X65464Y173000D02*
X81166D01*
X66500Y175500D02*
X79500D01*
X61000Y181000D02*
X66500Y175500D01*
X61000Y181000D02*
Y196000D01*
X18000Y48500D02*
X36000D01*
X18000D02*
Y58500D01*
X37000Y214000D02*
X56000D01*
X65000Y205000D01*
X172541D01*
X207000Y170541D01*
X209000Y143500D02*
Y148268D01*
X208268Y149000D02*
X209000Y148268D01*
Y143500D02*
X209500Y143000D01*
X207000Y160000D02*
Y170541D01*
X135000Y155500D02*
Y160000D01*
Y155500D02*
X145500Y145000D01*
X130000Y146000D02*
X135500D01*
X136500Y145000D01*
X145500D02*
X155500D01*
X231000Y202000D02*
Y218000D01*
Y202000D02*
X235000Y198000D01*
X245000D01*
X231000Y160000D02*
X232000Y161000D01*
X214000Y306000D02*
X245000D01*
X115540Y192374D02*
X118291Y195125D01*
X69373Y192374D02*
X115540D01*
X66000Y189000D02*
X69373Y192374D01*
X212291Y296125D02*
X219875D01*
X167000Y250834D02*
X212291Y296125D01*
X167000Y246000D02*
Y250834D01*
X157000Y249000D02*
X214000Y306000D01*
X80000Y180000D02*
X87625Y187625D01*
X117542D01*
X69000Y180000D02*
X80000D01*
X172625Y193625D02*
X173000Y194000D01*
X123209Y193625D02*
X172625D01*
X121709Y195125D02*
X123209Y193625D01*
X79500Y285000D02*
X81875Y287375D01*
X84375Y284041D02*
Y299517D01*
X81209Y280875D02*
X84375Y284041D01*
X77791Y280875D02*
X81209D01*
X74207Y284460D02*
X77791Y280875D01*
X86875Y273410D02*
Y298482D01*
X89375Y272375D02*
Y297446D01*
X91875Y270875D02*
Y296411D01*
X94375Y269375D02*
Y295375D01*
X82500Y313500D02*
X89000Y320000D01*
X58500Y313500D02*
X82500D01*
X259625Y251875D02*
X260000Y251500D01*
X117542Y187625D02*
X119166Y186000D01*
X118291Y195125D02*
X121709D01*
X164702Y211000D02*
X199702Y246000D01*
X148000Y211000D02*
X164702D01*
X199702Y246000D02*
X245000D01*
X219875Y296125D02*
X222000Y294000D01*
X245000D01*
X149000Y108500D02*
Y109500D01*
X140700Y126000D02*
X148500Y118200D01*
X69000Y142000D02*
X75000Y148000D01*
Y160000D01*
X69000Y136750D02*
Y142000D01*
X63000Y146000D02*
X63250Y145750D01*
Y137000D02*
Y145750D01*
Y137000D02*
X63500Y136750D01*
X63000Y146000D02*
Y160000D01*
X26000Y420000D02*
X26125Y419875D01*
Y403125D02*
Y419875D01*
X25000Y402000D02*
X26125Y403125D01*
X74207Y284460D02*
Y285793D01*
X70000Y290000D02*
X74207Y285793D01*
X76500Y290750D02*
Y298750D01*
X170250Y360750D02*
X176750D01*
X172000Y365000D02*
X182000Y375000D01*
X160000Y365000D02*
X172000D01*
X157000Y356000D02*
X159500Y353500D01*
X149000Y354000D02*
X160000Y365000D01*
X43291Y342875D02*
X54875D01*
X45000Y347000D02*
Y376250D01*
X149000Y345000D02*
Y354000D01*
X145875Y341875D02*
X149000Y345000D01*
X37000Y258000D02*
X37000Y258000D01*
X25000Y258000D02*
X37000D01*
X41709Y330125D02*
X47000Y324834D01*
Y324000D02*
Y324834D01*
X42999Y297999D02*
X58500Y313500D01*
X25125Y330125D02*
X41709D01*
X25000Y330000D02*
X25125Y330125D01*
X54750Y360250D02*
X55000Y360000D01*
X50000Y353000D02*
Y369315D01*
X54500Y405750D02*
X54750Y405500D01*
X60000Y366000D02*
Y409000D01*
X50000Y369315D02*
X51125Y370440D01*
X49000Y388000D02*
X51125Y385875D01*
X54750Y360250D02*
Y405500D01*
X51125Y370440D02*
Y385875D01*
X49000Y388000D02*
Y403000D01*
X25000Y186000D02*
X38000D01*
X41750Y176000D02*
X45000D01*
X35000Y174000D02*
X44000Y183000D01*
X25000Y174000D02*
X35000D01*
X29000Y163250D02*
X41750Y176000D01*
X29000Y154000D02*
Y163250D01*
X21000Y146000D02*
X29000Y154000D01*
X17000Y146000D02*
X21000D01*
X22000Y420000D02*
X26000D01*
X20500Y421500D02*
X22000Y420000D01*
X14000Y421500D02*
X20500D01*
X36000Y385250D02*
X45000Y376250D01*
X36000Y385250D02*
Y397000D01*
X42256Y340375D02*
X45625D01*
X40631Y342000D02*
X42256Y340375D01*
X40875Y345291D02*
X43291Y342875D01*
X40875Y345291D02*
Y348125D01*
X25000Y342000D02*
X40631D01*
X45625Y340375D02*
X50000Y336000D01*
X37000Y222000D02*
X37000Y222000D01*
X25000Y222000D02*
X37000D01*
X16000Y246000D02*
X25000D01*
X11000Y241000D02*
X16000Y246000D01*
X11000Y235000D02*
Y241000D01*
X25000Y246000D02*
X25000Y246000D01*
Y318000D02*
X42000D01*
X37000Y270000D02*
X37000Y270000D01*
X25000Y270000D02*
X37000D01*
X39000Y306000D02*
X41000Y304000D01*
X25000Y306000D02*
X39000D01*
X35000Y354000D02*
X40875Y348125D01*
X25000Y354000D02*
X35000D01*
X61000Y196000D02*
X64000Y199000D01*
X79500Y175500D02*
X89125Y185125D01*
X95708D01*
X100000Y180833D01*
Y180000D02*
Y180833D01*
X81166Y173000D02*
X89166Y181000D01*
X119166Y186000D02*
X128000D01*
X133000Y181000D01*
X89166Y181000D02*
X94000D01*
X112000Y175000D02*
X139000D01*
X107000Y180000D02*
X112000Y175000D01*
X139000D02*
X143000Y179000D01*
X156000Y184000D02*
X168000D01*
X149000Y177000D02*
X156000Y184000D01*
X152000Y172000D02*
X159000Y179000D01*
X95000Y172000D02*
X152000D01*
X152000Y128000D02*
X162100D01*
X187500Y121500D02*
Y128000D01*
X162100D02*
X178500D01*
X54875Y199375D02*
X58500Y203000D01*
X99166Y175000D02*
X102000D01*
X107000Y180000D01*
X94000Y180166D02*
X99166Y175000D01*
X94000Y180166D02*
Y181000D01*
X235000Y354000D02*
X245000D01*
X231000Y350000D02*
X235000Y354000D01*
X231000Y343036D02*
Y350000D01*
X235000Y378000D02*
X245000D01*
X226000Y369000D02*
X235000Y378000D01*
X226000Y345107D02*
Y369000D01*
X235000Y390000D02*
X245000D01*
X223500Y378500D02*
X235000Y390000D01*
X223500Y346142D02*
Y378500D01*
X235000Y402000D02*
X245000D01*
X221000Y388000D02*
X235000Y402000D01*
X221000Y347178D02*
Y388000D01*
X215500Y397666D02*
X229125Y411291D01*
X81875Y287375D02*
Y300553D01*
X91875Y296411D02*
X113340Y317875D01*
X94375Y295375D02*
X114375Y315375D01*
X206875D01*
X89375Y297446D02*
X112304Y320375D01*
X86875Y298482D02*
X111268Y322875D01*
X119000Y328000D02*
X121625Y325375D01*
X71866Y250866D02*
X91875Y270875D01*
X70500Y245500D02*
X94375Y269375D01*
X77464Y264000D02*
X86875Y273410D01*
X64000Y264000D02*
X77464D01*
X61000Y261000D02*
X64000Y264000D01*
X61000Y253500D02*
Y261000D01*
X66000Y258500D02*
X75500D01*
X89375Y272375D01*
X61000Y243500D02*
X61000Y243500D01*
X66875Y245500D02*
X70500D01*
X208334Y303875D02*
X234459Y330000D01*
X245000D01*
X113340Y317875D02*
X205840D01*
X112304Y320375D02*
X204804D01*
X111268Y322875D02*
X203769D01*
X121625Y325375D02*
X202733D01*
X205840Y317875D02*
X231000Y343036D01*
X202733Y325375D02*
X223500Y346142D01*
X203769Y322875D02*
X226000Y345107D01*
X204804Y320375D02*
X228500Y344071D01*
X206875Y315375D02*
X233500Y342000D01*
X177036Y353500D02*
X181036Y357500D01*
X205500D01*
X208000Y360000D01*
X183000Y352000D02*
X210536D01*
X168625Y337625D02*
X183000Y352000D01*
X167196Y340125D02*
X182071Y355000D01*
X210000D01*
X210536Y352000D02*
X218000Y359464D01*
X210000Y355000D02*
X215500Y360500D01*
X218000Y359464D02*
Y396631D01*
X215500Y360500D02*
Y397666D01*
X159500Y353500D02*
X177036D01*
X170875Y335125D02*
X177125Y328875D01*
X215500Y397666D02*
X215500Y397666D01*
Y397666D01*
X218000Y396631D02*
X235125Y413756D01*
X244756D01*
X245000Y414000D01*
X202697Y328875D02*
X221000Y347178D01*
X177125Y328875D02*
X202697D01*
X233500Y342000D02*
X245000D01*
X228500Y344071D02*
Y359375D01*
X235125Y366000D01*
X245000D01*
X175595Y232500D02*
X225095Y282000D01*
X134500Y232500D02*
X175595D01*
X132875Y234125D02*
X134500Y232500D01*
X127732Y234125D02*
X132875D01*
X124000Y218000D02*
X130000D01*
X119000Y223000D02*
X124000Y218000D01*
X130000D02*
X139500Y227500D01*
X177666D01*
X210291Y260125D01*
X225095Y282000D02*
X245000D01*
X216631Y270000D02*
X245000D01*
X210291Y260125D02*
X223670D01*
X225795Y258000D01*
X245000D01*
X176631Y230000D02*
X216631Y270000D01*
X130000Y230000D02*
X176631D01*
X125875Y232268D02*
X127732Y234125D01*
X125875Y228291D02*
Y232268D01*
Y228291D02*
X127000Y227166D01*
Y223000D02*
Y227166D01*
X176750Y360750D02*
X203875Y387875D01*
X262125Y236875D02*
X262500Y236500D01*
X262125Y236875D02*
Y240375D01*
X260000Y242500D02*
X262125Y240375D01*
X14500Y413000D02*
X22000D01*
X14000Y412500D02*
X14500Y413000D01*
X40000Y368000D02*
Y373000D01*
X38000Y366000D02*
X40000Y368000D01*
X25000Y366000D02*
X38000D01*
X18250Y428250D02*
X33500D01*
X14000Y407000D02*
Y412500D01*
X13000Y406000D02*
X14000Y407000D01*
X13000Y391000D02*
Y406000D01*
Y391000D02*
X14000Y390000D01*
X13000Y389000D02*
X14000Y390000D01*
X13000Y379750D02*
Y389000D01*
Y379750D02*
X14750Y378000D01*
X64000Y523000D02*
Y536000D01*
X10000Y532000D02*
X14268D01*
X15000Y531268D01*
Y526500D02*
Y531268D01*
X47356Y542500D02*
X53125Y548269D01*
X15000Y510000D02*
Y517500D01*
X93000Y538000D02*
Y547000D01*
X87500Y552500D02*
X93000Y547000D01*
X37000Y552000D02*
X49000D01*
X14750Y378000D02*
X25000D01*
X260000Y229000D02*
Y232000D01*
Y222000D02*
Y229000D01*
X158917Y259916D02*
Y260916D01*
X162000Y264000D01*
X156000Y256999D02*
X158917Y259916D01*
X206000Y273000D02*
X206000Y273000D01*
X254000Y258000D02*
X255000Y259000D01*
X245000Y258000D02*
X254000D01*
X245000Y258000D02*
X245000Y258000D01*
X260000Y222000D02*
X260000Y222000D01*
X245000Y222000D02*
X260000D01*
X258000Y234000D02*
X260000Y232000D01*
X245000Y234000D02*
X258000D01*
X14000Y390000D02*
X25000D01*
X135000Y535000D02*
Y545000D01*
X102000Y528500D02*
Y538000D01*
X51000Y532000D02*
Y538856D01*
X47356Y542500D02*
X51000Y538856D01*
X75000Y552500D02*
X87500D01*
X93000Y528500D02*
Y538000D01*
X102500Y519000D02*
X109000D01*
X102000Y519500D02*
X102500Y519000D01*
X109000D02*
X110750Y520750D01*
Y521250D01*
Y531750D01*
Y521250D02*
X113000Y519000D01*
X119000D01*
X37500Y450000D02*
X42500Y455000D01*
X25000Y450000D02*
X37500D01*
X35500Y462000D02*
X42500Y455000D01*
X25000Y462000D02*
X35500D01*
X42000Y474500D02*
X42500Y475000D01*
X25500Y474500D02*
X42000D01*
X25000Y474000D02*
X25500Y474500D01*
X127000Y514000D02*
Y519000D01*
X119000Y545000D02*
Y547000D01*
X37000Y542500D02*
X47356D01*
X110750Y531750D02*
X114000Y535000D01*
X119000D01*
X36500Y552500D02*
X37000Y552000D01*
X21000Y552500D02*
X36500D01*
X75000Y561500D02*
X75000Y561500D01*
X61000Y561500D02*
X75000D01*
X127000Y529000D02*
Y535000D01*
X125000Y527000D02*
X127000Y529000D01*
X119000Y527000D02*
X125000D01*
X93000Y519500D02*
X102000D01*
X119000Y545000D02*
X119000Y545000D01*
Y535000D02*
Y545000D01*
X135000Y535000D02*
X143000D01*
X127000D02*
X135000D01*
D60*
X71000Y108750D02*
X76250Y114000D01*
X93500D01*
X71000Y95000D02*
Y108750D01*
Y74000D02*
Y95000D01*
X49000Y76500D02*
Y95000D01*
Y76500D02*
X56500Y69000D01*
D61*
X32000Y79000D02*
X37000Y74000D01*
X21000Y79000D02*
X32000D01*
X37000Y71000D02*
Y74000D01*
D62*
X187000Y39000D02*
X195000Y31000D01*
X125000Y39000D02*
X187000D01*
X112000Y52000D02*
X125000Y39000D01*
X112000Y52000D02*
Y108750D01*
X195000Y17000D02*
Y31000D01*
X180000Y61990D02*
Y108750D01*
Y61990D02*
X185240Y56750D01*
X201750D01*
X206000Y61000D01*
X130500Y48500D02*
X211500D01*
X122000Y57000D02*
X130500Y48500D01*
X122000Y57000D02*
Y108750D01*
X211500Y48500D02*
X216000Y53000D01*
X170000Y108750D02*
Y117000D01*
X174000Y121000D01*
D63*
X16000Y98000D02*
X33000D01*
X34000Y97000D01*
D64*
X143500Y346500D02*
Y346571D01*
X138071Y352000D02*
X143500Y346571D01*
X134000Y394594D02*
Y395000D01*
X138071Y390929D01*
Y352000D02*
Y390929D01*
X107000Y352000D02*
X138071D01*
D65*
X213310Y74100D02*
D03*
Y124900D02*
D03*
Y99500D02*
D03*
D66*
X85900Y128000D02*
D03*
D67*
X111300D02*
D03*
X136700D02*
D03*
X162100D02*
D03*
D68*
X11000Y550000D02*
D03*
Y564000D02*
D03*
X160000Y567250D02*
D03*
X93500Y114000D02*
D03*
X47000Y133000D02*
D03*
X41000Y144000D02*
D03*
X78754Y98755D02*
D03*
X68000Y46000D02*
D03*
X110042Y559625D02*
D03*
X105000Y553000D02*
D03*
X165000Y541999D02*
D03*
X151000Y545000D02*
D03*
X254000Y142000D02*
D03*
X80000Y92000D02*
D03*
X57000Y93000D02*
D03*
Y99000D02*
D03*
X63000Y102000D02*
D03*
X47000Y127000D02*
D03*
X38000Y118000D02*
D03*
Y131500D02*
D03*
X87000Y81000D02*
D03*
X26000Y23000D02*
D03*
X11750Y41118D02*
D03*
X86000Y36000D02*
D03*
X78754Y46252D02*
D03*
X51000Y35000D02*
D03*
X50563Y41750D02*
D03*
X11000Y34000D02*
D03*
X218000Y140000D02*
D03*
X103000Y147000D02*
D03*
X217000Y520000D02*
D03*
X145000Y55000D02*
D03*
X138000Y95000D02*
D03*
X10000Y62000D02*
D03*
X148000Y95000D02*
D03*
X207000Y112000D02*
D03*
X174000Y121000D02*
D03*
X206000Y61000D02*
D03*
X187500Y134417D02*
D03*
X156500Y82500D02*
D03*
X216000Y53000D02*
D03*
X195000Y17000D02*
D03*
X214500Y18500D02*
D03*
X225000Y56000D02*
D03*
X87000Y58000D02*
D03*
X88000Y67000D02*
D03*
X16000Y98000D02*
D03*
Y89000D02*
D03*
X38250Y111750D02*
D03*
X9000Y54000D02*
D03*
X233000Y44000D02*
D03*
X237000Y20000D02*
D03*
X248000Y69000D02*
D03*
X256000Y528000D02*
D03*
X251000Y482500D02*
D03*
X225000Y415000D02*
D03*
X208000Y392000D02*
D03*
X227500Y435000D02*
D03*
X208000Y402000D02*
D03*
X232000Y429000D02*
D03*
Y470000D02*
D03*
X227500Y455000D02*
D03*
Y475000D02*
D03*
X225000Y495000D02*
D03*
X244000Y485000D02*
D03*
X239000D02*
D03*
X233000Y459000D02*
D03*
X198000Y272250D02*
D03*
X262500Y193250D02*
D03*
X262500Y180500D02*
D03*
X256000Y166000D02*
D03*
X245000Y138000D02*
D03*
X253000Y155000D02*
D03*
X249000Y161000D02*
D03*
X263000Y275000D02*
D03*
X261000Y363000D02*
D03*
X260000Y353000D02*
D03*
X14000Y265000D02*
D03*
X14875Y489000D02*
D03*
X257000Y431000D02*
D03*
X9500Y436000D02*
D03*
X17000Y435000D02*
D03*
X190000Y535000D02*
D03*
X185000Y592500D02*
D03*
X36750Y229000D02*
D03*
X188000Y148000D02*
D03*
X13250Y204250D02*
D03*
X95000Y146000D02*
D03*
X60000Y172000D02*
D03*
X261000Y325000D02*
D03*
X17500Y20000D02*
D03*
X17500Y580000D02*
D03*
X21000Y79000D02*
D03*
X96000Y228000D02*
D03*
X114000Y228000D02*
D03*
X63500Y221250D02*
D03*
X195000Y132000D02*
D03*
X37000Y214000D02*
D03*
X242500Y106500D02*
D03*
X231000Y191000D02*
D03*
X231000Y226500D02*
D03*
Y218000D02*
D03*
X215000D02*
D03*
X90000Y176000D02*
D03*
X195000Y216000D02*
D03*
X182000Y222000D02*
D03*
X173000Y194000D02*
D03*
X223000Y177000D02*
D03*
X79500Y285000D02*
D03*
X158500Y310500D02*
D03*
X89000Y320000D02*
D03*
X174500Y211000D02*
D03*
X167000Y246000D02*
D03*
X157000Y249000D02*
D03*
X175000Y238000D02*
D03*
X148418Y222582D02*
D03*
X148000Y211000D02*
D03*
X75000Y148000D02*
D03*
X63000Y146000D02*
D03*
X66000Y229000D02*
D03*
X76500Y290750D02*
D03*
X70000Y290000D02*
D03*
X63500Y290500D02*
D03*
X42250Y288500D02*
D03*
X170250Y360750D02*
D03*
X164375Y358000D02*
D03*
X157000Y356000D02*
D03*
X54875Y342875D02*
D03*
X45000Y347000D02*
D03*
X72000Y335000D02*
D03*
Y328000D02*
D03*
X143500Y346500D02*
D03*
X37000Y258000D02*
D03*
X47000Y324000D02*
D03*
X120000Y346000D02*
D03*
X42000Y296999D02*
D03*
X55000Y360000D02*
D03*
X54500Y405750D02*
D03*
X60000Y409000D02*
D03*
X49000Y403000D02*
D03*
X38000Y186000D02*
D03*
X44000Y183000D02*
D03*
X45000Y176000D02*
D03*
X40188Y443812D02*
D03*
X26000Y420000D02*
D03*
X36000Y397000D02*
D03*
X40000Y326000D02*
D03*
Y335000D02*
D03*
X50000Y353000D02*
D03*
Y336000D02*
D03*
X37000Y281000D02*
D03*
Y222000D02*
D03*
X11000Y235000D02*
D03*
X42000Y318000D02*
D03*
X37000Y270000D02*
D03*
X41000Y304000D02*
D03*
X64000Y199000D02*
D03*
X69000Y180000D02*
D03*
X66000Y189000D02*
D03*
X168000Y184000D02*
D03*
X159000Y179000D02*
D03*
X120000Y191000D02*
D03*
X166000Y177000D02*
D03*
X187500Y121500D02*
D03*
X143000Y179000D02*
D03*
X149000Y177000D02*
D03*
X95000Y172000D02*
D03*
X133000Y181000D02*
D03*
X130000Y146000D02*
D03*
X94000Y181000D02*
D03*
X100000Y180000D02*
D03*
X107000D02*
D03*
X93500Y221250D02*
D03*
X137250Y197750D02*
D03*
X99500Y197500D02*
D03*
X119000Y328000D02*
D03*
X61835Y269000D02*
D03*
X66000Y258500D02*
D03*
X66875Y245500D02*
D03*
X61000Y253500D02*
D03*
Y243500D02*
D03*
X116000Y310000D02*
D03*
X108000Y343000D02*
D03*
X151000Y311000D02*
D03*
X139000Y308000D02*
D03*
X140250Y299750D02*
D03*
X145000Y308000D02*
D03*
X138500Y329500D02*
D03*
X137000Y346000D02*
D03*
X218000Y406000D02*
D03*
X78500Y320500D02*
D03*
X101000Y351000D02*
D03*
X149250Y237250D02*
D03*
X182000Y375000D02*
D03*
X130000Y405000D02*
D03*
X158000Y403000D02*
D03*
X208000Y360000D02*
D03*
X134000Y395000D02*
D03*
X108000Y380000D02*
D03*
X125000Y395000D02*
D03*
X99500Y368500D02*
D03*
X107000Y352000D02*
D03*
X127000Y346000D02*
D03*
X164621Y331000D02*
D03*
X259000Y408000D02*
D03*
X58500Y203000D02*
D03*
X69500Y320500D02*
D03*
X262500Y470000D02*
D03*
X262500Y236500D02*
D03*
X262500Y570000D02*
D03*
Y520000D02*
D03*
Y495000D02*
D03*
Y545000D02*
D03*
Y395000D02*
D03*
Y370000D02*
D03*
Y445000D02*
D03*
Y420000D02*
D03*
X262500Y162750D02*
D03*
X262500Y120000D02*
D03*
Y145000D02*
D03*
Y95000D02*
D03*
Y50000D02*
D03*
Y16000D02*
D03*
Y70000D02*
D03*
X7500D02*
D03*
Y22500D02*
D03*
Y45000D02*
D03*
Y320000D02*
D03*
Y270000D02*
D03*
Y220000D02*
D03*
Y245000D02*
D03*
Y295000D02*
D03*
Y95000D02*
D03*
Y145000D02*
D03*
Y120000D02*
D03*
Y195000D02*
D03*
Y170000D02*
D03*
Y420000D02*
D03*
Y445000D02*
D03*
Y370000D02*
D03*
Y395000D02*
D03*
Y345000D02*
D03*
Y545000D02*
D03*
Y495000D02*
D03*
Y470000D02*
D03*
Y520000D02*
D03*
X22000Y413000D02*
D03*
X40000Y373000D02*
D03*
X33500Y428250D02*
D03*
X18250D02*
D03*
X92750Y567750D02*
D03*
X10000Y532000D02*
D03*
X93000Y538000D02*
D03*
X49000Y552000D02*
D03*
X7500Y570000D02*
D03*
X119000Y223000D02*
D03*
X127000D02*
D03*
X130000Y230000D02*
D03*
X109000Y198000D02*
D03*
X60000Y366000D02*
D03*
X47000Y381000D02*
D03*
X174000Y311250D02*
D03*
X174000Y272000D02*
D03*
Y282000D02*
D03*
X174000Y292000D02*
D03*
X211625Y313000D02*
D03*
X162000Y264000D02*
D03*
X156000Y256999D02*
D03*
X206000Y273000D02*
D03*
X214000Y292000D02*
D03*
X212000Y256000D02*
D03*
X231000Y241000D02*
D03*
X260000Y229000D02*
D03*
X41000Y312000D02*
D03*
X208000Y342000D02*
D03*
X204000Y280000D02*
D03*
X17500Y7500D02*
D03*
X35000D02*
D03*
X60000D02*
D03*
X160000D02*
D03*
X135000D02*
D03*
X110000D02*
D03*
X85000D02*
D03*
X235000D02*
D03*
X210000D02*
D03*
X185000D02*
D03*
X260000D02*
D03*
Y592500D02*
D03*
X210000D02*
D03*
X235000D02*
D03*
X85000D02*
D03*
X110000D02*
D03*
X135000D02*
D03*
X160000D02*
D03*
X60000D02*
D03*
X35000D02*
D03*
X17500D02*
D03*
X135000Y545000D02*
D03*
X102000Y538000D02*
D03*
X15000Y510000D02*
D03*
X51000Y532000D02*
D03*
X112000Y514000D02*
D03*
X64000Y536000D02*
D03*
X25000Y508000D02*
D03*
X69250Y574250D02*
D03*
X119000Y547000D02*
D03*
X45000Y415000D02*
D03*
X42500Y475000D02*
D03*
Y455000D02*
D03*
Y435000D02*
D03*
X65000Y412500D02*
D03*
X85000D02*
D03*
X105000D02*
D03*
X125000D02*
D03*
X145000D02*
D03*
X165000D02*
D03*
X185000D02*
D03*
X205000D02*
D03*
Y497500D02*
D03*
X185000D02*
D03*
X165000D02*
D03*
X145000D02*
D03*
X125000D02*
D03*
X105000D02*
D03*
X85000D02*
D03*
X65000D02*
D03*
X45000Y495000D02*
D03*
M02*
