G04*
G04 #@! TF.GenerationSoftware,Altium Limited,Altium Designer,21.0.8 (223)*
G04*
G04 Layer_Color=32768*
%FSLAX44Y44*%
%MOMM*%
G71*
G04*
G04 #@! TF.SameCoordinates,BC6D3639-D4A0-4107-B96B-A8576DDDF865*
G04*
G04*
G04 #@! TF.FilePolarity,Positive*
G04*
G01*
G75*
%ADD12C,0.2000*%
%ADD13C,0.1000*%
%ADD142C,0.0500*%
D12*
X135000Y325000D02*
Y350000D01*
Y300000D02*
Y325000D01*
X160000D01*
X110000D02*
X135000D01*
X25000Y490000D02*
X245000D01*
Y160000D02*
Y490000D01*
X25000Y160000D02*
X245000D01*
X25000D02*
Y490000D01*
D13*
X63250Y86000D02*
X68750D01*
X66000Y83250D02*
Y88750D01*
X65000Y74250D02*
Y79750D01*
X62250Y77000D02*
X67750D01*
X80000Y78250D02*
Y83750D01*
X77250Y81000D02*
X82750D01*
X28000Y30250D02*
Y35750D01*
X25250Y33000D02*
X30750D01*
X43000Y25250D02*
Y30750D01*
X40250Y28000D02*
X45750D01*
X58000Y30250D02*
Y35750D01*
X55250Y33000D02*
X60750D01*
X135000Y365000D02*
Y375000D01*
X130000Y370000D02*
X140000D01*
X195000Y117250D02*
Y122750D01*
X192250Y120000D02*
X197750D01*
X163250Y108000D02*
X168750D01*
X166000Y105250D02*
Y110750D01*
X190000Y95250D02*
Y100750D01*
X187250Y98000D02*
X192750D01*
X185000Y77250D02*
Y82750D01*
X182250Y80000D02*
X187750D01*
X195000Y77250D02*
Y82750D01*
X192250Y80000D02*
X197750D01*
X190000Y63250D02*
Y68750D01*
X187250Y66000D02*
X192750D01*
X190000Y49250D02*
Y54750D01*
X187250Y52000D02*
X192750D01*
X187250Y43000D02*
X192750D01*
X190000Y40250D02*
Y45750D01*
X205000Y45250D02*
Y50750D01*
X202250Y48000D02*
X207750D01*
X190000Y23250D02*
Y28750D01*
X187250Y26000D02*
X192750D01*
X207250Y35000D02*
X212750D01*
X210000Y32250D02*
Y37750D01*
X207250Y26000D02*
X212750D01*
X210000Y23250D02*
Y28750D01*
X256000Y489250D02*
Y494750D01*
X253250Y492000D02*
X258750D01*
X256000Y507250D02*
Y512750D01*
X253250Y510000D02*
X258750D01*
X244250Y500000D02*
X249750D01*
X247000Y497250D02*
Y502750D01*
X225000Y26250D02*
Y31750D01*
X222250Y29000D02*
X227750D01*
X254500Y20250D02*
X265500D01*
Y47750D01*
X254500D02*
X265500D01*
X254500Y20250D02*
Y47750D01*
X97500Y507250D02*
Y512750D01*
X94750Y510000D02*
X100250D01*
X99000Y571250D02*
Y576750D01*
X96250Y574000D02*
X101750D01*
X257250Y341000D02*
X262750D01*
X260000Y338250D02*
Y343750D01*
X13250Y447000D02*
X18750D01*
X16000Y444250D02*
Y449750D01*
X251250Y447000D02*
X256750D01*
X254000Y444250D02*
Y449750D01*
X25250Y104500D02*
Y110000D01*
X22500Y107250D02*
X28000D01*
X174500Y138500D02*
X180000D01*
X177250Y135750D02*
Y141250D01*
X180250Y128000D02*
X185750D01*
X183000Y125250D02*
Y130750D01*
X39250Y200000D02*
X44750D01*
X42000Y197250D02*
Y202750D01*
X14250Y146000D02*
X19750D01*
X17000Y143250D02*
Y148750D01*
X68000Y30250D02*
Y35750D01*
X65250Y33000D02*
X70750D01*
X78000Y30250D02*
Y35750D01*
X75250Y33000D02*
X80750D01*
X80000Y59750D02*
Y65250D01*
X77250Y62500D02*
X82750D01*
X70000Y59750D02*
Y65250D01*
X67250Y62500D02*
X72750D01*
X18000Y60250D02*
Y65750D01*
X15250Y63000D02*
X20750D01*
X29500Y89000D02*
X38500D01*
X34000Y84500D02*
Y93500D01*
X233000Y30250D02*
Y35750D01*
X230250Y33000D02*
X235750D01*
X146250Y113000D02*
X151750D01*
X149000Y110250D02*
Y115750D01*
X134000Y57000D02*
Y67000D01*
X129000Y62000D02*
X139000D01*
X107000Y361250D02*
Y366750D01*
X104250Y364000D02*
X109750D01*
X57000Y345000D02*
Y355000D01*
X52000Y350000D02*
X62000D01*
X145000Y402250D02*
Y407750D01*
X142250Y405000D02*
X147750D01*
X171000Y368250D02*
Y373750D01*
X168250Y371000D02*
X173750D01*
X238250Y365000D02*
X243750D01*
X241000Y362250D02*
Y367750D01*
X242250Y414000D02*
X247750D01*
X245000Y411250D02*
Y416750D01*
X15000Y519250D02*
Y524750D01*
X12250Y522000D02*
X17750D01*
X129250Y335000D02*
X134750D01*
X132000Y332250D02*
Y337750D01*
X142250Y335000D02*
X147750D01*
X145000Y332250D02*
Y337750D01*
X51250Y312000D02*
X56750D01*
X54000Y309250D02*
Y314750D01*
X29000Y300750D02*
Y306250D01*
X26250Y303500D02*
X31750D01*
X74000Y309250D02*
Y314750D01*
X71250Y312000D02*
X76750D01*
X98250Y337000D02*
X103750D01*
X101000Y334250D02*
Y339750D01*
X19060Y54910D02*
Y60410D01*
X16310Y57660D02*
X21810D01*
X130250Y189000D02*
X135750D01*
X133000Y186250D02*
Y191750D01*
X86000Y161250D02*
Y166750D01*
X83250Y164000D02*
X88750D01*
X102500Y144000D02*
Y184000D01*
Y144000D02*
X137500D01*
Y184000D01*
X102500D02*
X137500D01*
X110000Y164000D02*
X130000D01*
X120000Y154000D02*
Y174000D01*
X104000Y185250D02*
Y190750D01*
X101250Y188000D02*
X106750D01*
X202250Y143000D02*
X207750D01*
X205000Y140250D02*
Y145750D01*
X257250Y217500D02*
X262750D01*
X260000Y214750D02*
Y220250D01*
Y244250D02*
Y249750D01*
X257250Y247000D02*
X262750D01*
X260000Y286250D02*
Y291750D01*
X257250Y289000D02*
X262750D01*
X11250Y417000D02*
X16750D01*
X14000Y414250D02*
Y419750D01*
X123000Y195250D02*
Y200750D01*
X120250Y198000D02*
X125750D01*
X241250Y231000D02*
X246750D01*
X244000Y228250D02*
Y233750D01*
Y238250D02*
Y243750D01*
X241250Y241000D02*
X246750D01*
X247000Y300000D02*
X257000D01*
X252000Y295000D02*
Y305000D01*
X203150Y48700D02*
X284430D01*
X203150D02*
Y150300D01*
X284430D01*
Y48700D02*
Y150300D01*
X228550Y99500D02*
X266650D01*
X247600Y80450D02*
Y118550D01*
X51500Y540000D02*
Y550000D01*
X46500Y545000D02*
X56500D01*
X110500Y539500D02*
X159500D01*
X110500Y514500D02*
Y539500D01*
Y514500D02*
X159500D01*
Y539500D01*
X159500Y539500D01*
X135000Y522000D02*
Y532000D01*
X130000Y527000D02*
X140000D01*
X97000Y522250D02*
Y527750D01*
X94250Y525000D02*
X99750D01*
X18250Y557000D02*
X23750D01*
X21000Y554250D02*
Y559750D01*
X72250Y557000D02*
X77750D01*
X75000Y554250D02*
Y559750D01*
X49000Y547000D02*
Y557000D01*
X44000Y552000D02*
X54000D01*
X33000Y567000D02*
X65000D01*
X33000Y537000D02*
Y567000D01*
Y537000D02*
X65000D01*
Y567000D01*
X90250Y524000D02*
X95750D01*
X93000Y521250D02*
Y526750D01*
X99250Y524000D02*
X104750D01*
X102000Y521250D02*
Y526750D01*
X168000Y521250D02*
Y526750D01*
X165250Y524000D02*
X170750D01*
X177000Y521250D02*
Y526750D01*
X174250Y524000D02*
X179750D01*
X244000Y215250D02*
Y220750D01*
X241250Y218000D02*
X246750D01*
X157250Y145000D02*
X162750D01*
X160000Y142250D02*
Y147750D01*
X138250Y145000D02*
X143750D01*
X141000Y142250D02*
Y147750D01*
X30250Y48000D02*
X35750D01*
X33000Y45250D02*
Y50750D01*
X33000Y76250D02*
X43000D01*
X38000Y71250D02*
Y81250D01*
X49250Y48000D02*
X54750D01*
X52000Y45250D02*
Y50750D01*
X23310Y103660D02*
X28810D01*
X26060Y100910D02*
Y106410D01*
X42310Y103660D02*
X47810D01*
X45060Y100910D02*
Y106410D01*
X265500Y196250D02*
Y223750D01*
X254500D02*
X265500D01*
X254500Y196250D02*
Y223750D01*
Y196250D02*
X265500D01*
X244250Y28000D02*
X249750D01*
X247000Y25250D02*
Y30750D01*
X244250Y39000D02*
X249750D01*
X247000Y36250D02*
Y41750D01*
X244250Y97000D02*
X249750D01*
X247000Y94250D02*
Y99750D01*
X100250Y314000D02*
X105750D01*
X103000Y311250D02*
Y316750D01*
X158250Y272000D02*
X163750D01*
X161000Y269250D02*
Y274750D01*
X160250Y218000D02*
X165750D01*
X163000Y215250D02*
Y220750D01*
X91000Y256000D02*
X101000D01*
X96000Y251000D02*
Y261000D01*
X161000Y279250D02*
Y284750D01*
X158250Y282000D02*
X163750D01*
X161000Y289250D02*
Y294750D01*
X158250Y292000D02*
X163750D01*
X163000Y235250D02*
Y240750D01*
X160250Y238000D02*
X165750D01*
X163000Y225250D02*
Y230750D01*
X160250Y228000D02*
X165750D01*
X188000Y161250D02*
Y166750D01*
X185250Y164000D02*
X190750D01*
X238250Y149000D02*
X243750D01*
X241000Y146250D02*
Y151750D01*
X230000Y135250D02*
Y140750D01*
X227250Y138000D02*
X232750D01*
X220500Y192500D02*
X229500D01*
X225000Y188000D02*
Y197000D01*
X237000Y161250D02*
Y166750D01*
X234250Y164000D02*
X239750D01*
X191000Y277250D02*
Y282750D01*
X188250Y280000D02*
X193750D01*
X205250Y329000D02*
X210750D01*
X208000Y326250D02*
Y331750D01*
X40000Y33250D02*
Y38750D01*
X37250Y36000D02*
X42750D01*
X18000Y41250D02*
Y46750D01*
X15250Y44000D02*
X20750D01*
X70250Y57000D02*
X75750D01*
X73000Y54250D02*
Y59750D01*
X130000Y527000D02*
X140000D01*
X135000Y522000D02*
Y532000D01*
X110500Y539500D02*
X110500Y539500D01*
Y514500D02*
Y539500D01*
Y514500D02*
X159500D01*
Y539500D01*
X110500D02*
X159500D01*
X10000Y8000D02*
G03*
X18000Y0I8000J0D01*
G01*
Y600000D02*
G03*
X10000Y592000I0J-8000D01*
G01*
Y8000D02*
Y15000D01*
X18000Y-0D02*
X270000Y0D01*
X10000Y585000D02*
Y592000D01*
X18000Y600000D02*
X270000D01*
X-0Y585000D02*
X-0Y15000D01*
X0Y585000D02*
X10000D01*
X0Y15000D02*
X10000D01*
X270000Y0D02*
Y330000D01*
Y600000D01*
D142*
X186350Y530000D02*
G03*
X186350Y530000I-6350J0D01*
G01*
Y550000D02*
G03*
X186350Y550000I-6350J0D01*
G01*
Y570000D02*
G03*
X186350Y570000I-6350J0D01*
G01*
X75000Y81500D02*
Y90500D01*
X57000Y81500D02*
Y90500D01*
X75000D01*
X57000Y81500D02*
X75000D01*
X55500Y82000D02*
X74500D01*
X55500Y72000D02*
X74500D01*
Y82000D01*
X55500Y72000D02*
Y82000D01*
X75500Y90000D02*
X84500D01*
X75500Y72000D02*
X84500D01*
X75500D02*
Y90000D01*
X84500Y72000D02*
Y90000D01*
X23500Y42000D02*
X32500D01*
X23500Y24000D02*
X32500D01*
X23500D02*
Y42000D01*
X32500Y24000D02*
Y42000D01*
X33500Y33000D02*
X52500D01*
X33500Y23000D02*
X52500D01*
Y33000D01*
X33500Y23000D02*
Y33000D01*
X53500Y42000D02*
X62500D01*
X53500Y24000D02*
X62500D01*
X53500D02*
Y42000D01*
X62500Y24000D02*
Y42000D01*
X114000Y349000D02*
X156000D01*
X114000Y391000D02*
X156000D01*
X114000Y349000D02*
Y391000D01*
X156000Y349000D02*
Y391000D01*
X190500Y129000D02*
X199500D01*
X190500Y111000D02*
X199500D01*
X190500D02*
Y129000D01*
X199500Y111000D02*
Y129000D01*
X157000Y103500D02*
Y112500D01*
X175000Y103500D02*
Y112500D01*
X157000Y103500D02*
X175000D01*
X157000Y112500D02*
X175000D01*
X180500Y103000D02*
X199500D01*
X180500Y93000D02*
X199500D01*
Y103000D01*
X180500Y93000D02*
Y103000D01*
X180500Y89000D02*
X189500D01*
X180500Y71000D02*
X189500D01*
X180500D02*
Y89000D01*
X189500Y71000D02*
Y89000D01*
X190500D02*
X199500D01*
X190500Y71000D02*
X199500D01*
X190500D02*
Y89000D01*
X199500Y71000D02*
Y89000D01*
X180500Y71000D02*
X199500D01*
X180500Y61000D02*
X199500D01*
Y71000D01*
X180500Y61000D02*
Y71000D01*
Y57000D02*
X199500D01*
X180500Y47000D02*
X199500D01*
Y57000D01*
X180500Y47000D02*
Y57000D01*
X199000Y38500D02*
Y47500D01*
X181000Y38500D02*
Y47500D01*
X199000D01*
X181000Y38500D02*
X199000D01*
X200500Y39000D02*
X209500D01*
X200500Y57000D02*
X209500D01*
Y39000D02*
Y57000D01*
X200500Y39000D02*
Y57000D01*
X180500Y31000D02*
X199500D01*
X180500Y21000D02*
X199500D01*
Y31000D01*
X180500Y21000D02*
Y31000D01*
X219000Y30500D02*
Y39500D01*
X201000Y30500D02*
Y39500D01*
X219000D01*
X201000Y30500D02*
X219000D01*
Y21500D02*
Y30500D01*
X201000Y21500D02*
Y30500D01*
X219000D01*
X201000Y21500D02*
X219000D01*
X251500Y483000D02*
X260500D01*
X251500Y501000D02*
X260500D01*
Y483000D02*
Y501000D01*
X251500Y483000D02*
Y501000D01*
X251500Y519000D02*
X260500D01*
X251500Y501000D02*
X260500D01*
X251500D02*
Y519000D01*
X260500Y501000D02*
Y519000D01*
X252000Y490500D02*
Y509500D01*
X242000Y490500D02*
Y509500D01*
Y490500D02*
X252000D01*
X242000Y509500D02*
X252000D01*
X220500Y20000D02*
X229500D01*
X220500Y38000D02*
X229500D01*
X220500Y20000D02*
Y38000D01*
X229500Y20000D02*
Y38000D01*
X256000Y34000D02*
X260000D01*
Y30000D02*
Y34000D01*
X264000D01*
X260000D02*
Y38000D01*
X88500Y514500D02*
X106500D01*
X88500Y505500D02*
X106500D01*
X88500D02*
Y514500D01*
X106500Y505500D02*
Y514500D01*
X90000Y569500D02*
X108000D01*
X90000Y578500D02*
X108000D01*
Y569500D02*
Y578500D01*
X90000Y569500D02*
Y578500D01*
X255500Y332000D02*
Y350000D01*
X264500Y332000D02*
Y350000D01*
X255500Y332000D02*
X264500D01*
X255500Y350000D02*
X264500D01*
X41000Y400250D02*
X63000D01*
Y383750D02*
Y400250D01*
X41000Y383750D02*
X63000D01*
X49000Y392000D02*
X55000D01*
X52000Y389000D02*
Y395000D01*
X41000Y383750D02*
Y400250D01*
X20500Y438000D02*
Y456000D01*
X11500Y438000D02*
Y456000D01*
Y438000D02*
X20500D01*
X11500Y456000D02*
X20500D01*
X258500Y438000D02*
Y456000D01*
X249500Y438000D02*
Y456000D01*
Y438000D02*
X258500D01*
X249500Y456000D02*
X258500D01*
X16250Y111750D02*
X34250D01*
X16250Y102750D02*
X34250D01*
X16250D02*
Y111750D01*
X34250Y102750D02*
Y111750D01*
X186250Y134000D02*
Y143000D01*
X168250Y134000D02*
Y143000D01*
Y134000D02*
X186250D01*
X168250Y143000D02*
X186250D01*
X192000Y123500D02*
Y132500D01*
X174000Y123500D02*
Y132500D01*
Y123500D02*
X192000D01*
X174000Y132500D02*
X192000D01*
X46500Y191000D02*
Y209000D01*
X37500Y191000D02*
Y209000D01*
Y191000D02*
X46500D01*
X37500Y209000D02*
X46500D01*
X50000Y140250D02*
X72000D01*
X50000Y123750D02*
Y140250D01*
Y123750D02*
X72000D01*
X58000Y132000D02*
X64000D01*
X61000Y129000D02*
Y135000D01*
X72000Y123750D02*
Y140250D01*
X13250Y158250D02*
X20750D01*
Y133750D02*
Y158250D01*
X13250Y133750D02*
Y158250D01*
Y133750D02*
X20750D01*
X63500Y42000D02*
X72500D01*
X63500Y24000D02*
X72500D01*
X63500D02*
Y42000D01*
X72500Y24000D02*
Y42000D01*
X73500D02*
X82500D01*
X73500Y24000D02*
X82500D01*
X73500D02*
Y42000D01*
X82500Y24000D02*
Y42000D01*
X75500Y53500D02*
X84500D01*
X75500Y71500D02*
X84500D01*
Y53500D02*
Y71500D01*
X75500Y53500D02*
Y71500D01*
X65500Y53500D02*
X74500D01*
X65500Y71500D02*
X74500D01*
Y53500D02*
Y71500D01*
X65500Y53500D02*
Y71500D01*
X13500Y54000D02*
X22500D01*
X13500Y72000D02*
X22500D01*
X13500Y54000D02*
Y72000D01*
X22500Y54000D02*
Y72000D01*
X26500Y75500D02*
Y102500D01*
X41500Y75500D02*
Y102500D01*
X26500Y75500D02*
X41500D01*
X26500Y102500D02*
X41500D01*
X228500Y24000D02*
X237500D01*
X228500Y42000D02*
X237500D01*
Y24000D02*
Y42000D01*
X228500Y24000D02*
Y42000D01*
X153500Y104000D02*
Y122000D01*
X144500Y104000D02*
Y122000D01*
X153500D01*
X144500Y104000D02*
X153500D01*
X88500Y19500D02*
X179500D01*
X88500Y104500D02*
X179500D01*
X88500Y19500D02*
Y104500D01*
X179500Y19500D02*
Y104500D01*
X202000Y360000D02*
X212000D01*
X207000Y355000D02*
Y365000D01*
X189500Y344500D02*
X224500D01*
Y375500D01*
X189500D02*
X224500D01*
X189500Y344500D02*
Y375500D01*
X202000Y392000D02*
X212000D01*
X207000Y387000D02*
Y397000D01*
X189500Y376500D02*
X224500D01*
Y407500D01*
X189500D02*
X224500D01*
X189500Y376500D02*
Y407500D01*
X166000Y392000D02*
X176000D01*
X171000Y387000D02*
Y397000D01*
X153500Y407500D02*
X188500D01*
X153500Y376500D02*
Y407500D01*
Y376500D02*
X188500D01*
Y407500D01*
X102500Y373000D02*
X111500D01*
X102500Y355000D02*
X111500D01*
X102500D02*
Y373000D01*
X111500Y355000D02*
Y373000D01*
X18000Y378000D02*
X96000D01*
X18000Y322000D02*
X96000D01*
Y378000D01*
X18000Y322000D02*
Y378000D01*
X136000Y409500D02*
X154000D01*
X136000Y400500D02*
X154000D01*
Y409500D01*
X136000Y400500D02*
Y409500D01*
X162000Y375500D02*
X180000D01*
X162000Y366500D02*
X180000D01*
Y375500D01*
X162000Y366500D02*
Y375500D01*
X159000Y354250D02*
X181000D01*
Y337750D02*
Y354250D01*
X159000Y337750D02*
X181000D01*
X167000Y346000D02*
X173000D01*
X170000Y343000D02*
Y349000D01*
X159000Y337750D02*
Y354250D01*
X250000Y360500D02*
Y369500D01*
X232000Y360500D02*
Y369500D01*
X250000D01*
X232000Y360500D02*
X250000D01*
X254000Y409500D02*
Y418500D01*
X236000Y409500D02*
Y418500D01*
X254000D01*
X236000Y409500D02*
X254000D01*
X241000Y385000D02*
Y395000D01*
X236000Y390000D02*
X246000D01*
X256500Y372500D02*
Y407500D01*
X225500D02*
X256500D01*
X225500Y372500D02*
Y407500D01*
Y372500D02*
X256500D01*
X70000Y184750D02*
X92000D01*
X70000D02*
Y201250D01*
X92000D01*
X78000Y193000D02*
X84000D01*
X81000Y190000D02*
Y196000D01*
X92000Y184750D02*
Y201250D01*
X10500Y531000D02*
X19500D01*
X10500Y513000D02*
X19500D01*
Y531000D01*
X10500Y513000D02*
Y531000D01*
X127500Y326000D02*
Y344000D01*
X136500Y326000D02*
Y344000D01*
X127500D02*
X136500D01*
X127500Y326000D02*
X136500D01*
X140500D02*
Y344000D01*
X149500Y326000D02*
Y344000D01*
X140500D02*
X149500D01*
X140500Y326000D02*
X149500D01*
X45000Y307500D02*
Y316500D01*
X63000Y307500D02*
Y316500D01*
X45000Y307500D02*
X63000D01*
X45000Y316500D02*
X63000D01*
X25250Y291250D02*
X32750D01*
Y315750D01*
X25250Y291250D02*
Y315750D01*
X32750D01*
X65000Y316500D02*
X83000D01*
X65000Y307500D02*
X83000D01*
Y316500D01*
X65000Y307500D02*
Y316500D01*
X105500Y328000D02*
Y346000D01*
X96500Y328000D02*
Y346000D01*
Y328000D02*
X105500D01*
X96500Y346000D02*
X105500D01*
X14560Y48660D02*
X23560D01*
X14560Y66660D02*
X23560D01*
Y48660D02*
Y66660D01*
X14560Y48660D02*
Y66660D01*
X124000Y184500D02*
Y193500D01*
X142000Y184500D02*
Y193500D01*
X124000Y184500D02*
X142000D01*
X124000Y193500D02*
X142000D01*
X81500Y155000D02*
X90500D01*
X81500Y173000D02*
X90500D01*
Y155000D02*
Y173000D01*
X81500Y155000D02*
Y173000D01*
X95000Y192500D02*
X113000D01*
X95000Y183500D02*
X113000D01*
Y192500D01*
X95000Y183500D02*
Y192500D01*
X214000Y138500D02*
Y147500D01*
X196000Y138500D02*
Y147500D01*
Y138500D02*
X214000D01*
X196000Y147500D02*
X214000D01*
X264500Y208500D02*
Y226500D01*
X255500Y208500D02*
Y226500D01*
X264500D01*
X255500Y208500D02*
X264500D01*
X255500Y256000D02*
X264500D01*
X255500Y238000D02*
X264500D01*
Y256000D01*
X255500Y238000D02*
Y256000D01*
Y298000D02*
X264500D01*
X255500Y280000D02*
X264500D01*
Y298000D01*
X255500Y280000D02*
Y298000D01*
X9500Y408000D02*
Y426000D01*
X18500Y408000D02*
Y426000D01*
X9500Y408000D02*
X18500D01*
X9500Y426000D02*
X18500D01*
X114000Y193500D02*
X132000D01*
X114000Y202500D02*
X132000D01*
X114000Y193500D02*
Y202500D01*
X132000Y193500D02*
Y202500D01*
X235000Y226500D02*
Y235500D01*
X253000Y226500D02*
Y235500D01*
X235000Y226500D02*
X253000D01*
X235000Y235500D02*
X253000D01*
X235000Y236500D02*
X253000D01*
X235000Y245500D02*
X253000D01*
X235000Y236500D02*
Y245500D01*
X253000Y236500D02*
Y245500D01*
X279700Y252000D02*
Y348000D01*
X217500Y252000D02*
X279700D01*
X217500Y348000D02*
X279700D01*
X217500Y252000D02*
Y348000D01*
X12500Y580500D02*
X90500D01*
X12500Y509500D02*
X90500D01*
Y580500D01*
X12500Y509500D02*
Y580500D01*
X92500Y534000D02*
X101500D01*
X92500Y516000D02*
X101500D01*
X92500D02*
Y534000D01*
X101500Y516000D02*
Y534000D01*
X25500Y548000D02*
Y566000D01*
X16500Y548000D02*
Y566000D01*
X25500D01*
X16500Y548000D02*
X25500D01*
X79500D02*
Y566000D01*
X70500Y548000D02*
Y566000D01*
X79500D01*
X70500Y548000D02*
X79500D01*
X88500Y515000D02*
Y533000D01*
X97500Y515000D02*
Y533000D01*
X88500Y515000D02*
X97500D01*
X88500Y533000D02*
X97500D01*
Y515000D02*
Y533000D01*
X106500Y515000D02*
Y533000D01*
X97500Y515000D02*
X106500D01*
X97500Y533000D02*
X106500D01*
X163500D02*
X172500D01*
X163500Y515000D02*
X172500D01*
X163500D02*
Y533000D01*
X172500Y515000D02*
Y533000D01*
X181500D01*
X172500Y515000D02*
X181500D01*
X172500D02*
Y533000D01*
X181500Y515000D02*
Y533000D01*
X235000Y222500D02*
X253000D01*
X235000Y213500D02*
X253000D01*
Y222500D01*
X235000Y213500D02*
Y222500D01*
X169000Y140500D02*
Y149500D01*
X151000Y140500D02*
Y149500D01*
Y140500D02*
X169000D01*
X151000Y149500D02*
X169000D01*
X150000Y140500D02*
Y149500D01*
X132000Y140500D02*
Y149500D01*
Y140500D02*
X150000D01*
X132000Y149500D02*
X150000D01*
X24000Y43500D02*
Y52500D01*
X42000Y43500D02*
Y52500D01*
X24000Y43500D02*
X42000D01*
X24000Y52500D02*
X42000D01*
X55000Y55250D02*
Y97250D01*
X21000Y55250D02*
Y97250D01*
Y55250D02*
X55000D01*
X21000Y97250D02*
X55000D01*
X61000Y43500D02*
Y52500D01*
X43000Y43500D02*
Y52500D01*
X61000D01*
X43000Y43500D02*
X61000D01*
X17060Y99160D02*
Y108160D01*
X35060Y99160D02*
Y108160D01*
X17060Y99160D02*
X35060D01*
X17060Y108160D02*
X35060D01*
X36060Y99160D02*
Y108160D01*
X54060Y99160D02*
Y108160D01*
X36060Y99160D02*
X54060D01*
X36060Y108160D02*
X54060D01*
X260000Y210000D02*
Y214000D01*
X256000Y210000D02*
X260000D01*
Y206000D02*
Y210000D01*
X264000D01*
X256000Y23500D02*
Y32500D01*
X238000Y23500D02*
Y32500D01*
X256000D01*
X238000Y23500D02*
X256000D01*
X238000Y34500D02*
Y43500D01*
X256000Y34500D02*
Y43500D01*
X238000Y34500D02*
X256000D01*
X238000Y43500D02*
X256000D01*
X256000Y92500D02*
Y101500D01*
X238000Y92500D02*
Y101500D01*
X256000D01*
X238000Y92500D02*
X256000D01*
X94000Y309500D02*
Y318500D01*
X112000Y309500D02*
Y318500D01*
X94000Y309500D02*
X112000D01*
X94000Y318500D02*
X112000D01*
X152000Y267500D02*
Y276500D01*
X170000Y267500D02*
Y276500D01*
X152000Y267500D02*
X170000D01*
X152000Y276500D02*
X170000D01*
X172000Y213500D02*
Y222500D01*
X154000Y213500D02*
Y222500D01*
X172000D01*
X154000Y213500D02*
X172000D01*
X147000Y205000D02*
Y307000D01*
X45000Y205000D02*
Y307000D01*
X147000D01*
X45000Y205000D02*
X147000D01*
X152000Y286500D02*
X170000D01*
X152000Y277500D02*
X170000D01*
Y286500D01*
X152000Y277500D02*
Y286500D01*
X152000Y287500D02*
X170000D01*
X152000Y296500D02*
X170000D01*
X152000Y287500D02*
Y296500D01*
X170000Y287500D02*
Y296500D01*
X154000Y242500D02*
X172000D01*
X154000Y233500D02*
X172000D01*
Y242500D01*
X154000Y233500D02*
Y242500D01*
X154000Y223500D02*
X172000D01*
X154000Y232500D02*
X172000D01*
X154000Y223500D02*
Y232500D01*
X172000Y223500D02*
Y232500D01*
X183500Y155000D02*
X192500D01*
X183500Y173000D02*
X192500D01*
Y155000D02*
Y173000D01*
X183500Y155000D02*
Y173000D01*
X232000Y144500D02*
Y153500D01*
X250000Y144500D02*
Y153500D01*
X232000Y144500D02*
X250000D01*
X232000Y153500D02*
X250000D01*
X221000Y142500D02*
X239000D01*
X221000Y133500D02*
X239000D01*
Y142500D01*
X221000Y133500D02*
Y142500D01*
X232500Y179000D02*
Y206000D01*
X217500Y179000D02*
Y206000D01*
Y179000D02*
X232500D01*
X217500Y206000D02*
X232500D01*
Y173000D02*
X241500D01*
X232500Y155000D02*
X241500D01*
X232500D02*
Y173000D01*
X241500Y155000D02*
Y173000D01*
X195000Y195000D02*
X205000D01*
X200000Y190000D02*
Y195000D01*
Y200000D01*
X183490Y178490D02*
X216510D01*
X183490D02*
Y211510D01*
X216510D01*
Y178490D02*
Y211510D01*
X194700Y143579D02*
Y174579D01*
X229700D01*
Y143579D02*
Y174579D01*
X194700Y143579D02*
X229700D01*
X212200Y154079D02*
Y164079D01*
X207200Y159079D02*
X217200D01*
X182000Y275500D02*
X200000D01*
X182000Y284500D02*
X200000D01*
X182000Y275500D02*
Y284500D01*
X200000Y275500D02*
Y284500D01*
X212500Y320000D02*
Y338000D01*
X203500Y320000D02*
Y338000D01*
Y320000D02*
X212500D01*
X203500Y338000D02*
X212500D01*
X152750Y151000D02*
X169250D01*
X158000Y162000D02*
X164000D01*
X161000Y159000D02*
Y165000D01*
X169250Y151000D02*
Y173000D01*
X152750D02*
X169250D01*
X152750Y151000D02*
Y173000D01*
X31000Y31500D02*
X49000D01*
X31000Y40500D02*
X49000D01*
Y31500D02*
Y40500D01*
X31000Y31500D02*
Y40500D01*
X13500Y35000D02*
X22500D01*
X13500Y53000D02*
X22500D01*
X13500Y35000D02*
Y53000D01*
X22500Y35000D02*
Y53000D01*
X77500Y48000D02*
Y66000D01*
X68500Y48000D02*
Y66000D01*
X77500D01*
X68500Y48000D02*
X77500D01*
X64500Y42500D02*
Y73500D01*
X29500D02*
X64500D01*
X29500Y42500D02*
Y73500D01*
Y42500D02*
X64500D01*
X47000Y53000D02*
Y63000D01*
X42000Y58000D02*
X52000D01*
X55000Y95000D02*
X65000D01*
X60000Y90000D02*
Y95000D01*
Y100000D01*
X43490Y78490D02*
X76510D01*
Y111510D01*
X43490D02*
X76510D01*
X43490Y78490D02*
Y111510D01*
M02*
