G04*
G04 #@! TF.GenerationSoftware,Altium Limited,Altium Designer,21.0.8 (223)*
G04*
G04 Layer_Physical_Order=6*
G04 Layer_Color=16711680*
%FSLAX44Y44*%
%MOMM*%
G71*
G04*
G04 #@! TF.SameCoordinates,BC6D3639-D4A0-4107-B96B-A8576DDDF865*
G04*
G04*
G04 #@! TF.FilePolarity,Positive*
G04*
G01*
G75*
%ADD12C,0.2000*%
%ADD13C,0.1000*%
%ADD21R,0.5500X0.5500*%
%ADD23R,0.5500X0.5500*%
%ADD24R,0.3500X0.4500*%
%ADD25R,0.2500X0.4500*%
%ADD26R,0.9500X0.5500*%
%ADD27R,1.2000X1.8000*%
%ADD28R,0.6000X1.5500*%
%ADD30R,1.0600X0.6500*%
%ADD31R,1.0600X0.6000*%
%ADD32R,0.8000X2.7000*%
%ADD33R,0.5000X0.5000*%
%ADD56C,1.0000*%
%ADD57R,0.8000X0.8000*%
%ADD59C,0.1250*%
%ADD62C,0.6000*%
%ADD63C,0.4000*%
%ADD64C,0.3000*%
%ADD65C,1.7500*%
%ADD66R,1.5240X1.5240*%
%ADD67C,1.5240*%
%ADD68C,0.4500*%
G04:AMPARAMS|DCode=75|XSize=0.6mm|YSize=0.65mm|CornerRadius=0.075mm|HoleSize=0mm|Usage=FLASHONLY|Rotation=270.000|XOffset=0mm|YOffset=0mm|HoleType=Round|Shape=RoundedRectangle|*
%AMROUNDEDRECTD75*
21,1,0.6000,0.5000,0,0,270.0*
21,1,0.4500,0.6500,0,0,270.0*
1,1,0.1500,-0.2500,-0.2250*
1,1,0.1500,-0.2500,0.2250*
1,1,0.1500,0.2500,0.2250*
1,1,0.1500,0.2500,-0.2250*
%
%ADD75ROUNDEDRECTD75*%
%ADD76R,1.7000X1.5400*%
%ADD77O,0.2000X0.6000*%
%ADD78O,0.6000X0.2000*%
G04:AMPARAMS|DCode=79|XSize=0.6mm|YSize=0.65mm|CornerRadius=0.075mm|HoleSize=0mm|Usage=FLASHONLY|Rotation=180.000|XOffset=0mm|YOffset=0mm|HoleType=Round|Shape=RoundedRectangle|*
%AMROUNDEDRECTD79*
21,1,0.6000,0.5000,0,0,180.0*
21,1,0.4500,0.6500,0,0,180.0*
1,1,0.1500,-0.2250,0.2500*
1,1,0.1500,0.2250,0.2500*
1,1,0.1500,0.2250,-0.2500*
1,1,0.1500,-0.2250,-0.2500*
%
%ADD79ROUNDEDRECTD79*%
%ADD80O,1.4000X0.4000*%
%ADD81O,1.4000X0.4500*%
%ADD82R,0.6500X1.0600*%
%ADD83R,0.2400X0.9000*%
%ADD84R,0.9000X0.2400*%
%ADD85R,1.0000X1.4000*%
%ADD86R,0.8000X0.5400*%
%ADD87R,0.6000X0.3000*%
%ADD88R,1.0000X0.3000*%
%ADD89R,1.0000X0.4000*%
%ADD90R,1.6000X2.1000*%
%ADD91R,1.3500X0.4000*%
%ADD92R,1.9000X1.8000*%
%ADD93R,1.9000X1.9000*%
%ADD94R,0.6000X1.0500*%
%ADD95R,0.6200X1.2200*%
%ADD96R,0.5000X0.4000*%
%ADD97O,0.8500X0.2500*%
%ADD98O,0.2500X0.8500*%
%ADD99R,4.3500X4.3500*%
%ADD100R,0.9000X1.0000*%
%ADD101R,0.4500X0.2500*%
%ADD102R,0.4500X0.3500*%
%ADD103C,0.7500*%
%ADD104C,0.2500*%
G36*
X265000Y482750D02*
X261290D01*
Y486230D01*
X256000D01*
Y488770D01*
X261290D01*
Y492790D01*
X260000D01*
Y500230D01*
X260000Y500500D01*
Y501500D01*
X260000Y501770D01*
Y509210D01*
X261290D01*
Y513230D01*
X256000D01*
Y514500D01*
X254730D01*
Y519790D01*
X251333D01*
Y520000D01*
X251003Y521658D01*
X250064Y523064D01*
X247064Y526064D01*
X245658Y527003D01*
X244000Y527333D01*
X238000D01*
X236342Y527003D01*
X234936Y526064D01*
X231936Y523064D01*
X230997Y521658D01*
X230667Y520000D01*
Y519757D01*
X230540Y518540D01*
X229397Y518540D01*
X226270D01*
Y508250D01*
Y497960D01*
X230540D01*
Y498067D01*
X230750Y499250D01*
X231810Y499250D01*
X239250D01*
Y507831D01*
X239333Y508250D01*
Y518205D01*
X239795Y518667D01*
X242205D01*
X242667Y518205D01*
Y505000D01*
X242711Y504778D01*
Y502500D01*
X242866Y501720D01*
X243308Y501058D01*
X243897Y500664D01*
X243970Y500100D01*
Y499900D01*
X243897Y499336D01*
X243308Y498942D01*
X242866Y498280D01*
X242711Y497500D01*
Y495221D01*
X242667Y495000D01*
Y490558D01*
X241442Y489333D01*
X239000D01*
X237342Y489003D01*
X235936Y488064D01*
X234997Y486658D01*
X234667Y485000D01*
X234997Y483342D01*
X235936Y481936D01*
X237342Y480997D01*
X239000Y480667D01*
X244000D01*
X245658Y480997D01*
X247064Y481936D01*
X248003Y483342D01*
X248077Y483713D01*
X249440Y485075D01*
X250710Y484549D01*
Y482210D01*
X254750D01*
Y474954D01*
X240773Y460977D01*
X240359Y460357D01*
X240213Y459625D01*
Y439917D01*
X232722Y432425D01*
X232000Y432569D01*
X230634Y432297D01*
X229477Y431523D01*
X228703Y430366D01*
X228431Y429000D01*
X228703Y427634D01*
X229477Y426477D01*
X230634Y425703D01*
X232000Y425431D01*
X233366Y425703D01*
X234523Y426477D01*
X235297Y427634D01*
X235569Y429000D01*
X235425Y429721D01*
X243477Y437773D01*
X243891Y438393D01*
X244037Y439125D01*
Y458833D01*
X257454Y472250D01*
X265000D01*
Y467750D01*
X254750D01*
Y457250D01*
X257035D01*
X257412Y456770D01*
X256796Y455500D01*
X250000D01*
Y447790D01*
X248710D01*
Y443770D01*
X254000D01*
X259290D01*
Y447790D01*
X258000D01*
Y450088D01*
X259000D01*
X259732Y450234D01*
X260352Y450648D01*
X261352Y451648D01*
X261766Y452268D01*
X261912Y453000D01*
Y457250D01*
X265000D01*
Y279284D01*
X263931Y278560D01*
X262750Y279069D01*
Y298750D01*
X254804D01*
Y301250D01*
X262750D01*
Y322750D01*
X254804D01*
Y327750D01*
X262750D01*
Y348250D01*
X260570D01*
X260445Y349520D01*
X260762Y349583D01*
X261366Y349703D01*
X262523Y350477D01*
X263297Y351634D01*
X263569Y353000D01*
X263297Y354366D01*
X262523Y355523D01*
X261366Y356297D01*
X260000Y356569D01*
X258634Y356297D01*
X257477Y355523D01*
X256703Y354366D01*
X256431Y353000D01*
X256703Y351634D01*
X257477Y350477D01*
X258634Y349703D01*
X259238Y349583D01*
X259555Y349520D01*
X259430Y348250D01*
X241250D01*
Y333804D01*
X235750D01*
Y342750D01*
X217250D01*
Y319250D01*
X235750D01*
Y328196D01*
X241250D01*
Y327750D01*
X249196D01*
Y322750D01*
X241250D01*
Y301250D01*
X249196D01*
Y298750D01*
X241250D01*
Y277250D01*
X249196D01*
Y272250D01*
X241250D01*
Y271804D01*
X235750D01*
Y280750D01*
X217250D01*
Y257250D01*
X235750D01*
Y266196D01*
X241250D01*
Y251750D01*
X253196D01*
Y245982D01*
X252500Y245000D01*
X244790D01*
Y246290D01*
X240770D01*
Y241000D01*
X239500D01*
Y239730D01*
X234210D01*
Y235710D01*
X234210D01*
Y232270D01*
X239500D01*
Y231000D01*
X240770D01*
Y225710D01*
X244790D01*
Y227000D01*
X252500D01*
Y228196D01*
X254000D01*
X255073Y228410D01*
X255233Y228516D01*
X256644Y227932D01*
X256703Y227634D01*
X257477Y226477D01*
X258634Y225703D01*
X260000Y225431D01*
X261366Y225703D01*
X262523Y226477D01*
X263297Y227634D01*
X263569Y229000D01*
X263297Y230366D01*
X262523Y231523D01*
X261366Y232297D01*
X260000Y232569D01*
X259886Y232546D01*
X258804Y233626D01*
Y239000D01*
X258804Y239000D01*
X258590Y240073D01*
X257983Y240983D01*
X257965Y241000D01*
X257983Y241017D01*
X258590Y241927D01*
X258804Y243000D01*
X258804Y243000D01*
Y251750D01*
X262750D01*
Y270931D01*
X263931Y271440D01*
X265000Y270716D01*
Y223500D01*
X254750D01*
Y220162D01*
X252500D01*
Y222000D01*
X244500D01*
Y222000D01*
X243500D01*
Y222000D01*
X238204D01*
X235667Y224537D01*
X236153Y225710D01*
X238230D01*
Y229730D01*
X233533D01*
X232940Y229413D01*
X232366Y229797D01*
X231000Y230069D01*
X229634Y229797D01*
X228477Y229023D01*
X227703Y227866D01*
X227431Y226500D01*
X227703Y225134D01*
X228477Y223977D01*
X229634Y223203D01*
X231000Y222931D01*
X231721Y223075D01*
X235500Y219296D01*
Y214000D01*
X243500D01*
Y214000D01*
X244500D01*
Y214000D01*
X252500D01*
Y216338D01*
X254750D01*
Y213000D01*
X265000D01*
Y208290D01*
X261270D01*
Y201750D01*
Y195210D01*
X265000D01*
Y5000D01*
X16339D01*
X15537Y5537D01*
X15000Y6339D01*
Y20000D01*
X5000D01*
Y457250D01*
X8088D01*
Y453000D01*
X8234Y452268D01*
X8648Y451648D01*
X10148Y450148D01*
X10768Y449734D01*
X11500Y449588D01*
X12000D01*
Y447790D01*
X10710D01*
Y443770D01*
X16000D01*
Y441230D01*
X10710D01*
Y437210D01*
X12856D01*
X13618Y435940D01*
X13431Y435000D01*
X13575Y434278D01*
X11523Y432227D01*
X11109Y431606D01*
X10963Y430875D01*
Y279054D01*
X11109Y278322D01*
X11523Y277702D01*
X32577Y256648D01*
X33197Y256234D01*
X33929Y256088D01*
X34068D01*
X34477Y255477D01*
X35634Y254703D01*
X37000Y254431D01*
X37943Y254619D01*
X39213Y253858D01*
Y232884D01*
X38682Y232600D01*
X37943Y232331D01*
X36750Y232569D01*
X35384Y232297D01*
X34227Y231523D01*
X33453Y230366D01*
X33181Y229000D01*
X33453Y227634D01*
X34227Y226477D01*
X34670Y226180D01*
Y224653D01*
X34477Y224523D01*
X33703Y223366D01*
X33431Y222000D01*
X33703Y220634D01*
X34477Y219477D01*
X35634Y218703D01*
X35914Y218647D01*
Y217353D01*
X35634Y217297D01*
X34477Y216523D01*
X33703Y215366D01*
X33431Y214000D01*
X33575Y213279D01*
X26458Y206162D01*
X16182D01*
X15773Y206773D01*
X14616Y207547D01*
X13250Y207819D01*
X11884Y207547D01*
X10727Y206773D01*
X9953Y205616D01*
X9681Y204250D01*
X9953Y202884D01*
X10727Y201727D01*
X11884Y200953D01*
X13250Y200681D01*
X14616Y200953D01*
X15773Y201727D01*
X16182Y202338D01*
X27250D01*
X27982Y202484D01*
X28602Y202898D01*
X36279Y210575D01*
X37000Y210431D01*
X38366Y210703D01*
X38818Y211005D01*
X40088Y210327D01*
Y208500D01*
X38000D01*
Y200770D01*
X38000Y200500D01*
Y199500D01*
X38000Y199230D01*
Y191500D01*
X46000D01*
Y193588D01*
X47708D01*
X58088Y183208D01*
Y174932D01*
X57477Y174523D01*
X56703Y173366D01*
X56431Y172000D01*
X56703Y170634D01*
X57477Y169477D01*
X58634Y168703D01*
X60000Y168431D01*
X61366Y168703D01*
X62523Y169477D01*
X63297Y170634D01*
X63569Y172000D01*
X63297Y173366D01*
X62523Y174523D01*
X61912Y174932D01*
Y184000D01*
X61766Y184732D01*
X61352Y185352D01*
X49852Y196852D01*
X49232Y197266D01*
X48500Y197412D01*
X46000D01*
Y199230D01*
X46000Y199500D01*
Y200500D01*
X46000Y200770D01*
Y208500D01*
X43912D01*
Y214208D01*
X46292Y216588D01*
X47111D01*
X47775Y216145D01*
X48750Y215951D01*
X54750D01*
X54905Y215982D01*
X55982Y214905D01*
X55951Y214750D01*
Y208750D01*
X56145Y207775D01*
X56578Y207127D01*
X56551Y205907D01*
X55977Y205524D01*
X55203Y204366D01*
X54931Y203000D01*
X55203Y201635D01*
X55977Y200477D01*
X57134Y199703D01*
X58500Y199432D01*
X59252Y199581D01*
X60225Y199102D01*
X60504Y198634D01*
X60703Y197634D01*
X61477Y196477D01*
X62634Y195703D01*
X64000Y195431D01*
X65366Y195703D01*
X66523Y196477D01*
X67297Y197634D01*
X67569Y199000D01*
X67425Y199722D01*
X68730Y201026D01*
X70000Y200500D01*
Y194250D01*
X71250D01*
Y191750D01*
X70000D01*
Y191599D01*
X68730Y191214D01*
X68523Y191523D01*
X67366Y192297D01*
X66000Y192569D01*
X64634Y192297D01*
X63477Y191523D01*
X62703Y190366D01*
X62431Y189000D01*
X62703Y187634D01*
X63477Y186477D01*
X64634Y185703D01*
X66000Y185431D01*
X66386Y185508D01*
X67440Y184455D01*
X67135Y182963D01*
X66477Y182523D01*
X65703Y181366D01*
X65431Y180000D01*
X65703Y178634D01*
X66477Y177477D01*
X67634Y176703D01*
X69000Y176431D01*
X70366Y176703D01*
X71523Y177477D01*
X71932Y178088D01*
X77725D01*
X78211Y176915D01*
X72648Y171352D01*
X72234Y170732D01*
X72088Y170000D01*
Y156000D01*
X72234Y155268D01*
X72648Y154648D01*
X74527Y152769D01*
X74495Y152214D01*
X74212Y151412D01*
X73634Y151297D01*
X72477Y150523D01*
X71703Y149366D01*
X71431Y148000D01*
X71703Y146634D01*
X72477Y145477D01*
X73105Y145057D01*
X72720Y143787D01*
X67142D01*
X66381Y145057D01*
X66569Y146000D01*
X66297Y147366D01*
X65523Y148523D01*
X64366Y149297D01*
X63000Y149569D01*
X62057Y149381D01*
X60787Y150142D01*
Y150500D01*
X60641Y151232D01*
X60227Y151852D01*
X57227Y154852D01*
X56607Y155266D01*
X55875Y155412D01*
X55250D01*
Y156750D01*
X47750D01*
Y145040D01*
X46460D01*
Y141770D01*
X51500D01*
Y139230D01*
X46460D01*
Y136461D01*
X45634Y136297D01*
X45308Y136079D01*
X44057Y136066D01*
X43757Y136454D01*
X43602Y136685D01*
X38435Y141852D01*
X37815Y142266D01*
X37084Y142412D01*
X36250D01*
Y143750D01*
X29912D01*
Y150250D01*
X36250D01*
Y156750D01*
X28750D01*
Y155254D01*
X28148Y154852D01*
X26648Y153352D01*
X26234Y152732D01*
X26088Y152000D01*
Y132750D01*
X26234Y132018D01*
X26648Y131398D01*
X27898Y130148D01*
X28518Y129734D01*
X29250Y129588D01*
X35068D01*
X35477Y128977D01*
X35548Y128252D01*
X20208Y112912D01*
X19794Y112292D01*
X19648Y111560D01*
Y107660D01*
X17560D01*
Y99660D01*
X18213D01*
Y97083D01*
X16542Y95412D01*
X14666D01*
X13935Y95266D01*
X13314Y94852D01*
X10523Y92060D01*
X10109Y91440D01*
X9963Y90709D01*
Y76245D01*
X10109Y75514D01*
X10523Y74893D01*
X17148Y68268D01*
Y66160D01*
X15060D01*
Y58450D01*
X13770D01*
Y54430D01*
X19060D01*
Y53160D01*
X20330D01*
Y47870D01*
X24350D01*
X24500Y46662D01*
Y44912D01*
X17000D01*
X16268Y44766D01*
X15648Y44352D01*
X14878Y43582D01*
X14273Y43642D01*
X13116Y44415D01*
X11750Y44687D01*
X10384Y44415D01*
X9227Y43642D01*
X8453Y42484D01*
X8181Y41118D01*
X8453Y39753D01*
X9227Y38595D01*
X9346Y38515D01*
X9410Y38242D01*
X9259Y37046D01*
X8477Y36523D01*
X7703Y35366D01*
X7431Y34000D01*
X7703Y32634D01*
X8477Y31477D01*
X9634Y30703D01*
X11000Y30431D01*
X12366Y30703D01*
X13523Y31477D01*
X14297Y32634D01*
X14569Y34000D01*
X14297Y35366D01*
X13523Y36523D01*
X13404Y36603D01*
X13340Y36876D01*
X13491Y38072D01*
X14273Y38595D01*
X14682Y39207D01*
X15118D01*
X15850Y39352D01*
X16470Y39766D01*
X17792Y41088D01*
X22710D01*
Y38770D01*
X28000D01*
X33290D01*
Y41088D01*
X36000D01*
X36732Y41234D01*
X37352Y41648D01*
X38852Y43148D01*
X39266Y43768D01*
X39312Y44000D01*
X41500D01*
Y52000D01*
X39912D01*
Y55500D01*
X42250D01*
Y55500D01*
X43250D01*
Y55500D01*
X45588D01*
Y52000D01*
X43500D01*
Y44000D01*
X45688D01*
X45734Y43768D01*
X46148Y43148D01*
X47086Y42211D01*
X46994Y41750D01*
X47266Y40384D01*
X48039Y39227D01*
X49197Y38453D01*
X50563Y38181D01*
X51440Y38356D01*
X52710Y37564D01*
Y32654D01*
X51545Y31957D01*
X51280Y32134D01*
X50500Y32289D01*
X45500D01*
X44720Y32134D01*
X44058Y31692D01*
X43664Y31103D01*
X43100Y31030D01*
X42900D01*
X42336Y31103D01*
X41942Y31692D01*
X41280Y32134D01*
X40500Y32289D01*
X35500D01*
X34720Y32134D01*
X34455Y31957D01*
X33290Y32654D01*
Y36230D01*
X28000D01*
X22710D01*
Y32210D01*
X24000D01*
Y27677D01*
X22395Y26605D01*
X21290Y24951D01*
X20902Y23000D01*
X21290Y21049D01*
X22395Y19395D01*
X24049Y18290D01*
X26000Y17902D01*
X33000D01*
X34951Y18290D01*
X36605Y19395D01*
X40605Y23395D01*
X40864Y23783D01*
X41280Y23866D01*
X41942Y24308D01*
X42336Y24897D01*
X42900Y24970D01*
X43100D01*
X43664Y24897D01*
X44058Y24308D01*
X44720Y23866D01*
X45136Y23783D01*
X45395Y23395D01*
X49395Y19395D01*
X51049Y18290D01*
X53000Y17902D01*
X83000D01*
X84951Y18290D01*
X86605Y19395D01*
X90932Y23723D01*
X91732Y23189D01*
X93000Y22936D01*
X103000D01*
X104268Y23189D01*
X105343Y23907D01*
X105674Y24402D01*
X109000D01*
X110951Y24790D01*
X112605Y25895D01*
X121605Y34895D01*
X122710Y36549D01*
X123098Y38500D01*
Y94500D01*
X122710Y96451D01*
X121605Y98105D01*
X118355Y101355D01*
X116701Y102460D01*
X114750Y102848D01*
X110000D01*
X108049Y102460D01*
X106395Y101355D01*
X106201Y101064D01*
X93000D01*
X91732Y100811D01*
X91126Y100406D01*
X89874Y100706D01*
X89684Y100854D01*
X89352Y101352D01*
X82352Y108352D01*
X81732Y108766D01*
X81000Y108912D01*
X68000D01*
X67268Y108766D01*
X66648Y108352D01*
X63721Y105425D01*
X63000Y105569D01*
X61634Y105297D01*
X60477Y104523D01*
X59703Y103366D01*
X59627Y102982D01*
X58366Y102297D01*
X57000Y102568D01*
X55634Y102297D01*
X54830Y101759D01*
X53683Y102215D01*
X53560Y102322D01*
Y107660D01*
X51472D01*
Y110044D01*
X51326Y110775D01*
X50912Y111396D01*
X43477Y118831D01*
X42857Y119245D01*
X42125Y119391D01*
X41280D01*
X40523Y120523D01*
X39366Y121297D01*
X38000Y121569D01*
X36634Y121297D01*
X35477Y120523D01*
X34703Y119366D01*
X34431Y118000D01*
X34703Y116634D01*
X35404Y115585D01*
X35478Y115380D01*
X35500Y113934D01*
X34953Y113116D01*
X34681Y111750D01*
X34953Y110384D01*
X35727Y109227D01*
X36244Y108881D01*
X36560Y107660D01*
X36560D01*
X36560Y107660D01*
Y105572D01*
X34560D01*
Y107660D01*
X26830D01*
X26560Y107660D01*
X25560D01*
X25290Y107660D01*
X23472D01*
Y110768D01*
X39068Y126365D01*
X40187Y126011D01*
X40338Y125896D01*
Y125500D01*
X40484Y124768D01*
X40898Y124148D01*
X43898Y121148D01*
X44518Y120734D01*
X45250Y120588D01*
X50250D01*
X50982Y120734D01*
X51602Y121148D01*
X66542Y136088D01*
X75740D01*
Y129270D01*
X96060D01*
Y136088D01*
X105184D01*
X105615Y134818D01*
X104974Y134326D01*
X103552Y132473D01*
X102658Y130316D01*
X102353Y128000D01*
X102658Y125684D01*
X103552Y123527D01*
X104974Y121674D01*
X106827Y120252D01*
X108984Y119358D01*
X111300Y119053D01*
X113616Y119358D01*
X115773Y120252D01*
X117626Y121674D01*
X119048Y123527D01*
X119942Y125684D01*
X120246Y128000D01*
X119942Y130316D01*
X119048Y132473D01*
X117626Y134326D01*
X116985Y134818D01*
X117416Y136088D01*
X130584D01*
X131015Y134818D01*
X130374Y134326D01*
X128952Y132473D01*
X128058Y130316D01*
X127753Y128000D01*
X128058Y125684D01*
X128952Y123527D01*
X130374Y121674D01*
X132227Y120252D01*
X134384Y119358D01*
X136700Y119053D01*
X139016Y119358D01*
X141173Y120252D01*
X143026Y121674D01*
X144448Y123527D01*
X145342Y125684D01*
X145646Y128000D01*
X145342Y130316D01*
X144448Y132473D01*
X143026Y134326D01*
X141173Y135748D01*
X139483Y136448D01*
X139118Y137612D01*
X139937Y138588D01*
X209708D01*
X212178Y136118D01*
X211723Y134777D01*
X210700Y134643D01*
X208267Y133635D01*
X206178Y132032D01*
X204575Y129943D01*
X203567Y127510D01*
X203224Y124900D01*
X203567Y122289D01*
X204575Y119857D01*
X206178Y117768D01*
X208267Y116165D01*
X210700Y115157D01*
X213310Y114814D01*
X215921Y115157D01*
X218353Y116165D01*
X220442Y117768D01*
X222045Y119857D01*
X223053Y122289D01*
X223396Y124900D01*
X223214Y126287D01*
X224417Y126880D01*
X230588Y120708D01*
Y88450D01*
X228150D01*
Y73750D01*
X236360D01*
Y72460D01*
X240730D01*
Y81100D01*
Y89740D01*
X236360D01*
Y88450D01*
X234412D01*
Y121500D01*
X234266Y122232D01*
X233852Y122852D01*
X223877Y132827D01*
X224363Y134000D01*
X229230D01*
X229500Y134000D01*
X230500D01*
X230770Y134000D01*
X238500D01*
Y136088D01*
X242068D01*
X242477Y135477D01*
X243634Y134703D01*
X245000Y134431D01*
X246366Y134703D01*
X247523Y135477D01*
X248297Y136634D01*
X248569Y138000D01*
X248297Y139366D01*
X247523Y140523D01*
X246366Y141297D01*
X245000Y141569D01*
X243634Y141297D01*
X242477Y140523D01*
X242068Y139912D01*
X238500D01*
Y142000D01*
X230770D01*
X230500Y142000D01*
X229500D01*
X229230Y142000D01*
X227412D01*
Y145079D01*
X229750D01*
Y146588D01*
X232500D01*
Y145000D01*
X240210D01*
Y143710D01*
X244230D01*
Y149000D01*
Y154290D01*
X241145D01*
X241000Y155500D01*
X241000D01*
Y163230D01*
X241000Y163500D01*
Y164637D01*
X242173Y165123D01*
X242648Y164648D01*
X243268Y164234D01*
X244000Y164088D01*
X253068D01*
X253477Y163477D01*
X254634Y162703D01*
X256000Y162431D01*
X257366Y162703D01*
X258523Y163477D01*
X259297Y164634D01*
X259569Y166000D01*
X259297Y167366D01*
X258523Y168523D01*
X257366Y169297D01*
X256000Y169569D01*
X254634Y169297D01*
X253477Y168523D01*
X253068Y167912D01*
X244792D01*
X242852Y169852D01*
X242232Y170266D01*
X241500Y170412D01*
X241000D01*
Y172500D01*
X233000D01*
Y164770D01*
X233000Y164500D01*
Y163500D01*
X233000Y163230D01*
Y155500D01*
X235088D01*
Y153000D01*
X232500D01*
Y150412D01*
X230648D01*
X229750Y151310D01*
X229750Y154079D01*
X229750Y155349D01*
Y162809D01*
X229750Y163579D01*
X229750Y164849D01*
Y173079D01*
X226409D01*
Y176199D01*
X226569Y177000D01*
X226409Y177801D01*
Y180500D01*
X231000D01*
Y182588D01*
X233384D01*
X234116Y182734D01*
X234736Y183148D01*
X239477Y187889D01*
X239891Y188510D01*
X240037Y189241D01*
Y201875D01*
X239891Y202607D01*
X239477Y203227D01*
X197514Y245190D01*
X197543Y245524D01*
X197938Y246460D01*
X201230D01*
Y250500D01*
X202500D01*
Y251770D01*
X208040D01*
Y254230D01*
X202500D01*
Y256770D01*
X208040D01*
Y258696D01*
X208232Y258734D01*
X208852Y259148D01*
X211852Y262148D01*
X212266Y262768D01*
X212412Y263500D01*
Y287453D01*
X213256Y288329D01*
X213682Y288495D01*
X214000Y288431D01*
X214690Y288569D01*
X215121Y288270D01*
X225250D01*
X234540D01*
Y291540D01*
X233250D01*
Y303250D01*
Y309750D01*
Y316250D01*
X217250D01*
Y315804D01*
X213729D01*
X212991Y316297D01*
X211625Y316569D01*
X210259Y316297D01*
X209102Y315523D01*
X208328Y314366D01*
X208056Y313000D01*
X208328Y311634D01*
X209102Y310477D01*
X210259Y309703D01*
X211625Y309431D01*
X212991Y309703D01*
X213729Y310196D01*
X217250D01*
Y308412D01*
X214500D01*
X213768Y308266D01*
X213148Y307852D01*
X211648Y306352D01*
X211234Y305732D01*
X211088Y305000D01*
Y301327D01*
X210148Y300387D01*
X209734Y299767D01*
X209588Y299035D01*
Y296292D01*
X208523Y295227D01*
X208109Y294607D01*
X207963Y293875D01*
Y290291D01*
X208109Y289560D01*
X208523Y288940D01*
X208588Y288874D01*
Y288000D01*
X208588Y288000D01*
Y277007D01*
X207372Y276300D01*
X207318Y276306D01*
X206000Y276569D01*
X204634Y276297D01*
X203477Y275523D01*
X202703Y274366D01*
X202431Y273000D01*
X202703Y271634D01*
X203448Y270520D01*
X203397Y270259D01*
X203026Y269250D01*
X194250D01*
X193750Y268250D01*
X181250D01*
Y266912D01*
X180518Y266766D01*
X179988Y266412D01*
X171936D01*
X170790Y266710D01*
Y270730D01*
X165500D01*
Y273270D01*
X170790D01*
Y277290D01*
X170476D01*
X169500Y278000D01*
X169500Y278560D01*
Y280088D01*
X171068D01*
X171477Y279477D01*
X172634Y278703D01*
X174000Y278431D01*
X175366Y278703D01*
X176523Y279477D01*
X177297Y280634D01*
X177569Y282000D01*
X177297Y283366D01*
X176523Y284523D01*
X175366Y285297D01*
X174000Y285569D01*
X172634Y285297D01*
X171477Y284523D01*
X171438Y284466D01*
X169959Y284351D01*
X169513Y284796D01*
X169570Y286051D01*
X170476Y286710D01*
X170790D01*
Y290730D01*
X165500D01*
Y293270D01*
X170790D01*
Y295088D01*
X177500D01*
Y286500D01*
X184588D01*
Y284000D01*
X182500D01*
Y276000D01*
X190210D01*
Y274710D01*
X194230D01*
Y280000D01*
X195500D01*
Y281270D01*
X200790D01*
Y285210D01*
X205790D01*
Y291480D01*
X198750D01*
X191710D01*
Y285290D01*
X190210D01*
Y284000D01*
X188412D01*
Y286500D01*
X189000D01*
Y299000D01*
X177500D01*
Y298912D01*
X170792D01*
X169352Y300352D01*
X168732Y300766D01*
X168000Y300912D01*
X161275D01*
X160789Y302085D01*
X175037Y316333D01*
X176210Y315847D01*
Y312520D01*
X183250D01*
X190290D01*
Y318790D01*
X191436Y319088D01*
X194420D01*
X194641Y318770D01*
X193977Y317500D01*
X193000D01*
Y305000D01*
X204500D01*
Y317500D01*
X200662D01*
Y318250D01*
X200516Y318982D01*
X200102Y319602D01*
X198704Y321000D01*
X200292Y322588D01*
X204000D01*
Y320500D01*
X212000D01*
Y328210D01*
X213290D01*
Y332230D01*
X208000D01*
X202710D01*
Y328210D01*
X204000D01*
Y326412D01*
X199500D01*
X198768Y326266D01*
X198148Y325852D01*
X195208Y322912D01*
X177000D01*
X176268Y322766D01*
X175648Y322352D01*
X163256Y309960D01*
X162298Y310395D01*
X162057Y310557D01*
X161797Y311866D01*
X161023Y313023D01*
X159866Y313797D01*
X158500Y314069D01*
X157779Y313925D01*
X151236Y320468D01*
X150616Y320882D01*
X149884Y321028D01*
X116391D01*
X115905Y322201D01*
X118279Y324575D01*
X119000Y324431D01*
X120366Y324703D01*
X121523Y325477D01*
X122297Y326634D01*
X122569Y328000D01*
X122297Y329366D01*
X121523Y330523D01*
X120366Y331297D01*
X119000Y331569D01*
X117634Y331297D01*
X116477Y330523D01*
X115703Y329366D01*
X115431Y328000D01*
X115575Y327279D01*
X112208Y323912D01*
X96000D01*
X95305Y325182D01*
X95405Y325338D01*
X99250D01*
X99982Y325484D01*
X100602Y325898D01*
X102352Y327648D01*
X102766Y328268D01*
X102812Y328500D01*
X105000D01*
Y330588D01*
X105625D01*
X106357Y330734D01*
X106977Y331148D01*
X109352Y333523D01*
X109766Y334143D01*
X109912Y334875D01*
Y340068D01*
X110523Y340477D01*
X111297Y341634D01*
X111569Y343000D01*
X111297Y344366D01*
X110523Y345523D01*
X109366Y346297D01*
X108000Y346569D01*
X107560Y346481D01*
X106290Y346790D01*
Y346790D01*
X106290Y346790D01*
X102270D01*
Y341500D01*
X99730D01*
Y346790D01*
X96126D01*
X95762Y348619D01*
X94703Y350203D01*
X93819Y350794D01*
X94547Y351884D01*
X94819Y353250D01*
X94547Y354616D01*
X93773Y355773D01*
X93636Y355865D01*
Y357135D01*
X93773Y357227D01*
X94547Y358384D01*
X94819Y359750D01*
X94547Y361116D01*
X93773Y362273D01*
X93636Y362365D01*
Y363635D01*
X93773Y363727D01*
X94547Y364884D01*
X94819Y366250D01*
X94547Y367616D01*
X93773Y368773D01*
X93636Y368865D01*
Y370135D01*
X93773Y370227D01*
X94547Y371384D01*
X94819Y372750D01*
X94547Y374116D01*
X93773Y375273D01*
X92616Y376047D01*
X91250Y376319D01*
X81750D01*
X80384Y376047D01*
X79227Y375273D01*
X78453Y374116D01*
X78182Y372750D01*
X78453Y371384D01*
X79227Y370227D01*
X79364Y370135D01*
Y368865D01*
X79227Y368773D01*
X78453Y367616D01*
X78182Y366250D01*
X78453Y364884D01*
X79227Y363727D01*
X79364Y363635D01*
Y362365D01*
X79227Y362273D01*
X78453Y361116D01*
X78182Y359750D01*
X78453Y358384D01*
X79227Y357227D01*
X79364Y357135D01*
Y355865D01*
X79227Y355773D01*
X78453Y354616D01*
X78182Y353250D01*
X78453Y351884D01*
X79181Y350794D01*
X78297Y350203D01*
X77238Y348619D01*
X77119Y348020D01*
X86500D01*
Y345480D01*
X77119D01*
X77238Y344881D01*
X78297Y343297D01*
X79181Y342705D01*
X78481Y341657D01*
X76746D01*
X76014Y341512D01*
X75394Y341097D01*
X72722Y338425D01*
X72000Y338569D01*
X70634Y338297D01*
X69477Y337523D01*
X68703Y336366D01*
X68431Y335000D01*
X68703Y333634D01*
X69477Y332477D01*
X69795Y332264D01*
Y330736D01*
X69477Y330523D01*
X68703Y329366D01*
X68431Y328000D01*
X68703Y326634D01*
X69477Y325477D01*
X70634Y324703D01*
X72000Y324431D01*
X73366Y324703D01*
X74523Y325477D01*
X75297Y326634D01*
X75569Y328000D01*
X75425Y328722D01*
X77792Y331088D01*
X78169Y331125D01*
X78503Y330803D01*
X79227Y329773D01*
X78453Y328616D01*
X78182Y327250D01*
X78453Y325884D01*
X78847Y325294D01*
X78725Y324863D01*
X78191Y324007D01*
X77134Y323797D01*
X75977Y323023D01*
X75203Y321866D01*
X74931Y320500D01*
X75203Y319134D01*
X75977Y317977D01*
X76588Y317568D01*
Y316000D01*
X74790D01*
Y317290D01*
X70770D01*
Y312000D01*
X69500D01*
Y310730D01*
X64210D01*
Y306953D01*
X63707Y306135D01*
X63394Y305778D01*
X62524Y305605D01*
X61698Y305052D01*
X61631Y305044D01*
X60412Y305414D01*
Y308000D01*
X62500D01*
Y316000D01*
X54790D01*
Y317290D01*
X50770D01*
Y312000D01*
X49500D01*
Y310730D01*
X44210D01*
Y307592D01*
X42940Y306913D01*
X42366Y307297D01*
X41000Y307569D01*
X39634Y307297D01*
X38477Y306523D01*
X37703Y305366D01*
X37431Y304000D01*
X37703Y302634D01*
X38477Y301477D01*
X39296Y300929D01*
X39486Y299593D01*
X39476Y299523D01*
X38703Y298365D01*
X38431Y296999D01*
X38703Y295634D01*
X39477Y294476D01*
X40634Y293703D01*
X42000Y293431D01*
X42721Y293574D01*
X44148Y292148D01*
X44768Y291734D01*
X44818Y291724D01*
X45431Y290421D01*
X45427Y290348D01*
X45180Y289979D01*
X45138Y289770D01*
X51750D01*
Y287230D01*
X45138D01*
X45180Y287021D01*
X46017Y285768D01*
X46156Y285675D01*
X46395Y284475D01*
X46201Y283500D01*
X46395Y282525D01*
X46948Y281698D01*
Y280302D01*
X46395Y279475D01*
X46201Y278500D01*
X46395Y277525D01*
X46948Y276698D01*
Y275302D01*
X46395Y274475D01*
X46201Y273500D01*
X46395Y272525D01*
X46948Y271698D01*
Y270302D01*
X46395Y269475D01*
X46201Y268500D01*
X46395Y267525D01*
X46948Y266698D01*
Y265302D01*
X46395Y264475D01*
X46201Y263500D01*
X46395Y262525D01*
X46948Y261698D01*
Y260302D01*
X46395Y259475D01*
X46201Y258500D01*
X46395Y257525D01*
X46948Y256698D01*
Y255302D01*
X46395Y254475D01*
X46201Y253500D01*
X46395Y252525D01*
X46948Y251698D01*
Y250302D01*
X46395Y249475D01*
X46201Y248500D01*
X46395Y247525D01*
X46948Y246698D01*
Y245302D01*
X46395Y244475D01*
X46201Y243500D01*
X46395Y242525D01*
X46948Y241698D01*
Y240302D01*
X46395Y239475D01*
X46201Y238500D01*
X46395Y237525D01*
X46948Y236698D01*
Y235302D01*
X46395Y234475D01*
X46201Y233500D01*
X46395Y232525D01*
X46156Y231325D01*
X46017Y231232D01*
X45180Y229979D01*
X45138Y229770D01*
X51750D01*
X58362D01*
X58320Y229979D01*
X57482Y231232D01*
X57344Y231325D01*
X57105Y232525D01*
X57299Y233500D01*
X57105Y234475D01*
X56552Y235302D01*
X56544Y235369D01*
X56914Y236588D01*
X70000D01*
X70440Y236676D01*
X71370Y236163D01*
X71710Y235860D01*
Y231710D01*
X94730D01*
Y256000D01*
X97270D01*
Y231710D01*
X120290D01*
Y236027D01*
X121515Y236732D01*
X121560Y236726D01*
X122250Y236588D01*
X133228D01*
X133907Y235318D01*
X133680Y234979D01*
X133386Y233500D01*
X133418Y233337D01*
X133269Y233201D01*
X132249Y232707D01*
X131366Y233297D01*
X130000Y233569D01*
X128634Y233297D01*
X127477Y232523D01*
X126703Y231366D01*
X126431Y230000D01*
X126703Y228634D01*
X127252Y227813D01*
X127151Y227317D01*
X126876Y226720D01*
X126711Y226511D01*
X125634Y226297D01*
X124477Y225523D01*
X123703Y224366D01*
X123647Y224086D01*
X122353D01*
X122297Y224366D01*
X121523Y225523D01*
X120366Y226297D01*
X119000Y226569D01*
X117634Y226297D01*
X116477Y225523D01*
X115703Y224366D01*
X115431Y223000D01*
X115703Y221634D01*
X116477Y220477D01*
X117634Y219703D01*
X119000Y219431D01*
X120366Y219703D01*
X120502Y219794D01*
X121588Y218708D01*
Y216914D01*
X120369Y216544D01*
X120302Y216552D01*
X119475Y217105D01*
X118500Y217299D01*
X117524Y217105D01*
X116698Y216552D01*
X115302D01*
X114475Y217105D01*
X113500Y217299D01*
X112524Y217105D01*
X111698Y216552D01*
X110302D01*
X109475Y217105D01*
X108500Y217299D01*
X107524Y217105D01*
X106698Y216552D01*
X105302D01*
X104475Y217105D01*
X103500Y217299D01*
X102524Y217105D01*
X101698Y216552D01*
X100302D01*
X99475Y217105D01*
X98500Y217299D01*
X97524Y217105D01*
X96325Y217344D01*
X96232Y217482D01*
X94979Y218320D01*
X94770Y218362D01*
Y211750D01*
Y205138D01*
X94979Y205180D01*
X96232Y206017D01*
X96325Y206157D01*
X97524Y206395D01*
X98500Y206201D01*
X99475Y206395D01*
X100302Y206948D01*
X101698D01*
X102524Y206395D01*
X103500Y206201D01*
X104475Y206395D01*
X105302Y206948D01*
X106698D01*
X107524Y206395D01*
X108500Y206201D01*
X109475Y206395D01*
X110302Y206948D01*
X111698D01*
X112524Y206395D01*
X113500Y206201D01*
X114475Y206395D01*
X115302Y206948D01*
X115369Y206956D01*
X116588Y206586D01*
Y202000D01*
X114500D01*
Y199912D01*
X111932D01*
X111523Y200523D01*
X110366Y201297D01*
X109000Y201569D01*
X107634Y201297D01*
X106477Y200523D01*
X105703Y199366D01*
X105431Y198000D01*
X105703Y196634D01*
X106477Y195477D01*
X107088Y195068D01*
Y192000D01*
X104790D01*
Y193290D01*
X100770D01*
Y188000D01*
X99500D01*
Y186730D01*
X94210D01*
Y184852D01*
X93065Y184439D01*
X92093Y185211D01*
X92000Y185367D01*
Y191750D01*
X90750D01*
Y194250D01*
X92000D01*
Y201250D01*
X90651D01*
Y204568D01*
X91921Y205247D01*
X92021Y205180D01*
X92230Y205138D01*
Y211750D01*
Y218362D01*
X92021Y218320D01*
X90767Y217482D01*
X90675Y217344D01*
X89475Y217105D01*
X88500Y217299D01*
X87524Y217105D01*
X86698Y216552D01*
X85302D01*
X84475Y217105D01*
X83500Y217299D01*
X82524Y217105D01*
X81698Y216552D01*
X80302D01*
X79475Y217105D01*
X78500Y217299D01*
X77524Y217105D01*
X76698Y216552D01*
X75302D01*
X74475Y217105D01*
X73500Y217299D01*
X72524Y217105D01*
X71698Y216552D01*
X70302D01*
X69475Y217105D01*
X68500Y217299D01*
X67524Y217105D01*
X66698Y216552D01*
X66631Y216544D01*
X65412Y216914D01*
Y218318D01*
X66023Y218727D01*
X66797Y219884D01*
X67069Y221250D01*
X66797Y222616D01*
X66023Y223773D01*
X64866Y224547D01*
X63500Y224818D01*
X62134Y224547D01*
X60977Y223773D01*
X60203Y222616D01*
X59931Y221250D01*
X60203Y219884D01*
X60977Y218727D01*
X61588Y218318D01*
Y216914D01*
X60369Y216544D01*
X60302Y216552D01*
X59475Y217105D01*
X58500Y217299D01*
X58345Y217268D01*
X57268Y218345D01*
X57299Y218500D01*
X57105Y219475D01*
X56552Y220302D01*
Y221698D01*
X57105Y222525D01*
X57299Y223500D01*
X57105Y224475D01*
X57344Y225675D01*
X57482Y225768D01*
X58320Y227021D01*
X58362Y227230D01*
X51750D01*
X45138D01*
X45180Y227021D01*
X46017Y225768D01*
X46156Y225675D01*
X46395Y224475D01*
X46201Y223500D01*
X46395Y222525D01*
X46948Y221698D01*
X46956Y221631D01*
X46586Y220412D01*
X45500D01*
X44768Y220266D01*
X44148Y219852D01*
X40958Y216662D01*
X39523Y216523D01*
X38366Y217297D01*
X38086Y217353D01*
Y218647D01*
X38366Y218703D01*
X39523Y219477D01*
X40297Y220634D01*
X40569Y222000D01*
X40425Y222722D01*
X42477Y224773D01*
X42891Y225393D01*
X43037Y226125D01*
Y271875D01*
X42891Y272607D01*
X42477Y273227D01*
X40227Y275477D01*
X39607Y275891D01*
X38875Y276037D01*
X25667D01*
X19787Y281917D01*
Y301084D01*
X20292Y301589D01*
X25000D01*
Y299770D01*
X25000Y299500D01*
X25000Y298277D01*
Y290500D01*
X27088D01*
Y285000D01*
X27234Y284268D01*
X27648Y283648D01*
X31523Y279773D01*
X32143Y279359D01*
X32875Y279213D01*
X33984D01*
X34477Y278477D01*
X35634Y277703D01*
X37000Y277431D01*
X38366Y277703D01*
X39523Y278477D01*
X40297Y279634D01*
X40569Y281000D01*
X40297Y282366D01*
X39523Y283523D01*
X38366Y284297D01*
X37000Y284569D01*
X35634Y284297D01*
X34477Y283523D01*
X33073Y283630D01*
X30912Y285792D01*
Y290500D01*
X33000D01*
Y298230D01*
X33000Y298500D01*
X33000Y299723D01*
Y307210D01*
X34290D01*
Y311230D01*
X29000D01*
X23710D01*
Y307210D01*
X25000D01*
Y305412D01*
X20292D01*
X19787Y305917D01*
Y322153D01*
X20244Y322397D01*
X21057Y322703D01*
X22750Y322366D01*
X26230D01*
Y327250D01*
X27500D01*
Y328520D01*
X36881D01*
X36762Y329119D01*
X35839Y330500D01*
X36762Y331881D01*
X36881Y332480D01*
X27500D01*
Y335020D01*
X36881D01*
X36762Y335619D01*
X35703Y337203D01*
X34819Y337794D01*
X35547Y338884D01*
X35819Y340250D01*
X35547Y341616D01*
X34773Y342773D01*
X34720Y344045D01*
X35563Y344963D01*
X42151D01*
X42477Y344477D01*
X43634Y343703D01*
X45000Y343431D01*
X46366Y343703D01*
X47523Y344477D01*
X48297Y345634D01*
X48569Y347000D01*
X48297Y348366D01*
X48136Y348606D01*
X48194Y348732D01*
X48976Y349635D01*
X50000Y349431D01*
X51366Y349703D01*
X52523Y350477D01*
X53297Y351634D01*
X53569Y353000D01*
X53297Y354366D01*
X52523Y355523D01*
X51366Y356297D01*
X50000Y356569D01*
X48634Y356297D01*
X47477Y355523D01*
X47151Y355037D01*
X35266D01*
X34773Y355773D01*
X34720Y357045D01*
X35563Y357963D01*
X52151D01*
X52477Y357477D01*
X53634Y356703D01*
X55000Y356431D01*
X56366Y356703D01*
X57523Y357477D01*
X58297Y358634D01*
X58569Y360000D01*
X58297Y361366D01*
X58136Y361606D01*
X58194Y361732D01*
X58976Y362635D01*
X60000Y362431D01*
X61366Y362703D01*
X62523Y363477D01*
X63297Y364634D01*
X63569Y366000D01*
X63297Y367366D01*
X62523Y368523D01*
X61366Y369297D01*
X60000Y369569D01*
X58634Y369297D01*
X57477Y368523D01*
X57151Y368037D01*
X36104D01*
X35703Y369297D01*
X36762Y370881D01*
X36881Y371480D01*
X27500D01*
Y372750D01*
X26230D01*
Y377634D01*
X22750D01*
X21057Y377297D01*
X20244Y377603D01*
X19787Y377847D01*
Y408858D01*
X21057Y409619D01*
X22000Y409431D01*
X23366Y409703D01*
X24523Y410477D01*
X25297Y411634D01*
X25569Y413000D01*
X25297Y414366D01*
X24523Y415523D01*
X23366Y416297D01*
X22000Y416569D01*
X21057Y416381D01*
X19787Y417142D01*
Y421249D01*
X23055Y424518D01*
X24523Y424607D01*
X29213Y419917D01*
Y401875D01*
X29359Y401143D01*
X29773Y400523D01*
X32575Y397721D01*
X32431Y397000D01*
X32703Y395634D01*
X33477Y394477D01*
X34634Y393703D01*
X36000Y393431D01*
X37366Y393703D01*
X38523Y394477D01*
X39155Y395421D01*
X41000D01*
Y393250D01*
X42250D01*
Y390750D01*
X41000D01*
Y383750D01*
X42088D01*
Y383125D01*
X42234Y382393D01*
X42648Y381773D01*
X43434Y380988D01*
X43703Y379634D01*
X44477Y378477D01*
X45634Y377703D01*
X47000Y377431D01*
X48366Y377703D01*
X49523Y378477D01*
X50297Y379634D01*
X50353Y379917D01*
X50750Y379838D01*
X53125D01*
X53857Y379984D01*
X54477Y380398D01*
X54545Y380466D01*
X54893Y380234D01*
X55625Y380088D01*
X59000D01*
X59732Y380234D01*
X60352Y380648D01*
X61352Y381648D01*
X61766Y382268D01*
X61912Y383000D01*
Y383750D01*
X63000D01*
Y390750D01*
X61750D01*
Y393250D01*
X63000D01*
Y400250D01*
X61912D01*
Y406068D01*
X62523Y406477D01*
X63297Y407634D01*
X63569Y409000D01*
X63297Y410366D01*
X62523Y411523D01*
X61366Y412297D01*
X60000Y412569D01*
X59010Y412372D01*
X58607Y412641D01*
X57875Y412787D01*
X44083D01*
X42037Y414833D01*
Y431541D01*
X41891Y432273D01*
X41477Y432893D01*
X40287Y434083D01*
Y439750D01*
X40188Y440244D01*
X41553Y440516D01*
X42711Y441289D01*
X43484Y442447D01*
X43756Y443812D01*
X43484Y445178D01*
X42711Y446336D01*
X41553Y447109D01*
X40287Y447361D01*
Y493583D01*
X47102Y500398D01*
X47516Y501018D01*
X47662Y501750D01*
Y528584D01*
X48932Y529173D01*
X49634Y528703D01*
X51000Y528431D01*
X52366Y528703D01*
X53523Y529477D01*
X54297Y530634D01*
X54569Y532000D01*
X54297Y533366D01*
X53523Y534523D01*
X52366Y535297D01*
X51000Y535569D01*
X49634Y535297D01*
X48932Y534827D01*
X47662Y535416D01*
Y549416D01*
X47516Y550148D01*
X47102Y550768D01*
X45912Y551958D01*
Y554566D01*
X45766Y555298D01*
X45352Y555918D01*
X32168Y569102D01*
X31547Y569516D01*
X30816Y569662D01*
X29682D01*
X29308Y570222D01*
X29136Y570558D01*
Y571635D01*
X29273Y571727D01*
X30047Y572884D01*
X30319Y574250D01*
X30047Y575616D01*
X29273Y576773D01*
X28116Y577547D01*
X26750Y577819D01*
X17250D01*
X15884Y577547D01*
X14727Y576773D01*
X14318Y576162D01*
X13250D01*
X12518Y576016D01*
X11898Y575602D01*
X10273Y573977D01*
X9859Y573357D01*
X9713Y572625D01*
Y569083D01*
X9648Y569018D01*
X9234Y568398D01*
X9088Y567666D01*
Y566932D01*
X8477Y566523D01*
X7703Y565366D01*
X7431Y564000D01*
X7703Y562634D01*
X8477Y561477D01*
X9634Y560703D01*
X11000Y560431D01*
X12366Y560703D01*
X12480Y560780D01*
X13891Y560195D01*
X13953Y559884D01*
X14727Y558727D01*
X14864Y558635D01*
Y557365D01*
X14727Y557273D01*
X13953Y556116D01*
X13681Y554750D01*
X13866Y553822D01*
X12790Y553014D01*
X12366Y553297D01*
X11000Y553569D01*
X9634Y553297D01*
X8477Y552523D01*
X7703Y551366D01*
X7431Y550000D01*
X7703Y548634D01*
X8477Y547477D01*
X9634Y546703D01*
X10961Y546439D01*
X11268Y546234D01*
X12000Y546088D01*
X14485D01*
X14727Y545727D01*
X14864Y545635D01*
Y544365D01*
X14727Y544273D01*
X13953Y543116D01*
X13681Y541750D01*
X13953Y540384D01*
X14727Y539227D01*
X14864Y539135D01*
Y537865D01*
X14727Y537773D01*
X13953Y536616D01*
X13681Y535250D01*
X13953Y533884D01*
X14727Y532727D01*
X14864Y532635D01*
Y531365D01*
X14727Y531273D01*
X13953Y530116D01*
X13681Y528750D01*
X13953Y527384D01*
X14727Y526227D01*
X14668Y524978D01*
X13965Y524162D01*
X13125D01*
X12393Y524016D01*
X11773Y523602D01*
X10648Y522477D01*
X10234Y521857D01*
X10088Y521125D01*
Y513000D01*
X10234Y512268D01*
X10648Y511648D01*
X11575Y510722D01*
X11431Y510000D01*
X11703Y508634D01*
X12477Y507477D01*
X13634Y506703D01*
X15000Y506431D01*
X16366Y506703D01*
X17523Y507477D01*
X18297Y508634D01*
X18569Y510000D01*
X18387Y510911D01*
X19163Y512181D01*
X23088D01*
Y510932D01*
X22477Y510523D01*
X21703Y509366D01*
X21431Y508000D01*
X21703Y506634D01*
X22477Y505477D01*
X22514Y505452D01*
X22631Y503963D01*
X22023Y503354D01*
X21609Y502734D01*
X21463Y502002D01*
Y448988D01*
X21290Y447790D01*
X20000D01*
Y455500D01*
X13204D01*
X12587Y456770D01*
X12965Y457250D01*
X15250D01*
Y467750D01*
X5000D01*
Y472250D01*
X15250D01*
Y482750D01*
X13125D01*
X12599Y484020D01*
X14153Y485575D01*
X14875Y485431D01*
X16241Y485703D01*
X17398Y486477D01*
X18172Y487634D01*
X18444Y489000D01*
X18172Y490366D01*
X17398Y491523D01*
X16241Y492297D01*
X14875Y492569D01*
X13509Y492297D01*
X12352Y491523D01*
X11578Y490366D01*
X11306Y489000D01*
X11450Y488279D01*
X8648Y485477D01*
X8234Y484857D01*
X8088Y484125D01*
Y482750D01*
X5000D01*
Y580000D01*
X15000D01*
Y593661D01*
X15537Y594464D01*
X16339Y595000D01*
X265000D01*
Y482750D01*
D02*
G37*
G36*
X86698Y295448D02*
X87524Y294895D01*
X88500Y294701D01*
X89475Y294895D01*
X90302Y295448D01*
X91698D01*
X92524Y294895D01*
X93500Y294701D01*
X94475Y294895D01*
X95302Y295448D01*
X96698D01*
X97524Y294895D01*
X98500Y294701D01*
X99475Y294895D01*
X100302Y295448D01*
X101698D01*
X102524Y294895D01*
X103500Y294701D01*
X104475Y294895D01*
X105302Y295448D01*
X106698D01*
X107524Y294895D01*
X108500Y294701D01*
X109475Y294895D01*
X110302Y295448D01*
X111698D01*
X112524Y294895D01*
X113500Y294701D01*
X114475Y294895D01*
X115302Y295448D01*
X116698D01*
X117524Y294895D01*
X118500Y294701D01*
X119475Y294895D01*
X120302Y295448D01*
X121698D01*
X122524Y294895D01*
X123500Y294701D01*
X124475Y294895D01*
X125302Y295448D01*
X126698D01*
X127524Y294895D01*
X128500Y294701D01*
X129475Y294895D01*
X130092Y295307D01*
X131316Y294852D01*
X131439Y293892D01*
X119708Y282162D01*
X83340D01*
X82662Y283432D01*
X82797Y283634D01*
X83069Y285000D01*
X82925Y285721D01*
X84852Y287648D01*
X85266Y288269D01*
X85412Y289000D01*
Y295086D01*
X86631Y295456D01*
X86698Y295448D01*
D02*
G37*
G36*
X60648Y281648D02*
X61268Y281234D01*
X62000Y281088D01*
X68208D01*
X69838Y279458D01*
Y261341D01*
X68568Y260956D01*
X68523Y261023D01*
X67365Y261797D01*
X66000Y262069D01*
X64634Y261797D01*
X63477Y261023D01*
X63068Y260412D01*
X60095D01*
X59970Y261682D01*
X60232Y261734D01*
X60852Y262148D01*
X63186Y264483D01*
X63601Y265103D01*
X63746Y265835D01*
Y266068D01*
X64358Y266477D01*
X65132Y267634D01*
X65403Y269000D01*
X65132Y270366D01*
X64358Y271523D01*
X63200Y272297D01*
X61835Y272569D01*
X60469Y272297D01*
X59311Y271523D01*
X58538Y270366D01*
X58495Y270149D01*
X57141Y269853D01*
X56552Y270436D01*
Y271698D01*
X57105Y272525D01*
X57299Y273500D01*
X57105Y274475D01*
X56552Y275302D01*
Y276698D01*
X57105Y277525D01*
X57299Y278500D01*
X57105Y279475D01*
X56552Y280302D01*
Y281698D01*
X57105Y282525D01*
X57249Y283251D01*
X57972Y283637D01*
X58544Y283753D01*
X60648Y281648D01*
D02*
G37*
G36*
X134766Y290123D02*
X134895Y289475D01*
X134701Y288500D01*
X134895Y287525D01*
X135448Y286698D01*
Y285302D01*
X134895Y284475D01*
X134701Y283500D01*
X134895Y282525D01*
X135448Y281698D01*
Y280302D01*
X134895Y279475D01*
X134701Y278500D01*
X134895Y277525D01*
X134656Y276325D01*
X134517Y276232D01*
X133680Y274979D01*
X133638Y274770D01*
X140250D01*
Y272230D01*
X133638D01*
X133680Y272021D01*
X134517Y270768D01*
X134656Y270675D01*
X134895Y269475D01*
X134701Y268500D01*
X134895Y267525D01*
X135448Y266698D01*
Y265302D01*
X134895Y264475D01*
X134701Y263500D01*
X134895Y262525D01*
X135448Y261698D01*
Y260302D01*
X134895Y259475D01*
X134701Y258500D01*
X134895Y257525D01*
X135448Y256698D01*
Y255302D01*
X134895Y254475D01*
X134701Y253500D01*
X134895Y252525D01*
X134656Y251325D01*
X134517Y251232D01*
X133680Y249979D01*
X133638Y249770D01*
X140250D01*
Y247230D01*
X133638D01*
X133680Y247021D01*
X134362Y246000D01*
X133680Y244979D01*
X133638Y244770D01*
X140250D01*
Y242230D01*
X133638D01*
X133680Y242021D01*
X133907Y241682D01*
X133228Y240412D01*
X123042D01*
X122412Y241042D01*
Y279458D01*
X133418Y290465D01*
X134766Y290123D01*
D02*
G37*
G36*
X184213Y231917D02*
Y220917D01*
X177648Y214352D01*
X177192Y213747D01*
X176097Y214142D01*
X175866Y214297D01*
X174500Y214569D01*
X173778Y214425D01*
X171500Y216704D01*
Y222000D01*
X172476Y222710D01*
X172790D01*
Y226730D01*
X167500D01*
Y229270D01*
X172790D01*
Y233290D01*
X172790D01*
X171998Y234347D01*
X173361Y234886D01*
X173634Y234703D01*
X175000Y234431D01*
X176366Y234703D01*
X177523Y235477D01*
X178058Y236276D01*
X179494Y236637D01*
X184213Y231917D01*
D02*
G37*
G36*
X150440Y224208D02*
Y224148D01*
X150586Y223417D01*
X151000Y222796D01*
X154500Y219296D01*
Y214000D01*
X162500D01*
Y214000D01*
X163500D01*
Y214000D01*
X168796D01*
X171075Y211721D01*
X170931Y211000D01*
X171203Y209634D01*
X171977Y208477D01*
X173134Y207703D01*
X173192Y207692D01*
X173610Y206314D01*
X166648Y199352D01*
X166234Y198732D01*
X166088Y198000D01*
Y186932D01*
X165477Y186523D01*
X164703Y185366D01*
X164431Y184000D01*
X164703Y182634D01*
X165310Y181726D01*
X165101Y180762D01*
X164882Y180346D01*
X164634Y180297D01*
X163726Y179690D01*
X162762Y179899D01*
X162346Y180118D01*
X162297Y180366D01*
X161523Y181523D01*
X160366Y182297D01*
X159000Y182569D01*
X157634Y182297D01*
X156477Y181523D01*
X155703Y180366D01*
X155039Y180200D01*
X154369Y180168D01*
X150061Y184476D01*
X149441Y184891D01*
X148709Y185036D01*
X142790D01*
Y187730D01*
X137500D01*
Y189000D01*
X136230D01*
Y194290D01*
X132790D01*
Y196730D01*
X127500D01*
Y198000D01*
X126230D01*
Y203290D01*
X122210D01*
Y202000D01*
X120412D01*
Y206586D01*
X121631Y206956D01*
X121698Y206948D01*
X122524Y206395D01*
X123500Y206201D01*
X124475Y206395D01*
X125302Y206948D01*
X126698D01*
X127524Y206395D01*
X128500Y206201D01*
X129475Y206395D01*
X130302Y206948D01*
X131698D01*
X132524Y206395D01*
X133500Y206201D01*
X134475Y206395D01*
X135302Y206948D01*
X135855Y207775D01*
X136049Y208750D01*
Y214750D01*
X136018Y214905D01*
X137095Y215982D01*
X137250Y215951D01*
X143250D01*
X144164Y216133D01*
X145338Y214958D01*
X145477Y213523D01*
X144703Y212366D01*
X144431Y211000D01*
X144703Y209634D01*
X145477Y208477D01*
X146634Y207703D01*
X148000Y207431D01*
X149366Y207703D01*
X150523Y208477D01*
X151297Y209634D01*
X151569Y211000D01*
X151297Y212366D01*
X150523Y213523D01*
X149912Y213932D01*
Y215000D01*
X149766Y215732D01*
X149352Y216352D01*
X146271Y219433D01*
X145982Y220768D01*
X146820Y222021D01*
X146862Y222230D01*
X140250D01*
Y224770D01*
X146862D01*
X146835Y224906D01*
X146896Y225110D01*
X147487Y226132D01*
X148416Y226232D01*
X150440Y224208D01*
D02*
G37*
G36*
X183750Y205715D02*
Y180250D01*
X185696D01*
Y172500D01*
X184000D01*
Y170412D01*
X182232D01*
X181501Y170266D01*
X180881Y169852D01*
X180306Y169278D01*
X179036Y169804D01*
Y202797D01*
X182480Y206241D01*
X183750Y205715D01*
D02*
G37*
G36*
X230333Y206963D02*
X229847Y205790D01*
X226270D01*
Y200500D01*
Y195210D01*
X228715D01*
X229100Y193940D01*
X228476Y193523D01*
X227703Y192365D01*
X227431Y191000D01*
X227676Y189770D01*
X227591Y189393D01*
X227113Y188500D01*
X219000D01*
Y180500D01*
X219782D01*
Y178484D01*
X219703Y178366D01*
X219431Y177000D01*
X219703Y175634D01*
X219782Y175516D01*
Y173079D01*
X216650D01*
Y170491D01*
X214579D01*
X213848Y170345D01*
X213227Y169931D01*
X210648Y167352D01*
X210234Y166732D01*
X210088Y166000D01*
Y165404D01*
X209040Y164869D01*
X207750D01*
Y168160D01*
X207833Y168579D01*
Y176205D01*
X211878Y180250D01*
X216250D01*
Y209750D01*
X205750D01*
Y186378D01*
X200436Y181064D01*
X199497Y179658D01*
X199167Y178000D01*
Y172829D01*
X194650D01*
Y164869D01*
X193360D01*
X193360Y164869D01*
D01*
X193270Y164863D01*
X192000Y166037D01*
Y172500D01*
X191304D01*
Y180250D01*
X194250D01*
Y203622D01*
X198064Y207436D01*
X199003Y208842D01*
X199333Y210500D01*
Y216000D01*
X199003Y217658D01*
X198064Y219064D01*
X196658Y220003D01*
X195000Y220333D01*
X193342Y220003D01*
X191936Y219064D01*
X190652Y219173D01*
X190537Y219256D01*
Y233744D01*
X190391Y234476D01*
X189977Y235096D01*
X184241Y240832D01*
X184727Y242005D01*
X195291D01*
X230333Y206963D01*
D02*
G37*
G36*
X179088Y160678D02*
Y149166D01*
X179234Y148435D01*
X179648Y147815D01*
X183878Y143585D01*
X183392Y142412D01*
X141775D01*
X141289Y143585D01*
X149792Y152088D01*
X152750D01*
Y151000D01*
X159750D01*
Y152250D01*
X162250D01*
Y151000D01*
X169250D01*
Y154296D01*
X169417Y154463D01*
X170285D01*
X171017Y154609D01*
X171637Y155023D01*
X177818Y161204D01*
X179088Y160678D01*
D02*
G37*
G36*
X117582Y155734D02*
X117997Y154385D01*
X117862Y154250D01*
X115050D01*
Y142750D01*
X115588D01*
Y142500D01*
X115734Y141768D01*
X116126Y141182D01*
X116021Y140626D01*
X115725Y139912D01*
X93411D01*
X92885Y141182D01*
X94278Y142575D01*
X95000Y142431D01*
X96366Y142703D01*
X97523Y143477D01*
X98297Y144634D01*
X98452Y145414D01*
X99363Y145575D01*
X99771Y145533D01*
X100477Y144477D01*
X101634Y143703D01*
X103000Y143431D01*
X104366Y143703D01*
X105523Y144477D01*
X106297Y145634D01*
X106569Y147000D01*
X106297Y148366D01*
X105523Y149523D01*
X104366Y150297D01*
X104576Y151550D01*
X112750D01*
Y155098D01*
X113750Y155750D01*
X114020Y155750D01*
X117566D01*
X117582Y155734D01*
D02*
G37*
G36*
X25290Y99660D02*
X25560Y99660D01*
X26560D01*
X27166Y98390D01*
X27088Y98000D01*
Y97000D01*
X24250D01*
Y84000D01*
X32460D01*
Y82710D01*
X36730D01*
Y90500D01*
X39270D01*
Y82710D01*
X43540D01*
Y84000D01*
X51750Y84000D01*
X52088Y82870D01*
Y75126D01*
X52006Y73994D01*
X50874Y73912D01*
X22000D01*
X21268Y73766D01*
X20648Y73352D01*
X19060Y71764D01*
X13787Y77037D01*
Y89917D01*
X15458Y91588D01*
X17334D01*
X18065Y91734D01*
X18685Y92148D01*
X21477Y94939D01*
X21891Y95560D01*
X22037Y96291D01*
Y99660D01*
X25290D01*
D02*
G37*
G36*
X108049Y93040D02*
X110000Y92652D01*
X112638D01*
X112902Y92388D01*
Y40612D01*
X106888Y34598D01*
X105674D01*
X105343Y35093D01*
X105129Y35236D01*
Y36764D01*
X105343Y36907D01*
X106061Y37982D01*
X106314Y39250D01*
X106061Y40518D01*
X105343Y41593D01*
X105129Y41736D01*
Y43264D01*
X105343Y43407D01*
X106061Y44482D01*
X106314Y45750D01*
X106061Y47018D01*
X105343Y48093D01*
X105129Y48236D01*
Y49764D01*
X105343Y49907D01*
X106061Y50982D01*
X106314Y52250D01*
X106061Y53518D01*
X105928Y53719D01*
X106203Y55430D01*
X106273Y55477D01*
X107277Y56979D01*
X107376Y57480D01*
X98000D01*
Y60020D01*
X107376D01*
X107277Y60521D01*
X106273Y62023D01*
X106203Y62070D01*
X105928Y63781D01*
X106061Y63982D01*
X106314Y65250D01*
X106061Y66518D01*
X105343Y67593D01*
X105129Y67736D01*
Y69264D01*
X105343Y69407D01*
X106061Y70482D01*
X106314Y71750D01*
X106061Y73018D01*
X105343Y74093D01*
X105129Y74236D01*
Y75764D01*
X105343Y75907D01*
X106061Y76982D01*
X106314Y78250D01*
X106061Y79518D01*
X105343Y80593D01*
X105129Y80736D01*
Y82264D01*
X105343Y82407D01*
X106061Y83482D01*
X106314Y84750D01*
X106061Y86018D01*
X105343Y87093D01*
X105129Y87236D01*
Y88764D01*
X105343Y88907D01*
X106061Y89982D01*
X106314Y91250D01*
X106061Y92518D01*
X106817Y93673D01*
X106992Y93746D01*
X108049Y93040D01*
D02*
G37*
%LPC*%
G36*
X85750Y579134D02*
X82270D01*
Y575520D01*
X90381D01*
X90262Y576119D01*
X89203Y577703D01*
X87619Y578762D01*
X85750Y579134D01*
D02*
G37*
G36*
X79730D02*
X76250D01*
X74381Y578762D01*
X72797Y577703D01*
X71738Y576119D01*
X71619Y575520D01*
X79730D01*
Y579134D01*
D02*
G37*
G36*
X130000Y580086D02*
X127389Y579743D01*
X124957Y578735D01*
X122868Y577132D01*
X121265Y575043D01*
X120257Y572611D01*
X119914Y570000D01*
X120257Y567389D01*
X121265Y564957D01*
X122868Y562868D01*
X124957Y561265D01*
X127389Y560257D01*
X130000Y559914D01*
X132611Y560257D01*
X135043Y561265D01*
X137132Y562868D01*
X138735Y564957D01*
X139743Y567389D01*
X140086Y570000D01*
X139743Y572611D01*
X138735Y575043D01*
X137132Y577132D01*
X135043Y578735D01*
X132611Y579743D01*
X130000Y580086D01*
D02*
G37*
G36*
X90381Y572980D02*
X81000D01*
X71619D01*
X71738Y572381D01*
X72797Y570797D01*
X73681Y570205D01*
X72953Y569116D01*
X72681Y567750D01*
X72953Y566384D01*
X73727Y565227D01*
X73864Y565135D01*
Y563865D01*
X73727Y563773D01*
X72953Y562616D01*
X72681Y561250D01*
X72953Y559884D01*
X73727Y558727D01*
X73864Y558635D01*
Y557365D01*
X73727Y557273D01*
X72953Y556116D01*
X72681Y554750D01*
X72953Y553384D01*
X73727Y552227D01*
X73864Y552135D01*
Y550865D01*
X73727Y550773D01*
X72953Y549616D01*
X72681Y548250D01*
X72953Y546884D01*
X73727Y545727D01*
X73667Y544478D01*
X72965Y543662D01*
X70750D01*
X70018Y543516D01*
X69398Y543102D01*
X65502Y539206D01*
X65366Y539297D01*
X64000Y539569D01*
X62634Y539297D01*
X61477Y538523D01*
X60703Y537366D01*
X60431Y536000D01*
X60703Y534634D01*
X61477Y533477D01*
X62634Y532703D01*
X64000Y532431D01*
X65366Y532703D01*
X65497Y532791D01*
X66316Y532119D01*
X66470Y531914D01*
X66338Y531250D01*
Y511861D01*
X66484Y511129D01*
X66898Y510509D01*
X71884Y505523D01*
X72504Y505109D01*
X73236Y504963D01*
X136875D01*
X137607Y505109D01*
X138227Y505523D01*
X144352Y511648D01*
X144766Y512268D01*
X144912Y513000D01*
Y515250D01*
X146750D01*
Y515250D01*
X147250D01*
Y515250D01*
X154750D01*
Y517088D01*
X156000D01*
X156732Y517234D01*
X157352Y517648D01*
X159250Y519546D01*
X160648Y518148D01*
X161268Y517734D01*
X162000Y517588D01*
X164000D01*
Y515500D01*
X172000D01*
Y515500D01*
X173000D01*
Y515500D01*
X181000D01*
Y523210D01*
X182290D01*
Y527230D01*
X177000D01*
Y528500D01*
X175730D01*
Y533790D01*
X169270D01*
Y528500D01*
X168000D01*
Y527230D01*
X162710D01*
Y524312D01*
X161440Y523492D01*
X161162Y523618D01*
Y532750D01*
X161016Y533482D01*
X160602Y534102D01*
X158352Y536352D01*
X157732Y536766D01*
X157000Y536912D01*
X154750D01*
Y538750D01*
X152912D01*
Y542068D01*
X153523Y542477D01*
X154058Y543276D01*
X155494Y543636D01*
X158483Y540647D01*
X159103Y540233D01*
X159835Y540087D01*
X162068D01*
X162476Y539476D01*
X163634Y538702D01*
X165000Y538430D01*
X166365Y538702D01*
X167523Y539476D01*
X168297Y540633D01*
X168568Y541999D01*
X168297Y543364D01*
X167523Y544522D01*
X166365Y545296D01*
X165000Y545568D01*
X163634Y545296D01*
X162476Y544522D01*
X162068Y543911D01*
X160627D01*
X154060Y550477D01*
X153440Y550891D01*
X152709Y551037D01*
X127667D01*
X113352Y565352D01*
X112732Y565766D01*
X112000Y565912D01*
X97142D01*
X96206Y567182D01*
X96319Y567750D01*
X96047Y569116D01*
X95273Y570273D01*
X94116Y571047D01*
X92750Y571319D01*
X91384Y571047D01*
X90506Y570460D01*
X89590Y571376D01*
X90262Y572381D01*
X90381Y572980D01*
D02*
G37*
G36*
X255250Y557250D02*
X240750D01*
Y536750D01*
X255250D01*
Y557250D01*
D02*
G37*
G36*
X219250D02*
X204750D01*
Y536750D01*
X219250D01*
Y557250D01*
D02*
G37*
G36*
X182290Y533790D02*
X178270D01*
Y529770D01*
X182290D01*
Y533790D01*
D02*
G37*
G36*
X166730D02*
X162710D01*
Y529770D01*
X166730D01*
Y533790D01*
D02*
G37*
G36*
X261290Y519790D02*
X257270D01*
Y515770D01*
X261290D01*
Y519790D01*
D02*
G37*
G36*
X223730Y518540D02*
X219460D01*
Y509520D01*
X223730D01*
Y518540D01*
D02*
G37*
G36*
Y506980D02*
X219460D01*
Y497960D01*
X223730D01*
Y506980D01*
D02*
G37*
G36*
X259290Y441230D02*
X255270D01*
Y437210D01*
X259290D01*
Y441230D01*
D02*
G37*
G36*
X252730D02*
X248710D01*
Y437210D01*
X252730D01*
Y441230D01*
D02*
G37*
G36*
X222000Y493353D02*
X48000D01*
X47043Y492957D01*
X46647Y492000D01*
Y418000D01*
X47043Y417043D01*
X48000Y416647D01*
X222000D01*
X222957Y417043D01*
X223353Y418000D01*
Y492000D01*
X222957Y492957D01*
X222000Y493353D01*
D02*
G37*
G36*
X254790Y419290D02*
X250770D01*
Y415270D01*
X254790D01*
Y419290D01*
D02*
G37*
G36*
Y412730D02*
X250770D01*
Y408710D01*
X254790D01*
Y412730D01*
D02*
G37*
G36*
X248230Y419290D02*
X244210D01*
Y418000D01*
X236500D01*
Y416804D01*
X234000D01*
X232927Y416590D01*
X232017Y415983D01*
X224839Y408804D01*
X220103D01*
X219366Y409297D01*
X218000Y409569D01*
X216634Y409297D01*
X215477Y408523D01*
X214703Y407366D01*
X214431Y406000D01*
X214703Y404634D01*
X215477Y403477D01*
X216634Y402703D01*
X218000Y402431D01*
X219366Y402703D01*
X220103Y403196D01*
X226000D01*
X227073Y403410D01*
X227983Y404017D01*
X235161Y411196D01*
X236500D01*
Y410000D01*
X237696D01*
Y407550D01*
X236500D01*
Y394450D01*
X245500D01*
Y407550D01*
X245500D01*
X245765Y408710D01*
X248230D01*
Y414000D01*
Y419290D01*
D02*
G37*
G36*
X145500Y409000D02*
X144500D01*
X144230Y409000D01*
X136500D01*
Y406912D01*
X132932D01*
X132523Y407523D01*
X131366Y408297D01*
X130000Y408569D01*
X128634Y408297D01*
X127477Y407523D01*
X126703Y406366D01*
X126431Y405000D01*
X126703Y403634D01*
X127477Y402477D01*
X128634Y401703D01*
X130000Y401431D01*
X131366Y401703D01*
X132523Y402477D01*
X132932Y403088D01*
X136500D01*
Y401000D01*
X144230D01*
X144500Y401000D01*
X145500D01*
X145770Y401000D01*
X153500D01*
Y401000D01*
X154678Y401544D01*
X154770Y401534D01*
X155477Y400477D01*
X156634Y399703D01*
X158000Y399431D01*
X158088Y399359D01*
Y396500D01*
X153450D01*
Y391711D01*
X152277Y391225D01*
X150150Y393352D01*
X149530Y393766D01*
X148798Y393912D01*
X143000D01*
X142268Y393766D01*
X141648Y393352D01*
X140182Y391885D01*
X139720Y391927D01*
X138843Y392343D01*
X138766Y392732D01*
X138352Y393352D01*
X137425Y394278D01*
X137569Y395000D01*
X137297Y396366D01*
X136523Y397523D01*
X135366Y398297D01*
X134000Y398569D01*
X132634Y398297D01*
X131477Y397523D01*
X130703Y396366D01*
X130431Y395000D01*
X130703Y393634D01*
X131477Y392477D01*
X132634Y391703D01*
X134000Y391431D01*
X134171Y391271D01*
X134124Y390838D01*
X133000Y389794D01*
X132122Y389619D01*
X131798Y389684D01*
X131552Y390052D01*
X130381Y390835D01*
X130270Y390857D01*
Y385500D01*
X127730D01*
Y390857D01*
X127619Y390835D01*
X126448Y390052D01*
X126202Y389684D01*
X125878Y389619D01*
X125000Y389794D01*
X124122Y389619D01*
X123378Y389122D01*
X122881Y388378D01*
X122706Y387500D01*
Y384664D01*
X121500Y383609D01*
X120770D01*
Y380000D01*
X119500D01*
Y378730D01*
X114143D01*
X114165Y378619D01*
X114948Y377448D01*
X115316Y377202D01*
X115381Y376878D01*
X115206Y376000D01*
X115381Y375122D01*
X115521Y374911D01*
X115773Y374000D01*
X115521Y373089D01*
X115381Y372878D01*
X115206Y372000D01*
X115381Y371122D01*
X115521Y370911D01*
X115773Y370000D01*
X115521Y369089D01*
X115381Y368878D01*
X115206Y368000D01*
X115381Y367122D01*
X115521Y366911D01*
X115773Y366000D01*
X115521Y365089D01*
X115381Y364878D01*
X115206Y364000D01*
X115235Y363853D01*
X114210Y362762D01*
X114000Y362804D01*
X113392D01*
X112290Y363210D01*
Y367230D01*
X107000D01*
X101710D01*
Y363210D01*
X103000D01*
Y355500D01*
X104196D01*
Y354104D01*
X103703Y353366D01*
X103431Y352000D01*
X103703Y350634D01*
X104477Y349477D01*
X105634Y348703D01*
X107000Y348431D01*
X108366Y348703D01*
X109523Y349477D01*
X110297Y350634D01*
X110569Y352000D01*
X110297Y353366D01*
X109804Y354104D01*
Y355500D01*
X111000D01*
Y357196D01*
X114000D01*
X115073Y357410D01*
X115983Y358017D01*
X116622Y357881D01*
X117500Y357706D01*
X121500D01*
X121718Y357749D01*
X122749Y356717D01*
X122706Y356500D01*
Y352500D01*
X122881Y351622D01*
X122896Y351599D01*
X120722Y349425D01*
X120000Y349569D01*
X118634Y349297D01*
X117477Y348523D01*
X116703Y347366D01*
X116431Y346000D01*
X116703Y344634D01*
X117477Y343477D01*
X118634Y342703D01*
X120000Y342431D01*
X121366Y342703D01*
X122523Y343477D01*
X123297Y344634D01*
X123569Y346000D01*
X123425Y346721D01*
X126352Y349648D01*
X126520Y349900D01*
X127619Y349165D01*
X127730Y349143D01*
Y354500D01*
X130270D01*
Y347930D01*
X130318Y347858D01*
X130234Y347732D01*
X130088Y347000D01*
Y343500D01*
X128000D01*
Y335790D01*
X126710D01*
Y331770D01*
X137290D01*
Y335790D01*
X136000D01*
Y343500D01*
X133912D01*
Y346208D01*
X134352Y346648D01*
X134766Y347268D01*
X134912Y348000D01*
Y348227D01*
X135730Y348759D01*
Y354500D01*
X138270D01*
Y348863D01*
X139118Y348378D01*
X139238Y348210D01*
X139196Y348000D01*
X139410Y346927D01*
X140017Y346017D01*
X140030Y346005D01*
X140203Y345134D01*
X140544Y344623D01*
X141000Y343500D01*
X141000Y343500D01*
X141000Y343500D01*
Y335790D01*
X139710D01*
Y331770D01*
X145000D01*
Y330500D01*
X146270D01*
Y325210D01*
X150290D01*
Y330491D01*
X150482Y330565D01*
X151560Y330702D01*
X152017Y330017D01*
X158017Y324017D01*
X158927Y323410D01*
X160000Y323196D01*
X168000D01*
X169073Y323410D01*
X169983Y324017D01*
X175161Y329196D01*
X176243D01*
X177316Y329410D01*
X178000Y329867D01*
X178684Y329410D01*
X179757Y329196D01*
X179757Y329196D01*
X190000D01*
X191073Y329410D01*
X191983Y330017D01*
X197983Y336017D01*
X198591Y336927D01*
X198804Y338000D01*
Y346000D01*
X202550D01*
Y347696D01*
X227243D01*
X228316Y347910D01*
X229225Y348517D01*
X230983Y350275D01*
X231590Y351184D01*
X231804Y352257D01*
X231804Y352257D01*
Y356339D01*
X236465Y361000D01*
X240210D01*
Y359710D01*
X244230D01*
Y365000D01*
X245500D01*
Y366270D01*
X250790D01*
Y369890D01*
X250790Y370290D01*
X251700Y371160D01*
X256290D01*
Y377730D01*
X250500D01*
X244710D01*
Y371560D01*
X244710Y371160D01*
X243800Y370290D01*
X240210D01*
Y369000D01*
X236465D01*
X234304Y371161D01*
Y372450D01*
X236000D01*
Y385550D01*
X227000D01*
Y381804D01*
X212161D01*
X209983Y383983D01*
X209073Y384590D01*
X208000Y384804D01*
X202550D01*
Y387000D01*
X198804D01*
Y389000D01*
X198590Y390073D01*
X197983Y390983D01*
X194983Y393983D01*
X194073Y394590D01*
X193000Y394804D01*
X186161D01*
X185235Y395730D01*
X185502Y397000D01*
X189450Y397000D01*
X189820Y397000D01*
X202550D01*
Y400088D01*
X205068D01*
X205477Y399477D01*
X206634Y398703D01*
X208000Y398431D01*
X209366Y398703D01*
X210523Y399477D01*
X211297Y400634D01*
X211569Y402000D01*
X211297Y403366D01*
X210523Y404523D01*
X209366Y405297D01*
X208000Y405569D01*
X206634Y405297D01*
X205477Y404523D01*
X205068Y403912D01*
X202550D01*
Y406000D01*
X189820D01*
X188550Y406000D01*
X188180Y406000D01*
X175450D01*
Y397000D01*
X178983D01*
X179250Y395730D01*
X178324Y394804D01*
X175000D01*
X173927Y394590D01*
X173017Y393983D01*
X167723Y388689D01*
X166550Y389175D01*
Y396500D01*
X161912D01*
Y401000D01*
X161766Y401732D01*
X161420Y402251D01*
X161569Y403000D01*
X161297Y404366D01*
X160523Y405523D01*
X159366Y406297D01*
X158000Y406569D01*
X157250Y406419D01*
X156732Y406766D01*
X156000Y406912D01*
X153500D01*
Y409000D01*
X145770D01*
X145500Y409000D01*
D02*
G37*
G36*
X224550Y396500D02*
X211450D01*
Y395315D01*
X211306Y395192D01*
X210180Y394753D01*
X209366Y395297D01*
X208000Y395569D01*
X206634Y395297D01*
X205477Y394523D01*
X204703Y393366D01*
X204431Y392000D01*
X204703Y390634D01*
X205477Y389477D01*
X206634Y388703D01*
X208000Y388431D01*
X209366Y388703D01*
X210180Y389247D01*
X211306Y388808D01*
X211450Y388685D01*
Y387500D01*
X224550D01*
Y396500D01*
D02*
G37*
G36*
X118230Y383609D02*
X117500D01*
X116119Y383335D01*
X114948Y382552D01*
X114165Y381381D01*
X114143Y381270D01*
X118230D01*
Y383609D01*
D02*
G37*
G36*
X256290Y386840D02*
X251770D01*
Y380270D01*
X256290D01*
Y386840D01*
D02*
G37*
G36*
X249230D02*
X244710D01*
Y380270D01*
X249230D01*
Y386840D01*
D02*
G37*
G36*
X32250Y377634D02*
X28770D01*
Y374020D01*
X36881D01*
X36762Y374619D01*
X35703Y376203D01*
X34119Y377262D01*
X32250Y377634D01*
D02*
G37*
G36*
X112290Y373790D02*
X108270D01*
Y369770D01*
X112290D01*
Y373790D01*
D02*
G37*
G36*
X105730D02*
X101710D01*
Y369770D01*
X105730D01*
Y373790D01*
D02*
G37*
G36*
X250790Y363730D02*
X246770D01*
Y359710D01*
X250790D01*
Y363730D01*
D02*
G37*
G36*
X54875Y346443D02*
X53509Y346172D01*
X52352Y345398D01*
X51578Y344241D01*
X51306Y342875D01*
X51578Y341509D01*
X52352Y340352D01*
X53509Y339578D01*
X54875Y339306D01*
X56241Y339578D01*
X57398Y340352D01*
X58172Y341509D01*
X58443Y342875D01*
X58172Y344241D01*
X57398Y345398D01*
X56241Y346172D01*
X54875Y346443D01*
D02*
G37*
G36*
X213290Y338790D02*
X209270D01*
Y334770D01*
X213290D01*
Y338790D01*
D02*
G37*
G36*
X206730D02*
X202710D01*
Y334770D01*
X206730D01*
Y338790D01*
D02*
G37*
G36*
X50000Y339569D02*
X48634Y339297D01*
X47477Y338523D01*
X46703Y337366D01*
X46431Y336000D01*
X46703Y334634D01*
X47477Y333477D01*
X48634Y332703D01*
X50000Y332431D01*
X51366Y332703D01*
X52523Y333477D01*
X53297Y334634D01*
X53569Y336000D01*
X53297Y337366D01*
X52523Y338523D01*
X51366Y339297D01*
X50000Y339569D01*
D02*
G37*
G36*
X143730Y329230D02*
X139710D01*
Y325210D01*
X143730D01*
Y329230D01*
D02*
G37*
G36*
X137290D02*
X133270D01*
Y325210D01*
X137290D01*
Y329230D01*
D02*
G37*
G36*
X130730D02*
X126710D01*
Y325210D01*
X130730D01*
Y329230D01*
D02*
G37*
G36*
X36881Y325980D02*
X28770D01*
Y322366D01*
X32250D01*
X34119Y322738D01*
X35703Y323797D01*
X36762Y325381D01*
X36881Y325980D01*
D02*
G37*
G36*
X47000Y327569D02*
X45634Y327297D01*
X44477Y326523D01*
X43703Y325366D01*
X43431Y324000D01*
X43703Y322634D01*
X43864Y322394D01*
X43806Y322268D01*
X43024Y321365D01*
X42000Y321569D01*
X40634Y321297D01*
X39477Y320523D01*
X38703Y319366D01*
X38431Y318000D01*
X38703Y316634D01*
X39477Y315477D01*
X40634Y314703D01*
X42000Y314431D01*
X42940Y314618D01*
X44210Y313856D01*
Y313270D01*
X48230D01*
Y317290D01*
X46151D01*
X45569Y318000D01*
X45297Y319366D01*
X45136Y319606D01*
X45194Y319732D01*
X45976Y320635D01*
X47000Y320431D01*
X48366Y320703D01*
X49523Y321477D01*
X50297Y322634D01*
X50569Y324000D01*
X50297Y325366D01*
X49523Y326523D01*
X48366Y327297D01*
X47000Y327569D01*
D02*
G37*
G36*
X34290Y317790D02*
X30270D01*
Y313770D01*
X34290D01*
Y317790D01*
D02*
G37*
G36*
X27730D02*
X23710D01*
Y313770D01*
X27730D01*
Y317790D01*
D02*
G37*
G36*
X68230Y317290D02*
X64210D01*
Y313270D01*
X68230D01*
Y317290D01*
D02*
G37*
G36*
X190290Y309980D02*
X184520D01*
Y303710D01*
X190290D01*
Y309980D01*
D02*
G37*
G36*
X181980D02*
X176210D01*
Y303710D01*
X181980D01*
Y309980D01*
D02*
G37*
G36*
X205790Y300290D02*
X200020D01*
Y294020D01*
X205790D01*
Y300290D01*
D02*
G37*
G36*
X197480D02*
X191710D01*
Y294020D01*
X197480D01*
Y300290D01*
D02*
G37*
G36*
X234540Y285730D02*
X226520D01*
Y282460D01*
X234540D01*
Y285730D01*
D02*
G37*
G36*
X223980D02*
X215960D01*
Y282460D01*
X223980D01*
Y285730D01*
D02*
G37*
G36*
X200790Y278730D02*
X196770D01*
Y274710D01*
X200790D01*
Y278730D01*
D02*
G37*
G36*
X14000Y268569D02*
X12634Y268297D01*
X11477Y267523D01*
X10703Y266366D01*
X10431Y265000D01*
X10703Y263634D01*
X11477Y262477D01*
X12634Y261703D01*
X14000Y261431D01*
X15366Y261703D01*
X16523Y262477D01*
X17297Y263634D01*
X17569Y265000D01*
X17297Y266366D01*
X16523Y267523D01*
X15366Y268297D01*
X14000Y268569D01*
D02*
G37*
G36*
X208040Y249230D02*
X203770D01*
Y246460D01*
X208040D01*
Y249230D01*
D02*
G37*
G36*
X238230Y246290D02*
X234210D01*
Y242270D01*
X238230D01*
Y246290D01*
D02*
G37*
G36*
X11000Y238569D02*
X9634Y238297D01*
X8477Y237523D01*
X7703Y236366D01*
X7431Y235000D01*
X7703Y233634D01*
X8477Y232477D01*
X9634Y231703D01*
X11000Y231431D01*
X12366Y231703D01*
X13523Y232477D01*
X14297Y233634D01*
X14569Y235000D01*
X14297Y236366D01*
X13523Y237523D01*
X12366Y238297D01*
X11000Y238569D01*
D02*
G37*
G36*
X258730Y208290D02*
X253460D01*
Y203020D01*
X258730D01*
Y208290D01*
D02*
G37*
G36*
Y200480D02*
X253460D01*
Y195210D01*
X258730D01*
Y200480D01*
D02*
G37*
G36*
X98230Y193290D02*
X94210D01*
Y189270D01*
X98230D01*
Y193290D01*
D02*
G37*
G36*
X38000Y189569D02*
X36634Y189297D01*
X35477Y188523D01*
X34703Y187366D01*
X34431Y186000D01*
X34703Y184634D01*
X35477Y183477D01*
X36634Y182703D01*
X38000Y182431D01*
X39366Y182703D01*
X40627Y182018D01*
X40703Y181634D01*
X41477Y180477D01*
X42295Y179930D01*
X42486Y178591D01*
X42477Y178523D01*
X41703Y177366D01*
X41431Y176000D01*
X41703Y174634D01*
X42477Y173477D01*
X43634Y172703D01*
X45000Y172431D01*
X46366Y172703D01*
X47523Y173477D01*
X48297Y174634D01*
X48569Y176000D01*
X48297Y177366D01*
X47523Y178523D01*
X46705Y179070D01*
X46514Y180409D01*
X46523Y180477D01*
X47297Y181634D01*
X47569Y183000D01*
X47297Y184366D01*
X46523Y185523D01*
X45366Y186297D01*
X44000Y186569D01*
X42634Y186297D01*
X41373Y186982D01*
X41297Y187366D01*
X40523Y188523D01*
X39366Y189297D01*
X38000Y189569D01*
D02*
G37*
G36*
X253000Y158569D02*
X251634Y158297D01*
X250477Y157523D01*
X249703Y156366D01*
X249431Y155000D01*
X248849Y154290D01*
X246770D01*
Y150270D01*
X250790D01*
Y150856D01*
X252060Y151618D01*
X253000Y151431D01*
X254366Y151703D01*
X255523Y152477D01*
X256297Y153634D01*
X256569Y155000D01*
X256297Y156366D01*
X255523Y157523D01*
X254366Y158297D01*
X253000Y158569D01*
D02*
G37*
G36*
X250790Y147730D02*
X246770D01*
Y143710D01*
X249522D01*
X250519Y142440D01*
X250431Y142000D01*
X250703Y140634D01*
X251477Y139477D01*
X252634Y138703D01*
X254000Y138431D01*
X255366Y138703D01*
X256523Y139477D01*
X257297Y140634D01*
X257569Y142000D01*
X257297Y143366D01*
X256523Y144523D01*
X255366Y145297D01*
X254000Y145569D01*
X252634Y145297D01*
X252060Y144913D01*
X250790Y145592D01*
Y147730D01*
D02*
G37*
G36*
X195000Y135569D02*
X193634Y135297D01*
X192477Y134523D01*
X191703Y133366D01*
X191431Y132000D01*
X191618Y131060D01*
X190856Y129790D01*
X189710D01*
Y125644D01*
X188440Y124882D01*
X187500Y125069D01*
X186134Y124797D01*
X184977Y124023D01*
X184203Y122866D01*
X183931Y121500D01*
X184203Y120134D01*
X184977Y118977D01*
X186134Y118203D01*
X187500Y117931D01*
X188866Y118203D01*
X189730Y118781D01*
X190742Y118419D01*
X191000Y118218D01*
Y111500D01*
X191342D01*
X191376Y111289D01*
X190289Y110031D01*
X189655D01*
X177249Y122437D01*
X176523Y123523D01*
X175366Y124297D01*
X174000Y124569D01*
X172634Y124297D01*
X171477Y123523D01*
X170703Y122366D01*
X170431Y121000D01*
X170703Y119634D01*
X171477Y118477D01*
X172563Y117751D01*
X186657Y103657D01*
X186803Y103559D01*
X186418Y102289D01*
X182500D01*
X181720Y102134D01*
X181058Y101692D01*
X180638Y101064D01*
X179314D01*
Y102500D01*
X179061Y103768D01*
X178343Y104843D01*
X174500Y108686D01*
Y112000D01*
X166790D01*
Y113290D01*
X162770D01*
Y108000D01*
Y102710D01*
X166790D01*
Y104000D01*
X169814D01*
X171480Y102334D01*
X170954Y101064D01*
X165000D01*
X163732Y100811D01*
X162657Y100093D01*
X161939Y99018D01*
X161686Y97750D01*
X161939Y96482D01*
X162657Y95407D01*
X162871Y95264D01*
Y93736D01*
X162657Y93593D01*
X161939Y92518D01*
X161686Y91250D01*
X161939Y89982D01*
X162073Y89782D01*
X161797Y88070D01*
X161727Y88023D01*
X160723Y86521D01*
X160624Y86020D01*
X170000D01*
Y83480D01*
X160624D01*
X160723Y82979D01*
X161711Y81500D01*
X160723Y80021D01*
X160624Y79520D01*
X170000D01*
Y76980D01*
X160624D01*
X160723Y76479D01*
X161727Y74977D01*
X161797Y74930D01*
X162073Y73218D01*
X161939Y73018D01*
X161686Y71750D01*
X161939Y70482D01*
X162657Y69407D01*
X162871Y69264D01*
Y67736D01*
X162657Y67593D01*
X161939Y66518D01*
X161686Y65250D01*
X161939Y63982D01*
X162657Y62907D01*
X162871Y62764D01*
Y61236D01*
X162657Y61093D01*
X161939Y60018D01*
X161686Y58750D01*
X161939Y57482D01*
X162657Y56407D01*
X162871Y56264D01*
Y54736D01*
X162657Y54593D01*
X161939Y53518D01*
X161686Y52250D01*
X161939Y50982D01*
X162073Y50781D01*
X161797Y49070D01*
X161727Y49023D01*
X160723Y47521D01*
X160624Y47020D01*
X170000D01*
Y44480D01*
X160624D01*
X160723Y43979D01*
X161711Y42500D01*
X160723Y41021D01*
X160624Y40520D01*
X170000D01*
Y37980D01*
X160624D01*
X160723Y37479D01*
X161727Y35977D01*
X161797Y35930D01*
X162073Y34218D01*
X161939Y34018D01*
X161686Y32750D01*
X161939Y31482D01*
X162657Y30407D01*
X162871Y30264D01*
Y28736D01*
X162657Y28593D01*
X161939Y27518D01*
X161686Y26250D01*
X161939Y24982D01*
X162657Y23907D01*
X163732Y23189D01*
X165000Y22936D01*
X180638D01*
X181058Y22308D01*
X181720Y21866D01*
X182500Y21711D01*
X187500D01*
X188280Y21866D01*
X188942Y22308D01*
X189336Y22897D01*
X189900Y22970D01*
X190100D01*
X190665Y22897D01*
X191058Y22308D01*
X191686Y21888D01*
Y18281D01*
X191431Y17000D01*
X191703Y15634D01*
X192477Y14477D01*
X193634Y13703D01*
X195000Y13431D01*
X196366Y13703D01*
X197523Y14477D01*
X198297Y15634D01*
X198569Y17000D01*
X198314Y18281D01*
Y21888D01*
X198942Y22308D01*
X199195Y22686D01*
X201500D01*
Y22000D01*
X209210D01*
Y20710D01*
X213230D01*
Y26000D01*
X214500D01*
Y27270D01*
X219790D01*
Y29710D01*
Y33730D01*
X214500D01*
Y35000D01*
X213230D01*
Y40290D01*
X210290D01*
Y42230D01*
X205000D01*
Y44770D01*
X210290D01*
Y48790D01*
X211228Y49591D01*
X215200D01*
X216000Y49431D01*
X217366Y49703D01*
X218523Y50477D01*
X219297Y51634D01*
X219569Y53000D01*
X219297Y54366D01*
X218523Y55523D01*
X217366Y56297D01*
X216000Y56569D01*
X214634Y56297D01*
X214516Y56218D01*
X209000D01*
Y56500D01*
X208252D01*
X208115Y56703D01*
X208450Y58428D01*
X208523Y58477D01*
X209297Y59634D01*
X209569Y61000D01*
X209297Y62366D01*
X208523Y63523D01*
X207725Y64057D01*
X207645Y64317D01*
X207666Y64353D01*
X208707Y65183D01*
X210700Y64357D01*
X213310Y64014D01*
X215921Y64357D01*
X218353Y65365D01*
X220442Y66968D01*
X222045Y69057D01*
X223053Y71490D01*
X223396Y74100D01*
X223053Y76711D01*
X222045Y79143D01*
X220442Y81232D01*
X218353Y82835D01*
X215921Y83843D01*
X213310Y84186D01*
X210700Y83843D01*
X208267Y82835D01*
X206178Y81232D01*
X204575Y79143D01*
X203567Y76711D01*
X203224Y74100D01*
X203567Y71490D01*
X204575Y69057D01*
X205068Y68414D01*
X204111Y67575D01*
X203343Y68343D01*
X202268Y69061D01*
X201000Y69314D01*
X199195D01*
X198942Y69692D01*
X198314Y70112D01*
Y71500D01*
X199000D01*
Y79210D01*
X200290D01*
Y83230D01*
X195000D01*
Y84500D01*
X193730D01*
Y89790D01*
X186270D01*
Y84500D01*
X183730D01*
Y89790D01*
X180318D01*
X179237Y90864D01*
X179314Y91250D01*
Y94436D01*
X180972D01*
X181058Y94308D01*
X181720Y93866D01*
X182500Y93711D01*
X187500D01*
X188280Y93866D01*
X188942Y94308D01*
X189336Y94897D01*
X189900Y94970D01*
X190100D01*
X190665Y94897D01*
X191058Y94308D01*
X191720Y93866D01*
X192500Y93711D01*
X197500D01*
X198280Y93866D01*
X198942Y94308D01*
X199384Y94970D01*
X199539Y95750D01*
Y100250D01*
X199384Y101030D01*
X198942Y101692D01*
X198314Y102112D01*
Y103000D01*
X198061Y104268D01*
X197343Y105343D01*
X196686Y106000D01*
X197343Y106657D01*
X198061Y107732D01*
X198314Y109000D01*
Y111500D01*
X199000D01*
Y119210D01*
X200290D01*
Y123230D01*
X195000D01*
Y125770D01*
X200290D01*
Y129790D01*
X199144D01*
X198382Y131060D01*
X198569Y132000D01*
X198297Y133366D01*
X197523Y134523D01*
X196366Y135297D01*
X195000Y135569D01*
D02*
G37*
G36*
X162100Y136946D02*
X159784Y136642D01*
X157627Y135748D01*
X155774Y134326D01*
X154352Y132473D01*
X153458Y130316D01*
X153153Y128000D01*
X153458Y125684D01*
X154352Y123527D01*
X155774Y121674D01*
X157627Y120252D01*
X159784Y119358D01*
X162100Y119053D01*
X164415Y119358D01*
X166573Y120252D01*
X168426Y121674D01*
X169848Y123527D01*
X170742Y125684D01*
X171047Y128000D01*
X170742Y130316D01*
X169848Y132473D01*
X168426Y134326D01*
X166573Y135748D01*
X164415Y136642D01*
X162100Y136946D01*
D02*
G37*
G36*
X84630Y126730D02*
X75740D01*
Y117840D01*
X84630D01*
Y126730D01*
D02*
G37*
G36*
X96060D02*
X87170D01*
Y117840D01*
X90661D01*
X91046Y116570D01*
X90977Y116523D01*
X90203Y115366D01*
X89931Y114000D01*
X90203Y112634D01*
X90977Y111477D01*
X92134Y110703D01*
X93500Y110431D01*
X94866Y110703D01*
X96023Y111477D01*
X96797Y112634D01*
X97069Y114000D01*
X96797Y115366D01*
X96023Y116523D01*
X95954Y116570D01*
X96060Y117840D01*
Y118026D01*
Y126730D01*
D02*
G37*
G36*
X250000Y130086D02*
X247390Y129743D01*
X244957Y128735D01*
X242868Y127132D01*
X241265Y125043D01*
X240257Y122611D01*
X239914Y120000D01*
X240257Y117389D01*
X241265Y114957D01*
X242868Y112868D01*
X244957Y111265D01*
X247390Y110257D01*
X250000Y109914D01*
X252610Y110257D01*
X255043Y111265D01*
X257132Y112868D01*
X258735Y114957D01*
X259743Y117389D01*
X260086Y120000D01*
X259743Y122611D01*
X258735Y125043D01*
X257132Y127132D01*
X255043Y128735D01*
X252610Y129743D01*
X250000Y130086D01*
D02*
G37*
G36*
X160230Y113290D02*
X156210D01*
Y109270D01*
X160230D01*
Y113290D01*
D02*
G37*
G36*
Y106730D02*
X156210D01*
Y102710D01*
X160230D01*
Y106730D01*
D02*
G37*
G36*
X241230Y102290D02*
X237210D01*
Y98270D01*
X241230D01*
Y102290D01*
D02*
G37*
G36*
Y95730D02*
X237210D01*
Y91710D01*
X241230D01*
Y95730D01*
D02*
G37*
G36*
X138000Y98569D02*
X136634Y98297D01*
X135477Y97523D01*
X134703Y96366D01*
X134431Y95000D01*
X134703Y93634D01*
X135477Y92477D01*
X136634Y91703D01*
X138000Y91431D01*
X139366Y91703D01*
X140523Y92477D01*
X141297Y93634D01*
X141569Y95000D01*
X141297Y96366D01*
X140523Y97523D01*
X139366Y98297D01*
X138000Y98569D01*
D02*
G37*
G36*
X213310Y109586D02*
X210700Y109243D01*
X208267Y108235D01*
X206178Y106632D01*
X204575Y104543D01*
X203567Y102111D01*
X203224Y99500D01*
X203567Y96889D01*
X204575Y94457D01*
X206178Y92368D01*
X208267Y90765D01*
X210700Y89757D01*
X213310Y89414D01*
X215921Y89757D01*
X218353Y90765D01*
X220442Y92368D01*
X222045Y94457D01*
X223053Y96889D01*
X223396Y99500D01*
X223053Y102111D01*
X222045Y104543D01*
X220442Y106632D01*
X218353Y108235D01*
X215921Y109243D01*
X213310Y109586D01*
D02*
G37*
G36*
X247790Y102290D02*
X243770D01*
Y97000D01*
Y91710D01*
X247790D01*
Y93000D01*
X249588D01*
Y88450D01*
X247640D01*
Y89740D01*
X243270D01*
Y81100D01*
Y72460D01*
X243524D01*
X244192Y71190D01*
X244000Y70912D01*
X236000D01*
X235268Y70766D01*
X234648Y70352D01*
X231148Y66852D01*
X230734Y66232D01*
X230588Y65500D01*
Y62250D01*
X228150D01*
Y47550D01*
X229751D01*
X230029Y47157D01*
X230314Y46280D01*
X229703Y45366D01*
X229431Y44000D01*
X229676Y42770D01*
X229592Y42394D01*
X229114Y41500D01*
X229000D01*
Y33790D01*
X227710D01*
Y29770D01*
X233000D01*
Y28500D01*
X234270D01*
Y23210D01*
X237210D01*
Y22710D01*
X241230D01*
Y28000D01*
X243770D01*
Y22710D01*
X247790D01*
Y24000D01*
X255500D01*
Y32000D01*
X253412D01*
Y35000D01*
X255500D01*
Y43000D01*
X253412D01*
Y47550D01*
X255850D01*
Y62250D01*
X247150D01*
Y62250D01*
X246350D01*
Y62250D01*
X237650D01*
Y62250D01*
X236850D01*
Y62250D01*
X234412D01*
Y64708D01*
X236792Y67088D01*
X245068D01*
X245477Y66477D01*
X246634Y65703D01*
X248000Y65431D01*
X249366Y65703D01*
X250523Y66477D01*
X251297Y67634D01*
X251569Y69000D01*
X251297Y70366D01*
X250523Y71523D01*
X249366Y72297D01*
X248445Y72480D01*
X248570Y73750D01*
X255850D01*
Y88450D01*
X253412D01*
Y93000D01*
X255500D01*
Y101000D01*
X247790D01*
Y102290D01*
D02*
G37*
G36*
X200290Y89790D02*
X196270D01*
Y85770D01*
X200290D01*
Y89790D01*
D02*
G37*
G36*
X17790Y51890D02*
X13770D01*
Y47870D01*
X17790D01*
Y51890D01*
D02*
G37*
G36*
X219790Y40290D02*
X215770D01*
Y36270D01*
X219790D01*
Y40290D01*
D02*
G37*
G36*
X231730Y27230D02*
X227710D01*
Y23210D01*
X231730D01*
Y27230D01*
D02*
G37*
G36*
X219790Y24730D02*
X215770D01*
Y20710D01*
X219790D01*
Y24730D01*
D02*
G37*
%LPD*%
G36*
X125523Y547773D02*
X126143Y547359D01*
X126875Y547213D01*
X146858D01*
X147619Y545943D01*
X147431Y545000D01*
X147703Y543634D01*
X148477Y542477D01*
X149088Y542068D01*
Y540575D01*
X148040Y540040D01*
X144270D01*
Y535000D01*
X141730D01*
Y540040D01*
X136270D01*
Y535000D01*
X133730D01*
Y540040D01*
X128270D01*
Y535000D01*
X125730D01*
Y540040D01*
X121960D01*
Y538750D01*
X115250D01*
Y536912D01*
X114000D01*
X113268Y536766D01*
X113261Y536761D01*
X112451Y537747D01*
X118279Y543575D01*
X119000Y543431D01*
X120366Y543703D01*
X121523Y544477D01*
X122297Y545634D01*
X122569Y547000D01*
X122297Y548366D01*
X121523Y549523D01*
X120366Y550297D01*
X119000Y550569D01*
X117634Y550297D01*
X116477Y549523D01*
X115703Y548366D01*
X115431Y547000D01*
X115575Y546278D01*
X105648Y536352D01*
X105234Y535732D01*
X105088Y535000D01*
Y523792D01*
X103708Y522412D01*
X101000D01*
Y524210D01*
X102290D01*
Y528230D01*
X97000D01*
X91710D01*
Y524640D01*
X91189Y524174D01*
X90614Y523790D01*
X90000Y523912D01*
X88849D01*
X88308Y524722D01*
X88136Y525057D01*
Y526135D01*
X88273Y526227D01*
X89047Y527384D01*
X89319Y528750D01*
X89047Y530116D01*
X88273Y531273D01*
X88136Y531365D01*
Y532635D01*
X88273Y532727D01*
X89047Y533884D01*
X89319Y535250D01*
X89047Y536616D01*
X88273Y537773D01*
X88136Y537865D01*
Y539135D01*
X88273Y539227D01*
X89047Y540384D01*
X89319Y541750D01*
X89047Y543116D01*
X88273Y544273D01*
X88614Y545466D01*
X89219Y546088D01*
X98000D01*
X98732Y546234D01*
X99352Y546648D01*
X102898Y550195D01*
X103634Y549703D01*
X105000Y549431D01*
X106366Y549703D01*
X107523Y550477D01*
X108297Y551634D01*
X108569Y553000D01*
X108297Y554366D01*
X107523Y555523D01*
X106366Y556297D01*
X105630Y556443D01*
X105755Y557713D01*
X107110D01*
X107519Y557102D01*
X108677Y556328D01*
X110042Y556056D01*
X111408Y556328D01*
X112566Y557102D01*
X113300Y558200D01*
X113361Y558265D01*
X114701Y558596D01*
X125523Y547773D01*
D02*
G37*
%LPC*%
G36*
X102290Y534790D02*
X98270D01*
Y530770D01*
X102290D01*
Y534790D01*
D02*
G37*
G36*
X95730D02*
X91710D01*
Y530770D01*
X95730D01*
Y534790D01*
D02*
G37*
%LPD*%
G36*
X209017Y377017D02*
X209927Y376410D01*
X211000Y376196D01*
X227000D01*
Y372450D01*
X228696D01*
Y370000D01*
X228909Y368927D01*
X229517Y368017D01*
X232500Y365035D01*
Y364965D01*
X227017Y359483D01*
X226410Y358573D01*
X226196Y357500D01*
Y353419D01*
X226081Y353304D01*
X202550D01*
Y355000D01*
X189450D01*
Y346000D01*
X193196D01*
Y339161D01*
X188839Y334804D01*
X180919D01*
X180804Y334919D01*
Y337750D01*
X181000D01*
Y344750D01*
X179750D01*
Y347250D01*
X181000D01*
Y354250D01*
X179912D01*
Y357208D01*
X181792Y359088D01*
X195268D01*
X195999Y359234D01*
X196619Y359648D01*
X197352Y360381D01*
X197766Y361001D01*
X197912Y361732D01*
Y365000D01*
X202550D01*
Y374000D01*
X189450D01*
Y365000D01*
X194088D01*
Y362912D01*
X181792D01*
X178974Y365730D01*
X179500Y367000D01*
X179500D01*
Y369188D01*
X179732Y369234D01*
X180352Y369648D01*
X182169Y371465D01*
X183366Y371703D01*
X184523Y372477D01*
X185297Y373634D01*
X185569Y375000D01*
X185297Y376366D01*
X185054Y376730D01*
X185732Y378000D01*
X188550D01*
Y378000D01*
X189450D01*
Y378000D01*
X202550D01*
Y379196D01*
X206839D01*
X209017Y377017D01*
D02*
G37*
G36*
X148500Y357706D02*
X152500D01*
X152522Y357710D01*
X153555Y356621D01*
X153431Y356000D01*
X153703Y354634D01*
X154477Y353477D01*
X155634Y352703D01*
X157000Y352431D01*
X157730Y352577D01*
X159000Y351716D01*
Y347250D01*
X160250D01*
Y344750D01*
X159000D01*
Y337750D01*
X160088D01*
Y332500D01*
X160234Y331768D01*
X160317Y331644D01*
X160294Y331468D01*
X158953Y331013D01*
X156804Y333161D01*
Y336000D01*
X156590Y337073D01*
X155983Y337983D01*
X152983Y340983D01*
X152073Y341590D01*
X151000Y341804D01*
X149000D01*
Y343500D01*
X147804D01*
Y345000D01*
X147590Y346073D01*
X146983Y346983D01*
X146970Y346995D01*
X146797Y347866D01*
X146023Y349023D01*
X145918Y349094D01*
X145901Y349644D01*
X146078Y350514D01*
X146622Y350878D01*
X147120Y351622D01*
X147294Y352500D01*
Y356500D01*
X147251Y356717D01*
X148283Y357749D01*
X148500Y357706D01*
D02*
G37*
%LPC*%
G36*
X224550Y364500D02*
X211450D01*
Y363315D01*
X211306Y363192D01*
X210180Y362753D01*
X209366Y363297D01*
X208000Y363569D01*
X206634Y363297D01*
X205477Y362523D01*
X204703Y361366D01*
X204431Y360000D01*
X204703Y358634D01*
X205477Y357477D01*
X206634Y356703D01*
X208000Y356431D01*
X209366Y356703D01*
X210180Y357247D01*
X211306Y356808D01*
X211450Y356685D01*
Y355500D01*
X224550D01*
Y364500D01*
D02*
G37*
G36*
X132790Y203290D02*
X128770D01*
Y199270D01*
X132790D01*
Y203290D01*
D02*
G37*
G36*
X142790Y194290D02*
X138770D01*
Y190270D01*
X142790D01*
Y194290D01*
D02*
G37*
G36*
X223730Y205790D02*
X217710D01*
Y201770D01*
X223730D01*
Y205790D01*
D02*
G37*
G36*
Y199230D02*
X217710D01*
Y195210D01*
X223730D01*
Y199230D01*
D02*
G37*
G36*
X21000Y82569D02*
X19634Y82297D01*
X18477Y81523D01*
X17703Y80366D01*
X17431Y79000D01*
X17703Y77634D01*
X18477Y76477D01*
X19634Y75703D01*
X21000Y75431D01*
X22366Y75703D01*
X23523Y76477D01*
X24297Y77634D01*
X24569Y79000D01*
X24297Y80366D01*
X23523Y81523D01*
X22366Y82297D01*
X21000Y82569D01*
D02*
G37*
%LPD*%
D12*
X38000Y84500D02*
Y90500D01*
X36500Y83000D02*
X38000Y84500D01*
X24568Y83000D02*
X36500D01*
X21875Y85693D02*
X24568Y83000D01*
X19983Y85693D02*
X21875D01*
X16676Y89000D02*
X19983Y85693D01*
X16000Y89000D02*
X16676D01*
X96000Y228000D02*
Y256000D01*
X114000Y228000D02*
Y238000D01*
X172500Y333500D02*
Y341250D01*
D13*
X10000Y8000D02*
G03*
X18000Y0I8000J0D01*
G01*
Y600000D02*
G03*
X10000Y592000I0J-8000D01*
G01*
Y8000D02*
Y15000D01*
X18000Y-0D02*
X270000Y0D01*
X10000Y585000D02*
Y592000D01*
X18000Y600000D02*
X270000D01*
X-0Y585000D02*
X-0Y15000D01*
X0Y585000D02*
X10000D01*
X0Y15000D02*
X10000D01*
X270000Y0D02*
Y330000D01*
Y600000D01*
D21*
X80000Y85500D02*
D03*
Y76500D02*
D03*
X28000Y37500D02*
D03*
Y28500D02*
D03*
X58000Y37500D02*
D03*
Y28500D02*
D03*
X195000Y124500D02*
D03*
Y115500D02*
D03*
X185000Y84500D02*
D03*
Y75500D02*
D03*
X195000Y84500D02*
D03*
Y75500D02*
D03*
X205000Y43500D02*
D03*
Y52500D02*
D03*
X256000Y487500D02*
D03*
Y496500D02*
D03*
Y514500D02*
D03*
Y505500D02*
D03*
X16000Y442500D02*
D03*
Y451500D02*
D03*
X254000Y442500D02*
D03*
Y451500D02*
D03*
X42000Y195500D02*
D03*
Y204500D02*
D03*
X68000Y37500D02*
D03*
Y28500D02*
D03*
X78000Y37500D02*
D03*
Y28500D02*
D03*
X80000Y58000D02*
D03*
Y67000D02*
D03*
X70000Y58000D02*
D03*
Y67000D02*
D03*
X233000Y28500D02*
D03*
Y37500D02*
D03*
X107000Y368500D02*
D03*
Y359500D02*
D03*
X132000Y339500D02*
D03*
Y330500D02*
D03*
X145000Y339500D02*
D03*
Y330500D02*
D03*
X29000Y294500D02*
D03*
X29000Y303500D02*
D03*
Y312500D02*
D03*
X101000Y332500D02*
D03*
Y341500D02*
D03*
X19060Y53160D02*
D03*
Y62160D02*
D03*
X86000Y159500D02*
D03*
Y168500D02*
D03*
X97000Y529500D02*
D03*
Y520500D02*
D03*
X168000Y528500D02*
D03*
Y519500D02*
D03*
X177000Y528500D02*
D03*
Y519500D02*
D03*
X188000Y159500D02*
D03*
Y168500D02*
D03*
X237000Y168500D02*
D03*
Y159500D02*
D03*
X208000Y324500D02*
D03*
Y333500D02*
D03*
D23*
X70500Y86000D02*
D03*
X61500D02*
D03*
X161500Y108000D02*
D03*
X170500D02*
D03*
X194500Y43000D02*
D03*
X185500D02*
D03*
X214500Y35000D02*
D03*
X205500D02*
D03*
X214500Y26000D02*
D03*
X205500D02*
D03*
X149500Y405000D02*
D03*
X140500D02*
D03*
X175500Y371000D02*
D03*
X166500D02*
D03*
X245500Y365000D02*
D03*
X236500D02*
D03*
X249500Y414000D02*
D03*
X240500D02*
D03*
X49500Y312000D02*
D03*
X58500D02*
D03*
X78500D02*
D03*
X69500D02*
D03*
X128500Y189000D02*
D03*
X137500D02*
D03*
X108500Y188000D02*
D03*
X99500D02*
D03*
X118500Y198000D02*
D03*
X127500D02*
D03*
X239500Y231000D02*
D03*
X248500D02*
D03*
X239500Y241000D02*
D03*
X248500D02*
D03*
X248500Y218000D02*
D03*
X239500D02*
D03*
X28500Y48000D02*
D03*
X37500D02*
D03*
X56500D02*
D03*
X47500D02*
D03*
X21560Y103660D02*
D03*
X30560D02*
D03*
X40560D02*
D03*
X49560D02*
D03*
X251500Y28000D02*
D03*
X242500D02*
D03*
X242500Y39000D02*
D03*
X251500D02*
D03*
X251500Y97000D02*
D03*
X242500D02*
D03*
X98500Y314000D02*
D03*
X107500D02*
D03*
X156500Y272000D02*
D03*
X165500D02*
D03*
X167500Y218000D02*
D03*
X158500D02*
D03*
X165500Y282000D02*
D03*
X156500D02*
D03*
X156500Y292000D02*
D03*
X165500D02*
D03*
X167500Y238000D02*
D03*
X158500D02*
D03*
X158500Y228000D02*
D03*
X167500D02*
D03*
X236500Y149000D02*
D03*
X245500D02*
D03*
X234500Y138000D02*
D03*
X225500D02*
D03*
X186500Y280000D02*
D03*
X195500D02*
D03*
D24*
X44000Y396750D02*
D03*
Y387250D02*
D03*
X60000Y396750D02*
D03*
Y387250D02*
D03*
X162000Y350750D02*
D03*
Y341250D02*
D03*
X178000Y350750D02*
D03*
Y341250D02*
D03*
X89000Y188250D02*
D03*
Y197750D02*
D03*
X73000Y188250D02*
D03*
Y197750D02*
D03*
D25*
X49500Y387250D02*
D03*
Y396750D02*
D03*
X54500D02*
D03*
Y387250D02*
D03*
X167500Y341250D02*
D03*
Y350750D02*
D03*
X172500D02*
D03*
Y341250D02*
D03*
X83500Y197750D02*
D03*
Y188250D02*
D03*
X78500D02*
D03*
Y197750D02*
D03*
D26*
X225000Y184500D02*
D03*
Y200500D02*
D03*
D27*
X248000Y547000D02*
D03*
X212000D02*
D03*
D28*
X235000Y508250D02*
D03*
X225000D02*
D03*
D30*
X196000Y350500D02*
D03*
Y369500D02*
D03*
X218000Y360000D02*
D03*
X196000Y382500D02*
D03*
Y401500D02*
D03*
X218000Y392000D02*
D03*
X182000Y401500D02*
D03*
Y382500D02*
D03*
X160000Y392000D02*
D03*
X223200Y168579D02*
D03*
Y149579D02*
D03*
X201200D02*
D03*
Y159079D02*
D03*
X223200D02*
D03*
D31*
X201200Y168579D02*
D03*
D32*
X211000Y195000D02*
D03*
X189000D02*
D03*
D33*
X151000Y535000D02*
D03*
X143000D02*
D03*
X119000D02*
D03*
X127000D02*
D03*
X135000D02*
D03*
Y519000D02*
D03*
X127000D02*
D03*
X119000D02*
D03*
X143000D02*
D03*
X151000D02*
D03*
Y527000D02*
D03*
X119000D02*
D03*
D56*
X250000Y120000D02*
D03*
X130000Y570000D02*
D03*
D57*
X260000Y477500D02*
D03*
Y462500D02*
D03*
X10000Y477500D02*
D03*
Y462500D02*
D03*
X260000Y201750D02*
D03*
Y218250D02*
D03*
D59*
X11000Y564000D02*
Y567666D01*
Y549120D02*
X12000Y548121D01*
X11000Y549120D02*
Y550000D01*
X12000Y548000D02*
Y548121D01*
X42125Y117479D02*
X49560Y110044D01*
X38521Y117479D02*
X42125D01*
X38000Y118000D02*
X38521Y117479D01*
X65750Y138000D02*
X136536D01*
X50250Y122500D02*
X65750Y138000D01*
X45250Y122500D02*
X50250D01*
X37084Y140500D02*
X42250Y135334D01*
Y125500D02*
Y135334D01*
Y125500D02*
X45250Y122500D01*
X47000Y133000D02*
X52000D01*
X41000Y144000D02*
X44500Y140500D01*
X51500D01*
X52000Y133000D02*
X56000Y137000D01*
Y146000D01*
X55000Y147000D02*
X56000Y146000D01*
X38000Y50000D02*
X39000Y49000D01*
X144834Y308000D02*
Y308166D01*
X68000Y46000D02*
X71875Y42125D01*
X126875Y549125D02*
X152709D01*
X112000Y564000D02*
X126875Y549125D01*
X95000Y564000D02*
X112000D01*
X92250Y561250D02*
X95000Y564000D01*
X98625Y559625D02*
X110042D01*
X93750Y554750D02*
X98625Y559625D01*
X103000Y553000D02*
X105000D01*
X98000Y548000D02*
X103000Y553000D01*
X152709Y549125D02*
X159835Y541999D01*
X165000D01*
X151000Y535000D02*
Y545000D01*
X70834Y104000D02*
X80000D01*
X64709Y97875D02*
X70834Y104000D01*
X61291Y97875D02*
X64709D01*
X80000Y104000D02*
X85500Y98500D01*
X81000Y107000D02*
X88000Y100000D01*
X68000Y107000D02*
X81000D01*
X88000Y92536D02*
Y100000D01*
X85500Y89500D02*
Y98500D01*
X60167Y99000D02*
X61291Y97875D01*
X63000Y102000D02*
X68000Y107000D01*
X85500Y89500D02*
X90250Y84750D01*
X88000Y92536D02*
X89286Y91250D01*
X98000D01*
X57000Y99000D02*
X60167D01*
X90250Y84750D02*
X98000D01*
X54000Y90000D02*
X57000Y93000D01*
X54000Y74000D02*
Y90000D01*
X49560Y103660D02*
Y110044D01*
X38000Y128000D02*
Y131500D01*
X29250D02*
X38000D01*
X21560Y111560D02*
X38000Y128000D01*
X21560Y103660D02*
Y111560D01*
X28000Y132750D02*
X29250Y131500D01*
X32500Y140500D02*
X37084D01*
X54000Y74000D02*
X59000Y69000D01*
X87000Y81000D02*
X89750Y78250D01*
X98000D01*
X59000Y58000D02*
Y69000D01*
X36000Y43000D02*
X37500Y44500D01*
X17000Y43000D02*
X36000D01*
X15118Y41118D02*
X17000Y43000D01*
X11750Y41118D02*
X15118D01*
X37500Y44500D02*
Y48000D01*
X89625Y39375D02*
X97875D01*
X98000Y39250D01*
X86875Y42125D02*
X89625Y39375D01*
X71875Y42125D02*
X86875D01*
X79256Y45750D02*
X98000D01*
X78754Y46252D02*
X79256Y45750D01*
X50250Y41750D02*
X50563D01*
X47500Y44500D02*
X50250Y41750D01*
X47500Y44500D02*
Y48000D01*
X23500Y359750D02*
X27500Y359786D01*
X40250Y504028D02*
Y545750D01*
X31250Y554750D02*
X40250Y545750D01*
X22000Y554750D02*
X31250D01*
X30816Y567750D02*
X44000Y554566D01*
Y551166D02*
Y554566D01*
Y551166D02*
X45750Y549416D01*
Y501750D02*
Y549416D01*
X210500Y140500D02*
X215125Y135875D01*
X139036Y140500D02*
X210500D01*
X215125Y135875D02*
X218125D01*
X215042Y140000D02*
X218000D01*
X136536Y138000D02*
X139036Y140500D01*
X95000Y167000D02*
Y172000D01*
Y167000D02*
X98000Y164000D01*
X100000Y170000D02*
X101000Y169000D01*
X100000Y170000D02*
Y180000D01*
X101000Y169000D02*
X107000D01*
X98000Y164000D02*
X107000D01*
X158000Y403000D02*
X160000Y401000D01*
X234000Y20000D02*
X237000D01*
X233000Y21000D02*
X234000Y20000D01*
X233000Y21000D02*
Y28500D01*
X19060Y62160D02*
Y69060D01*
X22000Y72000D02*
X52000D01*
X19060Y62160D02*
X19220Y62000D01*
X28500D01*
Y48000D02*
Y62000D01*
X148000Y95000D02*
Y99000D01*
X157000Y108000D01*
X161500D01*
X201000Y118000D02*
X207000Y112000D01*
X201000Y118000D02*
Y122000D01*
X199000Y124000D02*
X201000Y122000D01*
X195500Y124000D02*
X199000D01*
X195000Y124500D02*
X195500Y124000D01*
X136000Y141000D02*
X149000Y154000D01*
X119000Y141000D02*
X136000D01*
X117500Y142500D02*
X119000Y141000D01*
X117500Y142500D02*
Y148500D01*
X212042Y143000D02*
X215042Y140000D01*
X187166Y143000D02*
X212042D01*
X181000Y149166D02*
X187166Y143000D01*
X218125Y135875D02*
X232500Y121500D01*
X11875Y76245D02*
X19060Y69060D01*
X11875Y76245D02*
Y90709D01*
X14666Y93500D01*
X17334D01*
X20125Y96291D01*
Y102225D01*
X21560Y103660D01*
X170000Y84750D02*
X184750D01*
X185000Y84500D01*
X195000D01*
X214500Y35000D02*
Y40500D01*
X211500Y43500D02*
X214500Y40500D01*
X205000Y43500D02*
X211500D01*
X204500Y43000D02*
X205000Y43500D01*
X194500Y43000D02*
X204500D01*
X214500Y18500D02*
Y26000D01*
Y35000D01*
X49000Y92000D02*
Y102220D01*
X47500Y90500D02*
X49000Y92000D01*
X89750Y65250D02*
X98000D01*
X88000Y67000D02*
X89750Y65250D01*
X64750Y52250D02*
X98000D01*
X59000Y58000D02*
X64750Y52250D01*
X19060Y69060D02*
X22000Y72000D01*
X52000D02*
X56500Y67500D01*
Y48000D02*
Y67500D01*
X30560Y103660D02*
X40560D01*
X9000Y54000D02*
X17900D01*
X18900Y53000D01*
X19060Y53160D01*
X241000Y37500D02*
X242500Y39000D01*
X233000Y37500D02*
X241000D01*
X233000D02*
Y44000D01*
X242500Y22500D02*
Y28000D01*
X240000Y20000D02*
X242500Y22500D01*
X237000Y20000D02*
X240000D01*
X232500Y65500D02*
X236000Y69000D01*
X232500Y54900D02*
Y65500D01*
X236000Y69000D02*
X248000D01*
X256000Y514500D02*
Y528000D01*
X251000Y482500D02*
X256000Y487500D01*
X242125Y439125D02*
Y459625D01*
X260000Y477500D01*
X254500Y495000D02*
X256000Y496500D01*
X247000Y495000D02*
X254500D01*
X247000Y505000D02*
X247500Y505500D01*
X256000D01*
X208000Y392000D02*
X218000D01*
X196500Y402000D02*
X208000D01*
X196000Y401500D02*
X196500Y402000D01*
X232000Y429000D02*
X242125Y439125D01*
X11625Y572625D02*
X13250Y574250D01*
X22000D01*
X11625Y568291D02*
Y572625D01*
X11000Y567666D02*
X11625Y568291D01*
X12000Y548000D02*
X21750D01*
X17875Y281125D02*
Y301875D01*
Y281125D02*
X24875Y274125D01*
X17875Y301875D02*
X19500Y303500D01*
X17875Y305125D02*
Y338375D01*
Y305125D02*
X19500Y303500D01*
X17875Y338375D02*
X19750Y340250D01*
X245500Y157500D02*
X249000Y161000D01*
X245500Y149000D02*
Y157500D01*
X247250Y201750D02*
X260000D01*
X231000Y218000D02*
X247250Y201750D01*
X234500Y138000D02*
X245000D01*
X244000Y166000D02*
X256000D01*
X241500Y168500D02*
X244000Y166000D01*
X237000Y168500D02*
X241500D01*
X232500Y81100D02*
Y121500D01*
X130875Y509875D02*
X135000Y514000D01*
X74125Y509875D02*
X130875D01*
X71000Y513000D02*
X74125Y509875D01*
X23375Y502002D02*
X25000Y503628D01*
X23375Y427541D02*
Y502002D01*
X25000Y503628D02*
Y508000D01*
X28375Y426994D02*
X33625Y421744D01*
X28375Y426994D02*
Y499931D01*
X34750Y506306D01*
X32000Y507092D02*
Y527000D01*
X25875Y500967D02*
X32000Y507092D01*
X10000Y484125D02*
X14875Y489000D01*
X10000Y478250D02*
Y484125D01*
X254000Y434000D02*
X257000Y431000D01*
X254000Y434000D02*
Y442500D01*
X259000Y452000D02*
X260000Y453000D01*
X254500Y452000D02*
X259000D01*
X254000Y451500D02*
X254500Y452000D01*
X260000Y453000D02*
Y461750D01*
X11500Y451500D02*
X16000D01*
X10000Y453000D02*
X11500Y451500D01*
X9500Y436000D02*
X16000Y442500D01*
X10000Y453000D02*
Y461750D01*
X12875Y430875D02*
X17000Y435000D01*
X12875Y279054D02*
Y430875D01*
X25875Y425959D02*
Y500967D01*
X30875Y439590D02*
Y498542D01*
Y439590D02*
X33375Y437090D01*
Y440625D02*
Y497153D01*
Y440625D02*
X35875Y438125D01*
Y432256D02*
Y438125D01*
X33375Y428375D02*
Y437090D01*
X25875Y425959D02*
X31125Y420709D01*
X17875Y422041D02*
X23375Y427541D01*
X35875Y442250D02*
Y495764D01*
Y442250D02*
X38375Y439750D01*
X33375Y428375D02*
X33500Y428250D01*
X35875Y432256D02*
X37625Y430506D01*
X38375Y433291D02*
Y439750D01*
Y433291D02*
X40125Y431541D01*
X183500Y528500D02*
X190000Y535000D01*
X177000Y528500D02*
X183500D01*
X28000Y132750D02*
Y152000D01*
X41125Y226125D02*
Y271875D01*
X37000Y222000D02*
X41125Y226125D01*
X181000Y149166D02*
Y167268D01*
X83500Y183750D02*
Y188250D01*
X79750Y180000D02*
X83500Y183750D01*
X69000Y180000D02*
X79750D01*
X78500Y185250D02*
Y188250D01*
X77375Y184125D02*
X78500Y185250D01*
X70473Y184125D02*
X77375D01*
X45499Y293500D02*
X51750D01*
X42000Y296999D02*
X45499Y293500D01*
X13250Y204250D02*
X27250D01*
X37000Y214000D01*
X158500Y228000D02*
X158500Y228000D01*
Y238000D01*
X58875Y144000D02*
Y150500D01*
Y144000D02*
X61000Y141875D01*
X90875D01*
X95000Y146000D01*
X55875Y153500D02*
X58875Y150500D01*
X51500Y153500D02*
X55875D01*
X51500Y147000D02*
X55000D01*
X28000Y152000D02*
X29500Y153500D01*
X32500D01*
X48500Y195500D02*
X60000Y184000D01*
Y172000D02*
Y184000D01*
X42000Y195500D02*
X48500D01*
X137000Y198000D02*
X137500Y197500D01*
X23750Y373000D02*
X40000D01*
X47000Y380500D02*
X49500Y383000D01*
X44000Y383125D02*
X46813Y380312D01*
X29000Y91000D02*
Y98000D01*
X28500Y90500D02*
X29000Y91000D01*
Y98000D02*
X30000Y99000D01*
Y103100D01*
X30560Y103660D01*
X28500Y48000D02*
X28500Y48000D01*
X47500D02*
Y62000D01*
X38000Y50000D02*
Y62000D01*
Y48000D02*
X39000Y49000D01*
X37500Y48000D02*
X38000D01*
X174000Y272000D02*
Y276000D01*
Y272000D02*
X174000Y272000D01*
X173000Y277000D02*
X174000Y276000D01*
X151000Y277000D02*
X173000D01*
X147500Y273500D02*
X151000Y277000D01*
X140250Y273500D02*
X147500D01*
X96000Y256000D02*
X114000Y238000D01*
X156000Y405000D02*
X158000Y403000D01*
X63500Y211750D02*
Y221250D01*
X242500Y97000D02*
Y106500D01*
X242000Y96500D02*
X242500Y97000D01*
X242000Y81100D02*
Y96500D01*
X251500Y97000D02*
X251500Y97000D01*
Y81100D02*
Y97000D01*
X242000Y54900D02*
X242500Y54400D01*
Y39000D02*
Y54400D01*
X251500Y54900D02*
X251500Y54900D01*
X251500Y39000D02*
Y54900D01*
X251500Y39000D02*
X251500Y39000D01*
X251500Y28000D02*
Y39000D01*
X231000Y226500D02*
X239500Y218000D01*
X182083Y243917D02*
X191500D01*
X196083D01*
X238125Y201875D01*
Y189241D02*
Y201875D01*
X233384Y184500D02*
X238125Y189241D01*
X225000Y184500D02*
X233384D01*
X224279Y148500D02*
X225500Y147279D01*
X223200Y149579D02*
X224279Y148500D01*
X225500Y137000D02*
Y147279D01*
X224279Y148500D02*
X237000D01*
Y159500D01*
X182232Y168500D02*
X188000D01*
X181000Y167268D02*
X182232Y168500D01*
X173000Y193120D02*
Y194000D01*
Y193120D02*
X174500Y191620D01*
Y164197D02*
Y191620D01*
X169875Y159572D02*
X174500Y164197D01*
X165822Y159572D02*
X169875D01*
X165750Y159500D02*
X165822Y159572D01*
X165291Y250125D02*
X172244D01*
X164166Y249000D02*
X165291Y250125D01*
X157000Y249000D02*
X164166D01*
X177125Y163214D02*
Y203589D01*
X170285Y156375D02*
X177125Y163214D01*
X172000Y165232D02*
Y180000D01*
X171268Y164500D02*
X172000Y165232D01*
X165750Y164500D02*
X171268D01*
X168000Y184000D02*
X172000Y180000D01*
X201200Y149579D02*
X209579D01*
X212000Y152000D01*
Y166000D01*
X214579Y168579D01*
X223200D01*
X179000Y247000D02*
X182083Y243917D01*
X133000Y154000D02*
X144000D01*
X145000Y162000D02*
Y173000D01*
X142000Y159000D02*
X145000Y162000D01*
X133000Y159000D02*
X142000D01*
X142500Y165232D02*
Y178500D01*
X141268Y164000D02*
X142500Y165232D01*
X133000Y164000D02*
X141268D01*
X127500Y148500D02*
X130000Y146000D01*
X122500Y148500D02*
X127500D01*
X76000Y154000D02*
X107000D01*
X74000Y156000D02*
X76000Y154000D01*
X144000D02*
X149500Y159500D01*
X156250D01*
X74000Y170000D02*
X89000Y185000D01*
Y188250D01*
X88535Y181000D02*
X94000D01*
X78000Y170464D02*
X88535Y181000D01*
X86000Y172000D02*
X90000Y176000D01*
X78000Y162875D02*
Y170464D01*
X177125Y203589D02*
X181500Y207964D01*
Y211964D01*
X188625Y219090D01*
Y233744D01*
X179000Y213000D02*
X186125Y220125D01*
X179000Y209000D02*
Y213000D01*
X168000Y198000D02*
X179000Y209000D01*
X186125Y220125D02*
Y232709D01*
X173500Y222000D02*
X182000D01*
X167500Y228000D02*
X173500Y222000D01*
X33929Y258000D02*
X37000D01*
X12875Y279054D02*
X33929Y258000D01*
X25464Y270000D02*
X37000D01*
X15375Y280090D02*
X25464Y270000D01*
X15375Y280090D02*
Y425375D01*
X38875Y274125D02*
X41125Y271875D01*
X24875Y274125D02*
X38875D01*
X42000Y204500D02*
Y215000D01*
X45500Y218500D01*
X248500Y218000D02*
X248750Y218250D01*
X260000D01*
X140875Y312125D02*
X144834Y308166D01*
X131589Y312125D02*
X140875D01*
X127616Y308152D02*
X131589Y312125D01*
X127616Y307366D02*
Y308152D01*
X123500Y303250D02*
X127616Y307366D01*
X123500Y300250D02*
Y303250D01*
X130116Y307116D02*
X131000Y308000D01*
X130116Y305204D02*
Y307116D01*
X128500Y303588D02*
X130116Y305204D01*
X128500Y300250D02*
Y303588D01*
X79500Y285000D02*
X83500Y289000D01*
X71750Y280250D02*
X120500D01*
X177000Y321000D02*
X196000D01*
X157500Y301500D02*
X177000Y321000D01*
X150964Y301500D02*
X157500D01*
X148000Y298536D02*
X150964Y301500D01*
X148000Y291000D02*
Y298536D01*
X149884Y319116D02*
X158500Y310500D01*
X94116Y319116D02*
X149884D01*
X93000Y318000D02*
X94116Y319116D01*
X93000Y311000D02*
Y318000D01*
Y311000D02*
X98261Y305739D01*
Y300489D02*
Y305739D01*
Y300489D02*
X98500Y300250D01*
X113000Y322000D02*
X119000Y328000D01*
X91000Y322000D02*
X113000D01*
X89000Y320000D02*
X91000Y322000D01*
X93500Y300250D02*
Y305500D01*
X87000Y312000D02*
X93500Y305500D01*
X78500Y312000D02*
X87000D01*
X172834Y246000D02*
X186125Y232709D01*
X172244Y250125D02*
X188625Y233744D01*
X168625Y156375D02*
X170285D01*
X168000Y184000D02*
Y198000D01*
X167500Y218000D02*
X174500Y211000D01*
X179000Y247000D02*
Y253000D01*
X180625Y254625D01*
X184625D01*
X185500Y255500D01*
X176000Y259000D02*
X176982Y258018D01*
X176000Y256000D02*
X176982Y256982D01*
Y258018D01*
X167000Y246000D02*
X172834D01*
X117500Y179500D02*
Y185500D01*
Y177500D02*
Y179500D01*
X167500Y238000D02*
X175000D01*
X158500D02*
Y241500D01*
X146500Y253500D02*
X158500Y241500D01*
X140250Y253500D02*
X146500D01*
X152352Y224148D02*
Y225000D01*
Y224148D02*
X158500Y218000D01*
X148852Y228500D02*
X152352Y225000D01*
X148418Y222582D02*
Y223100D01*
X148018Y223500D02*
X148418Y223100D01*
X140250Y223500D02*
X148018D01*
X148000Y211000D02*
Y215000D01*
X144500Y218500D02*
X148000Y215000D01*
X166250Y154000D02*
X168625Y156375D01*
X165750Y154000D02*
X166250D01*
X52250Y229000D02*
X66000D01*
X51750Y228500D02*
X52250Y229000D01*
X72000Y335000D02*
X76746Y339746D01*
X85996D01*
X86500Y340250D01*
X39121Y335000D02*
X40000D01*
X37871Y333750D02*
X39121Y335000D01*
X27500Y333750D02*
X37871D01*
X76500Y290750D02*
X78500Y292750D01*
X70000Y290000D02*
Y290084D01*
X69000Y283000D02*
X71750Y280250D01*
X62000Y283000D02*
X69000D01*
X63500Y290500D02*
Y300250D01*
X42250Y288500D02*
X51750D01*
X159500Y365500D02*
X176500D01*
X164375Y358000D02*
X167500Y354875D01*
X176500Y365500D02*
X181000Y361000D01*
X157000Y356000D02*
X160000D01*
X158000Y363000D02*
X168000D01*
X156000Y365000D02*
X158000Y363000D01*
X156000Y365000D02*
Y381000D01*
X158500Y366500D02*
X159500Y365500D01*
X158500Y366500D02*
Y382298D01*
X44875Y346875D02*
X45000Y347000D01*
X77750Y333750D02*
X86500D01*
X72000Y328000D02*
X77750Y333750D01*
X120000Y346000D02*
X125000Y351000D01*
Y354500D01*
X33625Y413470D02*
X44095Y403000D01*
X49000D01*
X54875Y359875D02*
X55000Y360000D01*
X51875Y408375D02*
X54500Y405750D01*
Y396750D02*
Y405750D01*
X59750Y409000D02*
X60000D01*
X60000Y409000D01*
X27588Y359875D02*
X54875D01*
X27500Y359786D02*
X27588Y359875D01*
X49000Y403000D02*
X49500Y402500D01*
X45500Y218500D02*
X51750D01*
X57875Y410875D02*
X59750Y409000D01*
X43291Y410875D02*
X57875D01*
X60000Y396750D02*
Y409000D01*
X38375Y445625D02*
X40188Y443812D01*
X33625Y413470D02*
Y421744D01*
X42256Y408375D02*
X51875D01*
X37625Y413006D02*
X42256Y408375D01*
X37625Y413006D02*
Y430506D01*
X40125Y414041D02*
X43291Y410875D01*
X40125Y414041D02*
Y431541D01*
X31125Y401875D02*
X36000Y397000D01*
X31125Y401875D02*
Y420709D01*
X36333Y397333D02*
X43417D01*
X36000Y397000D02*
X36333Y397333D01*
X38750Y327250D02*
X40000Y326000D01*
X27500Y327250D02*
X38750D01*
X49875Y353125D02*
X50000Y353000D01*
X27625Y353125D02*
X49875D01*
X27500Y353250D02*
X27625Y353125D01*
X27625Y346875D02*
X44875D01*
X27500Y346750D02*
X27625Y346875D01*
X29000Y285000D02*
X32875Y281125D01*
X36875D01*
X37000Y281000D01*
X29000Y285000D02*
Y294500D01*
X29500Y312000D02*
X41000D01*
X29000Y312500D02*
X29500Y312000D01*
X19500Y303500D02*
X29000D01*
X25000Y508000D02*
Y515000D01*
X64000Y199000D02*
X68500Y203500D01*
Y211750D01*
X66000Y188598D02*
X70473Y184125D01*
X66000Y188598D02*
Y189000D01*
X156250Y176250D02*
X159000Y179000D01*
X120000Y190500D02*
X122500Y188000D01*
X120000Y190500D02*
Y191000D01*
X166000Y170250D02*
Y177000D01*
X165750Y170000D02*
X166000Y170250D01*
X156250Y170000D02*
Y176250D01*
X139000Y169000D02*
X140000Y170000D01*
X133000Y169000D02*
X139000D01*
X148709Y183125D02*
X153125Y178709D01*
X140000Y170000D02*
Y176166D01*
X145000Y173000D02*
X149000Y177000D01*
X138875Y177291D02*
X140000Y176166D01*
X138875Y177291D02*
Y180708D01*
X141291Y183125D01*
X148709D01*
X142500Y178500D02*
X143000Y179000D01*
X153125Y175291D02*
Y178709D01*
X150000Y172166D02*
X153125Y175291D01*
X150000Y166625D02*
Y172166D01*
Y166625D02*
X152125Y164500D01*
X156250D01*
X86000Y168500D02*
Y172000D01*
X133000Y174000D02*
Y181000D01*
X149000Y154000D02*
X156250D01*
X74000Y156000D02*
Y170000D01*
X78000Y162875D02*
X81375Y159500D01*
X107000Y174000D02*
Y180000D01*
X81375Y159500D02*
X86000D01*
X86500Y159000D01*
X107000D01*
X93500Y211750D02*
Y221250D01*
X127500Y198000D02*
X137000D01*
X137500Y189000D02*
Y197500D01*
X122500Y179500D02*
Y188000D01*
Y177500D02*
Y179500D01*
X122500Y188000D02*
X127500D01*
X99500D02*
Y197500D01*
X109000Y188500D02*
Y198000D01*
X108500Y188000D02*
X109000Y188500D01*
X108500Y188000D02*
X115000D01*
X117500Y185500D01*
X73500Y293584D02*
Y300250D01*
X70000Y290084D02*
X73500Y293584D01*
X58500Y286500D02*
Y300250D01*
Y286500D02*
X62000Y283000D01*
X71750Y240250D02*
Y280250D01*
X83500Y289000D02*
Y300250D01*
X78500Y292750D02*
Y300250D01*
X61835Y265835D02*
Y269000D01*
X59500Y263500D02*
X61835Y265835D01*
X51750Y263500D02*
X59500D01*
X52000Y258500D02*
X66000D01*
X63875Y248500D02*
X66875Y245500D01*
X51875Y248500D02*
X63875D01*
X70000Y238500D02*
X71750Y240250D01*
X51750Y238500D02*
X70000D01*
X51750Y253500D02*
X61000D01*
X51750Y243500D02*
X61000D01*
X107500Y314000D02*
X115000D01*
X116000Y313000D01*
Y310000D02*
Y313000D01*
X100625Y309250D02*
X103500Y306375D01*
X100625Y309250D02*
Y311875D01*
X98500Y314000D02*
X100625Y311875D01*
X103500Y300250D02*
Y306375D01*
X108000Y334875D02*
Y343000D01*
X118500Y305902D02*
X127223Y314625D01*
X118500Y300250D02*
Y305902D01*
X147834Y311000D02*
X151000D01*
X144209Y314625D02*
X147834Y311000D01*
X127223Y314625D02*
X144209D01*
X144000Y329500D02*
X145000Y330500D01*
X138500Y329500D02*
X144000D01*
X132000Y330500D02*
X133000Y329500D01*
X138500D01*
X51500Y253500D02*
X51750D01*
X51500Y258500D02*
X51750D01*
X131000Y308000D02*
X139000D01*
X140250Y293500D02*
Y299750D01*
X152000Y299000D02*
X168000D01*
X151000Y298000D02*
X152000Y299000D01*
X151000Y288000D02*
Y298000D01*
X144834Y308000D02*
X145000D01*
X137000Y346000D02*
Y354500D01*
X133000Y348000D02*
Y354500D01*
X132000Y347000D02*
X133000Y348000D01*
X132000Y339500D02*
Y347000D01*
X78500Y312000D02*
Y320500D01*
X51500Y263500D02*
X51750D01*
X105625Y332500D02*
X108000Y334875D01*
X101000Y332500D02*
X105625D01*
X101000Y329000D02*
Y332500D01*
X99250Y327250D02*
X101000Y329000D01*
X86500Y327250D02*
X99250D01*
X100250Y346750D02*
X101000Y347500D01*
Y351000D01*
X86500Y346750D02*
X100250D01*
X100982Y346018D01*
X51500Y248500D02*
X51750D01*
X140250Y228500D02*
X148852D01*
X127000Y219500D02*
Y223000D01*
Y219500D02*
X128500Y218000D01*
Y211750D02*
Y218000D01*
X140250Y218500D02*
X144500D01*
X149250Y237250D02*
Y240750D01*
X145500Y233500D02*
X149250Y237250D01*
X140250Y233500D02*
X145500D01*
X146500Y243500D02*
X149250Y240750D01*
X100982Y341518D02*
Y346018D01*
Y341518D02*
X101000Y341500D01*
X86500Y327250D02*
X86750Y327000D01*
X182000Y375000D02*
Y382500D01*
Y374000D02*
Y375000D01*
X168000Y363000D02*
X172500Y358500D01*
X182000Y382500D02*
X182000Y382500D01*
X179000Y371000D02*
X182000Y374000D01*
X175500Y371000D02*
X179000D01*
X164621Y331000D02*
X165743D01*
X163500D02*
X164621D01*
X130000Y405000D02*
X140500D01*
X149500D02*
X156000D01*
X160000Y392000D02*
Y401000D01*
X208000Y360000D02*
X218000D01*
X160000Y356000D02*
X161125Y354875D01*
Y351625D02*
Y354875D01*
Y351625D02*
X162000Y350750D01*
X167500D02*
Y354875D01*
X148798Y392000D02*
X158500Y382298D01*
X143000Y392000D02*
X148798D01*
X141000Y390000D02*
X143000Y392000D01*
X141000Y385500D02*
Y390000D01*
X152000Y385000D02*
X156000Y381000D01*
X145346Y385000D02*
X152000D01*
X195268Y361000D02*
X196000Y361732D01*
Y369500D01*
X181000Y361000D02*
X195268D01*
X178000Y358000D02*
X181000Y361000D01*
X178000Y350750D02*
Y358000D01*
X145000Y385346D02*
X145346Y385000D01*
X145000Y385346D02*
Y385500D01*
X172500Y350750D02*
Y358500D01*
X134000Y395000D02*
X137000Y392000D01*
Y385500D02*
Y392000D01*
X108000Y380000D02*
X119500D01*
X125000Y395000D02*
X129000Y391000D01*
Y385500D02*
Y391000D01*
X99500Y368500D02*
X107000D01*
X114000Y360000D02*
X119500D01*
X141000Y349000D02*
X142000Y348000D01*
X141000Y349000D02*
Y354500D01*
X127000Y346000D02*
X129000Y348000D01*
Y354500D01*
X167500Y332757D02*
Y341250D01*
X165743Y331000D02*
X167500Y332757D01*
X162000Y332500D02*
Y341250D01*
Y332500D02*
X163500Y331000D01*
X211500Y299035D02*
X213000Y300536D01*
X211500Y295500D02*
Y299035D01*
X209875Y293875D02*
X211500Y295500D01*
X209875Y290291D02*
Y293875D01*
X196000Y321000D02*
X198750Y318250D01*
Y311250D02*
Y318250D01*
X199500Y324500D02*
X208000D01*
X196000Y321000D02*
X199500Y324500D01*
X240500Y401500D02*
X241000Y401000D01*
X58500Y203000D02*
Y211750D01*
X58500Y211750D02*
X58500Y211750D01*
X59875Y366125D02*
X60000Y366000D01*
X27625Y366125D02*
X59875D01*
X27500Y366250D02*
X27625Y366125D01*
X69500Y312000D02*
Y320500D01*
X68500Y306500D02*
X69250Y307250D01*
Y311750D01*
X69500Y312000D01*
X68500Y300250D02*
Y306500D01*
X120500Y280250D02*
X133500Y293250D01*
Y300250D01*
X120500Y240250D02*
Y280250D01*
Y240250D02*
X122250Y238500D01*
X140250D01*
X15375Y425375D02*
X18250Y428250D01*
X17875Y342125D02*
Y422041D01*
Y342125D02*
X19750Y340250D01*
X23500D01*
Y372750D02*
X23750Y373000D01*
X38375Y445625D02*
Y494375D01*
X30875Y498542D02*
X37500Y505167D01*
X33375Y497153D02*
X40250Y504028D01*
X35875Y495764D02*
X43000Y502889D01*
X38375Y494375D02*
X45750Y501750D01*
X81000Y567750D02*
X92750D01*
X81000Y561250D02*
X92250D01*
X81000Y554750D02*
X93750D01*
X81250Y548000D02*
X98000D01*
X97000Y533000D02*
X102000Y538000D01*
X97000Y529500D02*
Y533000D01*
X81000Y522250D02*
X81250Y522000D01*
X90000D01*
X91500Y520500D01*
X97000D01*
X104500D01*
X107000Y523000D01*
Y535000D01*
X119000Y547000D01*
X81125Y515625D02*
X105625D01*
X81000Y515750D02*
X81125Y515625D01*
X73236Y506875D02*
X136875D01*
X22000Y567750D02*
X30816D01*
X30506Y561125D02*
X43000Y548631D01*
X22125Y561125D02*
X30506D01*
X43000Y502889D02*
Y548631D01*
X119000Y223000D02*
X120000D01*
X123500Y219500D01*
Y211750D02*
Y219500D01*
X130000Y230000D02*
X133500Y226500D01*
Y211750D02*
Y226500D01*
X109000Y198000D02*
X118500D01*
X118500Y198000D02*
X118500Y198000D01*
X118500Y198000D02*
Y211750D01*
X78500Y197750D02*
Y211750D01*
X78500Y211750D02*
X78500Y211750D01*
X83500Y197750D02*
Y211750D01*
X83500Y211750D02*
X83500Y211750D01*
X88739Y198011D02*
X89000Y197750D01*
X88739Y198011D02*
Y211511D01*
X88500Y211750D02*
X88739Y211511D01*
X23250Y353000D02*
X23375Y353125D01*
X43417Y397333D02*
X44000Y396750D01*
X49500D02*
Y402500D01*
X23500Y366250D02*
X23750Y366000D01*
X53125Y381750D02*
X54500Y383125D01*
X55625Y382000D02*
X59000D01*
X50750Y381750D02*
X53125D01*
X54500Y383125D02*
X55625Y382000D01*
X44000Y383125D02*
Y387250D01*
X59000Y382000D02*
X60000Y383000D01*
X49500D02*
Y387250D01*
Y383000D02*
X50750Y381750D01*
X54500Y383125D02*
Y387250D01*
X60000Y383000D02*
Y387250D01*
X37500Y505167D02*
Y534500D01*
X22250Y529000D02*
X30000D01*
X32000Y527000D01*
X22000Y528750D02*
X22250Y529000D01*
X156500Y282000D02*
X156500Y282000D01*
X156500Y282000D02*
Y292000D01*
X165500Y272000D02*
X174000D01*
X165500Y282000D02*
X174000D01*
X165500Y292000D02*
X174000D01*
X179000Y297000D02*
X181000Y295000D01*
X168000Y299000D02*
X170000Y297000D01*
X179000D01*
X146500Y283500D02*
X151000Y288000D01*
X145500Y288500D02*
X148000Y291000D01*
X140250Y288500D02*
X145500D01*
X151000Y282000D02*
X156500D01*
X167000Y262000D02*
X181000D01*
X167500Y264500D02*
X180750D01*
X165464D02*
X167500D01*
X166500Y259732D02*
X167232Y259000D01*
X176000D01*
X166500Y261500D02*
X167000Y262000D01*
X166500Y259732D02*
Y261500D01*
X163000Y256000D02*
X176000D01*
X181625Y261375D02*
X186625D01*
X181000Y262000D02*
X181625Y261375D01*
X181250Y265000D02*
X185000D01*
X180750Y264500D02*
X181250Y265000D01*
X185000D02*
X185500Y265500D01*
X164964Y264000D02*
X165464Y264500D01*
X186625Y261375D02*
X187500Y260500D01*
X162000Y264000D02*
X164964D01*
X157000Y262000D02*
X163000Y256000D01*
X148562Y262000D02*
X157000D01*
X153000Y256999D02*
X156000D01*
X151500Y258500D02*
X153000Y256999D01*
X140250Y258500D02*
X151500D01*
X151000Y272000D02*
X156500D01*
X147500Y268500D02*
X151000Y272000D01*
X206000Y273000D02*
X208000Y271000D01*
X210500Y263500D02*
Y288000D01*
X207500Y260500D02*
X210500Y263500D01*
X200500Y260500D02*
X207500D01*
X140250Y268500D02*
X147500D01*
X147500Y278500D02*
X151000Y282000D01*
X140250Y278500D02*
X147500D01*
X140250Y283500D02*
X146500D01*
X209875Y290291D02*
X210500Y289666D01*
Y288000D02*
Y289666D01*
Y288000D02*
X210500Y288000D01*
X214000Y298000D02*
X216000Y300000D01*
X225250D01*
X214000Y292000D02*
Y298000D01*
X213000Y300536D02*
Y305000D01*
X214500Y306500D01*
X225250D01*
X202750Y255750D02*
X211750D01*
X202500Y255500D02*
X202750Y255750D01*
X231000Y241000D02*
X239500D01*
X208000Y267000D02*
Y271000D01*
X207000Y266000D02*
X208000Y267000D01*
X200500Y266000D02*
X207000D01*
X41000Y312000D02*
X49500D01*
X58500Y300250D02*
Y312000D01*
X58500Y312000D01*
X103500Y300250D02*
X103739Y300489D01*
X208000Y333500D02*
Y342000D01*
X174000Y311250D02*
X183250D01*
X204000Y280000D02*
X206000Y282000D01*
Y292000D01*
X205250Y292750D02*
X206000Y292000D01*
X198750Y292750D02*
X205250D01*
X195500Y280000D02*
X204000D01*
X195500Y314500D02*
X198750Y311250D01*
X183250Y292750D02*
X186500Y289500D01*
Y280000D02*
Y289500D01*
X183000Y293000D02*
X183250Y292750D01*
X239500Y241000D02*
X239500Y241000D01*
Y231000D02*
Y241000D01*
X192800Y250500D02*
X194000Y251700D01*
X185500Y250500D02*
X192800D01*
X194000Y251700D02*
X195200Y250500D01*
X202500D01*
Y255500D01*
X147063Y263500D02*
X148562Y262000D01*
X140250Y263500D02*
X147063D01*
X148000Y245000D02*
Y247000D01*
X146500Y248500D02*
X148000Y247000D01*
X140250Y248500D02*
X146500D01*
Y243500D02*
X148000Y245000D01*
X140250Y243500D02*
X146500D01*
X135000Y535000D02*
Y545000D01*
X119000Y527000D02*
X125000D01*
X127000Y529000D01*
Y535000D01*
X12000Y513000D02*
X15000Y510000D01*
X162000Y519500D02*
X168000D01*
X159250Y522250D02*
X162000Y519500D01*
X159250Y522250D02*
Y532750D01*
X156000Y519000D02*
X159250Y522250D01*
X151000Y519000D02*
X156000D01*
X118000Y514000D02*
X119000Y515000D01*
X112000Y514000D02*
X118000D01*
X119000Y515000D02*
Y519000D01*
X119000Y519000D01*
X136875Y506875D02*
X143000Y513000D01*
X68250Y511861D02*
X73236Y506875D01*
X105625Y515625D02*
X112000Y522000D01*
X81000Y548250D02*
X81250Y548000D01*
X68250Y511861D02*
Y531250D01*
X71000Y513000D02*
Y527000D01*
X30872Y541128D02*
X37500Y534500D01*
X22125Y535125D02*
X30875D01*
X34750Y531250D01*
Y506306D02*
Y531250D01*
X22000Y535250D02*
X22125Y535125D01*
X22622Y541128D02*
X30872D01*
X22000Y561250D02*
X22125Y561125D01*
X22000Y541750D02*
X22622Y541128D01*
X21750Y548000D02*
X22000Y548250D01*
X12000Y513000D02*
Y521125D01*
X13125Y522250D01*
X22000D01*
X69250Y574250D02*
X81000D01*
X168000Y528500D02*
X177000D01*
X65500Y536500D02*
X70750Y541750D01*
X81000D01*
X68250Y531250D02*
X72685Y535685D01*
X80565D01*
X71000Y527000D02*
X72750Y528750D01*
X81000D01*
X143000Y513000D02*
Y519000D01*
X135000Y514000D02*
Y519000D01*
X112000Y522000D02*
Y533000D01*
X81000Y515750D02*
X81250Y516000D01*
X80565Y535685D02*
X81000Y535250D01*
X112000Y533000D02*
X114000Y535000D01*
X119000D01*
X157000D02*
X159250Y532750D01*
X151000Y535000D02*
X157000D01*
X145000Y527000D02*
X151000D01*
X143000Y529000D02*
X145000Y527000D01*
X143000Y529000D02*
Y535000D01*
X168000Y519500D02*
X177000D01*
X127000Y535000D02*
X135000D01*
X143000D01*
D62*
X238000Y523000D02*
X244000D01*
X235000Y520000D02*
X238000Y523000D01*
X235000Y508250D02*
Y520000D01*
X247000Y505000D02*
Y520000D01*
X244000Y523000D02*
X247000Y520000D01*
X217000Y520000D02*
X221485D01*
X225000Y516485D01*
Y508250D02*
Y516485D01*
X244000Y485764D02*
X247000Y488764D01*
Y495000D01*
X244000Y485000D02*
Y485764D01*
X239000Y485000D02*
X244000D01*
X215000Y218000D02*
X223250Y209750D01*
Y200750D02*
Y209750D01*
X195000Y210500D02*
Y216000D01*
X189000Y204500D02*
X195000Y210500D01*
X189000Y195000D02*
Y204500D01*
X203500Y168579D02*
Y178000D01*
X211000Y185500D02*
Y195000D01*
X203500Y178000D02*
X211000Y185500D01*
X201200Y168579D02*
X203500D01*
D63*
X175000Y26250D02*
Y32750D01*
X176000Y97750D02*
Y102500D01*
X176000Y91250D02*
Y97750D01*
X184750D01*
X176000D02*
X176000D01*
X170000D02*
X176000D01*
X170500Y108000D02*
X176000Y102500D01*
X189000Y106000D02*
X192000D01*
X174000Y121000D02*
X189000Y106000D01*
X175000Y65250D02*
Y71750D01*
Y52250D02*
Y58750D01*
X170000Y91250D02*
X175907D01*
X98000Y97750D02*
X110000D01*
X145000Y45000D02*
Y55000D01*
Y45000D02*
X147500Y42500D01*
X155500D01*
X158750Y39250D02*
X170000D01*
X155500Y42500D02*
X158750Y39250D01*
X155500Y42500D02*
X158750Y45750D01*
X170000D01*
X192000Y106000D02*
X195000Y103000D01*
X192000Y106000D02*
X195000Y109000D01*
Y115500D01*
X192000Y106000D02*
Y106000D01*
X195000Y98000D02*
Y103000D01*
Y98000D02*
X195000Y98000D01*
X201000Y66000D02*
X206000Y61000D01*
X195000Y66000D02*
X201000D01*
X184750Y97750D02*
X185000Y98000D01*
X195000Y66000D02*
X195000Y66000D01*
X195000Y66000D02*
Y75500D01*
X185000Y66000D02*
Y75500D01*
X160750Y78250D02*
X170000D01*
X156500Y82500D02*
X160750Y78250D01*
X156500Y82500D02*
X158750Y84750D01*
X184250Y65250D02*
X185000Y66000D01*
X170000Y65250D02*
X184250D01*
X215904Y52904D02*
X216000Y53000D01*
X205404Y52904D02*
X215904D01*
X205000Y52500D02*
X205404Y52904D01*
X195000Y52000D02*
X195250Y52250D01*
X204750D01*
X205000Y52500D01*
X185000Y52000D02*
X185250Y51750D01*
Y43250D02*
Y51750D01*
Y43250D02*
X185500Y43000D01*
X184750Y52250D02*
X185000Y52000D01*
X170000Y52250D02*
X184750D01*
X195000Y17000D02*
Y26000D01*
X195000Y26000D01*
X185000Y33000D02*
X187000Y35000D01*
X185000Y26000D02*
Y33000D01*
X187000Y35000D02*
X205500D01*
X195000Y26000D02*
X205500D01*
X184750Y26250D02*
X185000Y26000D01*
X170000Y26250D02*
X184750D01*
X158750Y84750D02*
X170000D01*
X223000Y177000D02*
X223096Y176904D01*
Y168683D02*
Y176904D01*
Y168683D02*
X223200Y168579D01*
X223000Y177000D02*
X223096Y177096D01*
Y183750D01*
X223846Y184500D01*
X225000D01*
D64*
X87000Y58000D02*
X87406D01*
X87965Y58559D01*
X97809D01*
X98000Y58750D01*
X80000Y58000D02*
X87000D01*
X70000D02*
X80000D01*
X79750Y85750D02*
X80000Y85500D01*
X70750Y85750D02*
X79750D01*
X70500Y86000D02*
X70750Y85750D01*
X80000Y85500D02*
Y92000D01*
X84000Y38000D02*
X86000Y36000D01*
X79250Y38000D02*
X84000D01*
X78500Y37250D02*
X79250Y38000D01*
X78500Y37000D02*
Y37250D01*
X78000Y37500D02*
X78500Y37000D01*
X53500Y37500D02*
X58000D01*
X51000Y35000D02*
X53500Y37500D01*
X68000D02*
X78000D01*
X254000Y363000D02*
X261000D01*
X250500Y366500D02*
X254000Y363000D01*
X188000Y148000D02*
Y159500D01*
X249000Y365000D02*
X250500Y366500D01*
X188000Y159500D02*
X188211Y159290D01*
X200989D01*
X201200Y159079D01*
X188500Y194500D02*
X189000Y195000D01*
X188500Y169000D02*
Y194500D01*
X188000Y168500D02*
X188500Y169000D01*
X142000Y348000D02*
X143500Y346500D01*
X145000Y345000D01*
Y339500D02*
Y345000D01*
X218000Y406000D02*
X226000D01*
X234000Y414000D01*
X240500D01*
X166500Y383500D02*
X175000Y392000D01*
X166500Y371000D02*
Y383500D01*
X175000Y392000D02*
X179485D01*
X182243Y394757D01*
X107500Y360000D02*
X114000D01*
X107000Y359500D02*
X107500Y360000D01*
X107000Y352000D02*
Y359500D01*
X145000Y339500D02*
X145500Y339000D01*
X151000D01*
X154000Y336000D01*
Y332000D02*
Y336000D01*
Y332000D02*
X160000Y326000D01*
X168000D01*
X174000Y332000D01*
X176243D01*
X172500Y333500D02*
X174000Y332000D01*
X176243D02*
X178000Y333757D01*
Y341250D01*
Y333757D02*
X179757Y332000D01*
X190000D01*
X196000Y338000D01*
Y350500D01*
X185000Y392000D02*
X193000D01*
X182243Y394757D02*
X185000Y392000D01*
X182243Y394757D02*
Y401257D01*
X182000Y401500D02*
X182243Y401257D01*
X193000Y392000D02*
X196000Y389000D01*
Y382500D02*
Y389000D01*
Y382500D02*
X196000Y382500D01*
X229000Y352257D02*
Y357500D01*
X227243Y350500D02*
X229000Y352257D01*
Y357500D02*
X236500Y365000D01*
X196000Y350500D02*
X227243D01*
X196500Y382000D02*
X208000D01*
X196000Y382500D02*
X196500Y382000D01*
X208000D02*
X211000Y379000D01*
X231500D01*
X259000Y408000D02*
Y411000D01*
X256000Y414000D02*
X259000Y411000D01*
X249500Y414000D02*
X256000D01*
X240500Y401500D02*
Y414000D01*
X231500Y370000D02*
Y379000D01*
Y370000D02*
X236500Y365000D01*
X245500D02*
X249000D01*
X250500Y366500D02*
Y379000D01*
X256000Y233000D02*
Y239000D01*
X254000Y231000D02*
X256000Y233000D01*
X248500Y231000D02*
X254000D01*
X254000Y241000D02*
X256000Y243000D01*
X254000Y241000D02*
X256000Y239000D01*
X248500Y241000D02*
X254000D01*
X212000Y256000D02*
X214000Y258000D01*
Y284000D01*
X217000Y287000D01*
X225250D01*
X256000Y243000D02*
Y255000D01*
X245000Y331000D02*
X252000Y338000D01*
X226500Y331000D02*
X245000D01*
Y269000D02*
X252000Y262000D01*
X226500Y269000D02*
X245000D01*
X252000Y262000D02*
Y288000D01*
Y312000D01*
Y338000D01*
X211625Y313000D02*
X225250D01*
D65*
X213310Y74100D02*
D03*
Y124900D02*
D03*
Y99500D02*
D03*
D66*
X85900Y128000D02*
D03*
D67*
X111300D02*
D03*
X136700D02*
D03*
X162100D02*
D03*
D68*
X11000Y550000D02*
D03*
Y564000D02*
D03*
X160000Y567250D02*
D03*
X93500Y114000D02*
D03*
X47000Y133000D02*
D03*
X41000Y144000D02*
D03*
X78754Y98755D02*
D03*
X68000Y46000D02*
D03*
X110042Y559625D02*
D03*
X105000Y553000D02*
D03*
X165000Y541999D02*
D03*
X151000Y545000D02*
D03*
X254000Y142000D02*
D03*
X80000Y92000D02*
D03*
X57000Y93000D02*
D03*
Y99000D02*
D03*
X63000Y102000D02*
D03*
X47000Y127000D02*
D03*
X38000Y118000D02*
D03*
Y131500D02*
D03*
X87000Y81000D02*
D03*
X26000Y23000D02*
D03*
X11750Y41118D02*
D03*
X86000Y36000D02*
D03*
X78754Y46252D02*
D03*
X51000Y35000D02*
D03*
X50563Y41750D02*
D03*
X11000Y34000D02*
D03*
X218000Y140000D02*
D03*
X103000Y147000D02*
D03*
X217000Y520000D02*
D03*
X145000Y55000D02*
D03*
X138000Y95000D02*
D03*
X10000Y62000D02*
D03*
X148000Y95000D02*
D03*
X207000Y112000D02*
D03*
X174000Y121000D02*
D03*
X206000Y61000D02*
D03*
X187500Y134417D02*
D03*
X156500Y82500D02*
D03*
X216000Y53000D02*
D03*
X195000Y17000D02*
D03*
X214500Y18500D02*
D03*
X225000Y56000D02*
D03*
X87000Y58000D02*
D03*
X88000Y67000D02*
D03*
X16000Y98000D02*
D03*
Y89000D02*
D03*
X38250Y111750D02*
D03*
X9000Y54000D02*
D03*
X233000Y44000D02*
D03*
X237000Y20000D02*
D03*
X248000Y69000D02*
D03*
X256000Y528000D02*
D03*
X251000Y482500D02*
D03*
X225000Y415000D02*
D03*
X208000Y392000D02*
D03*
X227500Y435000D02*
D03*
X208000Y402000D02*
D03*
X232000Y429000D02*
D03*
Y470000D02*
D03*
X227500Y455000D02*
D03*
Y475000D02*
D03*
X225000Y495000D02*
D03*
X244000Y485000D02*
D03*
X239000D02*
D03*
X233000Y459000D02*
D03*
X198000Y272250D02*
D03*
X262500Y193250D02*
D03*
X262500Y180500D02*
D03*
X256000Y166000D02*
D03*
X245000Y138000D02*
D03*
X253000Y155000D02*
D03*
X249000Y161000D02*
D03*
X263000Y275000D02*
D03*
X261000Y363000D02*
D03*
X260000Y353000D02*
D03*
X14000Y265000D02*
D03*
X14875Y489000D02*
D03*
X257000Y431000D02*
D03*
X9500Y436000D02*
D03*
X17000Y435000D02*
D03*
X190000Y535000D02*
D03*
X185000Y592500D02*
D03*
X36750Y229000D02*
D03*
X188000Y148000D02*
D03*
X13250Y204250D02*
D03*
X95000Y146000D02*
D03*
X60000Y172000D02*
D03*
X261000Y325000D02*
D03*
X17500Y20000D02*
D03*
X17500Y580000D02*
D03*
X21000Y79000D02*
D03*
X96000Y228000D02*
D03*
X114000Y228000D02*
D03*
X63500Y221250D02*
D03*
X195000Y132000D02*
D03*
X37000Y214000D02*
D03*
X242500Y106500D02*
D03*
X231000Y191000D02*
D03*
X231000Y226500D02*
D03*
Y218000D02*
D03*
X215000D02*
D03*
X90000Y176000D02*
D03*
X195000Y216000D02*
D03*
X182000Y222000D02*
D03*
X173000Y194000D02*
D03*
X223000Y177000D02*
D03*
X79500Y285000D02*
D03*
X158500Y310500D02*
D03*
X89000Y320000D02*
D03*
X174500Y211000D02*
D03*
X167000Y246000D02*
D03*
X157000Y249000D02*
D03*
X175000Y238000D02*
D03*
X148418Y222582D02*
D03*
X148000Y211000D02*
D03*
X75000Y148000D02*
D03*
X63000Y146000D02*
D03*
X66000Y229000D02*
D03*
X76500Y290750D02*
D03*
X70000Y290000D02*
D03*
X63500Y290500D02*
D03*
X42250Y288500D02*
D03*
X170250Y360750D02*
D03*
X164375Y358000D02*
D03*
X157000Y356000D02*
D03*
X54875Y342875D02*
D03*
X45000Y347000D02*
D03*
X72000Y335000D02*
D03*
Y328000D02*
D03*
X143500Y346500D02*
D03*
X37000Y258000D02*
D03*
X47000Y324000D02*
D03*
X120000Y346000D02*
D03*
X42000Y296999D02*
D03*
X55000Y360000D02*
D03*
X54500Y405750D02*
D03*
X60000Y409000D02*
D03*
X49000Y403000D02*
D03*
X38000Y186000D02*
D03*
X44000Y183000D02*
D03*
X45000Y176000D02*
D03*
X40188Y443812D02*
D03*
X26000Y420000D02*
D03*
X36000Y397000D02*
D03*
X40000Y326000D02*
D03*
Y335000D02*
D03*
X50000Y353000D02*
D03*
Y336000D02*
D03*
X37000Y281000D02*
D03*
Y222000D02*
D03*
X11000Y235000D02*
D03*
X42000Y318000D02*
D03*
X37000Y270000D02*
D03*
X41000Y304000D02*
D03*
X64000Y199000D02*
D03*
X69000Y180000D02*
D03*
X66000Y189000D02*
D03*
X168000Y184000D02*
D03*
X159000Y179000D02*
D03*
X120000Y191000D02*
D03*
X166000Y177000D02*
D03*
X187500Y121500D02*
D03*
X143000Y179000D02*
D03*
X149000Y177000D02*
D03*
X95000Y172000D02*
D03*
X133000Y181000D02*
D03*
X130000Y146000D02*
D03*
X94000Y181000D02*
D03*
X100000Y180000D02*
D03*
X107000D02*
D03*
X93500Y221250D02*
D03*
X137250Y197750D02*
D03*
X99500Y197500D02*
D03*
X119000Y328000D02*
D03*
X61835Y269000D02*
D03*
X66000Y258500D02*
D03*
X66875Y245500D02*
D03*
X61000Y253500D02*
D03*
Y243500D02*
D03*
X116000Y310000D02*
D03*
X108000Y343000D02*
D03*
X151000Y311000D02*
D03*
X139000Y308000D02*
D03*
X140250Y299750D02*
D03*
X145000Y308000D02*
D03*
X138500Y329500D02*
D03*
X137000Y346000D02*
D03*
X218000Y406000D02*
D03*
X78500Y320500D02*
D03*
X101000Y351000D02*
D03*
X149250Y237250D02*
D03*
X182000Y375000D02*
D03*
X130000Y405000D02*
D03*
X158000Y403000D02*
D03*
X208000Y360000D02*
D03*
X134000Y395000D02*
D03*
X108000Y380000D02*
D03*
X125000Y395000D02*
D03*
X99500Y368500D02*
D03*
X107000Y352000D02*
D03*
X127000Y346000D02*
D03*
X164621Y331000D02*
D03*
X259000Y408000D02*
D03*
X58500Y203000D02*
D03*
X69500Y320500D02*
D03*
X262500Y470000D02*
D03*
X262500Y236500D02*
D03*
X262500Y570000D02*
D03*
Y520000D02*
D03*
Y495000D02*
D03*
Y545000D02*
D03*
Y395000D02*
D03*
Y370000D02*
D03*
Y445000D02*
D03*
Y420000D02*
D03*
X262500Y162750D02*
D03*
X262500Y120000D02*
D03*
Y145000D02*
D03*
Y95000D02*
D03*
Y50000D02*
D03*
Y16000D02*
D03*
Y70000D02*
D03*
X7500D02*
D03*
Y22500D02*
D03*
Y45000D02*
D03*
Y320000D02*
D03*
Y270000D02*
D03*
Y220000D02*
D03*
Y245000D02*
D03*
Y295000D02*
D03*
Y95000D02*
D03*
Y145000D02*
D03*
Y120000D02*
D03*
Y195000D02*
D03*
Y170000D02*
D03*
Y420000D02*
D03*
Y445000D02*
D03*
Y370000D02*
D03*
Y395000D02*
D03*
Y345000D02*
D03*
Y545000D02*
D03*
Y495000D02*
D03*
Y470000D02*
D03*
Y520000D02*
D03*
X22000Y413000D02*
D03*
X40000Y373000D02*
D03*
X33500Y428250D02*
D03*
X18250D02*
D03*
X92750Y567750D02*
D03*
X10000Y532000D02*
D03*
X93000Y538000D02*
D03*
X49000Y552000D02*
D03*
X7500Y570000D02*
D03*
X119000Y223000D02*
D03*
X127000D02*
D03*
X130000Y230000D02*
D03*
X109000Y198000D02*
D03*
X60000Y366000D02*
D03*
X47000Y381000D02*
D03*
X174000Y311250D02*
D03*
X174000Y272000D02*
D03*
Y282000D02*
D03*
X174000Y292000D02*
D03*
X211625Y313000D02*
D03*
X162000Y264000D02*
D03*
X156000Y256999D02*
D03*
X206000Y273000D02*
D03*
X214000Y292000D02*
D03*
X212000Y256000D02*
D03*
X231000Y241000D02*
D03*
X260000Y229000D02*
D03*
X41000Y312000D02*
D03*
X208000Y342000D02*
D03*
X204000Y280000D02*
D03*
X17500Y7500D02*
D03*
X35000D02*
D03*
X60000D02*
D03*
X160000D02*
D03*
X135000D02*
D03*
X110000D02*
D03*
X85000D02*
D03*
X235000D02*
D03*
X210000D02*
D03*
X185000D02*
D03*
X260000D02*
D03*
Y592500D02*
D03*
X210000D02*
D03*
X235000D02*
D03*
X85000D02*
D03*
X110000D02*
D03*
X135000D02*
D03*
X160000D02*
D03*
X60000D02*
D03*
X35000D02*
D03*
X17500D02*
D03*
X135000Y545000D02*
D03*
X102000Y538000D02*
D03*
X15000Y510000D02*
D03*
X51000Y532000D02*
D03*
X112000Y514000D02*
D03*
X64000Y536000D02*
D03*
X25000Y508000D02*
D03*
X69250Y574250D02*
D03*
X119000Y547000D02*
D03*
X45000Y415000D02*
D03*
X42500Y475000D02*
D03*
Y455000D02*
D03*
Y435000D02*
D03*
X65000Y412500D02*
D03*
X85000D02*
D03*
X105000D02*
D03*
X125000D02*
D03*
X145000D02*
D03*
X165000D02*
D03*
X185000D02*
D03*
X205000D02*
D03*
Y497500D02*
D03*
X185000D02*
D03*
X165000D02*
D03*
X145000D02*
D03*
X125000D02*
D03*
X105000D02*
D03*
X85000D02*
D03*
X65000D02*
D03*
X45000Y495000D02*
D03*
D75*
X70000Y77000D02*
D03*
X60000D02*
D03*
X48000Y28000D02*
D03*
X38000D02*
D03*
X195000Y98000D02*
D03*
X185000D02*
D03*
X195000Y66000D02*
D03*
X185000D02*
D03*
X195000Y52000D02*
D03*
X185000D02*
D03*
X195000Y26000D02*
D03*
X185000D02*
D03*
D76*
X135000Y370000D02*
D03*
D77*
X145000Y385500D02*
D03*
X141000D02*
D03*
X137000D02*
D03*
X133000D02*
D03*
X129000D02*
D03*
X125000D02*
D03*
Y354500D02*
D03*
X129000D02*
D03*
X133000D02*
D03*
X137000D02*
D03*
X141000D02*
D03*
X145000D02*
D03*
D78*
X119500Y380000D02*
D03*
Y376000D02*
D03*
Y372000D02*
D03*
Y368000D02*
D03*
Y364000D02*
D03*
Y360000D02*
D03*
X150500D02*
D03*
Y364000D02*
D03*
Y368000D02*
D03*
Y372000D02*
D03*
Y376000D02*
D03*
Y380000D02*
D03*
D79*
X247000Y495000D02*
D03*
Y505000D02*
D03*
D80*
X98000Y26250D02*
D03*
Y32750D02*
D03*
Y39250D02*
D03*
Y45750D02*
D03*
Y52250D02*
D03*
Y58750D02*
D03*
Y65250D02*
D03*
Y71750D02*
D03*
Y78250D02*
D03*
Y84750D02*
D03*
Y91250D02*
D03*
Y97750D02*
D03*
X170000Y26250D02*
D03*
Y32750D02*
D03*
Y39250D02*
D03*
Y45750D02*
D03*
Y52250D02*
D03*
Y58750D02*
D03*
Y65250D02*
D03*
Y71750D02*
D03*
Y78250D02*
D03*
Y84750D02*
D03*
Y91250D02*
D03*
Y97750D02*
D03*
D81*
X86500Y372750D02*
D03*
Y366250D02*
D03*
Y359750D02*
D03*
Y353250D02*
D03*
Y346750D02*
D03*
Y340250D02*
D03*
Y333750D02*
D03*
Y327250D02*
D03*
X27500Y372750D02*
D03*
Y366250D02*
D03*
Y359750D02*
D03*
Y353250D02*
D03*
Y346750D02*
D03*
Y340250D02*
D03*
Y333750D02*
D03*
Y327250D02*
D03*
X81000Y574250D02*
D03*
Y567750D02*
D03*
Y561250D02*
D03*
Y554750D02*
D03*
Y548250D02*
D03*
Y541750D02*
D03*
Y535250D02*
D03*
Y528750D02*
D03*
Y522250D02*
D03*
Y515750D02*
D03*
X22000Y574250D02*
D03*
Y567750D02*
D03*
Y561250D02*
D03*
Y554750D02*
D03*
Y548250D02*
D03*
Y541750D02*
D03*
Y535250D02*
D03*
Y528750D02*
D03*
Y522250D02*
D03*
Y515750D02*
D03*
D82*
X250500Y379000D02*
D03*
X231500D02*
D03*
X241000Y401000D02*
D03*
D83*
X122500Y148500D02*
D03*
X117500D02*
D03*
X122500Y179500D02*
D03*
X117500D02*
D03*
D84*
X107000Y174000D02*
D03*
Y169000D02*
D03*
Y159000D02*
D03*
Y154000D02*
D03*
X133000D02*
D03*
Y159000D02*
D03*
Y174000D02*
D03*
Y169000D02*
D03*
Y164000D02*
D03*
X107000D02*
D03*
D85*
X120000D02*
D03*
D86*
X194000Y251700D02*
D03*
D87*
X202500Y250500D02*
D03*
Y255500D02*
D03*
X185500Y250500D02*
D03*
Y255500D02*
D03*
D88*
X200500Y260500D02*
D03*
X187500Y265500D02*
D03*
Y260500D02*
D03*
D89*
X200500Y266000D02*
D03*
D90*
X226500Y269000D02*
D03*
Y331000D02*
D03*
D91*
X225250Y287000D02*
D03*
Y293500D02*
D03*
Y313000D02*
D03*
Y306500D02*
D03*
Y300000D02*
D03*
D92*
X252000Y338000D02*
D03*
Y262000D02*
D03*
D93*
Y312000D02*
D03*
Y288000D02*
D03*
D94*
X28500Y62000D02*
D03*
X38000D02*
D03*
X47500D02*
D03*
Y90500D02*
D03*
X38000D02*
D03*
X28500D02*
D03*
D95*
X232500Y81100D02*
D03*
Y54900D02*
D03*
X251500D02*
D03*
Y81100D02*
D03*
X242000Y54900D02*
D03*
Y81100D02*
D03*
D96*
X51500Y147000D02*
D03*
Y140500D02*
D03*
Y153500D02*
D03*
X32500D02*
D03*
Y140500D02*
D03*
D97*
X140250Y293500D02*
D03*
Y288500D02*
D03*
Y283500D02*
D03*
Y278500D02*
D03*
Y273500D02*
D03*
Y268500D02*
D03*
Y263500D02*
D03*
Y258500D02*
D03*
Y253500D02*
D03*
Y248500D02*
D03*
Y243500D02*
D03*
Y238500D02*
D03*
Y233500D02*
D03*
Y228500D02*
D03*
Y223500D02*
D03*
Y218500D02*
D03*
X51750D02*
D03*
Y223500D02*
D03*
Y228500D02*
D03*
Y233500D02*
D03*
Y238500D02*
D03*
Y243500D02*
D03*
Y248500D02*
D03*
Y253500D02*
D03*
Y258500D02*
D03*
Y263500D02*
D03*
Y268500D02*
D03*
Y273500D02*
D03*
Y278500D02*
D03*
Y283500D02*
D03*
Y288500D02*
D03*
Y293500D02*
D03*
D98*
X133500Y211750D02*
D03*
X128500D02*
D03*
X123500D02*
D03*
X118500D02*
D03*
X113500D02*
D03*
X108500D02*
D03*
X103500D02*
D03*
X98500D02*
D03*
X93500D02*
D03*
X88500D02*
D03*
X83500D02*
D03*
X78500D02*
D03*
X73500D02*
D03*
X68500D02*
D03*
X63500D02*
D03*
X58500D02*
D03*
Y300250D02*
D03*
X63500D02*
D03*
X68500D02*
D03*
X73500D02*
D03*
X78500D02*
D03*
X83500D02*
D03*
X88500D02*
D03*
X93500D02*
D03*
X98500D02*
D03*
X103500D02*
D03*
X108500D02*
D03*
X113500D02*
D03*
X118500D02*
D03*
X123500D02*
D03*
X128500D02*
D03*
X133500D02*
D03*
D99*
X96000Y256000D02*
D03*
D100*
X183250Y311250D02*
D03*
Y292750D02*
D03*
X198750Y311250D02*
D03*
Y292750D02*
D03*
D101*
X165750Y164500D02*
D03*
X156250D02*
D03*
Y159500D02*
D03*
X165750D02*
D03*
D102*
Y170000D02*
D03*
X156250D02*
D03*
X165750Y154000D02*
D03*
X156250D02*
D03*
D103*
X33000Y23000D02*
X37000Y27000D01*
X26000Y23000D02*
X33000D01*
X89500Y29500D02*
X109000D01*
X83000Y23000D02*
X89500Y29500D01*
X53000Y23000D02*
X83000D01*
X49000Y27000D02*
X53000Y23000D01*
X110000Y97750D02*
X114750D01*
X118000Y38500D02*
Y94500D01*
X109000Y29500D02*
X118000Y38500D01*
X114750Y97750D02*
X118000Y94500D01*
D104*
X72755Y98755D02*
X78754D01*
X68000Y94000D02*
X72755Y98755D01*
X65000Y94000D02*
X68000D01*
X62000Y91000D02*
X65000Y94000D01*
X62000Y86500D02*
Y91000D01*
X61500Y86000D02*
X62000Y86500D01*
X60750Y85250D02*
X61500Y86000D01*
X60750Y77750D02*
Y85250D01*
X60000Y77000D02*
X60750Y77750D01*
X70000Y77000D02*
X79500D01*
X70000Y77000D02*
X70000Y77000D01*
X70000Y67000D02*
Y77000D01*
Y67000D02*
X80000D01*
X84750Y71750D01*
X98000D01*
M02*
